<svg width="255" height="255" viewBox="0 0 255 255" fill="none" xmlns="http://www.w3.org/2000/svg">
<path d="M255 127.5C255 197.916 197.916 255 127.5 255C57.0837 255 0 197.916 0 127.5C0 57.0837 57.0837 0 127.5 0C197.916 0 255 57.0837 255 127.5Z" fill="#E2E6F1" fill-opacity="0.2"/>
<path d="M94.2363 111.159C94.6881 108.688 94.6881 106.155 94.2363 103.684C94.1029 102.932 94.0692 102.165 94.136 101.404C94.3207 99.5932 95.5612 98.8436 97.3033 99.3767C98.8869 99.8729 100.471 100.38 102.107 100.802C102.919 101.025 103.77 101.063 104.598 100.914C105.427 100.765 106.211 100.433 106.895 99.9416C108.97 98.6035 110.46 96.5284 111.065 94.1349C111.72 91.5852 112.343 89.0303 113.087 86.507C113.554 85.0493 114.109 83.6214 114.75 82.2312C115.436 80.6347 116.629 79.3084 118.144 78.4568C118.547 78.1972 119.008 78.0427 119.486 78.0077C119.963 77.9726 120.442 78.0581 120.878 78.2562C122.066 78.7841 123.249 79.312 124.405 79.8399C127.893 81.6429 131.567 83.059 135.363 84.0629C138.14 84.7439 140.97 84.7439 143.809 84.7703C146.746 84.7075 149.632 85.5477 152.076 87.1774C152.868 87.7053 153.66 88.2332 154.51 88.703C156.722 90.0608 159.317 90.6578 161.9 90.4028C163.484 90.2497 165.02 90.0227 166.577 89.8168C167.101 89.718 167.644 89.8246 168.092 90.1144C168.54 90.4043 168.859 90.8553 168.984 91.3741C169.074 91.6951 169.115 92.0279 169.106 92.3612C169 97.2863 168.868 102.217 168.762 107.142C168.727 108.976 167.968 110.721 166.651 111.998C164.286 114.437 164.492 118.718 167.147 120.819C169.558 122.729 171.366 125.296 172.352 128.21C173.007 130.062 173.661 131.905 174.374 133.736C175.408 136.483 177.082 138.944 179.257 140.916C179.579 141.201 179.89 141.502 180.191 141.808C181.637 143.296 181.917 144.447 180.756 146.184C177.589 150.887 173.936 155.1 168.303 156.995C166.086 157.744 163.88 158.579 161.641 159.233C156.326 160.854 153.037 164.364 151.612 169.701C151.29 170.899 150.91 172.087 150.487 173.254C149.854 175.038 148.756 175.624 147.019 174.911C144.908 174.04 142.69 173.739 140.468 173.438C139.612 173.319 138.743 173.335 137.892 173.486C135.425 173.911 132.893 173.746 130.502 173.005C129.583 172.747 128.67 172.478 127.751 172.203C125.277 171.39 122.6 171.444 120.16 172.356C118.461 173.039 116.602 173.222 114.802 172.884C113.351 172.599 111.883 172.356 110.463 171.934C108.822 171.464 108.278 170.419 108.679 168.767C109.746 164.248 110.414 159.645 110.674 155.01C110.989 150.333 109.699 145.689 107.016 141.845C103.506 136.703 98.776 132.934 93.5236 129.777C89.9176 127.684 86.1317 125.918 82.2112 124.499C80.1524 123.723 78.1306 122.852 76.1036 122.002C75.8985 121.929 75.7098 121.818 75.5481 121.672C75.3864 121.527 75.2549 121.351 75.1613 121.155C75.0676 120.959 75.0136 120.746 75.0022 120.529C74.9909 120.312 75.0226 120.095 75.0954 119.89C75.2425 119.39 75.5046 118.931 75.8608 118.549C79.7987 114.606 84.3544 111.893 90.0766 111.555C91.428 111.481 92.8005 111.296 94.2363 111.159ZM79.7037 119.895C80.3214 120.154 80.7912 120.36 81.2874 120.55C84.1274 121.696 87.0096 122.746 89.8021 123.997C96.2008 126.76 101.975 130.787 106.779 135.837C111.957 141.38 114.739 147.852 114.169 155.527C113.963 158.388 113.53 161.228 113.161 164.074C112.965 165.62 112.691 167.151 112.448 168.693C114.95 169.58 117.294 169.712 119.707 168.761C120.747 168.421 121.828 168.22 122.921 168.165C125.804 167.864 128.512 168.693 131.225 169.49C132.777 169.96 134.366 170.493 136.013 170.155C139.592 169.416 143.049 170.044 146.491 170.952C146.755 171.021 147.019 171.042 147.315 171.089C147.806 169.659 148.26 168.302 148.724 166.951C150.445 161.941 153.713 158.399 158.701 156.536C160.987 155.686 163.278 154.815 165.622 154.155C170.937 152.656 174.448 148.992 177.441 144.653C177.483 144.59 177.441 144.468 177.441 144.373L177.657 144.162C177.291 143.934 176.938 143.683 176.601 143.413C173.987 140.997 171.995 137.985 170.795 134.634C170.267 133.156 169.665 131.683 169.174 130.184C168.266 127.434 166.851 125.079 164.471 123.321C162.903 122.093 161.883 120.297 161.631 118.322C161.034 114.912 161.567 111.835 164.165 109.348C164.493 109.034 164.75 108.651 164.915 108.227C165.081 107.803 165.153 107.348 165.125 106.894C165.125 105.748 165.199 104.597 165.226 103.447C165.296 100.385 165.356 97.3233 165.405 94.2616C165.405 94.1349 165.294 94.0082 165.226 93.8657C161.657 94.3144 158.11 94.3566 154.768 92.868C152.998 92.0277 151.293 91.0554 149.669 89.9594C147.993 88.9209 146.061 88.3723 144.089 88.3757C142.891 88.3757 141.693 88.3282 140.494 88.3282C137.81 88.2902 135.144 87.8726 132.576 87.0877C129.192 86.0422 125.911 84.6887 122.773 83.0441C121.675 82.5162 120.562 81.9884 119.237 81.3338C118.429 83.0758 117.532 84.6172 116.993 86.2695C116.043 89.1781 115.278 92.1448 114.507 95.1009C113.85 97.671 112.433 99.9834 110.442 101.736C107.708 104.202 104.577 105.278 100.903 104.302C99.9479 104.048 98.9819 103.843 97.9367 103.589C97.9367 103.895 97.9367 104.075 97.9367 104.249C98.2386 106.823 98.1943 109.426 97.8047 111.988C97.488 113.957 96.7912 114.627 94.7958 114.791C92.8004 114.954 90.7839 115.086 88.7938 115.377C85.3614 115.881 82.1782 117.464 79.7037 119.895V119.895Z" fill="#25276E"/>
<path d="M79.7051 119.895C82.178 117.445 85.3678 115.847 88.811 115.334C90.8011 115.044 92.8123 114.933 94.813 114.748C96.8137 114.563 97.5052 113.914 97.8219 111.945C98.2115 109.383 98.2558 106.78 97.9539 104.206C97.9539 104.032 97.9539 103.853 97.9539 103.546C99.0096 103.8 99.9651 104.006 100.921 104.259C104.616 105.236 107.725 104.159 110.459 101.694C112.45 99.9406 113.867 97.6282 114.524 95.0581C115.295 92.102 116.06 89.1353 117.01 86.2267C117.538 84.5745 118.446 83.0594 119.254 81.291C120.579 81.9298 121.693 82.4471 122.791 83.0013C125.928 84.6459 129.209 85.9995 132.593 87.0449C135.161 87.8298 137.827 88.2475 140.512 88.2854C141.71 88.2854 142.908 88.2854 144.106 88.333C146.078 88.3296 148.011 88.8782 149.686 89.9166C151.311 91.0127 153.015 91.985 154.785 92.8252C158.127 94.3138 161.648 94.2716 165.243 93.8229C165.311 93.9654 165.422 94.0921 165.422 94.2188C165.369 97.2805 165.31 100.342 165.243 103.404C165.243 104.555 165.132 105.706 165.142 106.851C165.17 107.305 165.098 107.76 164.933 108.184C164.767 108.608 164.51 108.991 164.182 109.306C161.585 111.803 161.051 114.88 161.648 118.28C161.9 120.255 162.921 122.051 164.488 123.279C166.869 125.047 168.283 127.401 169.191 130.141C169.682 131.64 170.247 133.113 170.812 134.591C172.012 137.943 174.004 140.954 176.619 143.37C176.955 143.641 177.308 143.891 177.674 144.119L177.458 144.331C177.458 144.426 177.495 144.547 177.458 144.61C174.465 148.96 170.954 152.623 165.639 154.112C163.295 154.772 161.004 155.643 158.718 156.493C153.73 158.356 150.462 161.898 148.741 166.908C148.277 168.259 147.823 169.616 147.332 171.047C147.041 170.999 146.772 170.978 146.508 170.909C143.067 170.001 139.609 169.373 136.03 170.112C134.383 170.45 132.794 169.917 131.242 169.447C128.529 168.629 125.821 167.821 122.938 168.122C121.845 168.177 120.764 168.378 119.724 168.719C117.311 169.669 114.973 169.537 112.465 168.65C112.708 167.109 112.993 165.578 113.178 164.031C113.547 161.186 113.98 158.346 114.186 155.485C114.714 147.809 111.953 141.337 106.796 135.795C101.992 130.745 96.2179 126.717 89.8192 123.954C87.0267 122.703 84.1446 121.653 81.3046 120.507C80.7925 120.359 80.3227 120.132 79.7051 119.895ZM131.722 155.184L132.113 155.11C132.34 155.569 132.583 156.018 132.783 156.488C133.232 157.543 133.617 158.631 134.119 159.655C134.287 160.09 134.621 160.441 135.048 160.63C135.474 160.819 135.959 160.831 136.394 160.663C136.83 160.495 137.18 160.161 137.369 159.734C137.559 159.308 137.57 158.823 137.402 158.388C137.204 157.749 136.966 157.123 136.69 156.514C136.362 155.727 136.009 154.93 135.792 154.45C136.426 153.468 137.138 152.755 137.376 151.906C137.614 151.056 137.344 150.074 137.292 149.076C137.497 149.198 137.619 149.266 137.735 149.345C138.791 150.084 139.635 150.116 140.306 149.435C140.976 148.754 140.955 147.904 140.306 146.933C140.21 146.766 140.097 146.611 139.968 146.468C138.416 144.916 136.869 143.354 135.291 141.823C134.372 140.936 133.401 140.113 132.514 139.316C133.723 135.594 132.942 132.897 130.318 131.345C129.219 130.688 127.926 130.435 126.661 130.628C125.395 130.82 124.236 131.447 123.382 132.4C122.53 133.326 122.024 134.518 121.951 135.774C121.894 136.734 122.068 137.695 122.458 138.575C122.848 139.455 123.444 140.228 124.195 140.831C123.693 141.976 123.176 142.942 122.833 143.998C121.988 146.579 121.17 149.171 120.463 151.789C120.39 151.996 120.361 152.216 120.378 152.435C120.394 152.654 120.456 152.867 120.559 153.06C120.663 153.254 120.805 153.424 120.977 153.559C121.15 153.695 121.348 153.793 121.561 153.848C122 153.988 122.477 153.95 122.89 153.743C123.302 153.536 123.617 153.176 123.767 152.74C124.015 152.18 124.163 151.573 124.395 150.876C125.493 152.671 125.404 155.242 128.054 155.743C128.133 156.414 128.223 157.026 128.275 157.644C128.386 158.932 128.439 160.225 128.581 161.508C128.724 162.79 129.452 163.471 130.487 163.413C131.522 163.355 132.15 162.574 132.108 161.302C132.06 159.919 131.923 158.536 131.828 157.147C131.817 156.477 131.759 155.828 131.722 155.184ZM142.095 126.995C142.127 127.433 142.143 127.671 142.153 127.908C142.238 129.629 142.306 131.35 142.401 133.071C142.383 133.436 142.487 133.796 142.697 134.095C142.908 134.394 143.213 134.613 143.563 134.718C143.83 134.788 144.11 134.801 144.383 134.755C144.656 134.71 144.916 134.607 145.146 134.454C145.569 134.018 145.814 133.44 145.833 132.833C145.864 131.065 145.753 129.296 145.695 127.523C145.695 127.122 145.426 126.594 146.038 126.467C146.651 126.34 146.661 126.879 146.788 127.269C147.253 128.674 147.717 130.083 148.198 131.492C148.535 132.485 149.253 132.986 150.114 132.87C150.572 132.806 150.986 132.564 151.266 132.196C151.547 131.829 151.672 131.365 151.613 130.906C151.53 130.247 151.374 129.599 151.148 128.974C150.768 127.75 150.346 126.541 149.924 125.279C151.439 124.224 151.46 122.751 151.175 121.215C151.038 120.46 150.953 119.7 150.789 118.95C150.639 118.529 150.651 118.067 150.824 117.655C150.997 117.242 151.318 116.91 151.724 116.722C153.719 115.508 154.416 113.434 154.738 111.254C154.829 110.823 154.753 110.374 154.524 109.999C154.295 109.623 153.932 109.349 153.508 109.232C153.06 109.142 152.595 109.223 152.204 109.46C151.813 109.696 151.525 110.071 151.396 110.509C151.185 111.037 151.096 111.623 150.869 112.151C150.642 112.679 150.288 113.281 149.955 113.919L146.651 110.467C146.809 110.082 146.92 109.823 147.02 109.559C148.451 105.669 146.07 102.169 141.969 102.095C140.955 102.079 139.963 102.389 139.137 102.978C138.312 103.567 137.697 104.404 137.381 105.368C136.706 107.553 136.774 109.649 138.511 111.375C139.039 111.903 138.923 112.336 138.643 112.906C138.293 113.634 137.984 114.381 137.719 115.144C136.885 117.435 136.093 119.737 135.238 122.006C134.816 123.147 134.995 124.002 135.877 124.503C136.758 125.005 137.83 124.693 138.469 123.696C138.69 123.342 138.854 122.941 139.097 122.455C139.915 124.16 139.503 126.557 142.095 126.995ZM114.55 112.436C113.901 111.66 113.437 111.148 113.03 110.594C112.692 110.134 112.502 109.575 112.112 109.142C111.849 108.808 111.474 108.581 111.056 108.505C110.638 108.428 110.207 108.507 109.843 108.726C109.479 108.945 109.208 109.29 109.08 109.695C108.953 110.1 108.978 110.538 109.15 110.926C110.169 113.296 111.642 115.276 114.302 115.936C114.674 115.992 115.014 116.175 115.267 116.452C115.52 116.73 115.669 117.086 115.691 117.461C115.779 118.078 115.973 118.675 116.266 119.225C116.556 119.815 117.006 120.312 117.565 120.66C117.843 120.779 118.082 120.976 118.252 121.227C118.423 121.478 118.517 121.772 118.525 122.075C118.707 123.352 118.956 124.619 119.27 125.871C119.315 126.096 119.404 126.31 119.534 126.5C119.663 126.69 119.829 126.852 120.022 126.976C120.215 127.101 120.431 127.185 120.657 127.225C120.883 127.264 121.115 127.258 121.339 127.206C121.76 127.092 122.127 126.833 122.375 126.475C122.623 126.116 122.737 125.682 122.696 125.248C122.638 124.677 122.541 124.111 122.405 123.553C122.284 122.888 122.147 122.228 122.015 121.568C122.335 121.738 122.593 122.004 122.754 122.328C123.113 123.004 123.419 123.712 123.809 124.371C124.374 125.343 125.235 125.67 126.1 125.295C126.515 125.097 126.842 124.752 127.015 124.326C127.189 123.9 127.198 123.425 127.04 122.994C126.901 122.534 126.715 122.09 126.486 121.669C125.958 120.703 125.43 119.752 124.855 118.702C126.174 117.646 126.201 116.284 125.652 114.711L126.57 115.033C126.903 115.18 127.277 115.207 127.627 115.111C127.978 115.015 128.285 114.801 128.497 114.505C128.736 114.205 128.866 113.833 128.866 113.45C128.866 113.066 128.736 112.694 128.497 112.394C128.196 111.971 127.841 111.59 127.441 111.259C126.038 109.972 124.356 109.027 122.527 108.498C122.59 108.007 122.632 107.59 122.706 107.178C122.889 106.305 122.839 105.399 122.561 104.551C122.283 103.704 121.787 102.944 121.123 102.348C120.191 101.465 118.956 100.973 117.673 100.973C116.389 100.973 115.155 101.465 114.223 102.348C113.216 103.296 112.62 104.601 112.565 105.983C112.509 107.365 112.999 108.714 113.928 109.738C114.545 110.419 114.846 111.095 114.55 112.431V112.436ZM158.512 137.056C158.519 136.806 158.476 136.557 158.384 136.324C158.292 136.092 158.154 135.88 157.977 135.702C157.801 135.524 157.591 135.384 157.359 135.29C157.127 135.197 156.878 135.151 156.628 135.156C155.572 135.188 154.865 136.069 154.875 137.347C154.875 138.466 155.577 139.236 156.575 139.252C156.849 139.242 157.118 139.176 157.366 139.058C157.614 138.94 157.835 138.774 158.016 138.568C158.198 138.362 158.335 138.121 158.42 137.86C158.506 137.6 158.537 137.324 158.512 137.051V137.056ZM151.296 143.85C151.058 143.857 150.824 143.913 150.608 144.012C150.392 144.112 150.199 144.255 150.039 144.431C149.879 144.608 149.757 144.814 149.679 145.039C149.601 145.264 149.569 145.503 149.586 145.74C149.575 145.99 149.615 146.239 149.704 146.472C149.793 146.706 149.928 146.919 150.102 147.098C150.276 147.277 150.485 147.419 150.716 147.515C150.946 147.611 151.194 147.659 151.444 147.656C151.671 147.651 151.894 147.6 152.1 147.505C152.306 147.411 152.49 147.275 152.642 147.106C152.793 146.937 152.908 146.739 152.98 146.524C153.052 146.309 153.079 146.082 153.059 145.856C153.084 145.607 153.057 145.355 152.981 145.116C152.904 144.877 152.779 144.657 152.614 144.468C152.449 144.28 152.246 144.127 152.02 144.02C151.793 143.913 151.547 143.853 151.296 143.845V143.85ZM128.597 99.5504C128.822 99.5655 129.048 99.5345 129.261 99.4593C129.473 99.3841 129.669 99.2664 129.834 99.1132C130 98.96 130.132 98.7746 130.224 98.5684C130.315 98.3622 130.363 98.1395 130.366 97.914C130.381 97.6911 130.352 97.4674 130.28 97.2557C130.209 97.044 130.096 96.8485 129.949 96.6804C129.802 96.5122 129.623 96.3747 129.423 96.2757C129.223 96.1767 129.005 96.1181 128.782 96.1033C128.545 96.0905 128.308 96.1256 128.085 96.2064C127.862 96.2872 127.657 96.4121 127.483 96.5737C127.309 96.7353 127.17 96.9302 127.073 97.1469C126.976 97.3635 126.923 97.5975 126.919 97.8348C126.914 98.0572 126.953 98.2783 127.035 98.4853C127.116 98.6923 127.238 98.8809 127.394 99.0401C127.549 99.1994 127.735 99.3261 127.939 99.4128C128.144 99.4995 128.364 99.5445 128.587 99.5451L128.597 99.5504Z" fill="#C4CDE4"/>
<path d="M131.722 155.185C131.759 155.829 131.801 156.478 131.844 157.128C131.939 158.516 132.076 159.899 132.123 161.282C132.166 162.581 131.532 163.357 130.503 163.394C129.473 163.43 128.74 162.771 128.597 161.488C128.455 160.205 128.402 158.912 128.291 157.624C128.238 157.006 128.148 156.394 128.069 155.723C125.43 155.196 125.509 152.651 124.411 150.856C124.179 151.553 124.031 152.16 123.783 152.72C123.632 153.156 123.317 153.516 122.905 153.723C122.493 153.93 122.016 153.968 121.576 153.828C121.364 153.773 121.165 153.675 120.993 153.539C120.821 153.404 120.678 153.234 120.575 153.04C120.472 152.847 120.41 152.634 120.393 152.415C120.377 152.196 120.406 151.977 120.478 151.77C121.186 149.13 122.004 146.559 122.849 143.978C123.192 142.922 123.709 141.972 124.21 140.811C123.46 140.208 122.864 139.435 122.474 138.555C122.083 137.675 121.91 136.715 121.967 135.754C122.04 134.498 122.546 133.306 123.398 132.381C124.252 131.427 125.411 130.8 126.676 130.608C127.942 130.415 129.235 130.669 130.334 131.325C132.973 132.877 133.739 135.548 132.53 139.296C133.417 140.093 134.388 140.916 135.306 141.803C136.89 143.334 138.432 144.897 139.984 146.449C140.112 146.591 140.226 146.747 140.321 146.913C140.944 147.884 140.928 148.766 140.321 149.415C139.714 150.065 138.806 150.065 137.751 149.325C137.634 149.246 137.513 149.178 137.307 149.056C137.36 150.054 137.619 151.036 137.392 151.886C137.165 152.736 136.452 153.469 135.808 154.43C136.024 154.958 136.378 155.708 136.705 156.494C136.982 157.103 137.22 157.729 137.418 158.368C137.586 158.803 137.574 159.288 137.385 159.715C137.196 160.141 136.845 160.475 136.41 160.643C135.974 160.811 135.49 160.799 135.063 160.61C134.637 160.421 134.303 160.07 134.135 159.635C133.633 158.579 133.248 157.523 132.799 156.468C132.598 155.998 132.356 155.549 132.129 155.09L131.722 155.185ZM133.876 150.93C133.48 149.135 133.137 147.562 132.82 145.989C132.549 144.523 131.73 143.215 130.529 142.331C129.262 141.391 128.138 141.613 127.277 142.965C127.021 143.333 126.851 143.755 126.78 144.198C126.71 144.641 126.741 145.095 126.871 145.525C127.341 147.219 127.8 148.919 128.286 150.608C128.428 151.094 128.655 151.553 128.866 152.092L133.876 150.93ZM127.541 134.244C127.278 134.232 127.014 134.275 126.768 134.371C126.522 134.467 126.299 134.613 126.113 134.801C125.927 134.988 125.782 135.213 125.688 135.46C125.594 135.706 125.553 135.97 125.567 136.234C125.567 136.794 125.79 137.331 126.186 137.727C126.582 138.123 127.119 138.346 127.679 138.346C127.93 138.341 128.179 138.288 128.41 138.188C128.64 138.088 128.849 137.943 129.024 137.762C129.199 137.581 129.337 137.368 129.43 137.133C129.522 136.899 129.567 136.649 129.563 136.398C129.581 136.122 129.543 135.846 129.45 135.586C129.357 135.326 129.212 135.088 129.023 134.886C128.835 134.684 128.607 134.523 128.354 134.413C128.101 134.302 127.828 134.245 127.552 134.244H127.541Z" fill="#25276E"/>
<path d="M142.093 126.995C139.501 126.562 139.913 124.165 139.074 122.423C138.831 122.909 138.667 123.31 138.446 123.664C137.807 124.662 136.741 124.984 135.854 124.472C134.967 123.959 134.798 123.115 135.215 121.975C136.07 119.694 136.862 117.393 137.696 115.112C137.961 114.349 138.27 113.602 138.62 112.874C138.9 112.304 139.016 111.871 138.488 111.343C136.751 109.617 136.683 107.521 137.358 105.336C137.674 104.372 138.289 103.535 139.114 102.946C139.94 102.357 140.932 102.048 141.945 102.063C146.047 102.121 148.428 105.637 146.997 109.527C146.897 109.791 146.786 110.055 146.628 110.435L149.932 113.888C150.265 113.249 150.598 112.7 150.846 112.119C151.094 111.538 151.152 111.011 151.373 110.477C151.502 110.039 151.79 109.665 152.181 109.428C152.572 109.192 153.037 109.11 153.485 109.2C153.909 109.317 154.272 109.591 154.501 109.967C154.73 110.343 154.806 110.791 154.715 111.222C154.393 113.402 153.696 115.476 151.701 116.691C151.295 116.878 150.974 117.211 150.801 117.623C150.628 118.035 150.616 118.497 150.766 118.918C150.93 119.668 151.015 120.428 151.152 121.183C151.437 122.719 151.416 124.165 149.901 125.248C150.323 126.514 150.745 127.723 151.125 128.943C151.351 129.568 151.507 130.216 151.59 130.875C151.649 131.333 151.524 131.797 151.243 132.164C150.963 132.532 150.549 132.774 150.091 132.838C149.23 132.955 148.507 132.453 148.175 131.461C147.694 130.062 147.23 128.652 146.765 127.238C146.638 126.847 146.654 126.277 146.015 126.435C145.377 126.594 145.662 127.116 145.672 127.491C145.73 129.265 145.841 131.033 145.81 132.802C145.791 133.408 145.546 133.986 145.123 134.422C144.893 134.575 144.633 134.678 144.36 134.723C144.087 134.769 143.807 134.756 143.54 134.686C143.19 134.581 142.885 134.362 142.674 134.063C142.464 133.765 142.36 133.404 142.378 133.039C142.283 131.318 142.215 129.597 142.13 127.876C142.141 127.665 142.125 127.428 142.093 126.995ZM147.699 122.381C147.383 120.465 147.003 118.786 146.865 117.102C146.702 115.118 145.213 114.167 143.967 113.043C143.857 112.914 143.713 112.816 143.552 112.761C143.391 112.706 143.218 112.694 143.051 112.728C142.884 112.762 142.73 112.84 142.603 112.954C142.476 113.068 142.382 113.213 142.331 113.376C141.861 114.611 141.275 115.835 141.761 117.245C141.937 117.94 142.073 118.645 142.167 119.356C142.452 120.639 142.769 121.911 143.096 123.3L147.699 122.381ZM140.631 107.426C140.599 108.482 141.159 109.253 141.982 109.284C142.464 109.255 142.916 109.048 143.254 108.704C143.591 108.36 143.789 107.903 143.809 107.421C143.827 107.183 143.793 106.943 143.711 106.719C143.628 106.494 143.499 106.29 143.33 106.12C143.162 105.95 142.96 105.818 142.736 105.733C142.513 105.648 142.274 105.611 142.035 105.626C141.175 105.61 140.663 106.27 140.631 107.421V107.426Z" fill="#25276E"/>
<path d="M114.55 112.431C114.846 111.095 114.55 110.419 113.896 109.707C112.967 108.682 112.478 107.333 112.533 105.951C112.588 104.569 113.184 103.264 114.191 102.316C115.123 101.434 116.358 100.941 117.641 100.941C118.925 100.941 120.159 101.434 121.091 102.316C121.755 102.912 122.251 103.672 122.529 104.52C122.807 105.367 122.857 106.273 122.674 107.147C122.601 107.558 122.558 107.975 122.495 108.466C124.324 108.995 126.006 109.94 127.41 111.227C127.809 111.558 128.164 111.939 128.465 112.362C128.704 112.662 128.834 113.034 128.834 113.418C128.834 113.801 128.704 114.173 128.465 114.473C128.254 114.769 127.947 114.983 127.596 115.08C127.245 115.176 126.871 115.148 126.539 115.001L125.62 114.679C126.148 116.263 126.148 117.641 124.823 118.67C125.398 119.726 125.942 120.671 126.454 121.637C126.683 122.059 126.869 122.503 127.008 122.962C127.166 123.394 127.157 123.869 126.984 124.294C126.81 124.72 126.484 125.065 126.069 125.263C125.203 125.638 124.343 125.311 123.778 124.34C123.398 123.68 123.091 122.972 122.722 122.297C122.562 121.972 122.303 121.706 121.983 121.536C122.115 122.196 122.252 122.856 122.374 123.521C122.509 124.079 122.606 124.645 122.664 125.216C122.705 125.65 122.592 126.085 122.343 126.443C122.095 126.801 121.728 127.06 121.307 127.174C121.083 127.226 120.852 127.232 120.625 127.193C120.399 127.153 120.183 127.069 119.99 126.944C119.797 126.82 119.631 126.658 119.502 126.468C119.373 126.278 119.283 126.064 119.238 125.839C118.924 124.587 118.676 123.32 118.494 122.043C118.483 121.749 118.39 121.464 118.226 121.22C118.062 120.975 117.833 120.782 117.565 120.66C117.008 120.303 116.564 119.796 116.282 119.198C115.989 118.648 115.794 118.052 115.706 117.435C115.685 117.06 115.536 116.704 115.283 116.426C115.03 116.148 114.689 115.966 114.318 115.909C111.679 115.249 110.185 113.27 109.166 110.9C108.993 110.512 108.968 110.074 109.096 109.669C109.224 109.263 109.495 108.919 109.859 108.7C110.223 108.48 110.654 108.402 111.072 108.478C111.489 108.555 111.865 108.782 112.127 109.116C112.497 109.548 112.708 110.108 113.046 110.567C113.436 111.158 113.901 111.655 114.55 112.431ZM118.246 111.491L119.27 117.155L122.321 116.041L119.908 110.995L118.246 111.491ZM119.132 106.212C119.145 105.998 119.113 105.785 119.038 105.584C118.964 105.383 118.849 105.2 118.7 105.046C118.551 104.893 118.372 104.771 118.174 104.69C117.975 104.609 117.763 104.57 117.549 104.576C117.164 104.617 116.809 104.804 116.558 105.099C116.307 105.393 116.178 105.773 116.197 106.159C116.179 106.373 116.203 106.587 116.27 106.791C116.336 106.994 116.443 107.182 116.584 107.342C116.726 107.503 116.898 107.634 117.091 107.726C117.284 107.819 117.493 107.871 117.707 107.88C118.12 107.844 118.502 107.647 118.771 107.332C119.041 107.018 119.176 106.61 119.148 106.196L119.132 106.212Z" fill="#25276E"/>
<path d="M158.512 137.051C158.536 137.324 158.504 137.599 158.418 137.859C158.333 138.119 158.195 138.359 158.014 138.564C157.833 138.77 157.612 138.936 157.364 139.054C157.117 139.171 156.848 139.237 156.575 139.247C155.577 139.247 154.891 138.461 154.875 137.342C154.875 136.064 155.566 135.182 156.628 135.151C156.878 135.146 157.126 135.191 157.358 135.285C157.59 135.379 157.801 135.519 157.977 135.697C158.153 135.875 158.292 136.086 158.384 136.319C158.476 136.552 158.519 136.801 158.512 137.051V137.051Z" fill="#25276E"/>
<path d="M151.295 143.845C151.545 143.853 151.791 143.912 152.017 144.019C152.243 144.126 152.445 144.278 152.61 144.466C152.775 144.654 152.9 144.874 152.977 145.112C153.054 145.35 153.082 145.602 153.058 145.851C153.077 146.077 153.05 146.304 152.978 146.519C152.907 146.734 152.791 146.932 152.64 147.101C152.489 147.269 152.304 147.405 152.098 147.5C151.892 147.595 151.669 147.646 151.442 147.651C151.193 147.654 150.945 147.606 150.714 147.51C150.483 147.414 150.275 147.272 150.101 147.093C149.927 146.913 149.791 146.7 149.703 146.467C149.614 146.233 149.574 145.984 149.584 145.735C149.568 145.497 149.599 145.259 149.677 145.034C149.755 144.809 149.878 144.602 150.037 144.426C150.197 144.249 150.391 144.107 150.607 144.007C150.823 143.907 151.057 143.852 151.295 143.845V143.845Z" fill="#25276E"/>
<path d="M128.586 99.5455C128.36 99.5498 128.136 99.5083 127.926 99.4235C127.717 99.3387 127.527 99.2123 127.367 99.052C127.208 98.8916 127.083 98.7007 126.999 98.4906C126.916 98.2806 126.876 98.0558 126.881 97.8298C126.886 97.5925 126.938 97.3585 127.035 97.1418C127.132 96.9252 127.272 96.7302 127.446 96.5687C127.62 96.4071 127.824 96.2822 128.047 96.2013C128.271 96.1205 128.508 96.0855 128.745 96.0983C128.968 96.113 129.186 96.1716 129.386 96.2706C129.586 96.3696 129.765 96.5072 129.912 96.6753C130.059 96.8435 130.172 97.039 130.243 97.2507C130.314 97.4624 130.344 97.6861 130.328 97.909C130.326 98.1322 130.278 98.3525 130.189 98.5569C130.099 98.7612 129.969 98.9453 129.806 99.0981C129.643 99.251 129.451 99.3694 129.242 99.4462C129.032 99.5231 128.809 99.5568 128.586 99.5455V99.5455Z" fill="#25276E"/>
<path d="M133.876 150.93L128.845 152.091C128.634 151.563 128.407 151.094 128.265 150.608C127.779 148.919 127.32 147.219 126.85 145.524C126.72 145.095 126.689 144.641 126.759 144.198C126.83 143.754 127 143.333 127.257 142.964C128.117 141.613 129.241 141.381 130.508 142.331C131.709 143.215 132.528 144.523 132.799 145.989C133.137 147.583 133.48 149.135 133.876 150.93Z" fill="white"/>
<path d="M127.553 134.243C127.828 134.245 128.1 134.302 128.352 134.413C128.604 134.523 128.831 134.684 129.019 134.885C129.207 135.086 129.352 135.324 129.445 135.583C129.537 135.842 129.576 136.117 129.559 136.391C129.563 136.643 129.518 136.893 129.425 137.127C129.333 137.361 129.195 137.575 129.02 137.756C128.845 137.937 128.636 138.081 128.406 138.181C128.175 138.282 127.926 138.335 127.675 138.339C127.115 138.339 126.577 138.117 126.181 137.721C125.786 137.325 125.563 136.788 125.563 136.228C125.549 135.963 125.591 135.698 125.687 135.451C125.782 135.204 125.928 134.979 126.116 134.792C126.304 134.605 126.529 134.459 126.776 134.365C127.024 134.27 127.289 134.229 127.553 134.243V134.243Z" fill="white"/>
<path d="M147.699 122.376L143.096 123.278C142.769 121.89 142.452 120.639 142.167 119.335C142.072 118.624 141.937 117.919 141.761 117.223C141.275 115.814 141.861 114.584 142.331 113.354C142.382 113.192 142.476 113.046 142.603 112.932C142.729 112.818 142.884 112.741 143.051 112.707C143.218 112.673 143.391 112.684 143.552 112.739C143.713 112.795 143.856 112.892 143.967 113.021C145.213 114.146 146.702 115.096 146.865 117.081C147.002 118.781 147.382 120.459 147.699 122.376Z" fill="white"/>
<path d="M140.63 107.422C140.662 106.271 141.158 105.611 142.034 105.621C142.273 105.606 142.512 105.643 142.736 105.728C142.959 105.813 143.162 105.945 143.33 106.115C143.498 106.285 143.627 106.49 143.71 106.714C143.792 106.938 143.826 107.178 143.808 107.416C143.788 107.898 143.59 108.355 143.253 108.699C142.916 109.043 142.463 109.25 141.982 109.28C141.142 109.248 140.599 108.52 140.63 107.422Z" fill="white"/>
<path d="M118.236 111.491L119.899 110.995L122.312 116.042L119.26 117.155L118.236 111.491Z" fill="white"/>
<path d="M119.148 106.197C119.164 106.601 119.025 106.997 118.759 107.302C118.493 107.608 118.12 107.8 117.717 107.838C117.503 107.829 117.294 107.777 117.101 107.684C116.908 107.592 116.735 107.461 116.594 107.301C116.453 107.14 116.346 106.952 116.28 106.749C116.213 106.545 116.189 106.331 116.207 106.118C116.188 105.731 116.316 105.351 116.568 105.057C116.819 104.762 117.174 104.575 117.559 104.534C117.775 104.527 117.991 104.566 118.192 104.649C118.393 104.731 118.574 104.855 118.724 105.011C118.873 105.168 118.989 105.355 119.062 105.559C119.135 105.763 119.164 105.98 119.148 106.197Z" fill="white"/>
</svg>
