<svg width="281" height="158" viewBox="0 0 281 158" fill="none" xmlns="http://www.w3.org/2000/svg">
<path d="M0 0H281V158H0V0Z" fill="#E2E6F1" fill-opacity="0.2"/>
<path d="M12 81.2317L12.2358 81L12 81.2317Z" fill="#E6E6ED"/>
<path d="M0 0H281V158H0V0Z" fill="#E2E6F1" fill-opacity="0.2"/>
<path d="M12 81.2317L12.2358 81L12 81.2317Z" fill="#E6E6ED"/>
<path d="M112.831 66.2895C113.203 64.2558 113.203 62.1716 112.831 60.1379C112.722 59.5186 112.694 58.8876 112.749 58.2611C112.901 56.771 113.922 56.154 115.355 56.5928C116.659 57.0012 117.962 57.4183 119.309 57.7658C119.977 57.9491 120.677 57.9807 121.359 57.8582C122.041 57.7356 122.687 57.4621 123.249 57.0577C124.957 55.9564 126.183 54.2487 126.681 52.2788C127.22 50.1805 127.733 48.0778 128.345 46.0012C128.729 44.8015 129.186 43.6263 129.714 42.4822C130.279 41.1683 131.26 40.0768 132.507 39.376C132.838 39.1623 133.218 39.0352 133.611 39.0063C134.004 38.9775 134.399 39.0478 134.757 39.2109C135.735 39.6453 136.708 40.0798 137.659 40.5142C140.53 41.9981 143.554 43.1635 146.678 43.9897C148.964 44.5502 151.292 44.5502 153.63 44.5719C156.047 44.5202 158.421 45.2117 160.433 46.5529C161.085 46.9874 161.736 47.4218 162.436 47.8085C164.256 48.9259 166.392 49.4172 168.518 49.2074C169.821 49.0814 171.085 48.8946 172.367 48.7251C172.798 48.6438 173.245 48.7315 173.614 48.9701C173.982 49.2086 174.245 49.5798 174.348 50.0067C174.422 50.2709 174.456 50.5448 174.448 50.8191C174.361 54.8725 174.252 58.9301 174.166 62.9835C174.136 64.4928 173.512 65.9295 172.428 66.9803C170.481 68.9874 170.651 72.5107 172.836 74.2398C174.821 75.8118 176.308 77.924 177.12 80.3219C177.658 81.8468 178.197 83.363 178.784 84.8705C179.635 87.1313 181.012 89.1566 182.802 90.7789C183.067 91.0135 183.324 91.2612 183.571 91.5131C184.762 92.7382 184.992 93.6853 184.036 95.1146C181.429 98.9855 178.423 102.452 173.788 104.012C171.963 104.629 170.147 105.315 168.305 105.854C163.93 107.188 161.224 110.077 160.051 114.469C159.786 115.455 159.473 116.433 159.125 117.393C158.604 118.861 157.7 119.343 156.271 118.757C154.533 118.04 152.709 117.792 150.88 117.545C150.175 117.447 149.46 117.46 148.759 117.584C146.729 117.934 144.645 117.798 142.677 117.189C141.921 116.976 141.17 116.754 140.414 116.528C138.378 115.859 136.174 115.903 134.167 116.654C132.768 117.216 131.238 117.367 129.757 117.089C128.562 116.854 127.355 116.654 126.186 116.307C124.835 115.92 124.387 115.06 124.718 113.7C125.596 109.982 126.145 106.193 126.36 102.378C126.619 98.5294 125.557 94.7071 123.349 91.5435C120.46 87.3121 116.567 84.2102 112.245 81.6122C109.277 79.8897 106.161 78.4358 102.935 77.2678C101.24 76.6292 99.5765 75.9124 97.9082 75.2129C97.7395 75.1535 97.5842 75.0614 97.4511 74.9419C97.318 74.8223 97.2098 74.6777 97.1327 74.5162C97.0556 74.3548 97.0112 74.1798 97.0018 74.0011C96.9925 73.8225 97.0186 73.6437 97.0785 73.4752C97.1996 73.0633 97.4153 72.6854 97.7084 72.3717C100.949 69.1264 104.699 66.8934 109.408 66.6154C110.52 66.5545 111.65 66.4025 112.831 66.2895ZM100.871 73.4795C101.379 73.6924 101.766 73.8618 102.174 74.0182C104.512 74.961 106.884 75.8255 109.182 76.8551C114.448 79.1289 119.2 82.4434 123.154 86.5996C127.415 91.1612 129.705 96.4875 129.236 102.804C129.066 105.159 128.71 107.496 128.406 109.838C128.245 111.111 128.019 112.371 127.819 113.639C129.879 114.369 131.808 114.478 133.793 113.696C134.649 113.415 135.539 113.25 136.439 113.205C138.811 112.957 141.039 113.639 143.272 114.295C144.55 114.682 145.857 115.121 147.213 114.843C150.158 114.234 153.004 114.751 155.836 115.499C156.054 115.555 156.271 115.572 156.514 115.612C156.918 114.434 157.292 113.318 157.674 112.206C159.09 108.083 161.78 105.168 165.885 103.634C167.766 102.935 169.652 102.218 171.581 101.675C175.955 100.441 178.844 97.4259 181.308 93.8548C181.342 93.8026 181.308 93.7027 181.308 93.6245L181.486 93.4507C181.184 93.2627 180.894 93.0567 180.617 92.8338C178.465 90.8459 176.826 88.3672 175.838 85.6091C175.404 84.3926 174.908 83.1806 174.504 81.9467C173.757 79.6833 172.593 77.7457 170.634 76.299C169.344 75.2884 168.504 73.8103 168.296 72.1849C167.805 69.3784 168.244 66.8456 170.382 64.7994C170.652 64.5403 170.863 64.2253 170.999 63.8765C171.136 63.5276 171.195 63.1532 171.172 62.7793C171.172 61.8365 171.233 60.8895 171.255 59.9424C171.313 57.4226 171.362 54.9029 171.402 52.3831C171.402 52.2788 171.311 52.1746 171.255 52.0573C168.318 52.4266 165.398 52.4613 162.648 51.2362C161.192 50.5447 159.789 49.7445 158.452 48.8424C157.073 47.9878 155.482 47.5363 153.86 47.5391C152.874 47.5391 151.887 47.5 150.901 47.5C148.692 47.4688 146.498 47.125 144.385 46.4791C141.599 45.6187 138.899 44.5047 136.317 43.1513C135.413 42.7168 134.497 42.2824 133.406 41.7437C132.742 43.1773 132.003 44.4459 131.56 45.8057C130.778 48.1994 130.148 50.641 129.514 53.0739C128.973 55.189 127.807 57.0921 126.169 58.5348C123.918 60.5636 121.342 61.4499 118.318 60.6462C117.532 60.4376 116.737 60.2682 115.877 60.0597C115.877 60.3116 115.877 60.4593 115.877 60.6027C116.125 62.721 116.089 64.863 115.768 66.9716C115.507 68.5921 114.934 69.1438 113.292 69.2785C111.65 69.4132 109.99 69.5218 108.352 69.7607C105.527 70.176 102.908 71.4782 100.871 73.4795V73.4795Z" fill="#25276E"/>
<path d="M100.873 73.4786C102.908 71.4622 105.533 70.1473 108.367 69.725C110.005 69.4861 111.66 69.3949 113.307 69.2428C114.953 69.0908 115.522 68.5564 115.783 66.9359C116.104 64.8274 116.14 62.6853 115.892 60.5671C115.892 60.4237 115.892 60.276 115.892 60.024C116.76 60.2325 117.547 60.402 118.333 60.6105C121.374 61.4142 123.933 60.528 126.184 58.4991C127.822 57.0564 128.988 55.1534 129.529 53.0382C130.163 50.6053 130.793 48.1638 131.575 45.77C132.009 44.4102 132.757 43.1634 133.421 41.708C134.512 42.2337 135.428 42.6594 136.332 43.1156C138.914 44.4691 141.614 45.583 144.4 46.4434C146.513 47.0894 148.707 47.4331 150.916 47.4643C151.902 47.4643 152.889 47.4643 153.875 47.5034C155.497 47.5007 157.088 47.9521 158.467 48.8068C159.804 49.7088 161.206 50.509 162.663 51.2005C165.413 52.4257 168.311 52.3909 171.27 52.0216C171.326 52.1389 171.417 52.2432 171.417 52.3474C171.374 54.8672 171.325 57.387 171.27 59.9067C171.27 60.8538 171.178 61.8009 171.187 62.7436C171.21 63.1175 171.151 63.4919 171.014 63.8408C170.878 64.1897 170.667 64.5046 170.397 64.7637C168.259 66.8186 167.82 69.3514 168.311 72.1492C168.519 73.7746 169.359 75.2528 170.648 76.2634C172.608 77.7188 173.772 79.6564 174.519 81.9111C174.923 83.1449 175.388 84.357 175.853 85.5734C176.841 88.3316 178.48 90.8102 180.632 92.7982C180.909 93.021 181.199 93.227 181.501 93.4151L181.323 93.5889C181.323 93.6671 181.353 93.767 181.323 93.8191C178.859 97.3989 175.97 100.414 171.596 101.639C169.667 102.182 167.781 102.899 165.9 103.598C161.795 105.132 159.105 108.047 157.689 112.17C157.307 113.282 156.933 114.399 156.529 115.576C156.29 115.537 156.069 115.519 155.851 115.463C153.019 114.716 150.173 114.199 147.228 114.807C145.872 115.085 144.565 114.646 143.287 114.259C141.054 113.586 138.826 112.921 136.454 113.169C135.554 113.214 134.664 113.38 133.808 113.66C131.823 114.442 129.898 114.333 127.834 113.603C128.034 112.335 128.269 111.075 128.421 109.802C128.725 107.461 129.081 105.123 129.251 102.769C129.685 96.4518 127.413 91.1256 123.168 86.5639C119.215 82.4078 114.463 79.0933 109.197 76.8195C106.899 75.7898 104.527 74.9253 102.189 73.9826C101.768 73.8609 101.381 73.6741 100.873 73.4786ZM143.683 102.521L144.004 102.46C144.191 102.838 144.391 103.207 144.556 103.594C144.925 104.463 145.242 105.358 145.655 106.201C145.793 106.559 146.068 106.848 146.419 107.003C146.771 107.159 147.169 107.169 147.528 107.03C147.886 106.892 148.175 106.617 148.33 106.266C148.486 105.915 148.496 105.516 148.357 105.158C148.194 104.632 147.998 104.117 147.771 103.616C147.501 102.968 147.21 102.312 147.032 101.917C147.554 101.109 148.14 100.523 148.336 99.8231C148.531 99.1236 148.31 98.3156 148.266 97.4945C148.436 97.5944 148.535 97.6509 148.631 97.716C149.5 98.3242 150.195 98.3503 150.747 97.7899C151.298 97.2295 151.281 96.53 150.747 95.7306C150.668 95.5936 150.575 95.4654 150.469 95.3483C149.191 94.0711 147.919 92.7851 146.62 91.5253C145.864 90.7954 145.064 90.1177 144.334 89.4617C145.329 86.3989 144.686 84.1789 142.527 82.9016C141.623 82.3616 140.558 82.153 139.517 82.3116C138.475 82.4701 137.522 82.9858 136.819 83.7705C136.117 84.5322 135.701 85.513 135.641 86.5466C135.594 87.3374 135.737 88.1279 136.058 88.8521C136.38 89.5762 136.87 90.2128 137.488 90.7085C137.075 91.6512 136.649 92.4463 136.367 93.3152C135.672 95.4396 134.998 97.5726 134.416 99.7275C134.356 99.8978 134.332 100.079 134.346 100.259C134.36 100.439 134.411 100.614 134.496 100.773C134.581 100.933 134.698 101.072 134.84 101.184C134.981 101.296 135.145 101.377 135.32 101.422C135.682 101.537 136.074 101.506 136.413 101.335C136.753 101.165 137.012 100.868 137.136 100.509C137.34 100.049 137.462 99.5494 137.653 98.9759C138.556 100.453 138.483 102.569 140.663 102.981C140.729 103.533 140.802 104.037 140.846 104.545C140.937 105.605 140.981 106.67 141.098 107.726C141.215 108.781 141.815 109.342 142.666 109.294C143.518 109.246 144.035 108.603 144 107.556C143.961 106.418 143.848 105.28 143.77 104.137C143.761 103.585 143.713 103.051 143.683 102.521ZM152.219 79.3218C152.246 79.6824 152.259 79.8779 152.267 80.0734C152.337 81.4897 152.393 82.906 152.471 84.3222C152.456 84.6226 152.542 84.9194 152.715 85.1652C152.888 85.411 153.139 85.5915 153.427 85.6777C153.648 85.7353 153.878 85.7458 154.102 85.7084C154.327 85.6709 154.541 85.5865 154.731 85.4605C155.078 85.1017 155.28 84.6261 155.295 84.1267C155.321 82.6714 155.23 81.216 155.182 79.7563C155.182 79.4261 154.961 78.9917 155.465 78.8874C155.969 78.7831 155.977 79.2263 156.082 79.5477C156.464 80.7034 156.846 81.8633 157.242 83.0233C157.52 83.84 158.111 84.2527 158.819 84.1572C159.196 84.1042 159.536 83.9049 159.767 83.6024C159.998 83.2999 160.101 82.9185 160.052 82.541C159.984 81.9985 159.856 81.4652 159.67 80.951C159.357 79.9431 159.01 78.9482 158.662 77.9099C159.909 77.041 159.926 75.8289 159.692 74.5647C159.579 73.9435 159.509 73.3179 159.375 72.701C159.251 72.3546 159.261 71.9743 159.403 71.635C159.545 71.2957 159.81 71.0219 160.144 70.8676C161.786 69.8684 162.359 68.1611 162.624 66.3668C162.699 66.0127 162.636 65.6433 162.448 65.3341C162.26 65.0249 161.961 64.7991 161.612 64.7029C161.243 64.6291 160.861 64.6961 160.539 64.8907C160.217 65.0853 159.98 65.3935 159.874 65.7543C159.701 66.1887 159.627 66.6709 159.44 67.1054C159.253 67.5398 158.962 68.0351 158.688 68.5607L155.969 65.7195C156.099 65.4024 156.19 65.1895 156.273 64.9723C157.45 61.7704 155.491 58.8901 152.115 58.8293C151.281 58.8167 150.464 59.0713 149.785 59.5559C149.106 60.0405 148.599 60.7298 148.34 61.5228C147.784 63.3214 147.84 65.0461 149.27 66.4667C149.704 66.9012 149.609 67.2574 149.378 67.7266C149.09 68.3257 148.836 68.9407 148.618 69.5686C147.932 71.4541 147.28 73.3483 146.576 75.2164C146.229 76.1548 146.376 76.8586 147.102 77.2713C147.827 77.684 148.709 77.4277 149.235 76.6066C149.417 76.3155 149.552 75.9853 149.752 75.5857C150.425 76.9889 150.086 78.9612 152.219 79.3218ZM129.55 67.34C129.016 66.7013 128.634 66.2799 128.299 65.8238C128.021 65.4458 127.865 64.9853 127.543 64.6291C127.327 64.3542 127.018 64.1677 126.675 64.1047C126.331 64.0416 125.976 64.1064 125.676 64.2869C125.377 64.4673 125.154 64.7508 125.049 65.0843C124.944 65.4177 124.964 65.7781 125.106 66.0975C125.945 68.0481 127.157 69.6773 129.346 70.2203C129.652 70.2667 129.932 70.4168 130.14 70.6454C130.348 70.874 130.471 71.1672 130.489 71.4758C130.561 71.9833 130.722 72.4743 130.962 72.9269C131.201 73.4129 131.571 73.8223 132.031 74.1086C132.26 74.2066 132.457 74.3684 132.597 74.5748C132.737 74.7812 132.815 75.0235 132.822 75.2728C132.971 76.324 133.176 77.3666 133.434 78.3965C133.471 78.5818 133.545 78.7579 133.651 78.9142C133.758 79.0705 133.894 79.2038 134.053 79.3063C134.212 79.4089 134.39 79.4784 134.576 79.5109C134.762 79.5435 134.953 79.5382 135.137 79.4956C135.484 79.4019 135.786 79.1887 135.99 78.8937C136.194 78.5988 136.288 78.241 136.254 77.8838C136.206 77.4141 136.126 76.9481 136.015 76.4893C135.915 75.9419 135.802 75.3988 135.693 74.8558C135.957 74.9951 136.17 75.214 136.302 75.4814C136.597 76.0375 136.849 76.6196 137.17 77.1627C137.635 77.962 138.344 78.2314 139.056 77.9229C139.397 77.76 139.666 77.4756 139.809 77.1254C139.952 76.7751 139.959 76.3841 139.829 76.0288C139.714 75.6508 139.562 75.2855 139.373 74.9383C138.939 74.1433 138.504 73.3613 138.031 72.4968C139.117 71.6279 139.138 70.507 138.687 69.2124L139.443 69.4774C139.717 69.5982 140.024 69.6209 140.313 69.5418C140.601 69.4627 140.854 69.2865 141.028 69.043C141.225 68.7961 141.332 68.4898 141.332 68.1741C141.332 67.8585 141.225 67.5521 141.028 67.3052C140.781 66.9574 140.488 66.6434 140.159 66.3712C139.005 65.3118 137.62 64.5341 136.115 64.0991C136.167 63.695 136.202 63.3518 136.263 63.013C136.413 62.2943 136.371 61.5487 136.143 60.851C135.914 60.1533 135.506 59.528 134.959 59.0378C134.193 58.3112 133.176 57.9062 132.12 57.9062C131.064 57.9062 130.048 58.3112 129.281 59.0378C128.452 59.8176 127.962 60.8918 127.916 62.0292C127.871 63.1666 128.273 64.2765 129.038 65.12C129.546 65.6804 129.794 66.2365 129.55 67.3356V67.34ZM165.731 87.6023C165.736 87.3964 165.701 87.1914 165.625 86.9998C165.549 86.8083 165.435 86.6341 165.29 86.4878C165.145 86.3416 164.972 86.2263 164.781 86.149C164.59 86.0717 164.386 86.0341 164.18 86.0383C163.311 86.0644 162.729 86.7898 162.737 87.8412C162.737 88.7622 163.315 89.3965 164.136 89.4095C164.362 89.401 164.583 89.3466 164.787 89.2498C164.991 89.1529 165.173 89.0156 165.322 88.8461C165.472 88.6766 165.585 88.4786 165.655 88.264C165.725 88.0494 165.751 87.8228 165.731 87.5979V87.6023ZM159.792 93.1935C159.596 93.1995 159.403 93.2449 159.226 93.327C159.048 93.4092 158.888 93.5264 158.757 93.6716C158.626 93.8168 158.525 93.9871 158.461 94.1722C158.397 94.3573 158.371 94.5534 158.384 94.7488C158.375 94.9542 158.408 95.1593 158.482 95.3515C158.555 95.5437 158.666 95.7189 158.809 95.8666C158.952 96.0142 159.124 96.131 159.314 96.21C159.504 96.289 159.708 96.3284 159.913 96.3258C160.1 96.3218 160.284 96.2795 160.453 96.2016C160.623 96.1237 160.774 96.0119 160.899 95.8731C161.024 95.7342 161.118 95.5713 161.178 95.3944C161.237 95.2174 161.259 95.0302 161.243 94.8444C161.263 94.639 161.241 94.4317 161.178 94.2352C161.115 94.0387 161.012 93.8573 160.876 93.7021C160.74 93.5469 160.574 93.4213 160.387 93.3331C160.201 93.2449 159.998 93.1959 159.792 93.1891V93.1935ZM141.111 56.7353C141.296 56.7477 141.482 56.7222 141.657 56.6603C141.832 56.5985 141.992 56.5015 142.129 56.3754C142.265 56.2494 142.374 56.0968 142.449 55.9271C142.524 55.7574 142.564 55.5741 142.566 55.3885C142.579 55.2051 142.555 55.021 142.496 54.8468C142.437 54.6726 142.345 54.5117 142.223 54.3733C142.102 54.2349 141.955 54.1217 141.79 54.0402C141.626 53.9587 141.446 53.9105 141.263 53.8984C141.068 53.8879 140.873 53.9167 140.689 53.9832C140.505 54.0497 140.337 54.1525 140.194 54.2855C140.051 54.4185 139.936 54.5789 139.856 54.7572C139.776 54.9355 139.733 55.1281 139.729 55.3234C139.725 55.5064 139.758 55.6884 139.825 55.8587C139.892 56.0291 139.992 56.1843 140.12 56.3153C140.248 56.4464 140.401 56.5507 140.569 56.622C140.738 56.6934 140.919 56.7304 141.102 56.731L141.111 56.7353Z" fill="#C4CDE4"/>
<path d="M143.681 102.523C143.711 103.053 143.746 103.587 143.781 104.121C143.859 105.264 143.972 106.402 144.011 107.54C144.046 108.609 143.524 109.248 142.677 109.278C141.83 109.309 141.226 108.766 141.109 107.71C140.992 106.654 140.948 105.59 140.857 104.53C140.814 104.021 140.74 103.518 140.675 102.966C138.502 102.531 138.568 100.437 137.664 98.9602C137.473 99.5337 137.351 100.033 137.147 100.494C137.023 100.853 136.764 101.149 136.425 101.319C136.085 101.49 135.693 101.521 135.331 101.406C135.156 101.361 134.993 101.28 134.851 101.168C134.709 101.057 134.592 100.917 134.507 100.758C134.422 100.598 134.371 100.423 134.357 100.243C134.344 100.063 134.367 99.8821 134.427 99.7118C135.009 97.5396 135.683 95.4239 136.378 93.2995C136.66 92.4306 137.086 91.6486 137.499 90.6928C136.881 90.1971 136.391 89.5605 136.07 88.8364C135.748 88.1123 135.605 87.3217 135.652 86.5309C135.713 85.4974 136.129 84.5165 136.83 83.7548C137.533 82.9702 138.487 82.4544 139.528 82.2958C140.57 82.1373 141.634 82.3459 142.538 82.8859C144.71 84.1632 145.34 86.3614 144.346 89.446C145.075 90.102 145.875 90.7797 146.631 91.5096C147.934 92.7694 149.203 94.0554 150.48 95.3326C150.586 95.4498 150.679 95.5779 150.758 95.715C151.271 96.5143 151.258 97.2398 150.758 97.7742C150.258 98.3086 149.511 98.3086 148.642 97.7003C148.547 97.6352 148.447 97.5787 148.277 97.4788C148.321 98.2999 148.534 99.108 148.347 99.8074C148.16 100.507 147.573 101.111 147.043 101.901C147.222 102.336 147.513 102.953 147.782 103.6C148.009 104.101 148.205 104.617 148.368 105.142C148.507 105.501 148.497 105.899 148.341 106.25C148.186 106.602 147.897 106.876 147.539 107.015C147.18 107.153 146.782 107.143 146.431 106.988C146.079 106.832 145.805 106.543 145.666 106.185C145.254 105.316 144.936 104.447 144.567 103.578C144.402 103.192 144.202 102.822 144.015 102.444L143.681 102.523ZM145.453 99.0211C145.128 97.544 144.845 96.2493 144.585 94.9547C144.362 93.7479 143.687 92.6714 142.699 91.944C141.656 91.1707 140.731 91.3532 140.023 92.4653C139.812 92.7685 139.672 93.1155 139.614 93.4805C139.556 93.8454 139.581 94.2187 139.688 94.5724C140.075 95.9669 140.453 97.3658 140.853 98.756C140.97 99.1557 141.157 99.5337 141.331 99.9768L145.453 99.0211ZM140.24 85.2884C140.023 85.2783 139.806 85.3139 139.604 85.3929C139.401 85.4718 139.217 85.5923 139.064 85.7467C138.911 85.901 138.792 86.0857 138.715 86.2889C138.637 86.492 138.604 86.7092 138.615 86.9262C138.615 87.3871 138.798 87.8291 139.124 88.155C139.45 88.4809 139.892 88.664 140.353 88.664C140.56 88.6606 140.765 88.6164 140.955 88.534C141.145 88.4516 141.317 88.3326 141.461 88.1837C141.605 88.0349 141.718 87.8591 141.794 87.6664C141.87 87.4738 141.907 87.268 141.904 87.0609C141.919 86.8342 141.887 86.6068 141.811 86.3928C141.734 86.1788 141.615 85.9827 141.46 85.8167C141.305 85.6506 141.117 85.518 140.909 85.4272C140.701 85.3363 140.476 85.2891 140.249 85.2884H140.24Z" fill="#25276E"/>
<path d="M152.216 79.3218C150.083 78.9655 150.422 76.9932 149.731 75.5595C149.531 75.9592 149.397 76.2894 149.214 76.5805C148.689 77.4016 147.811 77.6665 147.081 77.2451C146.351 76.8237 146.212 76.1286 146.556 75.1902C147.259 73.3135 147.911 71.4193 148.597 69.5425C148.816 68.9145 149.069 68.2995 149.358 67.7005C149.588 67.2313 149.684 66.8751 149.249 66.4406C147.82 65.02 147.763 63.2953 148.319 61.4967C148.579 60.7036 149.085 60.0144 149.765 59.5298C150.444 59.0451 151.26 58.7905 152.095 58.8032C155.47 58.851 157.43 61.7443 156.252 64.9461C156.17 65.1634 156.078 65.3806 155.948 65.6934L158.668 68.5346C158.941 68.009 159.215 67.5571 159.419 67.0793C159.624 66.6014 159.671 66.1669 159.854 65.7282C159.959 65.3673 160.197 65.0592 160.518 64.8646C160.84 64.67 161.223 64.603 161.592 64.6768C161.94 64.773 162.24 64.9988 162.428 65.308C162.616 65.6172 162.679 65.9866 162.604 66.3407C162.339 68.1349 161.765 69.8423 160.123 70.8415C159.789 70.9958 159.525 71.2695 159.383 71.6088C159.24 71.9481 159.23 72.3284 159.354 72.6749C159.489 73.2918 159.558 73.9173 159.671 74.5386C159.906 75.8028 159.889 76.9932 158.642 77.8838C158.989 78.9264 159.337 79.9213 159.65 80.9249C159.835 81.4391 159.964 81.9724 160.032 82.5149C160.08 82.8924 159.978 83.2738 159.747 83.5763C159.516 83.8788 159.175 84.0781 158.798 84.131C158.09 84.2266 157.495 83.8139 157.221 82.9972C156.826 81.8459 156.443 80.6859 156.061 79.5216C155.957 79.2001 155.97 78.7309 155.444 78.8613C154.919 78.9916 155.153 79.4217 155.162 79.7302C155.21 81.1899 155.301 82.6452 155.275 84.1006C155.259 84.6 155.058 85.0756 154.71 85.4344C154.52 85.5603 154.306 85.6448 154.082 85.6823C153.857 85.7197 153.627 85.7092 153.407 85.6516C153.119 85.5654 152.868 85.3849 152.694 85.1391C152.521 84.8933 152.435 84.5965 152.451 84.2961C152.373 82.8798 152.316 81.4636 152.247 80.0473C152.255 79.8735 152.242 79.678 152.216 79.3218ZM156.83 75.5248C156.569 73.9478 156.257 72.5662 156.144 71.1804C156.009 69.5469 154.784 68.7649 153.759 67.8395C153.667 67.7331 153.549 67.6529 153.417 67.6074C153.284 67.5618 153.142 67.5525 153.005 67.5804C152.867 67.6084 152.74 67.6725 152.636 67.7661C152.531 67.8598 152.454 67.9796 152.412 68.1132C152.025 69.1298 151.543 70.1377 151.943 71.2977C152.088 71.87 152.199 72.4502 152.277 73.0354C152.512 74.0911 152.772 75.1381 153.042 76.2807L156.83 75.5248ZM151.013 63.2171C150.987 64.086 151.447 64.7203 152.125 64.7463C152.521 64.7219 152.894 64.5516 153.171 64.2684C153.449 63.9851 153.612 63.609 153.628 63.2127C153.643 63.0165 153.615 62.8194 153.547 62.6347C153.479 62.45 153.373 62.282 153.234 62.1421C153.096 62.0021 152.929 61.8934 152.746 61.8233C152.562 61.7532 152.365 61.7233 152.169 61.7357C151.46 61.7226 151.039 62.2657 151.013 63.2127V63.2171Z" fill="#25276E"/>
<path d="M129.549 67.3363C129.792 66.2372 129.549 65.6811 129.01 65.0946C128.246 64.2511 127.843 63.1413 127.889 62.0038C127.934 60.8664 128.424 59.7923 129.254 59.0125C130.02 58.2859 131.037 57.8809 132.093 57.8809C133.149 57.8809 134.165 58.2859 134.932 59.0125C135.479 59.5027 135.887 60.128 136.115 60.8257C136.344 61.5233 136.386 62.2689 136.235 62.9876C136.174 63.3265 136.14 63.6697 136.087 64.0737C137.593 64.5088 138.977 65.2864 140.132 66.3458C140.461 66.618 140.753 66.932 141.001 67.2799C141.198 67.5268 141.305 67.8331 141.305 68.1487C141.305 68.4644 141.198 68.7707 141.001 69.0176C140.827 69.2612 140.574 69.4373 140.285 69.5164C139.997 69.5955 139.689 69.5728 139.415 69.4521L138.659 69.187C139.094 70.4903 139.094 71.6242 138.003 72.4714C138.477 73.3403 138.924 74.1179 139.346 74.9129C139.534 75.2601 139.687 75.6254 139.802 76.0034C139.932 76.3587 139.925 76.7497 139.782 77.1C139.639 77.4502 139.37 77.7346 139.029 77.8975C138.316 78.206 137.608 77.9366 137.143 77.1373C136.83 76.5942 136.578 76.0121 136.274 75.456C136.142 75.1886 135.93 74.9697 135.666 74.8304C135.775 75.3734 135.888 75.9165 135.988 76.4639C136.099 76.9227 136.179 77.3887 136.227 77.8584C136.261 78.2156 136.167 78.5734 135.963 78.8683C135.758 79.1633 135.456 79.3765 135.11 79.4702C134.926 79.5128 134.735 79.5181 134.549 79.4855C134.363 79.453 134.185 79.3835 134.026 79.2809C133.867 79.1784 133.731 79.0451 133.624 78.8888C133.518 78.7325 133.444 78.5564 133.407 78.3711C133.149 77.3412 132.944 76.2986 132.794 75.2475C132.785 75.0054 132.709 74.7707 132.574 74.5697C132.439 74.3686 132.25 74.2092 132.03 74.1092C131.572 73.8152 131.206 73.3981 130.974 72.9058C130.733 72.4533 130.573 71.9623 130.501 71.4548C130.483 71.1462 130.36 70.853 130.152 70.6244C129.944 70.3957 129.664 70.2457 129.358 70.1993C127.186 69.6562 125.956 68.0271 125.118 66.0765C124.976 65.7571 124.955 65.3967 125.06 65.0633C125.165 64.7298 125.389 64.4462 125.688 64.2658C125.987 64.0854 126.342 64.0206 126.686 64.0837C127.03 64.1467 127.339 64.3332 127.555 64.6081C127.859 64.9643 128.033 65.4248 128.311 65.8028C128.632 66.2893 129.015 66.6977 129.549 67.3363ZM132.59 66.563L133.433 71.2246L135.944 70.3079L133.959 66.1547L132.59 66.563ZM133.32 62.2186C133.33 62.0428 133.304 61.8667 133.243 61.7016C133.181 61.5364 133.087 61.3858 132.964 61.2592C132.842 61.1326 132.694 61.0328 132.531 60.9661C132.368 60.8995 132.193 60.8674 132.017 60.8719C131.7 60.9059 131.408 61.0599 131.201 61.3023C130.995 61.5446 130.888 61.857 130.905 62.1752C130.889 62.3506 130.909 62.5273 130.964 62.6946C131.019 62.862 131.107 63.0165 131.223 63.1489C131.339 63.2812 131.481 63.3887 131.64 63.4647C131.799 63.5408 131.971 63.5839 132.147 63.5915C132.487 63.5615 132.801 63.3997 133.023 63.1406C133.245 62.8815 133.356 62.5458 133.333 62.2056L133.32 62.2186Z" fill="#25276E"/>
<path d="M165.73 87.5985C165.749 87.823 165.723 88.0492 165.652 88.2633C165.582 88.4774 165.469 88.6749 165.32 88.8439C165.171 89.0129 164.989 89.1498 164.785 89.2464C164.582 89.343 164.36 89.3973 164.135 89.4058C163.314 89.4058 162.749 88.7585 162.736 87.8375C162.736 86.7861 163.305 86.0606 164.179 86.0345C164.385 86.0303 164.589 86.068 164.78 86.1453C164.971 86.2225 165.144 86.3378 165.289 86.4841C165.434 86.6303 165.548 86.8045 165.624 86.9961C165.7 87.1876 165.736 87.3926 165.73 87.5985V87.5985Z" fill="#25276E"/>
<path d="M159.79 93.1895C159.996 93.1962 160.198 93.2451 160.384 93.3331C160.571 93.421 160.737 93.5462 160.873 93.7009C161.009 93.8556 161.111 94.0365 161.175 94.2325C161.238 94.4285 161.261 94.6353 161.241 94.8404C161.257 95.0262 161.235 95.2134 161.176 95.3904C161.117 95.5673 161.022 95.7302 160.897 95.8691C160.773 96.0079 160.621 96.1198 160.451 96.1976C160.282 96.2755 160.098 96.3178 159.912 96.3218C159.706 96.3244 159.502 96.285 159.312 96.206C159.122 96.1271 158.951 96.0102 158.807 95.8626C158.664 95.715 158.553 95.5397 158.48 95.3475C158.407 95.1553 158.374 94.9502 158.382 94.7448C158.369 94.5494 158.395 94.3533 158.459 94.1682C158.523 93.9831 158.624 93.8128 158.755 93.6676C158.887 93.5224 159.046 93.4051 159.224 93.323C159.402 93.2408 159.594 93.1954 159.79 93.1895V93.1895Z" fill="#25276E"/>
<path d="M141.101 56.7317C140.915 56.7353 140.73 56.7011 140.558 56.6313C140.385 56.5615 140.229 56.4575 140.098 56.3256C139.966 56.1936 139.863 56.0364 139.795 55.8636C139.726 55.6907 139.693 55.5057 139.698 55.3197C139.702 55.1244 139.745 54.9318 139.824 54.7535C139.904 54.5752 140.019 54.4148 140.162 54.2818C140.305 54.1488 140.474 54.046 140.657 53.9795C140.841 53.913 141.036 53.8842 141.231 53.8947C141.415 53.9068 141.594 53.955 141.759 54.0365C141.924 54.118 142.071 54.2312 142.192 54.3696C142.313 54.508 142.405 54.6689 142.464 54.8431C142.523 55.0173 142.547 55.2014 142.535 55.3849C142.533 55.5686 142.493 55.7499 142.419 55.9181C142.346 56.0863 142.238 56.2378 142.105 56.3636C141.971 56.4893 141.813 56.5868 141.64 56.65C141.468 56.7133 141.284 56.7411 141.101 56.7317V56.7317Z" fill="#25276E"/>
<path d="M145.454 99.0205L141.313 99.9763C141.14 99.5418 140.953 99.1552 140.836 98.7555C140.436 97.3653 140.058 95.9664 139.671 94.5718C139.564 94.2182 139.539 93.8449 139.597 93.4799C139.655 93.115 139.794 92.7679 140.006 92.4648C140.714 91.3526 141.639 91.1615 142.682 91.9435C143.67 92.6709 144.344 93.7474 144.567 94.9541C144.845 96.2662 145.128 97.5434 145.454 99.0205Z" fill="white"/>
<path d="M140.251 85.2875C140.478 85.2888 140.702 85.3363 140.909 85.4272C141.116 85.518 141.303 85.6503 141.458 85.8158C141.612 85.9813 141.731 86.1767 141.808 86.3899C141.884 86.6031 141.916 86.8296 141.902 87.0556C141.906 87.2627 141.868 87.4685 141.792 87.6611C141.716 87.8538 141.603 88.0296 141.459 88.1784C141.315 88.3273 141.143 88.4463 140.953 88.5287C140.763 88.6111 140.558 88.6553 140.351 88.6587C139.89 88.6587 139.448 88.4756 139.122 88.1497C138.796 87.8238 138.613 87.3818 138.613 86.9209C138.602 86.7031 138.637 86.4853 138.715 86.2817C138.794 86.0781 138.914 85.8933 139.068 85.7392C139.223 85.5852 139.408 85.4654 139.612 85.3875C139.816 85.3097 140.033 85.2756 140.251 85.2875V85.2875Z" fill="white"/>
<path d="M156.831 75.521L153.042 76.2639C152.773 75.1213 152.512 74.0917 152.278 73.0186C152.2 72.4334 152.088 71.8531 151.943 71.2808C151.543 70.1209 152.026 69.1086 152.412 68.0964C152.455 67.9628 152.532 67.843 152.636 67.7493C152.74 67.6556 152.868 67.5915 153.005 67.5636C153.143 67.5357 153.285 67.545 153.417 67.5905C153.55 67.6361 153.668 67.7163 153.759 67.8227C154.784 68.7481 156.009 69.53 156.144 71.1635C156.257 72.5624 156.57 73.944 156.831 75.521Z" fill="white"/>
<path d="M151.013 63.2136C151.039 62.2666 151.447 61.7235 152.168 61.7322C152.365 61.7199 152.562 61.7498 152.745 61.8199C152.929 61.89 153.096 61.9987 153.234 62.1386C153.373 62.2786 153.479 62.4466 153.547 62.6313C153.615 62.816 153.643 63.013 153.628 63.2093C153.612 63.6056 153.449 63.9817 153.171 64.265C152.894 64.5482 152.521 64.7185 152.125 64.7429C151.434 64.7168 150.987 64.1173 151.013 63.2136Z" fill="white"/>
<path d="M132.584 66.5627L133.952 66.1543L135.938 70.3075L133.427 71.2242L132.584 66.5627Z" fill="white"/>
<path d="M133.333 62.206C133.347 62.539 133.232 62.8647 133.013 63.116C132.794 63.3673 132.488 63.5251 132.156 63.5571C131.98 63.5495 131.807 63.5064 131.648 63.4304C131.49 63.3543 131.348 63.2468 131.232 63.1145C131.116 62.9821 131.028 62.8276 130.973 62.6602C130.918 62.4929 130.898 62.3162 130.913 62.1408C130.897 61.8226 131.003 61.5102 131.21 61.2678C131.417 61.0255 131.709 60.8715 132.025 60.8375C132.204 60.8321 132.381 60.8643 132.546 60.932C132.712 60.9997 132.861 61.1014 132.984 61.2304C133.107 61.3595 133.202 61.513 133.262 61.6811C133.322 61.8491 133.347 62.028 133.333 62.206Z" fill="white"/>
</svg>
