<svg width="281" height="158" viewBox="0 0 281 158" fill="none" xmlns="http://www.w3.org/2000/svg">
<rect width="281" height="158" fill="#285A54"/>
<circle cx="141" cy="78" r="45" fill="#052E29"/>
<rect x="132" y="99" width="18" height="15" fill="#0C8C7D"/>
<path d="M141 88L153.99 103.75H128.01L141 88Z" fill="#0C8C7D"/>
<circle cx="118.5" cy="45.5" r="1.5" fill="#0C8C7D"/>
<circle cx="116.5" cy="67.5" r="1.5" fill="#0C8C7D"/>
<circle cx="109.5" cy="87.5" r="1.5" fill="#0C8C7D"/>
<circle cx="141.5" cy="58.5" r="1.5" fill="#0C8C7D"/>
<circle cx="165.5" cy="86.5" r="1.5" fill="#0C8C7D"/>
<circle cx="167.5" cy="56.5" r="1.5" fill="#0C8C7D"/>
<circle cx="138.5" cy="75.5" r="1.5" fill="#0C8C7D"/>
<circle cx="152" cy="68" r="1" fill="#0C8C7D"/>
<circle cx="165" cy="103" r="1" fill="#0C8C7D"/>
<circle cx="120" cy="72" r="1" fill="#0C8C7D"/>
<circle cx="139" cy="41" r="1" fill="#0C8C7D"/>
<circle cx="178" cy="75" r="1" fill="#0C8C7D"/>
<circle cx="121" cy="96" r="1" fill="#0C8C7D"/>
<circle cx="152" cy="49" r="1" fill="#0C8C7D"/>
<rect x="139" y="107" width="4" height="8" rx="2" fill="#052E29"/>
<rect x="113" y="113" width="57" height="12" fill="#1B0909"/>
<g filter="url(#filter0_bd_2561_46)">
<mask id="path-20-outside-1_2561_46" maskUnits="userSpaceOnUse" x="126" y="59" width="29" height="40" fill="black">
<rect fill="white" x="126" y="59" width="29" height="40"/>
<path d="M131.261 97.55V95.735C135.625 94.3783 139.071 92.16 141.601 89.08C144.131 86 145.708 82.3517 146.331 78.135C145.341 79.4183 144.113 80.4267 142.646 81.16C141.216 81.8933 139.566 82.26 137.696 82.26C135.716 82.26 133.993 81.8017 132.526 80.885C131.06 79.9683 129.923 78.7217 129.116 77.145C128.346 75.5317 127.961 73.735 127.961 71.755C127.961 69.775 128.438 67.905 129.391 66.145C130.345 64.3483 131.775 62.9 133.681 61.8C135.588 60.7 137.971 60.15 140.831 60.15C143.435 60.15 145.708 60.7367 147.651 61.91C149.595 63.0467 151.098 64.66 152.161 66.75C153.261 68.8033 153.811 71.1867 153.811 73.9C153.811 77.86 152.895 81.4167 151.061 84.57C149.228 87.7233 146.625 90.4183 143.251 92.655C139.915 94.855 135.918 96.4867 131.261 97.55ZM135.001 70.38C135.001 72.8733 135.478 74.8167 136.431 76.21C137.385 77.6033 138.851 78.3 140.831 78.3C142.041 78.3 143.141 78.025 144.131 77.475C145.121 76.8883 145.946 76.1183 146.606 75.165C146.606 74.7983 146.606 74.4317 146.606 74.065C146.606 70.2883 146.056 67.465 144.956 65.595C143.856 63.6883 142.426 62.735 140.666 62.735C139.346 62.735 138.265 63.12 137.421 63.89C136.578 64.66 135.955 65.65 135.551 66.86C135.185 68.0333 135.001 69.2067 135.001 70.38Z"/>
</mask>
<path d="M131.261 97.55V95.735C135.625 94.3783 139.071 92.16 141.601 89.08C144.131 86 145.708 82.3517 146.331 78.135C145.341 79.4183 144.113 80.4267 142.646 81.16C141.216 81.8933 139.566 82.26 137.696 82.26C135.716 82.26 133.993 81.8017 132.526 80.885C131.06 79.9683 129.923 78.7217 129.116 77.145C128.346 75.5317 127.961 73.735 127.961 71.755C127.961 69.775 128.438 67.905 129.391 66.145C130.345 64.3483 131.775 62.9 133.681 61.8C135.588 60.7 137.971 60.15 140.831 60.15C143.435 60.15 145.708 60.7367 147.651 61.91C149.595 63.0467 151.098 64.66 152.161 66.75C153.261 68.8033 153.811 71.1867 153.811 73.9C153.811 77.86 152.895 81.4167 151.061 84.57C149.228 87.7233 146.625 90.4183 143.251 92.655C139.915 94.855 135.918 96.4867 131.261 97.55ZM135.001 70.38C135.001 72.8733 135.478 74.8167 136.431 76.21C137.385 77.6033 138.851 78.3 140.831 78.3C142.041 78.3 143.141 78.025 144.131 77.475C145.121 76.8883 145.946 76.1183 146.606 75.165C146.606 74.7983 146.606 74.4317 146.606 74.065C146.606 70.2883 146.056 67.465 144.956 65.595C143.856 63.6883 142.426 62.735 140.666 62.735C139.346 62.735 138.265 63.12 137.421 63.89C136.578 64.66 135.955 65.65 135.551 66.86C135.185 68.0333 135.001 69.2067 135.001 70.38Z" fill="white"/>
<path d="M131.261 97.55H130.261V98.8041L131.484 98.5249L131.261 97.55ZM131.261 95.735L130.964 94.7801L130.261 94.9987V95.735H131.261ZM141.601 89.08L140.829 88.4453L141.601 89.08ZM146.331 78.135L147.321 78.2812L147.881 74.4887L145.54 77.5242L146.331 78.135ZM142.646 81.16L142.199 80.2655L142.19 80.2702L142.646 81.16ZM129.116 77.145L128.214 77.5757L128.22 77.5882L128.226 77.6005L129.116 77.145ZM129.391 66.145L130.271 66.6213L130.275 66.6137L129.391 66.145ZM133.681 61.8L133.182 60.9338V60.9338L133.681 61.8ZM147.651 61.91L147.134 62.7661L147.146 62.7732L147.651 61.91ZM152.161 66.75L151.27 67.2035L151.275 67.2129L151.28 67.2222L152.161 66.75ZM151.061 84.57L150.197 84.0674L151.061 84.57ZM143.251 92.655L143.802 93.4899L143.804 93.4884L143.251 92.655ZM136.431 76.21L137.257 75.6453L136.431 76.21ZM144.131 77.475L144.617 78.3492L144.629 78.3424L144.641 78.3353L144.131 77.475ZM146.606 75.165L147.429 75.7342L147.606 75.4774V75.165H146.606ZM144.956 65.595L144.09 66.0947L144.094 66.102L144.956 65.595ZM137.421 63.89L136.747 63.1515V63.1515L137.421 63.89ZM135.551 66.86L134.603 66.5438L134.6 66.5527L134.597 66.5617L135.551 66.86ZM132.261 97.55V95.735H130.261V97.55H132.261ZM131.558 96.6899C136.08 95.284 139.703 92.9668 142.374 89.7147L140.829 88.4453C138.44 91.3532 135.169 93.4727 130.964 94.7801L131.558 96.6899ZM142.374 89.7147C145.027 86.4848 146.673 82.6644 147.321 78.2812L145.342 77.9888C144.743 82.0389 143.235 85.5152 140.829 88.4453L142.374 89.7147ZM145.54 77.5242C144.643 78.6868 143.533 79.5988 142.199 80.2656L143.094 82.0544C144.693 81.2545 146.04 80.1499 147.123 78.7458L145.54 77.5242ZM142.19 80.2702C140.923 80.9201 139.434 81.26 137.696 81.26V83.26C139.699 83.26 141.51 82.8666 143.103 82.0498L142.19 80.2702ZM137.696 81.26C135.876 81.26 134.342 80.8406 133.056 80.037L131.996 81.733C133.644 82.7627 135.557 83.26 137.696 83.26V81.26ZM133.056 80.037C131.747 79.2186 130.733 78.1092 130.007 76.6895L128.226 77.6005C129.113 79.3341 130.372 80.7181 131.996 81.733L133.056 80.037ZM130.019 76.7143C129.32 75.2493 128.961 73.6021 128.961 71.755H126.961C126.961 73.8678 127.373 75.814 128.214 77.5757L130.019 76.7143ZM128.961 71.755C128.961 69.9432 129.396 68.2367 130.271 66.6213L128.512 65.6687C127.48 67.5733 126.961 69.6068 126.961 71.755H128.961ZM130.275 66.6137C131.133 64.9966 132.423 63.6804 134.181 62.6662L133.182 60.9338C131.126 62.1196 129.557 63.7001 128.508 65.6763L130.275 66.6137ZM134.181 62.6662C135.897 61.6763 138.096 61.15 140.831 61.15V59.15C137.847 59.15 135.279 59.7237 133.182 60.9338L134.181 62.6662ZM140.831 61.15C143.28 61.15 145.369 61.7001 147.134 62.7661L148.168 61.0539C146.047 59.7733 143.59 59.15 140.831 59.15V61.15ZM147.146 62.7732C148.917 63.809 150.29 65.2768 151.27 67.2035L153.053 66.2965C151.906 64.0432 150.272 62.2844 148.156 61.0468L147.146 62.7732ZM151.28 67.2222C152.29 69.108 152.811 71.3242 152.811 73.9H154.811C154.811 71.0492 154.233 68.4986 153.043 66.2778L151.28 67.2222ZM152.811 73.9C152.811 77.699 151.934 81.0796 150.197 84.0674L151.926 85.0726C153.855 81.7537 154.811 78.021 154.811 73.9H152.811ZM150.197 84.0674C148.449 87.074 145.958 89.6603 142.699 91.8216L143.804 93.4884C147.291 91.1763 150.007 88.3727 151.926 85.0726L150.197 84.0674ZM142.701 91.8201C139.482 93.9427 135.601 95.5334 131.039 96.5751L131.484 98.5249C136.235 97.44 140.348 95.7673 143.802 93.4899L142.701 91.8201ZM134.001 70.38C134.001 72.9839 134.497 75.1531 135.606 76.7747L137.257 75.6453C136.459 74.4802 136.001 72.7628 136.001 70.38H134.001ZM135.606 76.7747C136.78 78.4905 138.587 79.3 140.831 79.3V77.3C139.116 77.3 137.989 76.7162 137.257 75.6453L135.606 76.7747ZM140.831 79.3C142.199 79.3 143.468 78.9873 144.617 78.3492L143.646 76.6008C142.814 77.0627 141.883 77.3 140.831 77.3V79.3ZM144.641 78.3353C145.756 77.6746 146.687 76.805 147.429 75.7342L145.784 74.5958C145.205 75.4317 144.487 76.102 143.622 76.6147L144.641 78.3353ZM147.606 75.165C147.606 75.1643 147.606 75.1636 147.606 75.1628C147.606 75.1621 147.606 75.1614 147.606 75.1607C147.606 75.16 147.606 75.1593 147.606 75.1586C147.606 75.1578 147.606 75.1571 147.606 75.1564C147.606 75.1557 147.606 75.155 147.606 75.1543C147.606 75.1535 147.606 75.1528 147.606 75.1521C147.606 75.1514 147.606 75.1507 147.606 75.15C147.606 75.1492 147.606 75.1485 147.606 75.1478C147.606 75.1471 147.606 75.1464 147.606 75.1457C147.606 75.1449 147.606 75.1442 147.606 75.1435C147.606 75.1428 147.606 75.1421 147.606 75.1414C147.606 75.1407 147.606 75.1399 147.606 75.1392C147.606 75.1385 147.606 75.1378 147.606 75.1371C147.606 75.1364 147.606 75.1356 147.606 75.1349C147.606 75.1342 147.606 75.1335 147.606 75.1328C147.606 75.1321 147.606 75.1313 147.606 75.1306C147.606 75.1299 147.606 75.1292 147.606 75.1285C147.606 75.1278 147.606 75.127 147.606 75.1263C147.606 75.1256 147.606 75.1249 147.606 75.1242C147.606 75.1235 147.606 75.1227 147.606 75.122C147.606 75.1213 147.606 75.1206 147.606 75.1199C147.606 75.1192 147.606 75.1185 147.606 75.1177C147.606 75.117 147.606 75.1163 147.606 75.1156C147.606 75.1149 147.606 75.1142 147.606 75.1134C147.606 75.1127 147.606 75.112 147.606 75.1113C147.606 75.1106 147.606 75.1099 147.606 75.1091C147.606 75.1084 147.606 75.1077 147.606 75.107C147.606 75.1063 147.606 75.1056 147.606 75.1048C147.606 75.1041 147.606 75.1034 147.606 75.1027C147.606 75.102 147.606 75.1013 147.606 75.1005C147.606 75.0998 147.606 75.0991 147.606 75.0984C147.606 75.0977 147.606 75.097 147.606 75.0962C147.606 75.0955 147.606 75.0948 147.606 75.0941C147.606 75.0934 147.606 75.0927 147.606 75.092C147.606 75.0912 147.606 75.0905 147.606 75.0898C147.606 75.0891 147.606 75.0884 147.606 75.0877C147.606 75.0869 147.606 75.0862 147.606 75.0855C147.606 75.0848 147.606 75.0841 147.606 75.0834C147.606 75.0826 147.606 75.0819 147.606 75.0812C147.606 75.0805 147.606 75.0798 147.606 75.0791C147.606 75.0783 147.606 75.0776 147.606 75.0769C147.606 75.0762 147.606 75.0755 147.606 75.0748C147.606 75.074 147.606 75.0733 147.606 75.0726C147.606 75.0719 147.606 75.0712 147.606 75.0705C147.606 75.0698 147.606 75.069 147.606 75.0683C147.606 75.0676 147.606 75.0669 147.606 75.0662C147.606 75.0655 147.606 75.0647 147.606 75.064C147.606 75.0633 147.606 75.0626 147.606 75.0619C147.606 75.0612 147.606 75.0604 147.606 75.0597C147.606 75.059 147.606 75.0583 147.606 75.0576C147.606 75.0569 147.606 75.0561 147.606 75.0554C147.606 75.0547 147.606 75.054 147.606 75.0533C147.606 75.0526 147.606 75.0518 147.606 75.0511C147.606 75.0504 147.606 75.0497 147.606 75.049C147.606 75.0483 147.606 75.0476 147.606 75.0468C147.606 75.0461 147.606 75.0454 147.606 75.0447C147.606 75.044 147.606 75.0433 147.606 75.0425C147.606 75.0418 147.606 75.0411 147.606 75.0404C147.606 75.0397 147.606 75.039 147.606 75.0382C147.606 75.0375 147.606 75.0368 147.606 75.0361C147.606 75.0354 147.606 75.0347 147.606 75.0339C147.606 75.0332 147.606 75.0325 147.606 75.0318C147.606 75.0311 147.606 75.0304 147.606 75.0296C147.606 75.0289 147.606 75.0282 147.606 75.0275C147.606 75.0268 147.606 75.0261 147.606 75.0254C147.606 75.0246 147.606 75.0239 147.606 75.0232C147.606 75.0225 147.606 75.0218 147.606 75.0211C147.606 75.0203 147.606 75.0196 147.606 75.0189C147.606 75.0182 147.606 75.0175 147.606 75.0168C147.606 75.016 147.606 75.0153 147.606 75.0146C147.606 75.0139 147.606 75.0132 147.606 75.0125C147.606 75.0117 147.606 75.011 147.606 75.0103C147.606 75.0096 147.606 75.0089 147.606 75.0082C147.606 75.0074 147.606 75.0067 147.606 75.006C147.606 75.0053 147.606 75.0046 147.606 75.0039C147.606 75.0032 147.606 75.0024 147.606 75.0017C147.606 75.001 147.606 75.0003 147.606 74.9996C147.606 74.9989 147.606 74.9981 147.606 74.9974C147.606 74.9967 147.606 74.996 147.606 74.9953C147.606 74.9946 147.606 74.9938 147.606 74.9931C147.606 74.9924 147.606 74.9917 147.606 74.991C147.606 74.9903 147.606 74.9895 147.606 74.9888C147.606 74.9881 147.606 74.9874 147.606 74.9867C147.606 74.986 147.606 74.9852 147.606 74.9845C147.606 74.9838 147.606 74.9831 147.606 74.9824C147.606 74.9817 147.606 74.9809 147.606 74.9802C147.606 74.9795 147.606 74.9788 147.606 74.9781C147.606 74.9774 147.606 74.9767 147.606 74.9759C147.606 74.9752 147.606 74.9745 147.606 74.9738C147.606 74.9731 147.606 74.9724 147.606 74.9716C147.606 74.9709 147.606 74.9702 147.606 74.9695C147.606 74.9688 147.606 74.9681 147.606 74.9673C147.606 74.9666 147.606 74.9659 147.606 74.9652C147.606 74.9645 147.606 74.9638 147.606 74.963C147.606 74.9623 147.606 74.9616 147.606 74.9609C147.606 74.9602 147.606 74.9595 147.606 74.9587C147.606 74.958 147.606 74.9573 147.606 74.9566C147.606 74.9559 147.606 74.9552 147.606 74.9545C147.606 74.9537 147.606 74.953 147.606 74.9523C147.606 74.9516 147.606 74.9509 147.606 74.9502C147.606 74.9494 147.606 74.9487 147.606 74.948C147.606 74.9473 147.606 74.9466 147.606 74.9459C147.606 74.9451 147.606 74.9444 147.606 74.9437C147.606 74.943 147.606 74.9423 147.606 74.9416C147.606 74.9408 147.606 74.9401 147.606 74.9394C147.606 74.9387 147.606 74.938 147.606 74.9373C147.606 74.9366 147.606 74.9358 147.606 74.9351C147.606 74.9344 147.606 74.9337 147.606 74.933C147.606 74.9323 147.606 74.9315 147.606 74.9308C147.606 74.9301 147.606 74.9294 147.606 74.9287C147.606 74.928 147.606 74.9272 147.606 74.9265C147.606 74.9258 147.606 74.9251 147.606 74.9244C147.606 74.9237 147.606 74.9229 147.606 74.9222C147.606 74.9215 147.606 74.9208 147.606 74.9201C147.606 74.9194 147.606 74.9186 147.606 74.9179C147.606 74.9172 147.606 74.9165 147.606 74.9158C147.606 74.9151 147.606 74.9143 147.606 74.9136C147.606 74.9129 147.606 74.9122 147.606 74.9115C147.606 74.9108 147.606 74.9101 147.606 74.9093C147.606 74.9086 147.606 74.9079 147.606 74.9072C147.606 74.9065 147.606 74.9058 147.606 74.905C147.606 74.9043 147.606 74.9036 147.606 74.9029C147.606 74.9022 147.606 74.9015 147.606 74.9007C147.606 74.9 147.606 74.8993 147.606 74.8986C147.606 74.8979 147.606 74.8972 147.606 74.8964C147.606 74.8957 147.606 74.895 147.606 74.8943C147.606 74.8936 147.606 74.8929 147.606 74.8921C147.606 74.8914 147.606 74.8907 147.606 74.89C147.606 74.8893 147.606 74.8886 147.606 74.8879C147.606 74.8871 147.606 74.8864 147.606 74.8857C147.606 74.885 147.606 74.8843 147.606 74.8836C147.606 74.8828 147.606 74.8821 147.606 74.8814C147.606 74.8807 147.606 74.88 147.606 74.8793C147.606 74.8785 147.606 74.8778 147.606 74.8771C147.606 74.8764 147.606 74.8757 147.606 74.875C147.606 74.8742 147.606 74.8735 147.606 74.8728C147.606 74.8721 147.606 74.8714 147.606 74.8707C147.606 74.8699 147.606 74.8692 147.606 74.8685C147.606 74.8678 147.606 74.8671 147.606 74.8664C147.606 74.8657 147.606 74.8649 147.606 74.8642C147.606 74.8635 147.606 74.8628 147.606 74.8621C147.606 74.8614 147.606 74.8606 147.606 74.8599C147.606 74.8592 147.606 74.8585 147.606 74.8578C147.606 74.8571 147.606 74.8563 147.606 74.8556C147.606 74.8549 147.606 74.8542 147.606 74.8535C147.606 74.8528 147.606 74.852 147.606 74.8513C147.606 74.8506 147.606 74.8499 147.606 74.8492C147.606 74.8485 147.606 74.8477 147.606 74.847C147.606 74.8463 147.606 74.8456 147.606 74.8449C147.606 74.8442 147.606 74.8434 147.606 74.8427C147.606 74.842 147.606 74.8413 147.606 74.8406C147.606 74.8399 147.606 74.8392 147.606 74.8384C147.606 74.8377 147.606 74.837 147.606 74.8363C147.606 74.8356 147.606 74.8349 147.606 74.8341C147.606 74.8334 147.606 74.8327 147.606 74.832C147.606 74.8313 147.606 74.8306 147.606 74.8298C147.606 74.8291 147.606 74.8284 147.606 74.8277C147.606 74.827 147.606 74.8263 147.606 74.8255C147.606 74.8248 147.606 74.8241 147.606 74.8234C147.606 74.8227 147.606 74.822 147.606 74.8213C147.606 74.8205 147.606 74.8198 147.606 74.8191C147.606 74.8184 147.606 74.8177 147.606 74.817C147.606 74.8162 147.606 74.8155 147.606 74.8148C147.606 74.8141 147.606 74.8134 147.606 74.8127C147.606 74.8119 147.606 74.8112 147.606 74.8105C147.606 74.8098 147.606 74.8091 147.606 74.8084C147.606 74.8076 147.606 74.8069 147.606 74.8062C147.606 74.8055 147.606 74.8048 147.606 74.8041C147.606 74.8033 147.606 74.8026 147.606 74.8019C147.606 74.8012 147.606 74.8005 147.606 74.7998C147.606 74.799 147.606 74.7983 147.606 74.7976C147.606 74.7969 147.606 74.7962 147.606 74.7955C147.606 74.7948 147.606 74.794 147.606 74.7933C147.606 74.7926 147.606 74.7919 147.606 74.7912C147.606 74.7905 147.606 74.7897 147.606 74.789C147.606 74.7883 147.606 74.7876 147.606 74.7869C147.606 74.7862 147.606 74.7854 147.606 74.7847C147.606 74.784 147.606 74.7833 147.606 74.7826C147.606 74.7819 147.606 74.7811 147.606 74.7804C147.606 74.7797 147.606 74.779 147.606 74.7783C147.606 74.7776 147.606 74.7768 147.606 74.7761C147.606 74.7754 147.606 74.7747 147.606 74.774C147.606 74.7733 147.606 74.7726 147.606 74.7718C147.606 74.7711 147.606 74.7704 147.606 74.7697C147.606 74.769 147.606 74.7683 147.606 74.7675C147.606 74.7668 147.606 74.7661 147.606 74.7654C147.606 74.7647 147.606 74.764 147.606 74.7632C147.606 74.7625 147.606 74.7618 147.606 74.7611C147.606 74.7604 147.606 74.7597 147.606 74.7589C147.606 74.7582 147.606 74.7575 147.606 74.7568C147.606 74.7561 147.606 74.7554 147.606 74.7546C147.606 74.7539 147.606 74.7532 147.606 74.7525C147.606 74.7518 147.606 74.7511 147.606 74.7504C147.606 74.7496 147.606 74.7489 147.606 74.7482C147.606 74.7475 147.606 74.7468 147.606 74.7461C147.606 74.7453 147.606 74.7446 147.606 74.7439C147.606 74.7432 147.606 74.7425 147.606 74.7418C147.606 74.741 147.606 74.7403 147.606 74.7396C147.606 74.7389 147.606 74.7382 147.606 74.7375C147.606 74.7367 147.606 74.736 147.606 74.7353C147.606 74.7346 147.606 74.7339 147.606 74.7332C147.606 74.7324 147.606 74.7317 147.606 74.731C147.606 74.7303 147.606 74.7296 147.606 74.7289C147.606 74.7281 147.606 74.7274 147.606 74.7267C147.606 74.726 147.606 74.7253 147.606 74.7246C147.606 74.7239 147.606 74.7231 147.606 74.7224C147.606 74.7217 147.606 74.721 147.606 74.7203C147.606 74.7196 147.606 74.7188 147.606 74.7181C147.606 74.7174 147.606 74.7167 147.606 74.716C147.606 74.7153 147.606 74.7145 147.606 74.7138C147.606 74.7131 147.606 74.7124 147.606 74.7117C147.606 74.711 147.606 74.7102 147.606 74.7095C147.606 74.7088 147.606 74.7081 147.606 74.7074C147.606 74.7067 147.606 74.706 147.606 74.7052C147.606 74.7045 147.606 74.7038 147.606 74.7031C147.606 74.7024 147.606 74.7017 147.606 74.7009C147.606 74.7002 147.606 74.6995 147.606 74.6988C147.606 74.6981 147.606 74.6974 147.606 74.6966C147.606 74.6959 147.606 74.6952 147.606 74.6945C147.606 74.6938 147.606 74.6931 147.606 74.6923C147.606 74.6916 147.606 74.6909 147.606 74.6902C147.606 74.6895 147.606 74.6888 147.606 74.688C147.606 74.6873 147.606 74.6866 147.606 74.6859C147.606 74.6852 147.606 74.6845 147.606 74.6838C147.606 74.683 147.606 74.6823 147.606 74.6816C147.606 74.6809 147.606 74.6802 147.606 74.6795C147.606 74.6787 147.606 74.678 147.606 74.6773C147.606 74.6766 147.606 74.6759 147.606 74.6752C147.606 74.6744 147.606 74.6737 147.606 74.673C147.606 74.6723 147.606 74.6716 147.606 74.6709C147.606 74.6701 147.606 74.6694 147.606 74.6687C147.606 74.668 147.606 74.6673 147.606 74.6666C147.606 74.6658 147.606 74.6651 147.606 74.6644C147.606 74.6637 147.606 74.663 147.606 74.6623C147.606 74.6615 147.606 74.6608 147.606 74.6601C147.606 74.6594 147.606 74.6587 147.606 74.658C147.606 74.6573 147.606 74.6565 147.606 74.6558C147.606 74.6551 147.606 74.6544 147.606 74.6537C147.606 74.653 147.606 74.6522 147.606 74.6515C147.606 74.6508 147.606 74.6501 147.606 74.6494C147.606 74.6487 147.606 74.6479 147.606 74.6472C147.606 74.6465 147.606 74.6458 147.606 74.6451C147.606 74.6444 147.606 74.6436 147.606 74.6429C147.606 74.6422 147.606 74.6415 147.606 74.6408C147.606 74.6401 147.606 74.6393 147.606 74.6386C147.606 74.6379 147.606 74.6372 147.606 74.6365C147.606 74.6358 147.606 74.6351 147.606 74.6343C147.606 74.6336 147.606 74.6329 147.606 74.6322C147.606 74.6315 147.606 74.6308 147.606 74.63C147.606 74.6293 147.606 74.6286 147.606 74.6279C147.606 74.6272 147.606 74.6265 147.606 74.6257C147.606 74.625 147.606 74.6243 147.606 74.6236C147.606 74.6229 147.606 74.6222 147.606 74.6214C147.606 74.6207 147.606 74.62 147.606 74.6193C147.606 74.6186 147.606 74.6179 147.606 74.6171C147.606 74.6164 147.606 74.6157 147.606 74.615C147.606 74.6143 147.606 74.6136 147.606 74.6129C147.606 74.6121 147.606 74.6114 147.606 74.6107C147.606 74.61 147.606 74.6093 147.606 74.6086C147.606 74.6078 147.606 74.6071 147.606 74.6064C147.606 74.6057 147.606 74.605 147.606 74.6043C147.606 74.6035 147.606 74.6028 147.606 74.6021C147.606 74.6014 147.606 74.6007 147.606 74.6C147.606 74.5992 147.606 74.5985 147.606 74.5978C147.606 74.5971 147.606 74.5964 147.606 74.5957C147.606 74.5949 147.606 74.5942 147.606 74.5935C147.606 74.5928 147.606 74.5921 147.606 74.5914C147.606 74.5906 147.606 74.5899 147.606 74.5892C147.606 74.5885 147.606 74.5878 147.606 74.5871C147.606 74.5864 147.606 74.5856 147.606 74.5849C147.606 74.5842 147.606 74.5835 147.606 74.5828C147.606 74.5821 147.606 74.5813 147.606 74.5806C147.606 74.5799 147.606 74.5792 147.606 74.5785C147.606 74.5778 147.606 74.577 147.606 74.5763C147.606 74.5756 147.606 74.5749 147.606 74.5742C147.606 74.5735 147.606 74.5727 147.606 74.572C147.606 74.5713 147.606 74.5706 147.606 74.5699C147.606 74.5692 147.606 74.5685 147.606 74.5677C147.606 74.567 147.606 74.5663 147.606 74.5656C147.606 74.5649 147.606 74.5642 147.606 74.5634C147.606 74.5627 147.606 74.562 147.606 74.5613C147.606 74.5606 147.606 74.5599 147.606 74.5591C147.606 74.5584 147.606 74.5577 147.606 74.557C147.606 74.5563 147.606 74.5556 147.606 74.5548C147.606 74.5541 147.606 74.5534 147.606 74.5527C147.606 74.552 147.606 74.5513 147.606 74.5505C147.606 74.5498 147.606 74.5491 147.606 74.5484C147.606 74.5477 147.606 74.547 147.606 74.5462C147.606 74.5455 147.606 74.5448 147.606 74.5441C147.606 74.5434 147.606 74.5427 147.606 74.542C147.606 74.5412 147.606 74.5405 147.606 74.5398C147.606 74.5391 147.606 74.5384 147.606 74.5377C147.606 74.5369 147.606 74.5362 147.606 74.5355C147.606 74.5348 147.606 74.5341 147.606 74.5334C147.606 74.5326 147.606 74.5319 147.606 74.5312C147.606 74.5305 147.606 74.5298 147.606 74.5291C147.606 74.5283 147.606 74.5276 147.606 74.5269C147.606 74.5262 147.606 74.5255 147.606 74.5248C147.606 74.524 147.606 74.5233 147.606 74.5226C147.606 74.5219 147.606 74.5212 147.606 74.5205C147.606 74.5198 147.606 74.519 147.606 74.5183C147.606 74.5176 147.606 74.5169 147.606 74.5162C147.606 74.5155 147.606 74.5147 147.606 74.514C147.606 74.5133 147.606 74.5126 147.606 74.5119C147.606 74.5112 147.606 74.5104 147.606 74.5097C147.606 74.509 147.606 74.5083 147.606 74.5076C147.606 74.5069 147.606 74.5061 147.606 74.5054C147.606 74.5047 147.606 74.504 147.606 74.5033C147.606 74.5026 147.606 74.5018 147.606 74.5011C147.606 74.5004 147.606 74.4997 147.606 74.499C147.606 74.4983 147.606 74.4976 147.606 74.4968C147.606 74.4961 147.606 74.4954 147.606 74.4947C147.606 74.494 147.606 74.4933 147.606 74.4925C147.606 74.4918 147.606 74.4911 147.606 74.4904C147.606 74.4897 147.606 74.489 147.606 74.4882C147.606 74.4875 147.606 74.4868 147.606 74.4861C147.606 74.4854 147.606 74.4847 147.606 74.4839C147.606 74.4832 147.606 74.4825 147.606 74.4818C147.606 74.4811 147.606 74.4804 147.606 74.4796C147.606 74.4789 147.606 74.4782 147.606 74.4775C147.606 74.4768 147.606 74.4761 147.606 74.4753C147.606 74.4746 147.606 74.4739 147.606 74.4732C147.606 74.4725 147.606 74.4718 147.606 74.4711C147.606 74.4703 147.606 74.4696 147.606 74.4689C147.606 74.4682 147.606 74.4675 147.606 74.4668C147.606 74.466 147.606 74.4653 147.606 74.4646C147.606 74.4639 147.606 74.4632 147.606 74.4625C147.606 74.4617 147.606 74.461 147.606 74.4603C147.606 74.4596 147.606 74.4589 147.606 74.4582C147.606 74.4574 147.606 74.4567 147.606 74.456C147.606 74.4553 147.606 74.4546 147.606 74.4539C147.606 74.4532 147.606 74.4524 147.606 74.4517C147.606 74.451 147.606 74.4503 147.606 74.4496C147.606 74.4489 147.606 74.4481 147.606 74.4474C147.606 74.4467 147.606 74.446 147.606 74.4453C147.606 74.4446 147.606 74.4438 147.606 74.4431C147.606 74.4424 147.606 74.4417 147.606 74.441C147.606 74.4403 147.606 74.4395 147.606 74.4388C147.606 74.4381 147.606 74.4374 147.606 74.4367C147.606 74.436 147.606 74.4352 147.606 74.4345C147.606 74.4338 147.606 74.4331 147.606 74.4324C147.606 74.4317 147.606 74.431 147.606 74.4302C147.606 74.4295 147.606 74.4288 147.606 74.4281C147.606 74.4274 147.606 74.4267 147.606 74.4259C147.606 74.4252 147.606 74.4245 147.606 74.4238C147.606 74.4231 147.606 74.4224 147.606 74.4216C147.606 74.4209 147.606 74.4202 147.606 74.4195C147.606 74.4188 147.606 74.4181 147.606 74.4173C147.606 74.4166 147.606 74.4159 147.606 74.4152C147.606 74.4145 147.606 74.4138 147.606 74.413C147.606 74.4123 147.606 74.4116 147.606 74.4109C147.606 74.4102 147.606 74.4095 147.606 74.4087C147.606 74.408 147.606 74.4073 147.606 74.4066C147.606 74.4059 147.606 74.4052 147.606 74.4045C147.606 74.4037 147.606 74.403 147.606 74.4023C147.606 74.4016 147.606 74.4009 147.606 74.4002C147.606 74.3994 147.606 74.3987 147.606 74.398C147.606 74.3973 147.606 74.3966 147.606 74.3959C147.606 74.3951 147.606 74.3944 147.606 74.3937C147.606 74.393 147.606 74.3923 147.606 74.3916C147.606 74.3908 147.606 74.3901 147.606 74.3894C147.606 74.3887 147.606 74.388 147.606 74.3873C147.606 74.3865 147.606 74.3858 147.606 74.3851C147.606 74.3844 147.606 74.3837 147.606 74.383C147.606 74.3823 147.606 74.3815 147.606 74.3808C147.606 74.3801 147.606 74.3794 147.606 74.3787C147.606 74.378 147.606 74.3772 147.606 74.3765C147.606 74.3758 147.606 74.3751 147.606 74.3744C147.606 74.3737 147.606 74.3729 147.606 74.3722C147.606 74.3715 147.606 74.3708 147.606 74.3701C147.606 74.3694 147.606 74.3686 147.606 74.3679C147.606 74.3672 147.606 74.3665 147.606 74.3658C147.606 74.3651 147.606 74.3643 147.606 74.3636C147.606 74.3629 147.606 74.3622 147.606 74.3615C147.606 74.3608 147.606 74.3601 147.606 74.3593C147.606 74.3586 147.606 74.3579 147.606 74.3572C147.606 74.3565 147.606 74.3558 147.606 74.355C147.606 74.3543 147.606 74.3536 147.606 74.3529C147.606 74.3522 147.606 74.3515 147.606 74.3507C147.606 74.35 147.606 74.3493 147.606 74.3486C147.606 74.3479 147.606 74.3472 147.606 74.3464C147.606 74.3457 147.606 74.345 147.606 74.3443C147.606 74.3436 147.606 74.3429 147.606 74.3421C147.606 74.3414 147.606 74.3407 147.606 74.34C147.606 74.3393 147.606 74.3386 147.606 74.3379C147.606 74.3371 147.606 74.3364 147.606 74.3357C147.606 74.335 147.606 74.3343 147.606 74.3336C147.606 74.3328 147.606 74.3321 147.606 74.3314C147.606 74.3307 147.606 74.33 147.606 74.3293C147.606 74.3285 147.606 74.3278 147.606 74.3271C147.606 74.3264 147.606 74.3257 147.606 74.325C147.606 74.3242 147.606 74.3235 147.606 74.3228C147.606 74.3221 147.606 74.3214 147.606 74.3207C147.606 74.3199 147.606 74.3192 147.606 74.3185C147.606 74.3178 147.606 74.3171 147.606 74.3164C147.606 74.3157 147.606 74.3149 147.606 74.3142C147.606 74.3135 147.606 74.3128 147.606 74.3121C147.606 74.3114 147.606 74.3106 147.606 74.3099C147.606 74.3092 147.606 74.3085 147.606 74.3078C147.606 74.3071 147.606 74.3063 147.606 74.3056C147.606 74.3049 147.606 74.3042 147.606 74.3035C147.606 74.3028 147.606 74.302 147.606 74.3013C147.606 74.3006 147.606 74.2999 147.606 74.2992C147.606 74.2985 147.606 74.2977 147.606 74.297C147.606 74.2963 147.606 74.2956 147.606 74.2949C147.606 74.2942 147.606 74.2934 147.606 74.2927C147.606 74.292 147.606 74.2913 147.606 74.2906C147.606 74.2899 147.606 74.2892 147.606 74.2884C147.606 74.2877 147.606 74.287 147.606 74.2863C147.606 74.2856 147.606 74.2849 147.606 74.2841C147.606 74.2834 147.606 74.2827 147.606 74.282C147.606 74.2813 147.606 74.2806 147.606 74.2798C147.606 74.2791 147.606 74.2784 147.606 74.2777C147.606 74.277 147.606 74.2763 147.606 74.2755C147.606 74.2748 147.606 74.2741 147.606 74.2734C147.606 74.2727 147.606 74.272 147.606 74.2712C147.606 74.2705 147.606 74.2698 147.606 74.2691C147.606 74.2684 147.606 74.2677 147.606 74.267C147.606 74.2662 147.606 74.2655 147.606 74.2648C147.606 74.2641 147.606 74.2634 147.606 74.2627C147.606 74.2619 147.606 74.2612 147.606 74.2605C147.606 74.2598 147.606 74.2591 147.606 74.2584C147.606 74.2576 147.606 74.2569 147.606 74.2562C147.606 74.2555 147.606 74.2548 147.606 74.2541C147.606 74.2533 147.606 74.2526 147.606 74.2519C147.606 74.2512 147.606 74.2505 147.606 74.2498C147.606 74.2491 147.606 74.2483 147.606 74.2476C147.606 74.2469 147.606 74.2462 147.606 74.2455C147.606 74.2448 147.606 74.244 147.606 74.2433C147.606 74.2426 147.606 74.2419 147.606 74.2412C147.606 74.2405 147.606 74.2397 147.606 74.239C147.606 74.2383 147.606 74.2376 147.606 74.2369C147.606 74.2362 147.606 74.2354 147.606 74.2347C147.606 74.234 147.606 74.2333 147.606 74.2326C147.606 74.2319 147.606 74.2311 147.606 74.2304C147.606 74.2297 147.606 74.229 147.606 74.2283C147.606 74.2276 147.606 74.2268 147.606 74.2261C147.606 74.2254 147.606 74.2247 147.606 74.224C147.606 74.2233 147.606 74.2225 147.606 74.2218C147.606 74.2211 147.606 74.2204 147.606 74.2197C147.606 74.219 147.606 74.2183 147.606 74.2175C147.606 74.2168 147.606 74.2161 147.606 74.2154C147.606 74.2147 147.606 74.214 147.606 74.2132C147.606 74.2125 147.606 74.2118 147.606 74.2111C147.606 74.2104 147.606 74.2097 147.606 74.2089C147.606 74.2082 147.606 74.2075 147.606 74.2068C147.606 74.2061 147.606 74.2054 147.606 74.2046C147.606 74.2039 147.606 74.2032 147.606 74.2025C147.606 74.2018 147.606 74.2011 147.606 74.2004C147.606 74.1996 147.606 74.1989 147.606 74.1982C147.606 74.1975 147.606 74.1968 147.606 74.1961C147.606 74.1953 147.606 74.1946 147.606 74.1939C147.606 74.1932 147.606 74.1925 147.606 74.1918C147.606 74.191 147.606 74.1903 147.606 74.1896C147.606 74.1889 147.606 74.1882 147.606 74.1875C147.606 74.1867 147.606 74.186 147.606 74.1853C147.606 74.1846 147.606 74.1839 147.606 74.1832C147.606 74.1824 147.606 74.1817 147.606 74.181C147.606 74.1803 147.606 74.1796 147.606 74.1789C147.606 74.1782 147.606 74.1774 147.606 74.1767C147.606 74.176 147.606 74.1753 147.606 74.1746C147.606 74.1739 147.606 74.1731 147.606 74.1724C147.606 74.1717 147.606 74.171 147.606 74.1703C147.606 74.1696 147.606 74.1688 147.606 74.1681C147.606 74.1674 147.606 74.1667 147.606 74.166C147.606 74.1653 147.606 74.1645 147.606 74.1638C147.606 74.1631 147.606 74.1624 147.606 74.1617C147.606 74.161 147.606 74.1602 147.606 74.1595C147.606 74.1588 147.606 74.1581 147.606 74.1574C147.606 74.1567 147.606 74.1559 147.606 74.1552C147.606 74.1545 147.606 74.1538 147.606 74.1531C147.606 74.1524 147.606 74.1517 147.606 74.1509C147.606 74.1502 147.606 74.1495 147.606 74.1488C147.606 74.1481 147.606 74.1474 147.606 74.1466C147.606 74.1459 147.606 74.1452 147.606 74.1445C147.606 74.1438 147.606 74.1431 147.606 74.1423C147.606 74.1416 147.606 74.1409 147.606 74.1402C147.606 74.1395 147.606 74.1388 147.606 74.138C147.606 74.1373 147.606 74.1366 147.606 74.1359C147.606 74.1352 147.606 74.1345 147.606 74.1337C147.606 74.133 147.606 74.1323 147.606 74.1316C147.606 74.1309 147.606 74.1302 147.606 74.1295C147.606 74.1287 147.606 74.128 147.606 74.1273C147.606 74.1266 147.606 74.1259 147.606 74.1252C147.606 74.1244 147.606 74.1237 147.606 74.123C147.606 74.1223 147.606 74.1216 147.606 74.1209C147.606 74.1201 147.606 74.1194 147.606 74.1187C147.606 74.118 147.606 74.1173 147.606 74.1166C147.606 74.1158 147.606 74.1151 147.606 74.1144C147.606 74.1137 147.606 74.113 147.606 74.1123C147.606 74.1115 147.606 74.1108 147.606 74.1101C147.606 74.1094 147.606 74.1087 147.606 74.108C147.606 74.1073 147.606 74.1065 147.606 74.1058C147.606 74.1051 147.606 74.1044 147.606 74.1037C147.606 74.103 147.606 74.1022 147.606 74.1015C147.606 74.1008 147.606 74.1001 147.606 74.0994C147.606 74.0987 147.606 74.0979 147.606 74.0972C147.606 74.0965 147.606 74.0958 147.606 74.0951C147.606 74.0944 147.606 74.0936 147.606 74.0929C147.606 74.0922 147.606 74.0915 147.606 74.0908C147.606 74.0901 147.606 74.0893 147.606 74.0886C147.606 74.0879 147.606 74.0872 147.606 74.0865C147.606 74.0858 147.606 74.0851 147.606 74.0843C147.606 74.0836 147.606 74.0829 147.606 74.0822C147.606 74.0815 147.606 74.0808 147.606 74.08C147.606 74.0793 147.606 74.0786 147.606 74.0779C147.606 74.0772 147.606 74.0765 147.606 74.0757C147.606 74.075 147.606 74.0743 147.606 74.0736C147.606 74.0729 147.606 74.0722 147.606 74.0714C147.606 74.0707 147.606 74.07 147.606 74.0693C147.606 74.0686 147.606 74.0679 147.606 74.0671C147.606 74.0664 147.606 74.0657 147.606 74.065H145.606C145.606 74.0657 145.606 74.0664 145.606 74.0671C145.606 74.0679 145.606 74.0686 145.606 74.0693C145.606 74.07 145.606 74.0707 145.606 74.0714C145.606 74.0722 145.606 74.0729 145.606 74.0736C145.606 74.0743 145.606 74.075 145.606 74.0757C145.606 74.0765 145.606 74.0772 145.606 74.0779C145.606 74.0786 145.606 74.0793 145.606 74.08C145.606 74.0808 145.606 74.0815 145.606 74.0822C145.606 74.0829 145.606 74.0836 145.606 74.0843C145.606 74.0851 145.606 74.0858 145.606 74.0865C145.606 74.0872 145.606 74.0879 145.606 74.0886C145.606 74.0893 145.606 74.0901 145.606 74.0908C145.606 74.0915 145.606 74.0922 145.606 74.0929C145.606 74.0936 145.606 74.0944 145.606 74.0951C145.606 74.0958 145.606 74.0965 145.606 74.0972C145.606 74.0979 145.606 74.0987 145.606 74.0994C145.606 74.1001 145.606 74.1008 145.606 74.1015C145.606 74.1022 145.606 74.103 145.606 74.1037C145.606 74.1044 145.606 74.1051 145.606 74.1058C145.606 74.1065 145.606 74.1073 145.606 74.108C145.606 74.1087 145.606 74.1094 145.606 74.1101C145.606 74.1108 145.606 74.1115 145.606 74.1123C145.606 74.113 145.606 74.1137 145.606 74.1144C145.606 74.1151 145.606 74.1158 145.606 74.1166C145.606 74.1173 145.606 74.118 145.606 74.1187C145.606 74.1194 145.606 74.1201 145.606 74.1209C145.606 74.1216 145.606 74.1223 145.606 74.123C145.606 74.1237 145.606 74.1244 145.606 74.1252C145.606 74.1259 145.606 74.1266 145.606 74.1273C145.606 74.128 145.606 74.1287 145.606 74.1295C145.606 74.1302 145.606 74.1309 145.606 74.1316C145.606 74.1323 145.606 74.133 145.606 74.1337C145.606 74.1345 145.606 74.1352 145.606 74.1359C145.606 74.1366 145.606 74.1373 145.606 74.138C145.606 74.1388 145.606 74.1395 145.606 74.1402C145.606 74.1409 145.606 74.1416 145.606 74.1423C145.606 74.1431 145.606 74.1438 145.606 74.1445C145.606 74.1452 145.606 74.1459 145.606 74.1466C145.606 74.1474 145.606 74.1481 145.606 74.1488C145.606 74.1495 145.606 74.1502 145.606 74.1509C145.606 74.1517 145.606 74.1524 145.606 74.1531C145.606 74.1538 145.606 74.1545 145.606 74.1552C145.606 74.1559 145.606 74.1567 145.606 74.1574C145.606 74.1581 145.606 74.1588 145.606 74.1595C145.606 74.1602 145.606 74.161 145.606 74.1617C145.606 74.1624 145.606 74.1631 145.606 74.1638C145.606 74.1645 145.606 74.1653 145.606 74.166C145.606 74.1667 145.606 74.1674 145.606 74.1681C145.606 74.1688 145.606 74.1696 145.606 74.1703C145.606 74.171 145.606 74.1717 145.606 74.1724C145.606 74.1731 145.606 74.1739 145.606 74.1746C145.606 74.1753 145.606 74.176 145.606 74.1767C145.606 74.1774 145.606 74.1782 145.606 74.1789C145.606 74.1796 145.606 74.1803 145.606 74.181C145.606 74.1817 145.606 74.1824 145.606 74.1832C145.606 74.1839 145.606 74.1846 145.606 74.1853C145.606 74.186 145.606 74.1867 145.606 74.1875C145.606 74.1882 145.606 74.1889 145.606 74.1896C145.606 74.1903 145.606 74.191 145.606 74.1918C145.606 74.1925 145.606 74.1932 145.606 74.1939C145.606 74.1946 145.606 74.1953 145.606 74.1961C145.606 74.1968 145.606 74.1975 145.606 74.1982C145.606 74.1989 145.606 74.1996 145.606 74.2004C145.606 74.2011 145.606 74.2018 145.606 74.2025C145.606 74.2032 145.606 74.2039 145.606 74.2046C145.606 74.2054 145.606 74.2061 145.606 74.2068C145.606 74.2075 145.606 74.2082 145.606 74.2089C145.606 74.2097 145.606 74.2104 145.606 74.2111C145.606 74.2118 145.606 74.2125 145.606 74.2132C145.606 74.214 145.606 74.2147 145.606 74.2154C145.606 74.2161 145.606 74.2168 145.606 74.2175C145.606 74.2183 145.606 74.219 145.606 74.2197C145.606 74.2204 145.606 74.2211 145.606 74.2218C145.606 74.2225 145.606 74.2233 145.606 74.224C145.606 74.2247 145.606 74.2254 145.606 74.2261C145.606 74.2268 145.606 74.2276 145.606 74.2283C145.606 74.229 145.606 74.2297 145.606 74.2304C145.606 74.2311 145.606 74.2319 145.606 74.2326C145.606 74.2333 145.606 74.234 145.606 74.2347C145.606 74.2354 145.606 74.2362 145.606 74.2369C145.606 74.2376 145.606 74.2383 145.606 74.239C145.606 74.2397 145.606 74.2405 145.606 74.2412C145.606 74.2419 145.606 74.2426 145.606 74.2433C145.606 74.244 145.606 74.2448 145.606 74.2455C145.606 74.2462 145.606 74.2469 145.606 74.2476C145.606 74.2483 145.606 74.2491 145.606 74.2498C145.606 74.2505 145.606 74.2512 145.606 74.2519C145.606 74.2526 145.606 74.2533 145.606 74.2541C145.606 74.2548 145.606 74.2555 145.606 74.2562C145.606 74.2569 145.606 74.2576 145.606 74.2584C145.606 74.2591 145.606 74.2598 145.606 74.2605C145.606 74.2612 145.606 74.2619 145.606 74.2627C145.606 74.2634 145.606 74.2641 145.606 74.2648C145.606 74.2655 145.606 74.2662 145.606 74.267C145.606 74.2677 145.606 74.2684 145.606 74.2691C145.606 74.2698 145.606 74.2705 145.606 74.2712C145.606 74.272 145.606 74.2727 145.606 74.2734C145.606 74.2741 145.606 74.2748 145.606 74.2755C145.606 74.2763 145.606 74.277 145.606 74.2777C145.606 74.2784 145.606 74.2791 145.606 74.2798C145.606 74.2806 145.606 74.2813 145.606 74.282C145.606 74.2827 145.606 74.2834 145.606 74.2841C145.606 74.2849 145.606 74.2856 145.606 74.2863C145.606 74.287 145.606 74.2877 145.606 74.2884C145.606 74.2892 145.606 74.2899 145.606 74.2906C145.606 74.2913 145.606 74.292 145.606 74.2927C145.606 74.2934 145.606 74.2942 145.606 74.2949C145.606 74.2956 145.606 74.2963 145.606 74.297C145.606 74.2977 145.606 74.2985 145.606 74.2992C145.606 74.2999 145.606 74.3006 145.606 74.3013C145.606 74.302 145.606 74.3028 145.606 74.3035C145.606 74.3042 145.606 74.3049 145.606 74.3056C145.606 74.3063 145.606 74.3071 145.606 74.3078C145.606 74.3085 145.606 74.3092 145.606 74.3099C145.606 74.3106 145.606 74.3114 145.606 74.3121C145.606 74.3128 145.606 74.3135 145.606 74.3142C145.606 74.3149 145.606 74.3157 145.606 74.3164C145.606 74.3171 145.606 74.3178 145.606 74.3185C145.606 74.3192 145.606 74.3199 145.606 74.3207C145.606 74.3214 145.606 74.3221 145.606 74.3228C145.606 74.3235 145.606 74.3242 145.606 74.325C145.606 74.3257 145.606 74.3264 145.606 74.3271C145.606 74.3278 145.606 74.3285 145.606 74.3293C145.606 74.33 145.606 74.3307 145.606 74.3314C145.606 74.3321 145.606 74.3328 145.606 74.3336C145.606 74.3343 145.606 74.335 145.606 74.3357C145.606 74.3364 145.606 74.3371 145.606 74.3379C145.606 74.3386 145.606 74.3393 145.606 74.34C145.606 74.3407 145.606 74.3414 145.606 74.3421C145.606 74.3429 145.606 74.3436 145.606 74.3443C145.606 74.345 145.606 74.3457 145.606 74.3464C145.606 74.3472 145.606 74.3479 145.606 74.3486C145.606 74.3493 145.606 74.35 145.606 74.3507C145.606 74.3515 145.606 74.3522 145.606 74.3529C145.606 74.3536 145.606 74.3543 145.606 74.355C145.606 74.3558 145.606 74.3565 145.606 74.3572C145.606 74.3579 145.606 74.3586 145.606 74.3593C145.606 74.3601 145.606 74.3608 145.606 74.3615C145.606 74.3622 145.606 74.3629 145.606 74.3636C145.606 74.3643 145.606 74.3651 145.606 74.3658C145.606 74.3665 145.606 74.3672 145.606 74.3679C145.606 74.3686 145.606 74.3694 145.606 74.3701C145.606 74.3708 145.606 74.3715 145.606 74.3722C145.606 74.3729 145.606 74.3737 145.606 74.3744C145.606 74.3751 145.606 74.3758 145.606 74.3765C145.606 74.3772 145.606 74.378 145.606 74.3787C145.606 74.3794 145.606 74.3801 145.606 74.3808C145.606 74.3815 145.606 74.3823 145.606 74.383C145.606 74.3837 145.606 74.3844 145.606 74.3851C145.606 74.3858 145.606 74.3865 145.606 74.3873C145.606 74.388 145.606 74.3887 145.606 74.3894C145.606 74.3901 145.606 74.3908 145.606 74.3916C145.606 74.3923 145.606 74.393 145.606 74.3937C145.606 74.3944 145.606 74.3951 145.606 74.3959C145.606 74.3966 145.606 74.3973 145.606 74.398C145.606 74.3987 145.606 74.3994 145.606 74.4002C145.606 74.4009 145.606 74.4016 145.606 74.4023C145.606 74.403 145.606 74.4037 145.606 74.4045C145.606 74.4052 145.606 74.4059 145.606 74.4066C145.606 74.4073 145.606 74.408 145.606 74.4087C145.606 74.4095 145.606 74.4102 145.606 74.4109C145.606 74.4116 145.606 74.4123 145.606 74.413C145.606 74.4138 145.606 74.4145 145.606 74.4152C145.606 74.4159 145.606 74.4166 145.606 74.4173C145.606 74.4181 145.606 74.4188 145.606 74.4195C145.606 74.4202 145.606 74.4209 145.606 74.4216C145.606 74.4224 145.606 74.4231 145.606 74.4238C145.606 74.4245 145.606 74.4252 145.606 74.4259C145.606 74.4267 145.606 74.4274 145.606 74.4281C145.606 74.4288 145.606 74.4295 145.606 74.4302C145.606 74.431 145.606 74.4317 145.606 74.4324C145.606 74.4331 145.606 74.4338 145.606 74.4345C145.606 74.4352 145.606 74.436 145.606 74.4367C145.606 74.4374 145.606 74.4381 145.606 74.4388C145.606 74.4395 145.606 74.4403 145.606 74.441C145.606 74.4417 145.606 74.4424 145.606 74.4431C145.606 74.4438 145.606 74.4446 145.606 74.4453C145.606 74.446 145.606 74.4467 145.606 74.4474C145.606 74.4481 145.606 74.4489 145.606 74.4496C145.606 74.4503 145.606 74.451 145.606 74.4517C145.606 74.4524 145.606 74.4532 145.606 74.4539C145.606 74.4546 145.606 74.4553 145.606 74.456C145.606 74.4567 145.606 74.4574 145.606 74.4582C145.606 74.4589 145.606 74.4596 145.606 74.4603C145.606 74.461 145.606 74.4617 145.606 74.4625C145.606 74.4632 145.606 74.4639 145.606 74.4646C145.606 74.4653 145.606 74.466 145.606 74.4668C145.606 74.4675 145.606 74.4682 145.606 74.4689C145.606 74.4696 145.606 74.4703 145.606 74.4711C145.606 74.4718 145.606 74.4725 145.606 74.4732C145.606 74.4739 145.606 74.4746 145.606 74.4753C145.606 74.4761 145.606 74.4768 145.606 74.4775C145.606 74.4782 145.606 74.4789 145.606 74.4796C145.606 74.4804 145.606 74.4811 145.606 74.4818C145.606 74.4825 145.606 74.4832 145.606 74.4839C145.606 74.4847 145.606 74.4854 145.606 74.4861C145.606 74.4868 145.606 74.4875 145.606 74.4882C145.606 74.489 145.606 74.4897 145.606 74.4904C145.606 74.4911 145.606 74.4918 145.606 74.4925C145.606 74.4933 145.606 74.494 145.606 74.4947C145.606 74.4954 145.606 74.4961 145.606 74.4968C145.606 74.4976 145.606 74.4983 145.606 74.499C145.606 74.4997 145.606 74.5004 145.606 74.5011C145.606 74.5018 145.606 74.5026 145.606 74.5033C145.606 74.504 145.606 74.5047 145.606 74.5054C145.606 74.5061 145.606 74.5069 145.606 74.5076C145.606 74.5083 145.606 74.509 145.606 74.5097C145.606 74.5104 145.606 74.5112 145.606 74.5119C145.606 74.5126 145.606 74.5133 145.606 74.514C145.606 74.5147 145.606 74.5155 145.606 74.5162C145.606 74.5169 145.606 74.5176 145.606 74.5183C145.606 74.519 145.606 74.5198 145.606 74.5205C145.606 74.5212 145.606 74.5219 145.606 74.5226C145.606 74.5233 145.606 74.524 145.606 74.5248C145.606 74.5255 145.606 74.5262 145.606 74.5269C145.606 74.5276 145.606 74.5283 145.606 74.5291C145.606 74.5298 145.606 74.5305 145.606 74.5312C145.606 74.5319 145.606 74.5326 145.606 74.5334C145.606 74.5341 145.606 74.5348 145.606 74.5355C145.606 74.5362 145.606 74.5369 145.606 74.5377C145.606 74.5384 145.606 74.5391 145.606 74.5398C145.606 74.5405 145.606 74.5412 145.606 74.542C145.606 74.5427 145.606 74.5434 145.606 74.5441C145.606 74.5448 145.606 74.5455 145.606 74.5462C145.606 74.547 145.606 74.5477 145.606 74.5484C145.606 74.5491 145.606 74.5498 145.606 74.5505C145.606 74.5513 145.606 74.552 145.606 74.5527C145.606 74.5534 145.606 74.5541 145.606 74.5548C145.606 74.5556 145.606 74.5563 145.606 74.557C145.606 74.5577 145.606 74.5584 145.606 74.5591C145.606 74.5599 145.606 74.5606 145.606 74.5613C145.606 74.562 145.606 74.5627 145.606 74.5634C145.606 74.5642 145.606 74.5649 145.606 74.5656C145.606 74.5663 145.606 74.567 145.606 74.5677C145.606 74.5685 145.606 74.5692 145.606 74.5699C145.606 74.5706 145.606 74.5713 145.606 74.572C145.606 74.5727 145.606 74.5735 145.606 74.5742C145.606 74.5749 145.606 74.5756 145.606 74.5763C145.606 74.577 145.606 74.5778 145.606 74.5785C145.606 74.5792 145.606 74.5799 145.606 74.5806C145.606 74.5813 145.606 74.5821 145.606 74.5828C145.606 74.5835 145.606 74.5842 145.606 74.5849C145.606 74.5856 145.606 74.5864 145.606 74.5871C145.606 74.5878 145.606 74.5885 145.606 74.5892C145.606 74.5899 145.606 74.5906 145.606 74.5914C145.606 74.5921 145.606 74.5928 145.606 74.5935C145.606 74.5942 145.606 74.5949 145.606 74.5957C145.606 74.5964 145.606 74.5971 145.606 74.5978C145.606 74.5985 145.606 74.5992 145.606 74.6C145.606 74.6007 145.606 74.6014 145.606 74.6021C145.606 74.6028 145.606 74.6035 145.606 74.6043C145.606 74.605 145.606 74.6057 145.606 74.6064C145.606 74.6071 145.606 74.6078 145.606 74.6086C145.606 74.6093 145.606 74.61 145.606 74.6107C145.606 74.6114 145.606 74.6121 145.606 74.6129C145.606 74.6136 145.606 74.6143 145.606 74.615C145.606 74.6157 145.606 74.6164 145.606 74.6171C145.606 74.6179 145.606 74.6186 145.606 74.6193C145.606 74.62 145.606 74.6207 145.606 74.6214C145.606 74.6222 145.606 74.6229 145.606 74.6236C145.606 74.6243 145.606 74.625 145.606 74.6257C145.606 74.6265 145.606 74.6272 145.606 74.6279C145.606 74.6286 145.606 74.6293 145.606 74.63C145.606 74.6308 145.606 74.6315 145.606 74.6322C145.606 74.6329 145.606 74.6336 145.606 74.6343C145.606 74.6351 145.606 74.6358 145.606 74.6365C145.606 74.6372 145.606 74.6379 145.606 74.6386C145.606 74.6393 145.606 74.6401 145.606 74.6408C145.606 74.6415 145.606 74.6422 145.606 74.6429C145.606 74.6436 145.606 74.6444 145.606 74.6451C145.606 74.6458 145.606 74.6465 145.606 74.6472C145.606 74.6479 145.606 74.6487 145.606 74.6494C145.606 74.6501 145.606 74.6508 145.606 74.6515C145.606 74.6522 145.606 74.653 145.606 74.6537C145.606 74.6544 145.606 74.6551 145.606 74.6558C145.606 74.6565 145.606 74.6573 145.606 74.658C145.606 74.6587 145.606 74.6594 145.606 74.6601C145.606 74.6608 145.606 74.6615 145.606 74.6623C145.606 74.663 145.606 74.6637 145.606 74.6644C145.606 74.6651 145.606 74.6658 145.606 74.6666C145.606 74.6673 145.606 74.668 145.606 74.6687C145.606 74.6694 145.606 74.6701 145.606 74.6709C145.606 74.6716 145.606 74.6723 145.606 74.673C145.606 74.6737 145.606 74.6744 145.606 74.6752C145.606 74.6759 145.606 74.6766 145.606 74.6773C145.606 74.678 145.606 74.6787 145.606 74.6795C145.606 74.6802 145.606 74.6809 145.606 74.6816C145.606 74.6823 145.606 74.683 145.606 74.6838C145.606 74.6845 145.606 74.6852 145.606 74.6859C145.606 74.6866 145.606 74.6873 145.606 74.688C145.606 74.6888 145.606 74.6895 145.606 74.6902C145.606 74.6909 145.606 74.6916 145.606 74.6923C145.606 74.6931 145.606 74.6938 145.606 74.6945C145.606 74.6952 145.606 74.6959 145.606 74.6966C145.606 74.6974 145.606 74.6981 145.606 74.6988C145.606 74.6995 145.606 74.7002 145.606 74.7009C145.606 74.7017 145.606 74.7024 145.606 74.7031C145.606 74.7038 145.606 74.7045 145.606 74.7052C145.606 74.706 145.606 74.7067 145.606 74.7074C145.606 74.7081 145.606 74.7088 145.606 74.7095C145.606 74.7102 145.606 74.711 145.606 74.7117C145.606 74.7124 145.606 74.7131 145.606 74.7138C145.606 74.7145 145.606 74.7153 145.606 74.716C145.606 74.7167 145.606 74.7174 145.606 74.7181C145.606 74.7188 145.606 74.7196 145.606 74.7203C145.606 74.721 145.606 74.7217 145.606 74.7224C145.606 74.7231 145.606 74.7239 145.606 74.7246C145.606 74.7253 145.606 74.726 145.606 74.7267C145.606 74.7274 145.606 74.7281 145.606 74.7289C145.606 74.7296 145.606 74.7303 145.606 74.731C145.606 74.7317 145.606 74.7324 145.606 74.7332C145.606 74.7339 145.606 74.7346 145.606 74.7353C145.606 74.736 145.606 74.7367 145.606 74.7375C145.606 74.7382 145.606 74.7389 145.606 74.7396C145.606 74.7403 145.606 74.741 145.606 74.7418C145.606 74.7425 145.606 74.7432 145.606 74.7439C145.606 74.7446 145.606 74.7453 145.606 74.7461C145.606 74.7468 145.606 74.7475 145.606 74.7482C145.606 74.7489 145.606 74.7496 145.606 74.7504C145.606 74.7511 145.606 74.7518 145.606 74.7525C145.606 74.7532 145.606 74.7539 145.606 74.7546C145.606 74.7554 145.606 74.7561 145.606 74.7568C145.606 74.7575 145.606 74.7582 145.606 74.7589C145.606 74.7597 145.606 74.7604 145.606 74.7611C145.606 74.7618 145.606 74.7625 145.606 74.7632C145.606 74.764 145.606 74.7647 145.606 74.7654C145.606 74.7661 145.606 74.7668 145.606 74.7675C145.606 74.7683 145.606 74.769 145.606 74.7697C145.606 74.7704 145.606 74.7711 145.606 74.7718C145.606 74.7726 145.606 74.7733 145.606 74.774C145.606 74.7747 145.606 74.7754 145.606 74.7761C145.606 74.7768 145.606 74.7776 145.606 74.7783C145.606 74.779 145.606 74.7797 145.606 74.7804C145.606 74.7811 145.606 74.7819 145.606 74.7826C145.606 74.7833 145.606 74.784 145.606 74.7847C145.606 74.7854 145.606 74.7862 145.606 74.7869C145.606 74.7876 145.606 74.7883 145.606 74.789C145.606 74.7897 145.606 74.7905 145.606 74.7912C145.606 74.7919 145.606 74.7926 145.606 74.7933C145.606 74.794 145.606 74.7948 145.606 74.7955C145.606 74.7962 145.606 74.7969 145.606 74.7976C145.606 74.7983 145.606 74.799 145.606 74.7998C145.606 74.8005 145.606 74.8012 145.606 74.8019C145.606 74.8026 145.606 74.8033 145.606 74.8041C145.606 74.8048 145.606 74.8055 145.606 74.8062C145.606 74.8069 145.606 74.8076 145.606 74.8084C145.606 74.8091 145.606 74.8098 145.606 74.8105C145.606 74.8112 145.606 74.8119 145.606 74.8127C145.606 74.8134 145.606 74.8141 145.606 74.8148C145.606 74.8155 145.606 74.8162 145.606 74.817C145.606 74.8177 145.606 74.8184 145.606 74.8191C145.606 74.8198 145.606 74.8205 145.606 74.8213C145.606 74.822 145.606 74.8227 145.606 74.8234C145.606 74.8241 145.606 74.8248 145.606 74.8255C145.606 74.8263 145.606 74.827 145.606 74.8277C145.606 74.8284 145.606 74.8291 145.606 74.8298C145.606 74.8306 145.606 74.8313 145.606 74.832C145.606 74.8327 145.606 74.8334 145.606 74.8341C145.606 74.8349 145.606 74.8356 145.606 74.8363C145.606 74.837 145.606 74.8377 145.606 74.8384C145.606 74.8392 145.606 74.8399 145.606 74.8406C145.606 74.8413 145.606 74.842 145.606 74.8427C145.606 74.8434 145.606 74.8442 145.606 74.8449C145.606 74.8456 145.606 74.8463 145.606 74.847C145.606 74.8477 145.606 74.8485 145.606 74.8492C145.606 74.8499 145.606 74.8506 145.606 74.8513C145.606 74.852 145.606 74.8528 145.606 74.8535C145.606 74.8542 145.606 74.8549 145.606 74.8556C145.606 74.8563 145.606 74.8571 145.606 74.8578C145.606 74.8585 145.606 74.8592 145.606 74.8599C145.606 74.8606 145.606 74.8614 145.606 74.8621C145.606 74.8628 145.606 74.8635 145.606 74.8642C145.606 74.8649 145.606 74.8657 145.606 74.8664C145.606 74.8671 145.606 74.8678 145.606 74.8685C145.606 74.8692 145.606 74.8699 145.606 74.8707C145.606 74.8714 145.606 74.8721 145.606 74.8728C145.606 74.8735 145.606 74.8742 145.606 74.875C145.606 74.8757 145.606 74.8764 145.606 74.8771C145.606 74.8778 145.606 74.8785 145.606 74.8793C145.606 74.88 145.606 74.8807 145.606 74.8814C145.606 74.8821 145.606 74.8828 145.606 74.8836C145.606 74.8843 145.606 74.885 145.606 74.8857C145.606 74.8864 145.606 74.8871 145.606 74.8879C145.606 74.8886 145.606 74.8893 145.606 74.89C145.606 74.8907 145.606 74.8914 145.606 74.8921C145.606 74.8929 145.606 74.8936 145.606 74.8943C145.606 74.895 145.606 74.8957 145.606 74.8964C145.606 74.8972 145.606 74.8979 145.606 74.8986C145.606 74.8993 145.606 74.9 145.606 74.9007C145.606 74.9015 145.606 74.9022 145.606 74.9029C145.606 74.9036 145.606 74.9043 145.606 74.905C145.606 74.9058 145.606 74.9065 145.606 74.9072C145.606 74.9079 145.606 74.9086 145.606 74.9093C145.606 74.9101 145.606 74.9108 145.606 74.9115C145.606 74.9122 145.606 74.9129 145.606 74.9136C145.606 74.9143 145.606 74.9151 145.606 74.9158C145.606 74.9165 145.606 74.9172 145.606 74.9179C145.606 74.9186 145.606 74.9194 145.606 74.9201C145.606 74.9208 145.606 74.9215 145.606 74.9222C145.606 74.9229 145.606 74.9237 145.606 74.9244C145.606 74.9251 145.606 74.9258 145.606 74.9265C145.606 74.9272 145.606 74.928 145.606 74.9287C145.606 74.9294 145.606 74.9301 145.606 74.9308C145.606 74.9315 145.606 74.9323 145.606 74.933C145.606 74.9337 145.606 74.9344 145.606 74.9351C145.606 74.9358 145.606 74.9366 145.606 74.9373C145.606 74.938 145.606 74.9387 145.606 74.9394C145.606 74.9401 145.606 74.9408 145.606 74.9416C145.606 74.9423 145.606 74.943 145.606 74.9437C145.606 74.9444 145.606 74.9451 145.606 74.9459C145.606 74.9466 145.606 74.9473 145.606 74.948C145.606 74.9487 145.606 74.9494 145.606 74.9502C145.606 74.9509 145.606 74.9516 145.606 74.9523C145.606 74.953 145.606 74.9537 145.606 74.9545C145.606 74.9552 145.606 74.9559 145.606 74.9566C145.606 74.9573 145.606 74.958 145.606 74.9587C145.606 74.9595 145.606 74.9602 145.606 74.9609C145.606 74.9616 145.606 74.9623 145.606 74.963C145.606 74.9638 145.606 74.9645 145.606 74.9652C145.606 74.9659 145.606 74.9666 145.606 74.9673C145.606 74.9681 145.606 74.9688 145.606 74.9695C145.606 74.9702 145.606 74.9709 145.606 74.9716C145.606 74.9724 145.606 74.9731 145.606 74.9738C145.606 74.9745 145.606 74.9752 145.606 74.9759C145.606 74.9767 145.606 74.9774 145.606 74.9781C145.606 74.9788 145.606 74.9795 145.606 74.9802C145.606 74.9809 145.606 74.9817 145.606 74.9824C145.606 74.9831 145.606 74.9838 145.606 74.9845C145.606 74.9852 145.606 74.986 145.606 74.9867C145.606 74.9874 145.606 74.9881 145.606 74.9888C145.606 74.9895 145.606 74.9903 145.606 74.991C145.606 74.9917 145.606 74.9924 145.606 74.9931C145.606 74.9938 145.606 74.9946 145.606 74.9953C145.606 74.996 145.606 74.9967 145.606 74.9974C145.606 74.9981 145.606 74.9989 145.606 74.9996C145.606 75.0003 145.606 75.001 145.606 75.0017C145.606 75.0024 145.606 75.0032 145.606 75.0039C145.606 75.0046 145.606 75.0053 145.606 75.006C145.606 75.0067 145.606 75.0074 145.606 75.0082C145.606 75.0089 145.606 75.0096 145.606 75.0103C145.606 75.011 145.606 75.0117 145.606 75.0125C145.606 75.0132 145.606 75.0139 145.606 75.0146C145.606 75.0153 145.606 75.016 145.606 75.0168C145.606 75.0175 145.606 75.0182 145.606 75.0189C145.606 75.0196 145.606 75.0203 145.606 75.0211C145.606 75.0218 145.606 75.0225 145.606 75.0232C145.606 75.0239 145.606 75.0246 145.606 75.0254C145.606 75.0261 145.606 75.0268 145.606 75.0275C145.606 75.0282 145.606 75.0289 145.606 75.0296C145.606 75.0304 145.606 75.0311 145.606 75.0318C145.606 75.0325 145.606 75.0332 145.606 75.0339C145.606 75.0347 145.606 75.0354 145.606 75.0361C145.606 75.0368 145.606 75.0375 145.606 75.0382C145.606 75.039 145.606 75.0397 145.606 75.0404C145.606 75.0411 145.606 75.0418 145.606 75.0425C145.606 75.0433 145.606 75.044 145.606 75.0447C145.606 75.0454 145.606 75.0461 145.606 75.0468C145.606 75.0476 145.606 75.0483 145.606 75.049C145.606 75.0497 145.606 75.0504 145.606 75.0511C145.606 75.0518 145.606 75.0526 145.606 75.0533C145.606 75.054 145.606 75.0547 145.606 75.0554C145.606 75.0561 145.606 75.0569 145.606 75.0576C145.606 75.0583 145.606 75.059 145.606 75.0597C145.606 75.0604 145.606 75.0612 145.606 75.0619C145.606 75.0626 145.606 75.0633 145.606 75.064C145.606 75.0647 145.606 75.0655 145.606 75.0662C145.606 75.0669 145.606 75.0676 145.606 75.0683C145.606 75.069 145.606 75.0698 145.606 75.0705C145.606 75.0712 145.606 75.0719 145.606 75.0726C145.606 75.0733 145.606 75.074 145.606 75.0748C145.606 75.0755 145.606 75.0762 145.606 75.0769C145.606 75.0776 145.606 75.0783 145.606 75.0791C145.606 75.0798 145.606 75.0805 145.606 75.0812C145.606 75.0819 145.606 75.0826 145.606 75.0834C145.606 75.0841 145.606 75.0848 145.606 75.0855C145.606 75.0862 145.606 75.0869 145.606 75.0877C145.606 75.0884 145.606 75.0891 145.606 75.0898C145.606 75.0905 145.606 75.0912 145.606 75.092C145.606 75.0927 145.606 75.0934 145.606 75.0941C145.606 75.0948 145.606 75.0955 145.606 75.0962C145.606 75.097 145.606 75.0977 145.606 75.0984C145.606 75.0991 145.606 75.0998 145.606 75.1005C145.606 75.1013 145.606 75.102 145.606 75.1027C145.606 75.1034 145.606 75.1041 145.606 75.1048C145.606 75.1056 145.606 75.1063 145.606 75.107C145.606 75.1077 145.606 75.1084 145.606 75.1091C145.606 75.1099 145.606 75.1106 145.606 75.1113C145.606 75.112 145.606 75.1127 145.606 75.1134C145.606 75.1142 145.606 75.1149 145.606 75.1156C145.606 75.1163 145.606 75.117 145.606 75.1177C145.606 75.1185 145.606 75.1192 145.606 75.1199C145.606 75.1206 145.606 75.1213 145.606 75.122C145.606 75.1227 145.606 75.1235 145.606 75.1242C145.606 75.1249 145.606 75.1256 145.606 75.1263C145.606 75.127 145.606 75.1278 145.606 75.1285C145.606 75.1292 145.606 75.1299 145.606 75.1306C145.606 75.1313 145.606 75.1321 145.606 75.1328C145.606 75.1335 145.606 75.1342 145.606 75.1349C145.606 75.1356 145.606 75.1364 145.606 75.1371C145.606 75.1378 145.606 75.1385 145.606 75.1392C145.606 75.1399 145.606 75.1407 145.606 75.1414C145.606 75.1421 145.606 75.1428 145.606 75.1435C145.606 75.1442 145.606 75.1449 145.606 75.1457C145.606 75.1464 145.606 75.1471 145.606 75.1478C145.606 75.1485 145.606 75.1492 145.606 75.15C145.606 75.1507 145.606 75.1514 145.606 75.1521C145.606 75.1528 145.606 75.1535 145.606 75.1543C145.606 75.155 145.606 75.1557 145.606 75.1564C145.606 75.1571 145.606 75.1578 145.606 75.1586C145.606 75.1593 145.606 75.16 145.606 75.1607C145.606 75.1614 145.606 75.1621 145.606 75.1628C145.606 75.1636 145.606 75.1643 145.606 75.165H147.606ZM147.606 74.065C147.606 70.2252 147.053 67.1873 145.818 65.088L144.094 66.102C145.06 67.7427 145.606 70.3515 145.606 74.065H147.606ZM145.823 65.0953C144.596 62.9694 142.877 61.735 140.666 61.735V63.735C141.976 63.735 143.117 64.4072 144.09 66.0947L145.823 65.0953ZM140.666 61.735C139.138 61.735 137.803 62.1872 136.747 63.1515L138.096 64.6285C138.726 64.0528 139.554 63.735 140.666 63.735V61.735ZM136.747 63.1515C135.764 64.0495 135.054 65.1912 134.603 66.5438L136.5 67.1762C136.856 66.1088 137.392 65.2705 138.096 64.6285L136.747 63.1515ZM134.597 66.5617C134.201 67.827 134.001 69.1008 134.001 70.38H136.001C136.001 69.3126 136.168 68.2397 136.506 67.1583L134.597 66.5617Z" fill="black" mask="url(#path-20-outside-1_2561_46)"/>
</g>
<defs>
<filter id="filter0_bd_2561_46" x="123.961" y="56.15" width="33.8501" height="49.4" filterUnits="userSpaceOnUse" color-interpolation-filters="sRGB">
<feFlood flood-opacity="0" result="BackgroundImageFix"/>
<feGaussianBlur in="BackgroundImageFix" stdDeviation="2"/>
<feComposite in2="SourceAlpha" operator="in" result="effect1_backgroundBlur_2561_46"/>
<feColorMatrix in="SourceAlpha" type="matrix" values="0 0 0 0 0 0 0 0 0 0 0 0 0 0 0 0 0 0 127 0" result="hardAlpha"/>
<feOffset dy="4"/>
<feGaussianBlur stdDeviation="2"/>
<feComposite in2="hardAlpha" operator="out"/>
<feColorMatrix type="matrix" values="0 0 0 0 0 0 0 0 0 0 0 0 0 0 0 0 0 0 0.25 0"/>
<feBlend mode="normal" in2="effect1_backgroundBlur_2561_46" result="effect2_dropShadow_2561_46"/>
<feBlend mode="normal" in="SourceGraphic" in2="effect2_dropShadow_2561_46" result="shape"/>
</filter>
</defs>
</svg>
