<svg width="281" height="158" viewBox="0 0 281 158" fill="none" xmlns="http://www.w3.org/2000/svg">
<g clip-path="url(#clip0_2561_42)">
<rect width="281" height="158" fill="#285A54"/>
<g filter="url(#filter0_bd_2561_42)">
<mask id="path-1-outside-1_2561_42" maskUnits="userSpaceOnUse" x="128" y="59" width="26" height="40" fill="black">
<rect fill="white" x="128" y="59" width="26" height="40"/>
<path d="M138.081 97.55C136.101 97.55 134.396 97.3117 132.966 96.835C131.573 96.3217 130.528 95.5883 129.831 94.635C129.538 94.305 129.391 93.9383 129.391 93.535C129.391 93.0583 129.721 92.5633 130.381 92.05L132.856 90.125H133.516L134.121 91.28C134.708 92.4167 135.441 93.315 136.321 93.975C137.201 94.635 138.375 94.965 139.841 94.965C141.821 94.965 143.453 94.25 144.736 92.82C146.056 91.3533 146.716 89.4283 146.716 87.045C146.716 85.395 146.386 83.9467 145.726 82.7C145.066 81.4167 143.966 80.4083 142.426 79.675C140.923 78.9417 138.906 78.575 136.376 78.575C135.533 78.575 134.69 78.63 133.846 78.74C133.003 78.8133 132.086 78.9233 131.096 79.07V60.7H149.851V65.705H133.901V73.185C134.488 73.1483 135.093 73.1117 135.716 73.075C136.34 73.0383 137.018 73.02 137.751 73.02C141.308 73.02 144.168 73.5517 146.331 74.615C148.531 75.6783 150.126 77.0717 151.116 78.795C152.143 80.5183 152.656 82.4067 152.656 84.46C152.656 87.0267 152.033 89.3 150.786 91.28C149.54 93.26 147.816 94.8 145.616 95.9C143.416 97 140.905 97.55 138.081 97.55Z"/>
</mask>
<path d="M138.081 97.55C136.101 97.55 134.396 97.3117 132.966 96.835C131.573 96.3217 130.528 95.5883 129.831 94.635C129.538 94.305 129.391 93.9383 129.391 93.535C129.391 93.0583 129.721 92.5633 130.381 92.05L132.856 90.125H133.516L134.121 91.28C134.708 92.4167 135.441 93.315 136.321 93.975C137.201 94.635 138.375 94.965 139.841 94.965C141.821 94.965 143.453 94.25 144.736 92.82C146.056 91.3533 146.716 89.4283 146.716 87.045C146.716 85.395 146.386 83.9467 145.726 82.7C145.066 81.4167 143.966 80.4083 142.426 79.675C140.923 78.9417 138.906 78.575 136.376 78.575C135.533 78.575 134.69 78.63 133.846 78.74C133.003 78.8133 132.086 78.9233 131.096 79.07V60.7H149.851V65.705H133.901V73.185C134.488 73.1483 135.093 73.1117 135.716 73.075C136.34 73.0383 137.018 73.02 137.751 73.02C141.308 73.02 144.168 73.5517 146.331 74.615C148.531 75.6783 150.126 77.0717 151.116 78.795C152.143 80.5183 152.656 82.4067 152.656 84.46C152.656 87.0267 152.033 89.3 150.786 91.28C149.54 93.26 147.816 94.8 145.616 95.9C143.416 97 140.905 97.55 138.081 97.55Z" fill="white"/>
<path d="M132.966 96.835L132.621 97.7733L132.635 97.7787L132.65 97.7837L132.966 96.835ZM129.831 94.635L130.639 94.045L130.611 94.0064L130.579 93.9706L129.831 94.635ZM130.381 92.05L129.767 91.2606L130.381 92.05ZM132.856 90.125V89.125H132.513L132.242 89.3356L132.856 90.125ZM133.516 90.125L134.402 89.661L134.121 89.125H133.516V90.125ZM134.121 91.28L135.01 90.8214L135.007 90.816L134.121 91.28ZM144.736 92.82L143.993 92.151L143.992 92.1521L144.736 92.82ZM145.726 82.7L144.837 83.1574L144.843 83.1679L145.726 82.7ZM142.426 79.675L141.988 80.5738L141.996 80.5779L142.426 79.675ZM133.846 78.74L133.933 79.7362L133.954 79.7344L133.976 79.7316L133.846 78.74ZM131.096 79.07H130.096V80.2291L131.243 80.0592L131.096 79.07ZM131.096 60.7V59.7H130.096V60.7H131.096ZM149.851 60.7H150.851V59.7H149.851V60.7ZM149.851 65.705V66.705H150.851V65.705H149.851ZM133.901 65.705V64.705H132.901V65.705H133.901ZM133.901 73.185H132.901V74.2495L133.964 74.1831L133.901 73.185ZM135.716 73.075L135.658 72.0767H135.658L135.716 73.075ZM146.331 74.615L145.89 75.5125L145.896 75.5154L146.331 74.615ZM151.116 78.795L150.249 79.2931L150.253 79.3L150.257 79.3068L151.116 78.795ZM150.786 91.28L149.94 90.7472V90.7472L150.786 91.28ZM145.616 95.9L145.169 95.0056L145.616 95.9ZM138.081 96.55C136.177 96.55 134.584 96.3202 133.283 95.8863L132.65 97.7837C134.208 98.3031 136.026 98.55 138.081 98.55V96.55ZM133.312 95.8967C132.056 95.4339 131.192 94.8027 130.639 94.045L129.024 95.225C129.864 96.3739 131.09 97.2094 132.621 97.7733L133.312 95.8967ZM130.579 93.9706C130.431 93.805 130.391 93.6695 130.391 93.535H128.391C128.391 94.2072 128.645 94.805 129.084 95.2994L130.579 93.9706ZM130.391 93.535C130.391 93.5333 130.391 93.5215 130.4 93.4956C130.409 93.4684 130.429 93.4235 130.471 93.361C130.558 93.231 130.719 93.0546 130.995 92.8394L129.767 91.2606C129.041 91.826 128.391 92.5796 128.391 93.535H130.391ZM130.995 92.8394L133.47 90.9144L132.242 89.3356L129.767 91.2606L130.995 92.8394ZM132.856 91.125H133.516V89.125H132.856V91.125ZM132.631 90.589L133.236 91.744L135.007 90.816L134.402 89.661L132.631 90.589ZM133.233 91.7386C133.877 92.9876 134.702 94.0108 135.721 94.775L136.921 93.175C136.18 92.6192 135.539 91.8457 135.01 90.8214L133.233 91.7386ZM135.721 94.775C136.824 95.6021 138.23 95.965 139.841 95.965V93.965C138.519 93.965 137.579 93.6679 136.921 93.175L135.721 94.775ZM139.841 95.965C142.095 95.965 144.001 95.1365 145.481 93.4879L143.992 92.1521C142.905 93.3635 141.547 93.965 139.841 93.965V95.965ZM145.48 93.489C146.998 91.8022 147.716 89.6214 147.716 87.045H145.716C145.716 89.2353 145.115 90.9045 143.993 92.151L145.48 93.489ZM147.716 87.045C147.716 85.2596 147.358 83.6456 146.61 82.2321L144.843 83.1679C145.414 84.2477 145.716 85.5304 145.716 87.045H147.716ZM146.616 82.2427C145.838 80.7307 144.557 79.5819 142.856 78.7721L141.996 80.5779C143.376 81.2348 144.295 82.1026 144.837 83.1573L146.616 82.2427ZM142.865 78.7762C141.173 77.9509 138.987 77.575 136.376 77.575V79.575C138.825 79.575 140.673 79.9324 141.988 80.5738L142.865 78.7762ZM136.376 77.575C135.489 77.575 134.603 77.6329 133.717 77.7484L133.976 79.7316C134.776 79.6271 135.577 79.575 136.376 79.575V77.575ZM133.76 77.7438C132.893 77.8191 131.956 77.9317 130.95 78.0808L131.243 80.0592C132.216 79.915 133.113 79.8076 133.933 79.7362L133.76 77.7438ZM132.096 79.07V60.7H130.096V79.07H132.096ZM131.096 61.7H149.851V59.7H131.096V61.7ZM148.851 60.7V65.705H150.851V60.7H148.851ZM149.851 64.705H133.901V66.705H149.851V64.705ZM132.901 65.705V73.185H134.901V65.705H132.901ZM133.964 74.1831C134.549 74.1465 135.153 74.1099 135.775 74.0733L135.658 72.0767C135.033 72.1135 134.427 72.1502 133.839 72.1869L133.964 74.1831ZM135.775 74.0733C136.376 74.0379 137.034 74.02 137.751 74.02V72.02C137.002 72.02 136.304 72.0387 135.658 72.0767L135.775 74.0733ZM137.751 74.02C141.222 74.02 143.914 74.5409 145.89 75.5124L146.772 73.7176C144.422 72.5624 141.394 72.02 137.751 72.02V74.02ZM145.896 75.5154C147.957 76.5114 149.38 77.7807 150.249 79.2931L151.983 78.2969C150.872 76.3626 149.106 74.8453 146.767 73.7146L145.896 75.5154ZM150.257 79.3068C151.189 80.8716 151.656 82.5824 151.656 84.46H153.656C153.656 82.231 153.097 80.1651 151.975 78.2832L150.257 79.3068ZM151.656 84.46C151.656 86.8571 151.077 88.9421 149.94 90.7472L151.633 91.8128C152.989 89.6579 153.656 87.1963 153.656 84.46H151.656ZM149.94 90.7472C148.796 92.5644 147.214 93.983 145.169 95.0056L146.064 96.7944C148.418 95.617 150.283 93.9557 151.633 91.8128L149.94 90.7472ZM145.169 95.0056C143.127 96.0265 140.772 96.55 138.081 96.55V98.55C141.037 98.55 143.705 97.9735 146.064 96.7944L145.169 95.0056Z" fill="black" mask="url(#path-1-outside-1_2561_42)"/>
</g>
<circle cx="-30" cy="86" r="125" fill="#052E29"/>
</g>
<defs>
<filter id="filter0_bd_2561_42" x="125.391" y="56.7" width="31.265" height="48.8501" filterUnits="userSpaceOnUse" color-interpolation-filters="sRGB">
<feFlood flood-opacity="0" result="BackgroundImageFix"/>
<feGaussianBlur in="BackgroundImageFix" stdDeviation="2"/>
<feComposite in2="SourceAlpha" operator="in" result="effect1_backgroundBlur_2561_42"/>
<feColorMatrix in="SourceAlpha" type="matrix" values="0 0 0 0 0 0 0 0 0 0 0 0 0 0 0 0 0 0 127 0" result="hardAlpha"/>
<feOffset dy="4"/>
<feGaussianBlur stdDeviation="2"/>
<feComposite in2="hardAlpha" operator="out"/>
<feColorMatrix type="matrix" values="0 0 0 0 0 0 0 0 0 0 0 0 0 0 0 0 0 0 0.25 0"/>
<feBlend mode="normal" in2="effect1_backgroundBlur_2561_42" result="effect2_dropShadow_2561_42"/>
<feBlend mode="normal" in="SourceGraphic" in2="effect2_dropShadow_2561_42" result="shape"/>
</filter>
<clipPath id="clip0_2561_42">
<rect width="281" height="158" fill="white"/>
</clipPath>
</defs>
</svg>
