<svg width="255" height="255" viewBox="0 0 255 255" fill="none" xmlns="http://www.w3.org/2000/svg">
<path d="M255 127.5C255 197.916 197.916 255 127.5 255C57.0837 255 0 197.916 0 127.5C0 57.0837 57.0837 0 127.5 0C197.916 0 255 57.0837 255 127.5Z" fill="#E2E6F1" fill-opacity="0.2"/>
<path d="M158.55 130.809C158.958 131.009 159.314 131.169 159.666 131.348C162.022 132.547 163.308 134.455 163.312 137.11C163.312 139.283 163.23 141.456 163.1 143.629C162.839 147.953 164.742 151.425 167.419 154.554C169.197 156.631 169.288 157.735 167.215 159.512C163.686 162.554 159.871 165.062 155.13 165.879C150.385 166.706 145.501 165.82 141.349 163.38C139.45 162.311 137.49 161.641 135.37 162.337C134.388 162.691 133.497 163.26 132.762 164.001C132.039 164.784 131.409 165.649 130.885 166.578C129.811 168.264 128.173 169.186 126.413 169.929C125.845 170.166 125.229 170.265 124.615 170.219C124.001 170.173 123.407 169.983 122.88 169.664C122.287 169.35 121.745 168.948 121.272 168.473C119.056 166.113 116.249 165.244 113.124 164.944C107.506 164.354 102.055 162.679 97.0753 160.012C95.8316 159.324 94.6659 158.504 93.5988 157.565C92.3559 156.535 92.2212 155.684 92.8122 154.202C93.4945 152.463 94.2202 150.777 94.8503 149.039C94.9021 148.84 94.908 148.633 94.8673 148.432C94.8266 148.231 94.7406 148.041 94.6157 147.879C92.634 145.849 92.6167 145.862 90.1613 147.205C83.5269 150.847 76.8881 154.487 70.245 158.126C68.6631 158.995 67.9548 158.743 67.1639 157.118C66.6453 156.054 66.1354 154.987 65.6342 153.915C64.5564 151.651 64.765 151.042 66.9379 149.869C73.891 146.127 80.8007 142.368 87.7538 138.666C88.6229 138.196 88.8576 137.718 88.7359 136.749C87.8668 130.1 90.0397 124.581 95.098 120.192C95.4335 119.968 95.6807 119.635 95.7972 119.249C95.9138 118.863 95.8924 118.448 95.7369 118.076C94.8981 115.108 93.4206 112.7 90.5481 111.236C88.8802 110.342 87.2705 109.343 85.7287 108.246C83.4238 106.748 81.711 104.496 80.8832 101.875C80.7199 101.362 80.6909 100.816 80.7989 100.289C80.907 99.7615 81.1485 99.2708 81.5003 98.8635C83.8601 95.7172 87.3019 94.8655 90.8566 95.1132C93.6683 95.3131 96.4365 96.33 99.1917 97.0992C101.677 97.7901 101.856 97.7945 103.207 95.626C103.85 94.5917 104.38 93.4531 105.089 92.4884C106.353 90.7501 107.696 90.4416 109.613 91.4193C110.482 91.8539 111.351 92.3928 112.194 92.8621C113.841 93.7573 115.379 93.6226 116.8 92.4275C117.378 91.9488 117.902 91.4098 118.365 90.8196C120.274 88.3908 122.714 86.4303 125.496 85.0877C128.615 83.4393 131.228 80.9763 133.058 77.9607C133.81 76.7787 135.118 76.657 136.139 77.7652C138.125 79.938 140.18 82.0848 141.971 84.4228C144.727 88.1081 148.536 90.8705 152.896 92.345C155.938 93.3966 158.767 95.0176 161.735 96.2865C165.346 97.8292 168.984 99.3285 172.656 100.732C174.707 101.519 175.207 102.266 174.49 104.391C172.853 109.235 171.193 114.073 169.509 118.906C168.784 120.992 167.176 122.382 165.377 123.46C162.467 125.234 160.104 127.777 158.55 130.809V130.809ZM97.7663 150.195C97.2101 151.62 96.7538 153.007 96.1323 154.315C95.7325 155.158 95.9759 155.579 96.6668 156.053C101.386 159.199 106.662 160.742 112.19 161.702C114.545 162.115 116.97 162.428 119.173 163.267C120.803 163.888 122.167 165.253 123.584 166.37C124.388 167.004 125.144 167.334 126.009 166.626C126.957 165.886 127.855 165.084 128.699 164.227C129.3 163.497 129.856 162.731 130.363 161.933C131.602 160.247 133.292 159.39 135.344 159.06C137.859 158.652 140.436 159.167 142.601 160.512C147.89 163.641 153.396 163.893 158.906 161.381C161.222 160.329 163.252 158.595 165.516 157.083C160.57 151.968 159.267 146.071 160.227 139.5C160.308 138.558 160.271 137.609 160.118 136.675C159.958 135.22 159.045 134.35 157.698 133.92C157.211 133.764 156.694 133.72 156.199 133.594C154.582 133.16 154.026 131.947 154.895 130.552C157.272 126.715 159.779 123.004 163.886 120.709C164.667 120.284 165.349 119.698 165.888 118.99C166.426 118.282 166.809 117.469 167.011 116.603C167.676 114.06 168.588 111.575 169.444 109.085C170.057 107.303 170.748 105.556 171.435 103.739C169.696 103.092 167.958 102.557 166.302 101.823C161.848 99.8283 157.441 97.7336 153 95.7085C150.888 94.7481 148.681 93.9703 146.638 92.9012C143.088 91.0282 140.737 87.8602 138.307 84.7878C137.277 83.4841 136.078 82.3108 135.096 81.233C132.875 83.232 131.085 85.4353 128.786 86.7694C125.188 88.8597 121.937 91.1934 119.282 94.4135C117.935 96.0432 116.005 96.6255 113.854 96.5516C112.055 96.4908 110.647 95.5695 109.178 94.7351C107.779 93.9398 107.809 93.9746 106.949 95.3652C106.088 96.7559 105.167 98.1465 104.185 99.4676C103.782 100.041 103.201 100.465 102.533 100.677C101.865 100.888 101.146 100.874 100.487 100.637C98.4587 100.057 96.4307 99.4401 94.4027 98.7853C91.6369 97.8877 88.6401 98.0189 85.9634 99.1547C84.0209 99.9369 83.5384 101.128 84.79 102.749C85.7226 103.959 86.8113 105.04 88.0276 105.964C89.4957 107.029 91.038 107.988 92.6427 108.833C94.6733 109.902 96.3155 111.583 97.336 113.639C97.9488 114.903 98.4659 116.216 99.0309 117.511C109.426 113.165 118.308 118.211 122.172 124.029C124.35 127.305 125.422 131.191 125.232 135.119C125.042 139.048 123.599 142.813 121.116 145.862C116.574 151.446 107.631 155.179 97.7663 150.195V150.195ZM106.892 149.369C115.306 149.395 122.137 142.703 122.154 134.42C122.179 130.37 120.598 126.476 117.758 123.589C114.918 120.702 111.05 119.057 107.001 119.015C104.987 118.974 102.985 119.335 101.111 120.076C99.2382 120.817 97.5312 121.924 96.0899 123.331C94.6487 124.739 93.502 126.419 92.7167 128.274C91.9315 130.129 91.5233 132.122 91.5161 134.137C91.5089 136.151 91.9028 138.147 92.6748 140.008C93.4467 141.868 94.5813 143.557 96.0125 144.975C97.4436 146.393 99.1427 147.511 101.011 148.266C102.878 149.02 104.878 149.395 106.892 149.369V149.369ZM69.6496 154.88L90.8697 143.19L89.805 141.017L68.511 152.529L69.6496 154.88Z" fill="#25276E"/>
<path d="M179 171.437C178.587 173.788 178.361 176.218 177.696 178.56C176.875 181.432 174.22 182.228 171.795 180.442C167.923 177.595 166.28 173.658 167.014 168.965C167.236 167.578 168.414 166.288 169.335 165.093C170.7 163.319 172.181 161.616 173.681 159.986C174.235 159.39 174.93 158.942 175.702 158.683C175.893 158.615 176.097 158.592 176.299 158.617C176.5 158.642 176.693 158.714 176.862 158.827C177.03 158.939 177.171 159.09 177.271 159.266C177.371 159.443 177.429 159.64 177.44 159.843C178.013 163.671 178.487 167.496 179 171.437ZM174.22 178.208C176.106 176.565 175.78 166.396 174.984 164.428C174.228 165.027 173.355 165.762 172.442 166.444C170.239 168.082 169.444 170.207 170.174 172.867C170.443 173.989 170.943 175.044 171.641 175.963C172.339 176.882 173.22 177.647 174.228 178.208H174.22Z" fill="#25276E"/>
<path d="M97.7652 150.195C107.63 155.179 116.573 151.433 121.115 145.875C123.598 142.825 125.041 139.061 125.231 135.132C125.421 131.204 124.348 127.317 122.171 124.042C118.307 118.219 109.425 113.178 99.0297 117.524C98.4648 116.22 97.9476 114.916 97.3349 113.652C96.3131 111.583 94.6625 109.892 92.6198 108.819C91.0151 107.974 89.4728 107.016 88.0047 105.951C86.7884 105.027 85.6998 103.945 84.7672 102.735C83.5156 101.114 83.998 99.9236 85.9405 99.1414C88.6172 98.0056 91.6141 97.8744 94.3799 98.772C96.4078 99.4152 98.4358 100.032 100.464 100.623C101.123 100.86 101.842 100.874 102.51 100.663C103.178 100.452 103.759 100.027 104.162 99.4543C105.144 98.1506 106.057 96.7513 106.926 95.3519C107.795 93.9526 107.756 93.9266 109.155 94.7218C110.624 95.5562 112.032 96.4601 113.831 96.5383C115.982 96.6122 117.912 96.0299 119.259 94.4002C121.914 91.1801 125.165 88.8464 128.763 86.7561C131.062 85.422 132.852 83.2187 135.073 81.2197C136.055 82.2975 137.246 83.4708 138.284 84.7745C140.714 87.8469 143.065 91.0149 146.615 92.8879C148.658 93.9657 150.865 94.7349 152.977 95.6953C157.419 97.7203 161.825 99.815 166.279 101.81C167.926 102.544 169.66 103.079 171.412 103.726C170.734 105.543 170.034 107.29 169.421 109.071C168.552 111.561 167.653 114.047 166.988 116.589C166.786 117.456 166.403 118.269 165.865 118.977C165.326 119.685 164.644 120.271 163.863 120.696C159.757 122.991 157.249 126.702 154.872 130.539C154.003 131.951 154.572 133.177 156.176 133.581C156.671 133.707 157.188 133.751 157.675 133.907C159.022 134.342 159.935 135.211 160.096 136.662C160.248 137.596 160.285 138.544 160.204 139.487C159.244 146.058 160.547 151.955 165.493 157.07C163.207 158.582 161.199 160.316 158.883 161.367C153.373 163.866 147.867 163.614 142.578 160.498C140.414 159.154 137.836 158.639 135.321 159.047C133.27 159.377 131.579 160.233 130.341 161.919C129.833 162.717 129.277 163.484 128.676 164.214C127.833 165.071 126.934 165.872 125.986 166.613C125.117 167.321 124.365 166.991 123.561 166.356C122.145 165.239 120.78 163.875 119.15 163.254C116.947 162.415 114.522 162.102 112.167 161.689C106.652 160.724 101.363 159.182 96.6439 156.04C95.953 155.583 95.7096 155.171 96.1094 154.301C96.7526 153.006 97.2089 151.62 97.7652 150.195ZM126.755 119.67C128.142 119.475 128.602 118.801 128.567 117.815C128.455 114.716 129.802 112.357 132.157 110.471C132.857 109.91 133.461 109.263 133.243 108.267C133.026 107.272 132.183 106.916 131.314 106.772C129.172 106.416 127.989 104.982 127.064 103.2C126.829 102.766 126.629 102.149 126.238 101.949C125.586 101.614 124.7 101.253 124.096 101.453C123.605 101.618 123.092 102.596 123.096 103.192C123.096 105.716 122.344 107.711 120.054 109.054C119.819 109.239 119.631 109.478 119.504 109.749C119.378 110.021 119.318 110.319 119.329 110.618C119.398 111.096 120.011 111.557 120.476 111.922C120.82 112.116 121.206 112.223 121.601 112.235C123.018 112.431 123.826 113.252 124.248 114.586C124.651 115.941 125.126 117.274 125.669 118.58C125.904 119.071 126.482 119.405 126.755 119.67ZM131.766 147.335C133.556 146.857 134.204 146.31 134.056 145.362C133.834 143.963 132.713 144.059 131.514 144.059C131.514 143.328 131.553 142.664 131.514 142.012C131.431 140.804 130.845 140.134 129.949 140.139C129.054 140.143 128.459 140.847 128.389 142.02C128.346 142.72 128.389 143.424 128.389 144.119C126.829 144.328 126.238 144.684 126.216 145.54C126.151 147.114 127.438 147.235 128.546 147.526C128.572 147.878 128.594 148.191 128.611 148.5C128.628 148.808 128.611 149.217 128.672 149.565C128.863 150.681 129.541 151.333 130.475 151.203C131.579 151.046 131.779 150.225 131.779 149.286C131.766 148.639 131.766 147.97 131.766 147.335ZM105.6 106.812C105.544 106.586 105.501 106.438 105.474 106.286C105.314 105.417 104.923 104.752 103.984 104.713C103.115 104.673 102.68 105.208 102.411 106.016C102.319 106.32 101.92 106.56 101.615 106.764C100.716 107.381 100.468 108.615 101.368 109.132C102.385 109.714 102.445 110.566 102.763 111.466C102.89 111.746 103.084 111.991 103.328 112.179C103.572 112.367 103.858 112.492 104.162 112.544C104.644 112.544 105.218 111.918 105.561 111.431C105.796 111.096 105.7 110.531 105.757 110.058C106.717 109.758 107.786 109.528 107.682 108.211C107.573 107.038 106.643 106.89 105.6 106.812Z" fill="white"/>
<path opacity="0.5" d="M106.88 149.368C104.866 149.395 102.866 149.019 100.998 148.265C99.1305 147.511 97.4315 146.392 96.0004 144.974C94.5692 143.556 93.4346 141.868 92.6626 140.007C91.8907 138.146 91.4968 136.15 91.504 134.136C91.5112 132.121 91.9193 130.128 92.7046 128.273C93.4898 126.418 94.6365 124.738 96.0778 123.33C97.5191 121.923 99.2261 120.816 101.099 120.075C102.973 119.334 104.975 118.973 106.989 119.014C111.038 119.056 114.906 120.701 117.746 123.588C120.586 126.475 122.167 130.37 122.142 134.419C122.125 142.702 115.293 149.395 106.88 149.368Z" fill="#25276E"/>
<path opacity="0.5" d="M69.6366 154.88L68.498 152.564L89.792 141.052L90.8567 143.225L69.6366 154.88Z" fill="#25276E"/>
<path d="M174.23 178.208C173.222 177.646 172.343 176.881 171.647 175.962C170.95 175.042 170.452 173.989 170.184 172.867C169.454 170.208 170.249 168.087 172.452 166.444C173.365 165.762 174.238 165.027 174.994 164.428C175.803 166.396 176.116 176.565 174.23 178.208Z" fill="white"/>
<path d="M126.756 119.67C126.483 119.405 125.887 119.07 125.687 118.579C125.144 117.274 124.67 115.941 124.266 114.586C123.832 113.251 123.036 112.413 121.62 112.235C121.225 112.223 120.838 112.115 120.494 111.922C120.029 111.574 119.416 111.113 119.347 110.618C119.336 110.319 119.397 110.021 119.523 109.749C119.649 109.477 119.837 109.239 120.073 109.054C122.345 107.711 123.115 105.716 123.115 103.191C123.115 102.578 123.623 101.601 124.114 101.453C124.718 101.253 125.605 101.614 126.257 101.948C126.648 102.148 126.848 102.752 127.082 103.2C128.008 104.982 129.19 106.416 131.332 106.772C132.201 106.915 133.045 107.25 133.262 108.267C133.479 109.284 132.875 109.91 132.175 110.47C129.82 112.356 128.473 114.716 128.586 117.814C128.603 118.801 128.143 119.474 126.756 119.67ZM124.244 109.675L124.701 109.271L126.874 111.791L128.612 109.379L125.683 107.011C125.214 107.915 124.731 108.797 124.244 109.679V109.675Z" fill="#25276E"/>
<path d="M131.766 147.336C131.766 147.979 131.766 148.64 131.766 149.3C131.766 150.239 131.553 151.06 130.462 151.217C129.55 151.347 128.85 150.695 128.659 149.578C128.602 149.231 128.62 148.87 128.598 148.514C128.576 148.157 128.559 147.892 128.533 147.54C127.425 147.249 126.138 147.127 126.204 145.554C126.238 144.685 126.829 144.342 128.376 144.133C128.376 143.438 128.342 142.734 128.376 142.034C128.446 140.861 129.05 140.161 129.936 140.152C130.823 140.144 131.418 140.817 131.501 142.025C131.549 142.677 131.501 143.329 131.501 144.072C132.7 144.072 133.822 143.964 134.043 145.376C134.204 146.31 133.556 146.858 131.766 147.336Z" fill="#25276E"/>
<path d="M105.603 106.812C106.646 106.89 107.593 107.038 107.684 108.224C107.789 109.528 106.72 109.772 105.759 110.071C105.703 110.545 105.798 111.11 105.564 111.445C105.22 111.931 104.647 112.553 104.164 112.557C103.861 112.506 103.574 112.381 103.33 112.193C103.086 112.005 102.892 111.76 102.765 111.479C102.448 110.58 102.387 109.741 101.37 109.146C100.471 108.629 100.718 107.407 101.618 106.777C101.922 106.573 102.322 106.343 102.413 106.03C102.661 105.209 103.126 104.674 103.986 104.726C104.925 104.765 105.316 105.452 105.477 106.299C105.503 106.438 105.546 106.586 105.603 106.812Z" fill="#25276E"/>
<path d="M106.417 145.362C104.895 145.385 103.383 145.106 101.969 144.541C100.555 143.976 99.2673 143.137 98.1799 142.071C97.0924 141.005 96.227 139.735 95.6336 138.333C95.0402 136.931 94.7307 135.425 94.7228 133.902C94.6881 127.479 100.164 122.112 106.743 122.112C113.322 122.112 118.359 127.11 118.372 133.572C118.366 135.132 118.051 136.676 117.446 138.115C116.841 139.553 115.958 140.857 114.847 141.953C113.736 143.049 112.419 143.914 110.972 144.499C109.525 145.084 107.977 145.377 106.417 145.362V145.362ZM108.542 141.733C108.155 141.568 107.769 141.412 107.39 141.238C105.722 140.469 105.139 138.9 106.087 137.327C106.4 136.878 106.572 136.346 106.582 135.799C106.592 135.252 106.44 134.714 106.143 134.254C105.509 133.179 105.183 131.95 105.201 130.702C105.22 129.454 105.582 128.235 106.248 127.179C106.6 126.58 106.921 125.958 107.321 125.224C105.27 125.108 103.24 125.692 101.563 126.88C101.265 127.033 101.029 127.286 100.895 127.594C100.762 127.902 100.74 128.247 100.833 128.57C100.979 129.379 101.187 130.175 101.454 130.951C102.645 133.785 102.323 136.601 101.324 139.356C101.015 140.199 101.241 140.634 101.984 141.042C104.049 142.172 106.182 142.576 108.542 141.724V141.733ZM112.145 140.047C116.49 136.484 116.225 129.835 111.658 126.775C111.354 126.571 110.789 126.371 110.545 126.514C108.933 127.479 107.96 130.739 108.838 132.52C109.811 134.498 110.254 136.431 109.077 138.478L112.145 140.047ZM98.4036 131.96L97.8952 131.999L98.2341 136.953L98.7078 136.922C99.0165 136.12 99.1492 135.261 99.0967 134.404C99.0442 133.546 98.8078 132.709 98.4036 131.951V131.96Z" fill="#25276E"/>
<path d="M124.244 109.68C124.731 108.81 125.213 107.915 125.704 107.016L128.633 109.384L126.895 111.796L124.244 109.68Z" fill="white"/>
<path d="M108.544 141.726C106.184 142.595 104.051 142.16 101.995 141.056C101.252 140.648 101.026 140.213 101.334 139.37C102.351 136.598 102.638 133.799 101.465 130.966C101.197 130.189 100.989 129.393 100.843 128.584C100.751 128.261 100.773 127.917 100.906 127.608C101.039 127.3 101.275 127.048 101.573 126.894C103.25 125.706 105.28 125.122 107.332 125.238C106.932 125.972 106.61 126.594 106.258 127.194C105.592 128.249 105.23 129.468 105.212 130.716C105.194 131.964 105.52 133.193 106.154 134.268C106.45 134.728 106.603 135.266 106.593 135.813C106.583 136.36 106.41 136.892 106.097 137.341C105.141 138.892 105.724 140.461 107.401 141.252C107.77 141.404 108.157 141.56 108.544 141.726Z" fill="#C4CDE4"/>
<path d="M112.146 140.039L109.078 138.47C110.255 136.419 109.812 134.49 108.839 132.512C107.969 130.731 108.934 127.471 110.546 126.507C110.785 126.363 111.355 126.563 111.659 126.767C116.226 129.827 116.504 136.476 112.146 140.039Z" fill="#C4CDE4"/>
<path d="M98.405 131.951C98.8079 132.708 99.0435 133.543 99.096 134.4C99.1485 135.256 99.0166 136.113 98.7091 136.914L98.2355 136.944L97.8965 131.99L98.405 131.951Z" fill="#C4CDE4"/>
</svg>
