<svg width="281" height="158" viewBox="0 0 281 158" fill="none" xmlns="http://www.w3.org/2000/svg">
<rect width="281" height="158" fill="#285A54"/>
<path d="M141 30L179.971 107.25H102.029L141 30Z" fill="#052E29"/>
<rect x="96" y="106" width="90" height="10" rx="5" fill="#0C8C7D"/>
<circle cx="141" cy="29" r="4" fill="#0C8C7D"/>
<g filter="url(#filter0_bd_2561_55)">
<mask id="path-4-outside-1_2561_55" maskUnits="userSpaceOnUse" x="114" y="59" width="55" height="39" fill="black">
<rect fill="white" x="114" y="59" width="55" height="39"/>
<path d="M119.763 97V96.12L124.878 94.085V66.64L115.528 71.04V68.95L129.058 60.7H131.533V94.085L136.098 96.12V97H119.763ZM146.39 97C147.307 94.8367 148.26 92.7283 149.25 90.675C150.24 88.6217 151.358 86.4583 152.605 84.185C153.852 81.9117 155.3 79.3633 156.95 76.54C158.6 73.68 160.543 70.3617 162.78 66.585H144.025V60.7H167.73V62.405C166.41 64.935 165.035 67.63 163.605 70.49C162.212 73.35 160.837 76.2833 159.48 79.29C158.16 82.26 156.968 85.2483 155.905 88.255C154.878 91.225 154.072 94.14 153.485 97H146.39Z"/>
</mask>
<path d="M119.763 97V96.12L124.878 94.085V66.64L115.528 71.04V68.95L129.058 60.7H131.533V94.085L136.098 96.12V97H119.763ZM146.39 97C147.307 94.8367 148.26 92.7283 149.25 90.675C150.24 88.6217 151.358 86.4583 152.605 84.185C153.852 81.9117 155.3 79.3633 156.95 76.54C158.6 73.68 160.543 70.3617 162.78 66.585H144.025V60.7H167.73V62.405C166.41 64.935 165.035 67.63 163.605 70.49C162.212 73.35 160.837 76.2833 159.48 79.29C158.16 82.26 156.968 85.2483 155.905 88.255C154.878 91.225 154.072 94.14 153.485 97H146.39Z" fill="white"/>
<path d="M119.763 97H118.763V98H119.763V97ZM119.763 96.12L119.393 95.1908L118.763 95.4416V96.12H119.763ZM124.878 94.085L125.247 95.0142L125.878 94.7634V94.085H124.878ZM124.878 66.64H125.878V65.0642L124.452 65.7352L124.878 66.64ZM115.528 71.04H114.528V72.6158L115.953 71.9448L115.528 71.04ZM115.528 68.95L115.007 68.0962L114.528 68.3885V68.95H115.528ZM129.058 60.7V59.7H128.777L128.537 59.8462L129.058 60.7ZM131.533 60.7H132.533V59.7H131.533V60.7ZM131.533 94.085H130.533V94.7341L131.126 94.9984L131.533 94.085ZM136.098 96.12H137.098V95.4709L136.505 95.2066L136.098 96.12ZM136.098 97V98H137.098V97H136.098ZM120.763 97V96.12H118.763V97H120.763ZM120.132 97.0492L125.247 95.0142L124.508 93.1558L119.393 95.1908L120.132 97.0492ZM125.878 94.085V66.64H123.878V94.085H125.878ZM124.452 65.7352L115.102 70.1352L115.953 71.9448L125.303 67.5448L124.452 65.7352ZM116.528 71.04V68.95H114.528V71.04H116.528ZM116.048 69.8038L129.578 61.5538L128.537 59.8462L115.007 68.0962L116.048 69.8038ZM129.058 61.7H131.533V59.7H129.058V61.7ZM130.533 60.7V94.085H132.533V60.7H130.533ZM131.126 94.9984L135.691 97.0334L136.505 95.2066L131.94 93.1716L131.126 94.9984ZM135.098 96.12V97H137.098V96.12H135.098ZM136.098 96H119.763V98H136.098V96ZM146.39 97L145.469 96.6099L144.88 98H146.39V97ZM149.25 90.675L150.151 91.1093L149.25 90.675ZM152.605 84.185L153.482 84.6658L152.605 84.185ZM156.95 76.54L157.813 77.0446L157.816 77.0397L156.95 76.54ZM162.78 66.585L163.64 67.0946L164.534 65.585H162.78V66.585ZM144.025 66.585H143.025V67.585H144.025V66.585ZM144.025 60.7V59.7H143.025V60.7H144.025ZM167.73 60.7H168.73V59.7H167.73V60.7ZM167.73 62.405L168.617 62.8676L168.73 62.6502V62.405H167.73ZM163.605 70.49L162.711 70.0428L162.706 70.052L163.605 70.49ZM159.48 79.29L158.568 78.8787L158.566 78.8839L159.48 79.29ZM155.905 88.255L154.962 87.9216L154.96 87.9283L155.905 88.255ZM153.485 97V98H154.301L154.465 97.2009L153.485 97ZM147.311 97.3901C148.221 95.2412 149.168 93.1476 150.151 91.1093L148.349 90.2407C147.352 92.309 146.392 94.4321 145.469 96.6099L147.311 97.3901ZM150.151 91.1093C151.132 89.0736 152.242 86.9259 153.482 84.6658L151.728 83.7042C150.474 85.9908 149.348 88.1697 148.349 90.2407L150.151 91.1093ZM153.482 84.6658C154.723 82.4022 156.167 79.862 157.813 77.0446L156.087 76.0354C154.433 78.8647 152.98 81.4211 151.728 83.7042L153.482 84.6658ZM157.816 77.0397C159.464 74.1839 161.405 70.869 163.64 67.0946L161.92 66.0754C159.682 69.8544 157.736 73.1761 156.084 76.0403L157.816 77.0397ZM162.78 65.585H144.025V67.585H162.78V65.585ZM145.025 66.585V60.7H143.025V66.585H145.025ZM144.025 61.7H167.73V59.7H144.025V61.7ZM166.73 60.7V62.405H168.73V60.7H166.73ZM166.843 61.9424C165.52 64.4781 164.143 67.1782 162.711 70.0428L164.499 70.9372C165.927 68.0818 167.3 65.3919 168.617 62.8676L166.843 61.9424ZM162.706 70.052C161.308 72.9212 159.929 75.8634 158.568 78.8787L160.392 79.7013C161.744 76.7032 163.115 73.7788 164.504 70.928L162.706 70.052ZM158.566 78.8839C157.236 81.8773 156.034 84.8898 154.962 87.9216L156.848 88.5884C157.902 85.6068 159.084 82.6427 160.394 79.6961L158.566 78.8839ZM154.96 87.9283C153.92 90.9363 153.101 93.8933 152.505 96.7991L154.465 97.2009C155.042 94.3867 155.837 91.5137 156.85 88.5817L154.96 87.9283ZM153.485 96H146.39V98H153.485V96Z" fill="black" mask="url(#path-4-outside-1_2561_55)"/>
</g>
<defs>
<filter id="filter0_bd_2561_55" x="111.528" y="56.7" width="60.2023" height="48.3" filterUnits="userSpaceOnUse" color-interpolation-filters="sRGB">
<feFlood flood-opacity="0" result="BackgroundImageFix"/>
<feGaussianBlur in="BackgroundImageFix" stdDeviation="2"/>
<feComposite in2="SourceAlpha" operator="in" result="effect1_backgroundBlur_2561_55"/>
<feColorMatrix in="SourceAlpha" type="matrix" values="0 0 0 0 0 0 0 0 0 0 0 0 0 0 0 0 0 0 127 0" result="hardAlpha"/>
<feOffset dy="4"/>
<feGaussianBlur stdDeviation="2"/>
<feComposite in2="hardAlpha" operator="out"/>
<feColorMatrix type="matrix" values="0 0 0 0 0 0 0 0 0 0 0 0 0 0 0 0 0 0 0.25 0"/>
<feBlend mode="normal" in2="effect1_backgroundBlur_2561_55" result="effect2_dropShadow_2561_55"/>
<feBlend mode="normal" in="SourceGraphic" in2="effect2_dropShadow_2561_55" result="shape"/>
</filter>
</defs>
</svg>
