<svg width="281" height="158" viewBox="0 0 281 158" fill="none" xmlns="http://www.w3.org/2000/svg">
<path d="M0 0H281V158H0V0Z" fill="#E2E6F1" fill-opacity="0.2"/>
<path d="M12 81.2317L12.2358 81L12 81.2317Z" fill="#E6E6ED"/>
<path d="M0 0H281V158H0V0Z" fill="#E2E6F1" fill-opacity="0.2"/>
<path d="M12 81.2317L12.2358 81L12 81.2317Z" fill="#E6E6ED"/>
<path d="M169.393 82.0644C169.705 82.2169 169.976 82.3396 170.245 82.4756C172.043 83.3909 173.024 84.8469 173.028 86.8732C173.028 88.5314 172.965 90.1896 172.865 91.8479C172.666 95.1477 174.119 97.7975 176.162 100.185C177.518 101.771 177.588 102.613 176.006 103.969C173.313 106.291 170.401 108.205 166.783 108.828C163.162 109.459 159.435 108.783 156.266 106.921C154.817 106.105 153.321 105.594 151.703 106.125C150.953 106.395 150.274 106.829 149.713 107.395C149.161 107.993 148.68 108.653 148.28 109.362C147.461 110.649 146.211 111.352 144.868 111.919C144.434 112.1 143.964 112.176 143.495 112.141C143.027 112.105 142.573 111.96 142.171 111.717C141.719 111.477 141.305 111.171 140.944 110.808C139.253 109.007 137.111 108.344 134.726 108.115C130.438 107.664 126.279 106.386 122.478 104.351C121.529 103.826 120.64 103.2 119.825 102.484C118.877 101.698 118.774 101.048 119.225 99.9167C119.746 98.5902 120.3 97.3034 120.78 95.9768C120.82 95.8253 120.824 95.6668 120.793 95.5134C120.762 95.3599 120.697 95.2155 120.601 95.0913C119.089 93.5426 119.076 93.5525 117.202 94.5773C112.139 97.3565 107.072 100.135 102.003 102.911C100.796 103.575 100.255 103.382 99.6514 102.142C99.2556 101.331 98.8665 100.516 98.484 99.6979C97.6615 97.97 97.8207 97.5057 99.4789 96.6103C104.785 93.7548 110.058 90.8861 115.365 88.0605C116.028 87.7023 116.207 87.3375 116.114 86.5979C115.451 81.5238 117.109 77.3119 120.969 73.9623C121.225 73.7915 121.414 73.5369 121.503 73.2422C121.592 72.9476 121.576 72.6312 121.457 72.3472C120.817 70.0821 119.689 68.2448 117.497 67.1271C116.224 66.4449 114.996 65.6828 113.819 64.8454C112.06 63.7025 110.753 61.9838 110.121 59.9835C109.997 59.5921 109.975 59.1753 110.057 58.7729C110.139 58.3706 110.324 57.9961 110.592 57.6852C112.393 55.2841 115.02 54.6341 117.733 54.8231C119.878 54.9757 121.991 55.7518 124.094 56.3388C125.991 56.8661 126.126 56.8694 127.158 55.2145C127.649 54.4252 128.053 53.5563 128.594 52.82C129.559 51.4934 130.584 51.258 132.046 52.0042C132.71 52.3358 133.373 52.7471 134.016 53.1052C135.273 53.7884 136.447 53.6856 137.532 52.7736C137.972 52.4083 138.373 51.9969 138.726 51.5465C140.183 49.693 142.044 48.1968 144.168 47.1721C146.548 45.9142 148.542 44.0345 149.939 41.7332C150.512 40.8311 151.511 40.7382 152.29 41.5839C153.805 43.2421 155.374 44.8805 156.741 46.6647C158.844 49.4772 161.751 51.5853 165.078 52.7106C167.4 53.5132 169.559 54.7502 171.824 55.7186C174.58 56.8959 177.356 58.0401 180.158 59.1113C181.723 59.7116 182.105 60.282 181.557 61.9037C180.308 65.6005 179.041 69.2928 177.757 72.9806C177.203 74.5725 175.976 75.6338 174.603 76.4563C172.382 77.8096 170.579 79.7505 169.393 82.0644ZM123.006 96.859C122.581 97.9468 122.233 99.0047 121.759 100.003C121.454 100.646 121.639 100.968 122.167 101.33C125.768 103.731 129.794 104.908 134.013 105.641C135.81 105.956 137.661 106.195 139.342 106.835C140.586 107.309 141.628 108.35 142.709 109.203C143.322 109.687 143.899 109.939 144.559 109.398C145.283 108.833 145.968 108.222 146.612 107.568C147.071 107.01 147.495 106.426 147.882 105.817C148.827 104.53 150.118 103.877 151.683 103.625C153.602 103.313 155.57 103.706 157.221 104.732C161.258 107.12 165.459 107.312 169.665 105.396C171.432 104.593 172.981 103.27 174.709 102.116C170.935 98.2121 169.94 93.7117 170.673 88.6972C170.735 87.978 170.707 87.2539 170.59 86.5416C170.467 85.4305 169.771 84.7673 168.743 84.4389C168.371 84.3195 167.977 84.2864 167.599 84.1902C166.365 83.8586 165.94 82.9333 166.604 81.8687C168.418 78.9403 170.331 76.108 173.465 74.357C174.061 74.0323 174.582 73.5852 174.993 73.045C175.404 72.5049 175.696 71.8839 175.85 71.2229C176.357 69.2828 177.054 67.3858 177.707 65.4855C178.175 64.1258 178.702 62.7925 179.226 61.4063C177.899 60.9121 176.573 60.5042 175.309 59.9437C171.91 58.4215 168.547 56.823 165.158 55.2775C163.546 54.5446 161.861 53.9509 160.302 53.1351C157.593 51.7057 155.799 49.288 153.945 46.9433C153.159 45.9484 152.243 45.0529 151.494 44.2304C149.799 45.756 148.433 47.4374 146.678 48.4556C143.932 50.0508 141.452 51.8317 139.425 54.2892C138.397 55.5329 136.925 55.9773 135.283 55.9209C133.91 55.8745 132.836 55.1714 131.715 54.5346C130.647 53.9277 130.67 53.9542 130.013 55.0155C129.357 56.0768 128.654 57.138 127.904 58.1462C127.596 58.5835 127.154 58.9077 126.644 59.0689C126.134 59.2301 125.585 59.2193 125.082 59.0383C123.534 58.5961 121.986 58.1252 120.439 57.6255C118.328 56.9405 116.041 57.0406 113.998 57.9074C112.516 58.5044 112.148 59.4131 113.103 60.6501C113.815 61.5736 114.645 62.3988 115.574 63.1043C116.694 63.9169 117.871 64.6484 119.096 65.2931C120.645 66.1091 121.899 67.3925 122.677 68.9611C123.145 69.9262 123.54 70.9278 123.971 71.9161C131.904 68.5996 138.683 72.45 141.631 76.8907C143.293 79.3902 144.111 82.356 143.966 85.3541C143.821 88.3521 142.72 91.2251 140.825 93.5525C137.359 97.8141 130.534 100.663 123.006 96.859ZM129.97 96.2289C136.391 96.2488 141.604 91.1415 141.618 84.8203C141.636 81.7298 140.43 78.7578 138.263 76.5544C136.095 74.3511 133.144 73.0959 130.053 73.0636C128.516 73.0326 126.988 73.308 125.559 73.8735C124.129 74.4391 122.826 75.2836 121.726 76.3577C120.627 77.4319 119.751 78.7142 119.152 80.13C118.553 81.5458 118.241 83.0667 118.236 84.6041C118.23 86.1415 118.531 87.6646 119.12 89.0846C119.709 90.5046 120.575 91.7932 121.667 92.8752C122.759 93.9572 124.056 94.811 125.482 95.3867C126.907 95.9625 128.433 96.2488 129.97 96.2289ZM101.548 100.434L117.743 91.5129L116.93 89.8547L100.679 98.6399L101.548 100.434Z" fill="#25276E"/>
<path d="M185 113.07C184.685 114.865 184.512 116.719 184.005 118.506C183.378 120.698 181.352 121.305 179.501 119.942C176.546 117.77 175.292 114.765 175.853 111.183C176.022 110.125 176.921 109.14 177.624 108.228C178.665 106.875 179.796 105.575 180.94 104.332C181.363 103.877 181.894 103.534 182.483 103.337C182.628 103.285 182.784 103.268 182.938 103.287C183.092 103.306 183.239 103.361 183.368 103.447C183.497 103.533 183.604 103.648 183.68 103.782C183.757 103.917 183.801 104.067 183.809 104.222C184.247 107.144 184.608 110.062 185 113.07ZM181.352 118.237C182.791 116.984 182.542 109.223 181.935 107.721C181.358 108.179 180.692 108.739 179.995 109.26C178.314 110.51 177.707 112.132 178.264 114.162C178.47 115.018 178.851 115.823 179.383 116.524C179.916 117.226 180.588 117.809 181.358 118.237H181.352Z" fill="#25276E"/>
<path d="M123.005 96.8592C130.534 100.663 137.359 97.8044 140.825 93.5627C142.72 91.2353 143.821 88.3623 143.966 85.3642C144.111 82.3661 143.292 79.4004 141.631 76.9009C138.682 72.4569 131.903 68.6098 123.97 71.9262C123.539 70.9313 123.145 69.9364 122.677 68.9713C121.897 67.3928 120.638 66.1018 119.079 65.2834C117.854 64.6386 116.677 63.9071 115.557 63.0946C114.628 62.3891 113.798 61.5638 113.086 60.6404C112.131 59.4034 112.499 58.4947 113.981 57.8977C116.024 57.0309 118.311 56.9308 120.422 57.6158C121.97 58.1066 123.517 58.5776 125.065 59.0286C125.568 59.2096 126.117 59.2203 126.627 59.0591C127.137 58.898 127.579 58.5738 127.887 58.1365C128.637 57.1415 129.333 56.0737 129.996 55.0058C130.66 53.9379 130.63 53.918 131.698 54.5249C132.819 55.1616 133.893 55.8515 135.266 55.9111C136.908 55.9675 138.38 55.5231 139.409 54.2795C141.435 51.822 143.916 50.0411 146.662 48.4458C148.416 47.4277 149.782 45.7463 151.477 44.2207C152.227 45.0432 153.135 45.9386 153.928 46.9335C155.782 49.2783 157.576 51.696 160.285 53.1253C161.844 53.9478 163.529 54.5348 165.141 55.2678C168.53 56.8132 171.893 58.4117 175.292 59.934C176.549 60.4945 177.873 60.9024 179.209 61.3965C178.692 62.7828 178.158 64.116 177.69 65.4758C177.027 67.3761 176.34 69.2731 175.833 71.2132C175.679 71.8742 175.387 72.4952 174.976 73.0353C174.565 73.5754 174.044 74.0225 173.448 74.3472C170.314 76.0983 168.401 78.9305 166.587 81.859C165.923 82.9368 166.358 83.872 167.582 84.1805C167.96 84.2766 168.354 84.3098 168.726 84.4292C169.754 84.7608 170.45 85.4241 170.573 86.5318C170.69 87.2442 170.718 87.9683 170.656 88.6875C169.923 93.702 170.918 98.2024 174.692 102.106C172.948 103.26 171.415 104.583 169.648 105.386C165.443 107.293 161.241 107.1 157.205 104.722C155.553 103.697 153.585 103.303 151.666 103.615C150.101 103.867 148.811 104.52 147.865 105.807C147.478 106.416 147.054 107.001 146.595 107.558C145.951 108.212 145.266 108.824 144.542 109.389C143.879 109.929 143.305 109.677 142.692 109.193C141.611 108.341 140.569 107.299 139.326 106.825C137.644 106.185 135.794 105.946 133.996 105.631C129.787 104.895 125.751 103.718 122.15 101.32C121.622 100.972 121.437 100.657 121.742 99.9933C122.233 99.005 122.581 97.947 123.005 96.8592ZM145.129 73.5646C146.187 73.4153 146.539 72.9013 146.512 72.1484C146.426 69.7838 147.454 67.983 149.252 66.5437C149.786 66.1158 150.247 65.6217 150.081 64.8622C149.915 64.1028 149.272 63.8308 148.608 63.7214C146.973 63.4494 146.071 62.355 145.365 60.9952C145.186 60.6636 145.033 60.1927 144.735 60.0401C144.237 59.7847 143.561 59.5095 143.1 59.662C142.725 59.7881 142.334 60.5343 142.337 60.9886C142.337 62.9155 141.763 64.4377 140.015 65.4625C139.836 65.604 139.692 65.7859 139.596 65.9933C139.5 66.2007 139.454 66.4279 139.462 66.6564C139.515 67.0212 139.982 67.3728 140.337 67.6513C140.6 67.7992 140.895 67.8812 141.196 67.8901C142.277 68.0394 142.894 68.6662 143.216 69.6843C143.524 70.7185 143.886 71.7359 144.3 72.7321C144.479 73.1069 144.92 73.3622 145.129 73.5646ZM148.953 94.677C150.32 94.3122 150.814 93.8943 150.701 93.1713C150.532 92.1034 149.676 92.1764 148.761 92.1764C148.761 91.6192 148.791 91.1118 148.761 90.6144C148.698 89.6924 148.25 89.1817 147.567 89.185C146.884 89.1883 146.429 89.7256 146.376 90.621C146.343 91.1549 146.376 91.6922 146.376 92.2228C145.186 92.382 144.735 92.654 144.718 93.3073C144.668 94.5079 145.65 94.6007 146.496 94.8229C146.516 95.0915 146.532 95.3303 146.545 95.5658C146.559 95.8013 146.545 96.113 146.592 96.3783C146.738 97.2307 147.255 97.7281 147.968 97.6286C148.811 97.5092 148.963 96.8824 148.963 96.1661C148.953 95.6719 148.953 95.1612 148.953 94.677ZM128.985 63.7512C128.942 63.5788 128.909 63.466 128.889 63.3499C128.766 62.6866 128.468 62.1792 127.751 62.1494C127.088 62.1195 126.756 62.5274 126.551 63.1443C126.481 63.3765 126.176 63.5589 125.944 63.7147C125.257 64.1857 125.068 65.1275 125.755 65.5222C126.531 65.9666 126.577 66.6166 126.819 67.3031C126.916 67.5171 127.065 67.704 127.251 67.8474C127.437 67.9908 127.655 68.0863 127.887 68.1256C128.255 68.1256 128.693 67.648 128.955 67.2766C129.134 67.0212 129.061 66.5901 129.104 66.2286C129.837 65.9998 130.653 65.824 130.574 64.8191C130.491 63.9237 129.781 63.8109 128.985 63.7512Z" fill="white"/>
<path opacity="0.5" d="M129.961 96.2282C128.424 96.2481 126.898 95.9618 125.472 95.3861C124.047 94.8103 122.75 93.9565 121.658 92.8745C120.566 91.7925 119.7 90.504 119.111 89.0839C118.522 87.6639 118.221 86.1408 118.227 84.6034C118.232 83.066 118.544 81.5451 119.143 80.1293C119.742 78.7135 120.617 77.4312 121.717 76.357C122.817 75.2829 124.12 74.4384 125.549 73.8729C126.979 73.3073 128.507 73.032 130.044 73.0629C133.134 73.0953 136.086 74.3505 138.253 76.5538C140.421 78.7571 141.627 81.7291 141.608 84.8197C141.595 91.1408 136.382 96.2481 129.961 96.2282Z" fill="#25276E"/>
<path opacity="0.5" d="M101.539 100.435L100.67 98.6671L116.92 89.8818L117.733 91.5401L101.539 100.435Z" fill="#25276E"/>
<path d="M181.359 118.237C180.591 117.808 179.919 117.224 179.388 116.523C178.857 115.821 178.476 115.017 178.272 114.161C177.714 112.132 178.321 110.513 180.003 109.26C180.699 108.739 181.366 108.178 181.943 107.721C182.56 109.223 182.799 116.983 181.359 118.237Z" fill="white"/>
<path d="M145.13 73.5635C144.921 73.3612 144.467 73.1058 144.314 72.731C143.9 71.7348 143.538 70.7175 143.23 69.6832C142.898 68.6651 142.291 68.025 141.21 67.8891C140.909 67.8801 140.614 67.7982 140.351 67.6503C139.996 67.385 139.529 67.0334 139.475 66.6553C139.468 66.4268 139.514 66.1996 139.61 65.9922C139.706 65.7848 139.85 65.603 140.029 65.4614C141.764 64.4366 142.351 62.9144 142.351 60.9875C142.351 60.5199 142.739 59.7737 143.114 59.661C143.575 59.5084 144.251 59.7837 144.749 60.039C145.047 60.1916 145.2 60.6526 145.379 60.9942C146.085 62.3539 146.987 63.4483 148.622 63.7203C149.286 63.8297 149.929 64.0851 150.095 64.8611C150.261 65.6372 149.8 66.1148 149.266 66.5426C147.468 67.9819 146.44 69.7827 146.526 72.1474C146.54 72.9002 146.188 73.4142 145.13 73.5635ZM143.213 65.9357L143.561 65.6272L145.22 67.5508L146.546 65.7101L144.311 63.9027C143.953 64.5925 143.585 65.2657 143.213 65.939V65.9357Z" fill="#25276E"/>
<path d="M148.952 94.6775C148.952 95.1683 148.952 95.6724 148.952 96.1765C148.952 96.8928 148.789 97.5197 147.957 97.639C147.261 97.7385 146.727 97.2411 146.581 96.3887C146.538 96.1234 146.551 95.8482 146.534 95.5762C146.518 95.3043 146.504 95.102 146.485 94.8333C145.639 94.6111 144.657 94.5183 144.707 93.3177C144.733 92.6544 145.184 92.3924 146.365 92.2332C146.365 91.7026 146.339 91.1653 146.365 90.6314C146.418 89.736 146.879 89.202 147.556 89.1954C148.232 89.1887 148.687 89.7028 148.75 90.6248C148.786 91.1222 148.75 91.6197 148.75 92.1868C149.665 92.1868 150.521 92.1039 150.69 93.1817C150.812 93.8948 150.318 94.3126 148.952 94.6775Z" fill="#25276E"/>
<path d="M128.986 63.7508C129.782 63.8105 130.505 63.9233 130.575 64.8287C130.655 65.8236 129.839 66.0093 129.106 66.2381C129.063 66.5996 129.136 67.0308 128.957 67.2861C128.695 67.6576 128.257 68.1318 127.889 68.1351C127.657 68.0959 127.438 68.0004 127.252 67.857C127.066 67.7136 126.918 67.5267 126.821 67.3127C126.579 66.6262 126.532 65.9861 125.756 65.5317C125.07 65.1371 125.259 64.2052 125.945 63.7243C126.177 63.5684 126.482 63.3926 126.552 63.1539C126.741 62.5271 127.096 62.1191 127.753 62.1589C128.469 62.1888 128.768 62.7128 128.89 63.3595C128.91 63.4656 128.943 63.5784 128.986 63.7508Z" fill="#25276E"/>
<path d="M129.608 93.1707C128.446 93.1882 127.293 92.9753 126.214 92.5442C125.135 92.1132 124.152 91.4725 123.322 90.6593C122.492 89.8461 121.832 88.8764 121.379 87.8063C120.926 86.7363 120.69 85.5871 120.684 84.4252C120.657 79.5235 124.836 75.4277 129.857 75.4277C134.878 75.4277 138.722 79.2416 138.732 84.1732C138.727 85.364 138.487 86.5422 138.025 87.6399C137.563 88.7376 136.889 89.7332 136.041 90.5694C135.193 91.4056 134.188 92.0659 133.084 92.5123C131.98 92.9587 130.799 93.1825 129.608 93.1707ZM131.23 90.4014C130.935 90.2754 130.64 90.156 130.351 90.0234C129.078 89.4364 128.633 88.2391 129.356 87.0386C129.595 86.6961 129.727 86.2903 129.734 85.8728C129.742 85.4553 129.625 85.0449 129.399 84.6939C128.915 83.8735 128.666 82.9356 128.681 81.9831C128.695 81.0306 128.971 80.1005 129.479 79.2947C129.748 78.837 129.993 78.3628 130.298 77.8023C128.733 77.7141 127.183 78.1595 125.904 79.0659C125.676 79.1833 125.496 79.376 125.394 79.6112C125.293 79.8465 125.276 80.1097 125.347 80.356C125.458 80.973 125.617 81.5806 125.821 82.1734C126.73 84.3357 126.484 86.4847 125.721 88.5874C125.486 89.2307 125.658 89.5624 126.225 89.8741C127.801 90.7364 129.429 91.0448 131.23 90.3948V90.4014ZM133.979 89.1147C137.296 86.3952 137.093 81.321 133.608 78.9863C133.376 78.8304 132.945 78.6778 132.759 78.7873C131.528 79.5235 130.786 82.0109 131.456 83.3706C132.198 84.8796 132.537 86.3554 131.638 87.9174L133.979 89.1147ZM123.493 82.9428L123.105 82.9726L123.363 86.7534L123.725 86.7302C123.96 86.1181 124.062 85.4625 124.022 84.8079C123.982 84.1533 123.801 83.5149 123.493 82.9361V82.9428Z" fill="#25276E"/>
<path d="M143.213 65.9392C143.584 65.2759 143.952 64.5928 144.327 63.9062L146.562 65.7137L145.236 67.5543L143.213 65.9392Z" fill="white"/>
<path d="M131.23 90.3953C129.429 91.0586 127.801 90.7269 126.232 89.8846C125.665 89.5728 125.493 89.2412 125.728 88.5978C126.504 86.4819 126.723 84.3461 125.828 82.1838C125.623 81.591 125.465 80.9834 125.354 80.3664C125.283 80.1201 125.3 79.8569 125.401 79.6217C125.503 79.3864 125.683 79.1937 125.911 79.0763C127.19 78.17 128.739 77.7245 130.305 77.8127C130 78.3732 129.754 78.8475 129.486 79.3051C128.978 80.1109 128.701 81.0411 128.687 81.9935C128.673 82.946 128.922 83.8839 129.406 84.7043C129.632 85.0554 129.749 85.4657 129.741 85.8832C129.734 86.3007 129.602 86.7065 129.363 87.049C128.633 88.233 129.078 89.4302 130.358 90.0338C130.64 90.1499 130.935 90.2693 131.23 90.3953Z" fill="#C4CDE4"/>
<path d="M133.98 89.1087L131.639 87.9114C132.538 86.3461 132.199 84.8736 131.456 83.3646C130.793 82.0048 131.529 79.5175 132.76 78.7812C132.942 78.6718 133.377 78.8244 133.609 78.9802C137.094 81.315 137.307 86.3892 133.98 89.1087Z" fill="#C4CDE4"/>
<path d="M123.494 82.9365C123.801 83.5144 123.981 84.1516 124.021 84.805C124.061 85.4584 123.96 86.1128 123.726 86.7239L123.364 86.7471L123.105 82.9664L123.494 82.9365Z" fill="#C4CDE4"/>
</svg>
