<svg width="163" height="198" viewBox="0 0 163 198" fill="none" xmlns="http://www.w3.org/2000/svg">
<path d="M143.761 38.1102C148.441 40.1902 152.99 42.2003 157.53 44.2303C158.6 44.7103 159.68 45.2303 160.71 45.7703C161.337 46.0626 161.851 46.5527 162.172 47.165C162.494 47.7774 162.606 48.4783 162.491 49.1603C162.257 51.0354 161.776 52.8712 161.06 54.6202C153.26 71.1802 145.411 87.717 137.511 104.23C123.731 133.197 109.957 162.17 96.1905 191.15C95.6939 192.295 95.3574 193.503 95.1905 194.74C94.8305 196.9 93.6705 198.03 91.5205 197.86C90.6218 197.767 89.7457 197.52 88.9305 197.13C65.7905 186.517 42.6539 175.897 19.5205 165.27C15.5205 163.46 11.5804 161.7 7.67044 159.81C5.97314 158.972 4.3418 158.005 2.79044 156.92C0.880438 155.61 0.500521 154.53 1.25052 152.24C2.90052 147.16 4.64054 142.11 6.39054 137.06C20.8839 95.1203 35.3772 53.1836 49.8705 11.2502C50.7005 8.86024 51.5805 6.48031 52.3905 4.08031C53.1105 1.94031 54.3904 0.660291 56.7904 0.930291C56.8804 0.930291 56.9905 0.930291 57.0605 0.930291C60.7705 -0.669709 64.4005 0.850335 68.0105 1.35033C75.7205 2.41033 83.3905 3.74023 91.0705 4.99023C99.4705 6.35023 107.861 7.77024 116.261 9.13024C123.581 10.3102 130.921 11.4403 138.261 12.5903C139.341 12.7603 140.41 12.9303 141.48 13.1403C142.483 13.2295 143.417 13.6882 144.101 14.4274C144.785 15.1665 145.17 16.1334 145.18 17.1403C145.266 18.0449 145.266 18.9555 145.18 19.8602C144.73 25.9202 144.251 31.8302 143.761 38.1102ZM58.3905 7.92028C41.6572 56.3136 25.0105 104.48 8.45047 152.42C9.01047 152.75 9.30052 152.96 9.62052 153.11L88.2205 189.11C88.3921 189.168 88.5701 189.205 88.7505 189.22C88.8361 189.239 88.9249 189.239 89.0105 189.22C89.176 189.168 89.3366 189.101 89.4905 189.02L155.18 50.8702L58.3905 7.92028ZM138.29 19.6903L83.4505 10.8602L83.3405 11.3303L136.93 35.0703C137.39 29.9203 137.84 24.9203 138.29 19.7203V19.6903Z" fill="#3558A2"/>
<path d="M58.3903 7.91992L155.18 50.8099L89.4903 188.96C89.3363 189.04 89.1758 189.107 89.0103 189.16C88.9246 189.179 88.8359 189.179 88.7503 189.16C88.5698 189.144 88.3919 189.107 88.2202 189.05L9.62024 153.05C9.30024 152.9 9.0102 152.69 8.4502 152.36C25.0635 104.373 41.7103 56.2265 58.3903 7.91992ZM69.9602 24.8299C69.0306 24.7741 68.107 25.0126 67.3207 25.5117C66.5344 26.0108 65.9254 26.7449 65.5802 27.6098C65.2202 28.4398 64.8702 29.2798 64.5802 30.1198C60.0869 41.9665 55.6003 53.8199 51.1202 65.6799C49.1202 70.9299 47.1202 76.1699 45.1202 81.4298C43.8102 84.9698 44.5502 86.7698 47.9702 88.4298C48.9702 88.9198 49.9702 89.3598 50.9702 89.7598C56.8702 92.0998 62.7702 94.4331 68.6702 96.7598C73.2235 98.5598 77.7802 100.346 82.3402 102.12C85.6102 103.39 88.1603 102.45 89.8803 99.3698C90.1403 98.8998 90.3502 98.3698 90.5702 97.8898C95.6702 86.2898 100.774 74.6832 105.88 63.0699C108.07 58.0699 110.3 53.1398 112.42 48.1398C113.63 45.2698 112.98 43.6399 110.24 42.4099C97.7736 36.8032 85.2902 31.2165 72.7902 25.6499C71.8645 25.3268 70.9193 25.0629 69.9602 24.8598V24.8299ZM93.3502 138.97C93.3234 138.41 93.1554 137.866 92.8616 137.389C92.5678 136.911 92.1579 136.516 91.6702 136.24C90.8003 135.759 89.902 135.332 88.9802 134.96C73.6469 128.573 58.3435 122.193 43.0702 115.82C41.3202 115.09 39.5703 114.33 37.7603 113.73C37.3545 113.553 36.9177 113.457 36.475 113.448C36.0322 113.44 35.5921 113.519 35.1798 113.68C34.7675 113.842 34.3911 114.083 34.072 114.39C33.753 114.697 33.4975 115.064 33.3202 115.47C33.1429 115.876 33.0473 116.312 33.0388 116.755C33.0303 117.198 33.1091 117.638 33.2706 118.05C33.4322 118.462 33.6734 118.839 33.9805 119.158C34.2875 119.477 34.6544 119.732 35.0602 119.91C35.852 120.348 36.6742 120.729 37.5203 121.05C53.9003 127.896 70.2869 134.736 86.6802 141.57C87.5916 141.974 88.5486 142.266 89.5302 142.44C90.0143 142.502 90.5062 142.459 90.9721 142.313C91.438 142.167 91.8669 141.923 92.2296 141.596C92.5923 141.27 92.8802 140.869 93.0736 140.42C93.267 139.972 93.3614 139.488 93.3502 139V138.97ZM94.9802 130.65C95.7307 130.667 96.4699 130.466 97.1076 130.07C97.7452 129.674 98.2534 129.1 98.5702 128.42C98.8067 127.822 98.845 127.164 98.6793 126.543C98.5137 125.922 98.153 125.37 97.6503 124.97C96.7991 124.304 95.8603 123.759 94.8603 123.35C78.0202 116.19 61.1702 109.056 44.3102 101.95C43.4772 101.595 42.5927 101.375 41.6902 101.3C41.0096 101.203 40.3165 101.343 39.7267 101.696C39.1369 102.049 38.6862 102.594 38.4502 103.24C38.1749 103.921 38.1388 104.676 38.3477 105.381C38.5565 106.085 38.9981 106.698 39.6002 107.12C40.4331 107.665 41.3214 108.121 42.2503 108.48C48.4103 111.147 54.5803 113.77 60.7603 116.35L92.0402 129.6C93.1102 130.08 94.2402 130.42 94.9802 130.68V130.65ZM27.2202 143.4C25.2202 143.34 23.9203 144.16 23.3903 145.58C23.128 146.214 23.0839 146.918 23.2649 147.581C23.4459 148.243 23.8417 148.827 24.3903 149.24C25.1107 149.783 25.8927 150.24 26.7202 150.6C32.1869 153.2 37.6636 155.786 43.1503 158.36C46.1836 159.78 49.2203 161.186 52.2603 162.58C52.8946 162.895 53.5668 163.126 54.2603 163.27C55.0769 163.417 55.9192 163.28 56.647 162.881C57.3748 162.483 57.9442 161.847 58.2603 161.08C58.5388 160.305 58.5282 159.455 58.2306 158.687C57.933 157.919 57.3683 157.285 56.6403 156.9C56.2446 156.681 55.8372 156.484 55.4202 156.31C51.2702 154.31 47.1202 152.31 42.9502 150.31C38.4402 148.2 33.9503 146.15 29.3803 144.1C28.6761 143.828 27.9544 143.605 27.2202 143.43V143.4ZM62.3202 148.74C62.3245 148.157 62.1786 147.584 61.8966 147.074C61.6146 146.564 61.206 146.136 60.7102 145.83C59.8906 145.263 59.0122 144.787 58.0902 144.41C49.8969 141.023 41.7003 137.65 33.5003 134.29C32.7481 133.979 31.963 133.754 31.1602 133.62C30.3946 133.476 29.6028 133.604 28.9216 133.982C28.2405 134.36 27.7129 134.964 27.4302 135.69C27.1441 136.363 27.0952 137.114 27.2914 137.819C27.4876 138.524 27.9174 139.141 28.5103 139.57C29.1821 140.022 29.9076 140.388 30.6702 140.66C39.3368 144.28 48.0269 147.883 56.7402 151.47C57.5644 151.828 58.4517 152.018 59.3502 152.03C59.7614 152.017 60.1659 151.922 60.5396 151.75C60.9133 151.578 61.2486 151.333 61.5256 151.029C61.8027 150.725 62.0157 150.368 62.1522 149.98C62.2887 149.592 62.3459 149.18 62.3202 148.77V148.74ZM90.4302 167.81C92.5002 167.81 93.7302 166.98 94.2202 165.54C94.4532 164.893 94.471 164.188 94.271 163.531C94.071 162.873 93.6639 162.297 93.1102 161.89C92.4673 161.395 91.761 160.988 91.0103 160.68C85.5903 158.353 80.1636 156.053 74.7302 153.78C73.8983 153.423 73.013 153.207 72.1102 153.14C71.3812 153.047 70.6432 153.22 70.0303 153.625C69.4174 154.031 68.9703 154.643 68.7703 155.35C68.5459 155.997 68.5314 156.698 68.7289 157.353C68.9264 158.008 69.3259 158.585 69.8703 159C70.5179 159.496 71.2271 159.906 71.9802 160.22C77.4002 162.54 82.8269 164.836 88.2603 167.11C88.97 167.392 89.6943 167.635 90.4302 167.84V167.81ZM139.29 65.4098C139.334 64.7673 139.185 64.1264 138.862 63.5689C138.54 63.0114 138.059 62.5626 137.48 62.2798C132.27 59.7798 127.02 57.3498 121.78 54.8898C121.696 54.8539 121.609 54.8239 121.52 54.7999C120.766 54.5912 119.964 54.639 119.24 54.9359C118.516 55.2327 117.911 55.7618 117.52 56.4399C117.186 57.1391 117.084 57.9268 117.23 58.6879C117.376 59.4491 117.761 60.1436 118.33 60.6699C118.966 61.1765 119.661 61.603 120.4 61.9399C124.65 63.9399 128.89 65.9399 133.17 67.9399C134.064 68.3641 135.032 68.612 136.02 68.6698C136.456 68.7107 136.896 68.6555 137.309 68.5082C137.721 68.3609 138.097 68.1252 138.408 67.8173C138.72 67.5095 138.96 67.1371 139.113 66.7264C139.265 66.3156 139.326 65.8765 139.29 65.4399V65.4098ZM132.1 79.9699C132.107 79.2663 131.9 78.5771 131.508 77.9933C131.115 77.4096 130.555 76.9586 129.9 76.6999C125.25 74.2999 120.56 71.9698 115.9 69.6198C115.584 69.4593 115.248 69.3416 114.9 69.2698C114.12 68.9821 113.259 68.9962 112.489 69.3093C111.718 69.6223 111.091 70.2119 110.732 70.9626C110.373 71.7132 110.307 72.5708 110.547 73.3675C110.787 74.1642 111.316 74.8426 112.03 75.2698C112.683 75.7536 113.383 76.1691 114.12 76.5098C117.98 78.4698 121.85 80.4166 125.73 82.3499C126.438 82.7462 127.19 83.0582 127.97 83.2798C128.465 83.4023 128.981 83.4096 129.479 83.3013C129.976 83.193 130.443 82.9719 130.842 82.6551C131.241 82.3382 131.561 81.9341 131.78 81.4738C131.998 81.0135 132.108 80.5092 132.1 79.9998V79.9699ZM120.45 97.9699C121.134 97.9891 121.81 97.8213 122.406 97.4848C123.001 97.1482 123.494 96.6556 123.83 96.0598C124.168 95.5136 124.315 94.8705 124.248 94.2316C124.181 93.5927 123.904 92.9941 123.46 92.5298C122.781 91.8078 121.987 91.2029 121.11 90.7398C117.23 88.6098 113.31 86.5399 109.39 84.4599C108.687 84.0429 107.939 83.7074 107.16 83.4599C106.437 83.2587 105.667 83.306 104.975 83.5945C104.282 83.883 103.706 84.3958 103.339 85.0507C102.972 85.7056 102.836 86.4646 102.953 87.2061C103.069 87.9476 103.431 88.6285 103.98 89.1398C104.439 89.577 104.958 89.9472 105.52 90.2398C109.82 92.5598 114.124 94.8631 118.43 97.1498C119.082 97.4931 119.757 97.7905 120.45 98.0398V97.9699Z" fill="white"/>
<path d="M138.29 19.7207C137.83 24.9407 137.39 29.8707 136.93 35.1007L83.3398 11.3606L83.4498 10.8906L138.29 19.7207Z" fill="#3558A2" fill-opacity="0.49"/>
<path d="M69.9604 24.8604C70.9213 25.0896 71.8665 25.3804 72.7903 25.7305C85.277 31.3038 97.7604 36.8904 110.24 42.4904C112.98 43.7204 113.63 45.3505 112.42 48.2205C110.3 53.2205 108.07 58.2205 105.88 63.1505C100.78 74.7572 95.677 86.3639 90.5704 97.9706C90.3504 98.4706 90.1404 98.9706 89.8804 99.4506C88.1604 102.531 85.6104 103.451 82.3404 102.201C77.7804 100.434 73.2237 98.6472 68.6703 96.8406C62.7703 94.5206 56.8704 92.1872 50.9704 89.8406C49.9704 89.4406 48.9704 89.0005 47.9704 88.5105C44.5504 86.8005 43.8104 85.0005 45.1204 81.5105C47.1204 76.2505 49.1204 71.0105 51.1204 65.7605C55.6137 53.9138 60.1004 42.0605 64.5804 30.2005C64.9004 29.3605 65.2504 28.5205 65.5804 27.6905C65.9173 26.8162 66.5228 26.0711 67.3099 25.5626C68.0969 25.0541 69.0248 24.8083 69.9604 24.8604ZM72.0804 57.3105C72.0804 56.6605 72.0804 55.8605 72.0804 55.0605C72.0926 53.4223 72.4488 51.805 73.1258 50.3132C73.8028 48.8214 74.7856 47.4883 76.0104 46.4004C77.2457 45.184 78.7695 44.3012 80.4391 43.8345C82.1088 43.3679 83.8696 43.3327 85.5566 43.7325C87.2435 44.1322 88.8013 44.9538 90.084 46.12C91.3667 47.2863 92.3324 48.7591 92.8904 50.4005C94.5704 54.9705 93.5904 59.1204 90.6304 62.8704C90.1604 63.4804 89.6304 64.0505 89.2704 64.4605L94.4504 71.8205L105.01 47.8205L71.0904 32.6204C67.5904 41.8404 64.1604 50.9105 60.7304 59.9705L72.0804 57.3105ZM52.1404 82.6505C53.228 83.0486 54.2928 83.5059 55.3304 84.0205C55.917 84.3562 56.5938 84.5001 57.2663 84.432C57.9387 84.3639 58.573 84.087 59.0804 83.6405C62.0204 81.6405 65.0804 79.9105 68.0804 78.0605L83.0804 68.8905C82.6084 68.3915 82.0893 67.9395 81.5303 67.5405C78.9724 65.9867 76.0769 65.074 73.0904 64.8805C67.9707 64.677 62.9564 66.3722 59.0104 69.6405C58.0104 70.4205 56.7404 71.1205 56.2704 72.1705C54.7204 75.5205 53.5304 79.0105 52.1404 82.6505V82.6505ZM65.4103 87.9606L83.7504 95.1906C84.0604 94.9606 84.1603 94.9206 84.1903 94.8406C85.4403 92.1306 86.6903 89.4206 87.9103 86.7106C89.6903 82.7106 89.7404 82.7105 88.9804 78.6405C88.611 77.1808 88.1535 75.7449 87.6104 74.3405L65.4103 87.9606ZM79.0904 54.8405C79.0904 57.6605 79.9603 59.0705 81.8003 59.6505C83.1803 60.0805 85.0303 59.0905 85.9403 57.3505C86.2721 56.7216 86.5114 56.0479 86.6504 55.3505C86.8066 54.4592 86.6816 53.5414 86.2928 52.7243C85.9039 51.9072 85.2706 51.2314 84.4804 50.7905C83.6106 50.5033 82.6666 50.5381 81.8204 50.8887C80.9742 51.2393 80.2822 51.8823 79.8704 52.7005C79.5322 53.3829 79.2706 54.1006 79.0904 54.8405Z" fill="#3558A2"/>
<path d="M93.3501 139C93.3657 139.491 93.2746 139.979 93.0831 140.431C92.8917 140.882 92.6044 141.287 92.2412 141.617C91.878 141.947 91.4474 142.194 90.9794 142.342C90.5113 142.489 90.0167 142.533 89.53 142.47C88.5484 142.296 87.5915 142.004 86.6801 141.6C70.2934 134.767 53.9068 127.927 37.5202 121.081C36.6741 120.76 35.8519 120.379 35.0601 119.941C34.6543 119.763 34.2874 119.508 33.9804 119.189C33.6733 118.87 33.4321 118.493 33.2705 118.081C33.1089 117.669 33.0302 117.229 33.0387 116.786C33.0472 116.343 33.1428 115.906 33.3201 115.5C33.4974 115.095 33.7528 114.728 34.0719 114.421C34.391 114.114 34.7674 113.873 35.1797 113.711C35.592 113.549 36.0321 113.471 36.4749 113.479C36.9176 113.488 37.3544 113.583 37.7601 113.761C39.5701 114.361 41.3201 115.121 43.0701 115.851C58.4034 122.217 73.7068 128.597 88.9801 134.99C89.9019 135.362 90.8002 135.79 91.67 136.27C92.1578 136.547 92.5677 136.942 92.8615 137.419C93.1552 137.897 93.3233 138.441 93.3501 139Z" fill="#3558A2"/>
<path d="M94.9804 130.68C94.2404 130.42 93.1104 130.08 92.0404 129.68L60.7605 116.43C54.5871 113.81 48.4171 111.187 42.2505 108.561C41.3216 108.202 40.4333 107.746 39.6004 107.201C38.9983 106.779 38.5567 106.166 38.3479 105.461C38.139 104.757 38.1751 104.002 38.4504 103.321C38.6865 102.675 39.1371 102.13 39.7269 101.777C40.3167 101.424 41.0098 101.284 41.6904 101.38C42.5929 101.456 43.4774 101.675 44.3104 102.03C61.1571 109.144 78.0071 116.277 94.8604 123.43C95.8605 123.84 96.7993 124.385 97.6505 125.05C98.1532 125.451 98.5139 126.003 98.6795 126.624C98.8452 127.245 98.8069 127.903 98.5704 128.5C98.2464 129.172 97.7349 129.735 97.0979 130.121C96.4608 130.508 95.7254 130.702 94.9804 130.68V130.68Z" fill="#3558A2"/>
<path d="M27.2199 143.431C27.9587 143.621 28.6838 143.862 29.39 144.151C33.92 146.151 38.4499 148.251 42.9599 150.361C47.1299 152.361 51.2799 154.361 55.4299 156.361C55.847 156.535 56.2543 156.732 56.65 156.951C57.3781 157.336 57.9427 157.97 58.2403 158.738C58.5379 159.506 58.5485 160.356 58.27 161.131C57.954 161.898 57.3845 162.534 56.6567 162.932C55.9289 163.331 55.0866 163.468 54.27 163.321C53.5765 163.178 52.9043 162.946 52.27 162.631C49.2167 161.238 46.1799 159.831 43.1599 158.411C37.6799 155.831 32.2033 153.244 26.73 150.651C25.9025 150.291 25.1204 149.834 24.4 149.291C23.8515 148.878 23.4556 148.294 23.2746 147.632C23.0936 146.969 23.1378 146.265 23.4 145.631C23.92 144.191 25.1999 143.371 27.2199 143.431Z" fill="#3558A2"/>
<path d="M62.3196 148.77C62.3495 149.186 62.2946 149.603 62.1582 149.997C62.0218 150.39 61.8066 150.752 61.526 151.06C61.2453 151.367 60.9051 151.615 60.5258 151.787C60.1464 151.959 59.736 152.052 59.3196 152.06C58.421 152.049 57.5337 151.859 56.7096 151.5C48.0096 147.92 39.3197 144.317 30.6397 140.69C29.8771 140.418 29.1515 140.052 28.4796 139.6C27.8868 139.172 27.4571 138.554 27.2609 137.849C27.0647 137.145 27.1136 136.394 27.3997 135.72C27.6824 134.995 28.21 134.39 28.8911 134.012C29.5723 133.634 30.3641 133.506 31.1296 133.65C31.9325 133.785 32.7175 134.009 33.4696 134.32C41.6696 137.654 49.8662 141.027 58.0596 144.44C58.9815 144.818 59.8599 145.294 60.6796 145.86C61.1809 146.163 61.5955 146.589 61.8829 147.099C62.1703 147.609 62.3207 148.185 62.3196 148.77Z" fill="#3558A2"/>
<path d="M90.4303 167.84C89.6951 167.645 88.9708 167.411 88.2604 167.14C82.8204 164.86 77.3937 162.563 71.9804 160.25C71.2272 159.936 70.518 159.526 69.8704 159.03C69.326 158.615 68.9266 158.038 68.7291 157.383C68.5315 156.728 68.546 156.026 68.7704 155.38C68.9705 154.673 69.4176 154.061 70.0304 153.655C70.6433 153.25 71.3813 153.077 72.1104 153.17C73.0131 153.237 73.8985 153.453 74.7304 153.81C80.1704 156.076 85.5971 158.376 91.0104 160.71C91.7612 161.018 92.4674 161.425 93.1104 161.92C93.664 162.327 94.0711 162.903 94.2712 163.56C94.4712 164.218 94.4534 164.923 94.2204 165.57C93.7304 167.01 92.5003 167.84 90.4303 167.84Z" fill="#3558A2"/>
<path d="M139.29 65.4403C139.327 65.874 139.27 66.3106 139.122 66.72C138.974 67.1293 138.738 67.5014 138.432 67.8107C138.126 68.1199 137.756 68.3587 137.348 68.5106C136.94 68.6625 136.504 68.7238 136.07 68.6903C135.082 68.6324 134.114 68.3846 133.22 67.9603C128.94 65.9603 124.7 63.9603 120.45 61.9603C119.71 61.6234 119.015 61.1969 118.38 60.6903C117.811 60.164 117.425 59.4694 117.28 58.7083C117.134 57.9472 117.235 57.1594 117.57 56.4602C117.96 55.7822 118.565 55.2531 119.289 54.9562C120.013 54.6593 120.815 54.6116 121.57 54.8202C121.658 54.8442 121.745 54.8743 121.83 54.9102C127.07 57.3702 132.32 59.8002 137.53 62.3002C138.101 62.591 138.573 63.0444 138.886 63.6034C139.199 64.1623 139.34 64.8015 139.29 65.4403V65.4403Z" fill="#3558A2"/>
<path d="M132.1 80.0006C132.107 80.5124 131.996 81.0189 131.775 81.4808C131.555 81.9426 131.23 82.3474 130.828 82.6637C130.426 82.98 129.956 83.1994 129.455 83.3046C128.954 83.4098 128.436 83.3982 127.94 83.2705C127.16 83.049 126.408 82.7369 125.7 82.3406C121.82 80.414 117.95 78.4673 114.09 76.5006C113.353 76.1599 112.652 75.7444 112 75.2606C111.286 74.8334 110.757 74.155 110.517 73.3583C110.277 72.5616 110.343 71.7041 110.702 70.9534C111.061 70.2028 111.687 69.6132 112.458 69.3002C113.229 68.9871 114.089 68.973 114.87 69.2607C115.217 69.3325 115.554 69.4502 115.87 69.6107C120.55 71.9607 125.24 74.2907 129.87 76.6907C130.536 76.947 131.108 77.402 131.507 77.9941C131.905 78.5862 132.113 79.2867 132.1 80.0006Z" fill="#3558A2"/>
<path d="M120.45 98.0404C119.766 97.8227 119.098 97.5587 118.45 97.2503C114.143 94.9703 109.84 92.667 105.54 90.3403C104.977 90.0478 104.459 89.6774 104 89.2402C103.45 88.7289 103.088 88.0481 102.972 87.3066C102.856 86.5651 102.992 85.8059 103.359 85.151C103.725 84.4961 104.301 83.9833 104.994 83.6948C105.687 83.4063 106.457 83.3589 107.18 83.5601C107.959 83.8077 108.707 84.1432 109.41 84.5602C113.33 86.6402 117.25 88.7103 121.13 90.8403C122.006 91.3035 122.8 91.9082 123.48 92.6303C123.924 93.0946 124.201 93.6932 124.268 94.3321C124.335 94.971 124.188 95.6141 123.85 96.1604C123.508 96.7536 123.011 97.2423 122.411 97.5736C121.812 97.9049 121.134 98.0663 120.45 98.0404V98.0404Z" fill="#3558A2"/>
<path d="M72.0804 57.3104L60.7305 59.9504C64.1605 50.8904 67.5905 41.8205 71.0905 32.6006L105.01 47.8004L94.4504 71.8003L89.2705 64.4404C89.6305 64.0304 90.1605 63.4404 90.6305 62.8504C93.6305 59.1004 94.5705 54.9504 92.8905 50.3804C92.3325 48.739 91.3668 47.2663 90.0841 46.1C88.8014 44.9338 87.2436 44.1123 85.5566 43.7126C83.8697 43.3128 82.1089 43.3479 80.4392 43.8145C78.7695 44.2811 77.2457 45.164 76.0105 46.3804C74.7857 47.4683 73.8028 48.8013 73.1259 50.2931C72.4489 51.7849 72.0927 53.4022 72.0804 55.0404C72.0704 55.8604 72.0804 56.6604 72.0804 57.3104Z" fill="#EAECF1"/>
<path d="M52.1396 82.6508C53.5296 79.0108 54.7196 75.5208 56.2296 72.1708C56.6996 71.1708 57.9896 70.4207 58.9696 69.6407C62.9156 66.3724 67.9299 64.6772 73.0496 64.8807C76.0361 65.0743 78.9317 65.9869 81.4896 67.5407C82.0486 67.9397 82.5676 68.3918 83.0396 68.8907L68.0396 78.0608C65.0396 79.9108 61.9796 81.6808 59.0396 83.6408C58.5322 84.0874 57.898 84.3642 57.2256 84.4323C56.5532 84.5005 55.8762 84.3566 55.2896 84.0208C54.2651 83.5076 53.2136 83.0503 52.1396 82.6508V82.6508Z" fill="white"/>
<path d="M65.4102 87.9208L87.6102 74.3008C88.1534 75.7051 88.6109 77.1411 88.9802 78.6008C89.7402 82.7108 89.6901 82.7208 87.9101 86.6708C86.6901 89.3808 85.4402 92.0908 84.1902 94.8008C84.1902 94.8808 84.0602 94.9208 83.7502 95.1508L65.4102 87.9208Z" fill="white"/>
<path d="M79.0898 54.8402C79.2672 54.0866 79.5289 53.3553 79.8699 52.6602C80.2816 51.8421 80.9736 51.1991 81.8198 50.8485C82.666 50.4979 83.6101 50.4631 84.4798 50.7503C85.27 51.1912 85.9034 51.867 86.2922 52.684C86.681 53.5011 86.8061 54.4189 86.6499 55.3102C86.5108 56.0075 86.2716 56.6812 85.9398 57.3101C85.0298 59.0501 83.1798 60.0399 81.7998 59.61C79.9598 59.07 79.0398 57.6601 79.0898 54.8402Z" fill="white"/>
</svg>
