<svg width="281" height="158" viewBox="0 0 281 158" fill="none" xmlns="http://www.w3.org/2000/svg">
<path d="M0 0H281V158H0V0Z" fill="#E6EEFE"/>
<path d="M12 81.2317L12.2358 81L12 81.2317Z" fill="#E6E6ED"/>
<path d="M0 0H281V158H0V0Z" fill="#E6EEFE"/>
<path d="M12 81.2317L12.2358 81L12 81.2317Z" fill="#E6E6ED"/>
<path d="M160.293 72.7671H159.984C159.918 72.5381 159.873 72.3036 159.849 72.0664C159.849 70.9794 159.833 69.8925 159.849 68.8055C159.874 68.4711 159.919 68.1384 159.984 67.8096H160.293V72.7671Z" fill="#ECECF1"/>
<path d="M159.233 59.3926C159.102 59.1315 158.995 58.8591 158.913 58.5787C158.659 57.3456 158.436 56.0958 158.201 54.8682C158.292 54.9399 158.447 54.9978 158.477 55.0861C158.731 56.5179 158.979 57.9553 159.233 59.3926Z" fill="#ECECF1"/>
<path d="M159.686 76.9745C159.613 76.7199 159.568 76.4581 159.551 76.1937C159.578 75.298 159.63 74.4024 159.705 73.5067C159.705 73.3522 159.887 73.2087 159.981 73.0625L159.686 76.9745Z" fill="#ECECF1"/>
<path d="M159.397 61.4898C159.342 60.8884 159.288 60.287 159.234 59.6855C159.288 60.287 159.342 60.8884 159.397 61.4898Z" fill="#ECECF1"/>
<path d="M158.336 84.6436C158.481 84.0403 158.629 83.4362 158.78 82.8311C158.631 83.4362 158.483 84.0403 158.336 84.6436Z" fill="#ECECF1"/>
<path d="M159.848 66.6016C159.848 66.0498 159.848 65.498 159.848 64.9463C159.84 65.5008 159.845 66.0498 159.848 66.6016Z" fill="#ECECF1"/>
<path d="M157.449 87.3584L158.045 85.5459L157.449 87.3584Z" fill="#ECECF1"/>
<path d="M157.893 53.2354C157.791 52.783 157.686 52.3333 157.584 51.8809C157.686 52.3195 157.791 52.7692 157.893 53.2354Z" fill="#ECECF1"/>
<path d="M156.695 89.6131L157.277 88.3965C157.082 88.8011 156.888 89.2067 156.695 89.6131Z" fill="#ECECF1"/>
<path d="M156.094 91.2649L156.673 90.1973L156.094 91.2649Z" fill="#ECECF1"/>
<path d="M159.551 62.844L159.402 61.9336C159.902 62.1626 159.706 62.5074 159.551 62.844Z" fill="#ECECF1"/>
<path d="M159.697 64.0471C159.647 63.7437 159.6 63.4402 159.551 63.1367C160.05 63.3685 159.857 63.7188 159.697 64.0471Z" fill="#ECECF1"/>
<path d="M159.402 78.3399C159.493 78.0365 159.587 77.7302 159.678 77.4268C159.587 77.7247 159.482 78.0309 159.402 78.3399Z" fill="#ECECF1"/>
<path d="M159.387 79.2323C159.387 79.0305 159.387 78.8288 159.387 78.6299C159.395 78.8288 159.392 79.0305 159.387 79.2323Z" fill="#ECECF1"/>
<path d="M159.082 81.0366L159.231 80.4287L159.082 81.0366Z" fill="#ECECF1"/>
<path d="M158.179 53.9806L157.902 53.5137L158.179 53.9806Z" fill="#ECECF1"/>
<path d="M159.234 80.1345C159.284 79.9797 159.331 79.8278 159.381 79.6758C159.331 79.8278 159.284 79.9797 159.234 80.1345Z" fill="#ECECF1"/>
<path d="M158.932 81.7868C158.981 81.6348 159.031 81.4829 159.078 81.3281C159.034 81.4829 158.984 81.6348 158.932 81.7868Z" fill="#ECECF1"/>
<path d="M158.194 54.5736C158.194 54.4742 158.194 54.3747 158.194 54.2725C158.186 54.3747 158.191 54.4742 158.194 54.5736Z" fill="#ECECF1"/>
<path d="M158.781 82.5399C158.831 82.4349 158.878 82.3327 158.928 82.2305C158.878 82.3327 158.831 82.4349 158.781 82.5399Z" fill="#ECECF1"/>
<path d="M158.051 85.2543L158.327 84.9365L158.051 85.2543Z" fill="#ECECF1"/>
<path d="M141.131 81.692L140.083 83.7749C142.375 84.2963 142.955 84.9226 143.33 87.2703C143.421 87.2857 143.514 87.2857 143.606 87.2703C145.716 86.7186 146.96 87.891 147.468 89.8801C147.618 90.4669 147.597 91.0843 147.407 91.6596C147.195 92.3272 146.985 92.9976 146.709 93.6376C145.807 95.726 144.875 97.8006 143.95 99.8808C143.73 100.38 143.283 100.535 142.806 100.631C141.236 100.946 139.663 101.249 138.094 101.558L118.724 105.387C116.123 105.903 113.524 106.436 110.917 106.927C110.399 107.01 109.873 107.022 109.352 106.963C109.111 106.947 108.882 106.848 108.706 106.681C108.529 106.515 108.417 106.293 108.387 106.052C107.625 102.297 106.919 98.54 107.007 94.6804C107.112 90.5974 108.133 86.8151 110.63 83.5266C111.308 82.6355 112.142 81.8714 112.961 80.972C111.242 78.6574 110.417 76.0062 110.93 73.0239C111.444 70.0416 112.964 67.7408 115.452 65.9697C115.218 65.7793 115.027 65.6331 114.845 65.4758C112.914 63.7985 113.248 60.728 115.469 59.6824C116.031 59.3919 116.668 59.2756 117.297 59.3483C117.925 59.4211 118.519 59.6795 119 60.0907C120.145 60.9818 120.561 62.1929 120.332 63.6247C120.308 63.793 120.261 63.9613 120.219 64.1489C120.967 64.2013 121.687 64.2123 122.399 64.3061C125.902 64.7641 128.54 66.5325 130.123 69.6913C131.224 71.7708 131.534 74.1791 130.995 76.4696C130.979 76.5414 130.959 76.6131 130.946 76.6876C130.946 76.7097 130.959 76.7345 130.99 76.82C131.318 76.9993 131.685 77.2035 132.057 77.4021C134.264 78.5912 135.92 80.3733 137.362 82.4038C137.604 82.6809 137.868 82.9374 138.152 83.1707C138.659 82.1086 139.125 81.1734 139.55 80.2188C139.6 80.0044 139.587 79.7802 139.512 79.5733C138.634 75.7257 137.751 71.8781 136.863 68.0305C136.311 65.6165 135.76 63.2081 135.224 60.7914C134.982 59.6879 135.277 59.1803 136.367 58.8934C139.316 58.1237 142.27 57.3815 145.228 56.6422C152.57 54.803 159.913 52.9684 167.257 51.1384C167.93 50.9701 168.531 50.8901 169.188 51.2874C169.429 51.4133 169.64 51.59 169.806 51.8052C169.972 52.0205 170.09 52.2693 170.151 52.5343C170.882 55.4918 171.635 58.4464 172.358 61.4039C173.182 64.7255 174.001 68.0489 174.816 71.3741C175.092 72.508 174.612 73.3053 173.453 73.6198C171.712 74.0722 169.969 74.5137 168.211 74.9551C159.593 77.1363 150.973 79.3167 142.35 81.4962C142.008 81.5927 141.608 81.6203 141.131 81.692ZM168.203 53.0006L137.258 60.7059C138.527 66.2042 139.776 71.6004 141.054 77.1345C141.239 76.8035 141.363 76.5965 141.47 76.3786C143.363 72.5365 145.254 68.6972 147.145 64.8606C147.255 64.6084 147.39 64.3681 147.548 64.1433C147.677 63.9546 147.869 63.8178 148.09 63.7572C148.311 63.6966 148.546 63.7161 148.754 63.8123C148.966 63.8997 149.137 64.0646 149.233 64.2735C149.329 64.4824 149.342 64.7198 149.269 64.9379C149.181 65.275 149.054 65.6009 148.891 65.909C146.828 70.1097 144.762 74.3104 142.695 78.5111C142.571 78.7677 142.455 79.0298 142.259 79.4546C152.569 76.8448 162.694 74.2847 172.843 71.6942C171.285 65.4041 169.751 59.2299 168.203 53.0006ZM130.214 78.776C128.697 81.6644 126.405 83.5984 123.235 84.3929C120.018 85.1985 117.102 84.4288 114.44 82.4617C113.551 83.1796 112.764 84.0148 112.1 84.9446C109.951 87.8497 109.118 91.1712 108.991 94.7218C108.906 97.1109 109.245 99.4614 109.623 101.809C109.788 102.838 109.987 103.864 110.175 104.869C110.955 104.924 128.178 101.492 128.678 101.202L126.33 92.6362C125.778 92.912 125.296 93.1465 124.796 93.3562C124.184 93.61 123.618 93.4279 123.375 92.9286C123.133 92.4293 123.34 91.9354 123.877 91.5878C123.941 91.5484 124.007 91.5142 124.076 91.4857C125.784 90.7188 127.257 89.5794 128.689 88.4152C129.867 87.4131 130.994 86.3523 132.066 85.2371C132.893 84.4094 133.702 83.6149 134.714 83.03C134.855 82.9454 134.991 82.8533 135.122 82.7542C133.754 81.041 132.259 79.5954 130.214 78.776ZM136.836 84.677C136.594 84.5943 136.335 84.5783 136.086 84.6308C135.836 84.6832 135.605 84.8022 135.418 84.975C134.699 85.5558 134.01 86.1727 133.354 86.8234C131.895 88.3049 130.43 89.7725 128.7 90.9616C128.096 91.3699 128.098 91.392 128.297 92.1396C128.97 94.6446 129.649 97.1496 130.333 99.6545C130.443 100.06 130.609 100.452 130.736 100.885C130.968 100.866 131.166 100.868 131.357 100.833C134.791 100.154 138.223 99.4531 141.661 98.7966C141.844 98.776 142.019 98.7051 142.165 98.5917C142.311 98.4783 142.423 98.3267 142.488 98.1538C143.167 96.6226 143.868 95.1053 144.552 93.5742C144.828 92.9341 145.079 92.2775 145.3 91.6154C145.443 91.266 145.509 90.8894 145.493 90.5119C145.344 89.3229 144.726 88.8566 143.661 89.4663C143.222 89.7514 142.81 90.0745 142.428 90.4319C142.273 90.5588 142.152 90.7326 142 90.8512C141.834 90.9881 141.628 91.0666 141.413 91.0746C141.198 91.0825 140.986 91.0196 140.811 90.8954C140.634 90.7739 140.501 90.5984 140.431 90.3952C140.361 90.1919 140.359 89.9716 140.425 89.767C140.513 89.4911 140.701 89.2153 140.767 88.9394C140.971 88.3532 141.11 87.7463 141.181 87.1296C141.228 86.1199 140.535 85.684 139.578 86.0261C139.364 86.0959 139.166 86.2096 138.998 86.3599C138.593 86.7627 138.207 87.1875 137.84 87.6234C137.6 87.8993 137.431 88.258 137.189 88.5421C137.039 88.7482 136.816 88.8888 136.566 88.9345C136.316 88.9803 136.058 88.9277 135.845 88.7877C135.637 88.645 135.487 88.4318 135.424 88.1874C135.36 87.9429 135.388 87.6838 135.5 87.4579C135.613 87.234 135.738 87.0166 135.875 86.8068C136.129 86.3765 136.408 85.9599 136.626 85.513C136.726 85.2453 136.797 84.9679 136.838 84.6853L136.836 84.677ZM119.455 67.2387C118.829 67.8125 118.313 68.3698 117.714 68.814C116.409 69.7796 115.071 70.7038 113.725 71.6142C113.445 71.7746 113.24 72.0379 113.151 72.348C112.825 73.4822 112.744 74.6725 112.911 75.8406C113.06 76.8833 113.414 77.8861 113.954 78.7904C114.494 79.6948 115.208 80.4826 116.055 81.1081C116.903 81.7336 117.866 82.1842 118.889 82.4336C119.913 82.6831 120.975 82.7264 122.015 82.5611C126.214 81.9045 129.384 78.147 129.166 73.9012C129.127 73.1315 129.105 72.3177 128.846 71.6114C128.437 70.5019 127.795 69.4927 126.965 68.6512C126.824 68.5001 126.653 68.3801 126.463 68.2988C126.273 68.2176 126.068 68.1769 125.861 68.1795C124.563 68.1432 123.267 68.042 121.979 67.876C121.135 67.7129 120.3 67.5001 119.48 67.2387H119.455Z" fill="#3558A2"/>
<path d="M168.203 53.001C169.751 59.2303 171.285 65.4155 172.844 71.6946C162.694 74.2851 152.569 76.8452 142.26 79.455C142.455 79.0302 142.571 78.7681 142.695 78.5115C144.763 74.3127 146.828 70.1119 148.892 65.9094C149.054 65.6012 149.181 65.2754 149.27 64.9383C149.342 64.7202 149.329 64.4828 149.233 64.2739C149.138 64.0649 148.966 63.9001 148.754 63.8127C148.546 63.7165 148.311 63.697 148.09 63.7576C147.87 63.8182 147.678 63.955 147.548 64.1437C147.39 64.3685 147.255 64.6088 147.145 64.861C145.255 68.6976 143.363 72.5369 141.47 76.379C141.363 76.5969 141.239 76.8038 141.054 77.1349C139.777 71.6008 138.527 66.2046 137.258 60.7063L168.203 53.001ZM158.095 62.6568C158.125 62.803 158.169 63.0513 158.236 63.2913C158.346 63.6996 158.47 64.1189 158.592 64.5134C159.143 66.406 159.695 68.3012 160.266 70.191C160.622 71.3966 161.055 71.667 162.244 71.3718C164.267 70.8752 166.277 70.3593 168.272 69.8241C169.356 69.5482 169.652 68.9965 169.345 67.9205C168.711 65.6362 168.067 63.352 167.414 61.0677C167.064 59.8483 166.609 59.6 165.359 59.8814C164.311 60.1187 163.259 60.3504 162.211 60.5904C161.163 60.8304 160.114 61.0649 159.074 61.3353C158.349 61.5119 158.081 61.887 158.103 62.6457L158.095 62.6568ZM144.348 63.5561C144.527 63.5147 144.822 63.4623 145.112 63.3823L163.684 58.2703C163.903 58.2158 164.114 58.1381 164.316 58.0385C164.52 57.9379 164.684 57.771 164.782 57.5651C164.879 57.3591 164.903 57.1263 164.851 56.9047C164.793 56.6843 164.658 56.4921 164.47 56.363C164.282 56.2339 164.054 56.1765 163.828 56.2012C163.579 56.2166 163.333 56.2611 163.094 56.3336C156.907 58.0477 150.72 59.7655 144.533 61.487C144.266 61.552 144.006 61.6444 143.758 61.7629C143.546 61.8466 143.372 62.0055 143.271 62.2091C143.169 62.4128 143.146 62.6468 143.206 62.8664C143.33 63.3161 143.691 63.5561 144.348 63.5451V63.5561ZM155.044 71.1676C154.926 71.2425 154.8 71.3045 154.669 71.3525C154.532 71.3754 154.402 71.4253 154.285 71.4993C154.168 71.5734 154.067 71.67 153.987 71.7836C153.908 71.8971 153.853 72.0254 153.824 72.1607C153.795 72.2961 153.793 72.4359 153.819 72.5719C153.957 73.1071 154.448 73.4271 155.124 73.2974C155.907 73.14 156.68 72.9364 157.438 72.6877C157.927 72.5277 158.382 72.1911 158.456 71.667C158.625 70.3443 158.346 69.0033 157.665 67.8571C157.545 67.6754 157.363 67.5437 157.153 67.4868C156.944 67.4299 156.72 67.4517 156.525 67.5481C156.323 67.6437 156.159 67.8044 156.059 68.0045C155.959 68.2046 155.929 68.4325 155.973 68.6516C156.018 68.8833 156.087 69.1123 156.158 69.3965C155.443 69.0687 154.876 68.4852 154.569 67.7605C154.186 66.9329 153.885 66.0473 153.576 65.1783C153.366 64.5907 153.228 63.9782 153.024 63.3933C152.953 63.1488 152.791 62.9412 152.57 62.8142C152.349 62.6871 152.088 62.6505 151.841 62.7119C151.597 62.7834 151.389 62.9417 151.255 63.1568C151.12 63.372 151.07 63.6289 151.112 63.8789C151.124 64.0036 151.149 64.1266 151.187 64.2458C151.438 65.0735 151.673 65.9259 151.954 66.7536C152.514 68.4999 153.295 70.111 155.044 71.1676Z" fill="white"/>
<path d="M130.216 78.7764C132.26 79.604 133.755 81.0413 135.124 82.738C134.992 82.8371 134.856 82.9292 134.715 83.0139C133.703 83.5905 132.883 84.3933 132.067 85.2209C130.993 86.3411 129.863 87.4064 128.682 88.4128C127.25 89.577 125.777 90.7164 124.069 91.4834C124 91.5118 123.934 91.546 123.871 91.5854C123.319 91.9331 123.139 92.4517 123.368 92.9262C123.597 93.4007 124.177 93.6076 124.789 93.3538C125.289 93.1442 125.771 92.8959 126.323 92.6338L128.671 101.2C128.171 101.476 110.948 104.921 110.168 104.866C109.988 103.862 109.79 102.836 109.616 101.807C109.238 99.459 108.899 97.1168 108.984 94.7194C109.111 91.1689 109.944 87.8473 112.093 84.9423C112.757 84.0125 113.544 83.1772 114.433 82.4594C117.095 84.4153 120.011 85.185 123.228 84.3905C126.406 83.5987 128.698 81.6648 130.216 78.7764Z" fill="white"/>
<path d="M136.839 84.6857C136.798 84.9681 136.728 85.2456 136.629 85.5133C136.411 85.9602 136.133 86.3768 135.879 86.8072C135.742 87.0169 135.616 87.2343 135.504 87.4582C135.391 87.6842 135.364 87.9433 135.427 88.1877C135.49 88.4321 135.64 88.6453 135.848 88.788C136.061 88.928 136.319 88.9806 136.57 88.9349C136.82 88.8891 137.043 88.7486 137.192 88.5424C137.435 88.2666 137.603 87.9107 137.843 87.6238C138.21 87.1879 138.596 86.763 139.002 86.3602C139.17 86.2099 139.367 86.0962 139.581 86.0264C140.538 85.6733 141.236 86.1092 141.184 87.1299C141.113 87.7466 140.974 88.3536 140.77 88.9397C140.693 89.2156 140.516 89.4915 140.428 89.7673C140.363 89.9719 140.365 90.1922 140.434 90.3955C140.504 90.5988 140.637 90.7742 140.814 90.8957C140.99 91.0199 141.201 91.0829 141.416 91.0749C141.631 91.0669 141.837 90.9884 142.003 90.8516C142.161 90.7329 142.279 90.5591 142.431 90.4322C142.813 90.0748 143.226 89.7517 143.664 89.4666C144.729 88.8597 145.347 89.3232 145.496 90.5122C145.513 90.8897 145.447 91.2663 145.303 91.6157C145.082 92.2779 144.837 92.9344 144.555 93.5745C143.879 95.1056 143.176 96.6092 142.492 98.1541C142.426 98.327 142.314 98.4786 142.168 98.592C142.022 98.7054 141.848 98.7763 141.664 98.7969C138.227 99.4618 134.795 100.154 131.36 100.833C131.17 100.869 130.971 100.866 130.739 100.885C130.599 100.452 130.447 100.058 130.336 99.6549C129.652 97.1425 128.976 94.6357 128.309 92.1344C128.11 91.3868 128.107 91.3647 128.711 90.9564C130.441 89.7784 131.906 88.3107 133.366 86.8182C134.022 86.1676 134.71 85.5506 135.429 84.9698C135.617 84.8008 135.847 84.6853 136.095 84.6353C136.343 84.5854 136.6 84.6027 136.839 84.6857Z" fill="#EAECF1"/>
<path d="M119.479 67.2393C120.304 67.5011 121.143 67.7139 121.993 67.8765C123.281 68.0425 124.576 68.1438 125.874 68.18C126.081 68.1775 126.286 68.2181 126.476 68.2994C126.666 68.3806 126.837 68.5006 126.978 68.6518C127.809 69.4932 128.45 70.5025 128.859 71.6119C129.119 72.3182 129.135 73.132 129.179 73.9017C129.397 78.1586 126.227 81.9022 122.029 82.5616C120.988 82.727 119.926 82.6836 118.903 82.4342C117.879 82.1847 116.916 81.7341 116.069 81.1087C115.221 80.4832 114.507 79.6953 113.967 78.7909C113.427 77.8866 113.073 76.8839 112.925 75.8412C112.757 74.6731 112.839 73.4827 113.165 72.3485C113.253 72.0384 113.459 71.7751 113.738 71.6147C115.085 70.7043 116.423 69.7801 117.728 68.8145C118.329 68.3704 118.845 67.8131 119.479 67.2393ZM122.238 76.9226C124.142 76.8647 125.273 76.2384 125.861 74.368C125.937 74.0562 125.93 73.7296 125.838 73.4217C125.785 73.2131 125.661 73.0299 125.486 72.9038C125.312 72.7778 125.099 72.717 124.884 72.732C124.682 72.7393 124.488 72.811 124.33 72.9366C124.172 73.0622 124.059 73.2351 124.007 73.43C123.957 73.5707 123.935 73.7197 123.891 73.8631C123.835 74.1622 123.67 74.4299 123.428 74.614C123.186 74.7981 122.883 74.8854 122.58 74.859C122.344 74.8562 122.11 74.8059 121.893 74.7112C121.676 74.6164 121.48 74.4791 121.317 74.3073C121.113 74.1224 120.933 73.9073 120.715 73.7417C120.533 73.5835 120.298 73.4994 120.057 73.506C119.816 73.5127 119.586 73.6096 119.413 73.7776C119.24 73.9275 119.127 74.1361 119.098 74.3636C119.068 74.5911 119.124 74.8215 119.253 75.0108C119.589 75.5206 120.029 75.9543 120.543 76.2836C121.057 76.613 121.635 76.8307 122.238 76.9226ZM119.559 72.0478C119.697 72.0436 119.832 72.012 119.957 71.9547C120.082 71.8975 120.195 71.8159 120.288 71.7146C120.381 71.6133 120.453 71.4945 120.499 71.3651C120.545 71.2356 120.566 71.0982 120.558 70.9609C120.556 70.8291 120.527 70.6993 120.472 70.5793C120.418 70.4594 120.339 70.352 120.241 70.2637C120.143 70.1755 120.029 70.1083 119.904 70.0664C119.779 70.0245 119.647 70.0087 119.515 70.0201C119.25 70.0316 119.001 70.1474 118.821 70.3423C118.641 70.5371 118.546 70.7952 118.555 71.0602C118.553 71.1916 118.578 71.322 118.628 71.4436C118.678 71.5652 118.752 71.6755 118.845 71.7678C118.939 71.86 119.05 71.9324 119.172 71.9805C119.295 72.0287 119.425 72.0516 119.557 72.0478H119.559ZM124.142 70.6905C124.146 70.5589 124.124 70.4278 124.077 70.3049C124.029 70.182 123.958 70.07 123.866 69.9755C123.774 69.881 123.665 69.8059 123.543 69.7548C123.422 69.7037 123.291 69.6776 123.16 69.678C123.028 69.6744 122.897 69.6967 122.775 69.7437C122.652 69.7907 122.54 69.8614 122.444 69.9519C122.349 70.0424 122.272 70.1508 122.219 70.2709C122.166 70.391 122.137 70.5205 122.133 70.6519C122.13 70.7834 122.152 70.9144 122.2 71.037C122.248 71.1597 122.319 71.2716 122.411 71.3662C122.502 71.4608 122.612 71.5361 122.733 71.5878C122.854 71.6395 122.984 71.6664 123.116 71.6671C123.38 71.6695 123.634 71.5688 123.825 71.3864C124.017 71.2041 124.129 70.9545 124.139 70.6905H124.142Z" fill="#EAECF1"/>
<path d="M158.104 62.6456C158.104 61.8869 158.357 61.5145 159.083 61.3241C160.123 61.0483 161.174 60.822 162.22 60.5793C163.265 60.3365 164.319 60.1075 165.367 59.8703C166.617 59.5944 167.072 59.8372 167.423 61.0565C168.079 63.339 168.723 65.6233 169.354 67.9094C169.657 68.9963 169.354 69.526 168.281 69.8129C166.278 70.3481 164.265 70.864 162.242 71.3606C161.053 71.6558 160.62 71.3855 160.264 70.1799C159.712 68.2901 159.16 66.3948 158.589 64.5023C158.468 64.0967 158.344 63.6746 158.233 63.2801C158.17 63.0401 158.126 62.7918 158.104 62.6456ZM165.552 61.9283L160.311 63.1256L162.134 69.2915L167.241 67.9673L165.552 61.9283Z" fill="#3558A2"/>
<path d="M144.347 63.5451C143.691 63.5451 143.329 63.3161 143.197 62.8554C143.137 62.6358 143.16 62.4018 143.262 62.1981C143.363 61.9945 143.537 61.8356 143.749 61.7519C143.997 61.6335 144.257 61.541 144.524 61.476C150.709 59.7545 156.896 58.0367 163.085 56.3226C163.324 56.2501 163.57 56.2056 163.819 56.1902C164.045 56.1655 164.273 56.2229 164.461 56.352C164.649 56.4811 164.784 56.6733 164.842 56.8937C164.895 57.1153 164.87 57.3481 164.773 57.5541C164.676 57.76 164.511 57.9269 164.307 58.0275C164.105 58.1271 163.894 58.2048 163.675 58.2593L145.103 63.3713C144.822 63.443 144.527 63.5037 144.347 63.5451Z" fill="#3558A2"/>
<path d="M155.044 71.1674C153.295 70.1053 152.514 68.4941 151.927 66.7533C151.651 65.9257 151.411 65.0815 151.16 64.2456C151.121 64.1264 151.096 64.0034 151.085 63.8787C151.042 63.6287 151.093 63.3718 151.227 63.1566C151.361 62.9415 151.57 62.7832 151.813 62.7117C152.061 62.6503 152.322 62.6869 152.542 62.814C152.763 62.941 152.926 63.1486 152.997 63.3931C153.215 63.978 153.353 64.5905 153.549 65.1781C153.858 66.0471 154.158 66.9244 154.542 67.7603C154.849 68.4849 155.416 69.0685 156.131 69.3963C156.059 69.1204 155.99 68.8831 155.946 68.6514C155.901 68.4322 155.931 68.2043 156.031 68.0042C156.131 67.8041 156.296 67.6434 156.498 67.5479C156.693 67.4515 156.916 67.4297 157.126 67.4866C157.336 67.5435 157.518 67.6752 157.637 67.8569C158.318 69.0031 158.597 70.344 158.429 71.6668C158.355 72.1909 157.899 72.5275 157.411 72.6875C156.652 72.9362 155.879 73.1398 155.096 73.2972C154.42 73.4269 153.929 73.1068 153.791 72.5716C153.766 72.4356 153.767 72.2959 153.796 72.1605C153.825 72.0251 153.881 71.8969 153.96 71.7834C154.039 71.6698 154.14 71.5732 154.257 71.4991C154.374 71.4251 154.505 71.3752 154.641 71.3523C154.782 71.3061 154.917 71.2441 155.044 71.1674Z" fill="#3558A2"/>
<path d="M122.238 76.9221C121.633 76.8279 121.054 76.6072 120.54 76.2745C120.026 75.9418 119.587 75.5044 119.253 74.991C119.123 74.8017 119.068 74.5713 119.098 74.3438C119.127 74.1163 119.239 73.9077 119.413 73.7578C119.586 73.5898 119.816 73.4929 120.057 73.4862C120.298 73.4796 120.533 73.5637 120.715 73.7219C120.933 73.8875 121.113 74.1026 121.317 74.2875C121.48 74.4593 121.676 74.5966 121.893 74.6914C122.11 74.7861 122.343 74.8364 122.58 74.8392C122.883 74.8656 123.185 74.7783 123.428 74.5942C123.67 74.4101 123.835 74.1424 123.891 73.8433C123.935 73.6999 123.957 73.5509 124.007 73.4102C124.059 73.2153 124.172 73.0424 124.33 72.9168C124.488 72.7912 124.682 72.7195 124.884 72.7122C125.099 72.6972 125.312 72.758 125.486 72.884C125.661 73.01 125.785 73.1933 125.838 73.4019C125.93 73.7098 125.937 74.0364 125.86 74.3482C125.273 76.238 124.139 76.8642 122.238 76.9221Z" fill="#3558A2"/>
<path d="M119.558 72.0469C119.426 72.051 119.295 72.0284 119.172 71.9805C119.05 71.9325 118.938 71.8602 118.844 71.7679C118.75 71.6755 118.676 71.5652 118.626 71.4434C118.576 71.3216 118.551 71.1909 118.553 71.0593C118.544 70.7943 118.639 70.5362 118.819 70.3413C118.999 70.1465 119.249 70.0307 119.513 70.0192C119.645 70.0078 119.777 70.0236 119.902 70.0655C120.027 70.1074 120.142 70.1746 120.239 70.2628C120.337 70.3511 120.416 70.4585 120.47 70.5784C120.525 70.6984 120.554 70.8282 120.556 70.96C120.564 71.0973 120.544 71.2347 120.497 71.3641C120.451 71.4936 120.379 71.6124 120.286 71.7137C120.193 71.815 120.08 71.8966 119.955 71.9538C119.83 72.0111 119.695 72.0427 119.558 72.0469Z" fill="#3558A2"/>
<path d="M124.14 70.6896C124.13 70.9541 124.017 71.2041 123.825 71.3865C123.633 71.5689 123.378 71.6693 123.113 71.6662C122.982 71.6656 122.852 71.6386 122.731 71.5869C122.61 71.5352 122.5 71.4599 122.409 71.3653C122.317 71.2707 122.245 71.1588 122.198 71.0362C122.15 70.9135 122.128 70.7825 122.131 70.651C122.134 70.5196 122.164 70.3901 122.217 70.27C122.27 70.1499 122.347 70.0415 122.442 69.951C122.538 69.8605 122.65 69.7898 122.773 69.7428C122.895 69.6958 123.026 69.6735 123.158 69.6771C123.289 69.6767 123.42 69.7028 123.541 69.7539C123.662 69.805 123.772 69.8801 123.864 69.9746C123.955 70.0691 124.027 70.1812 124.075 70.304C124.122 70.4269 124.144 70.558 124.14 70.6896Z" fill="#3558A2"/>
<path d="M165.536 61.9277L167.241 67.9667L162.134 69.2909L160.311 63.125L165.536 61.9277Z" fill="#7389B5"/>
</svg>
