<svg width="281" height="158" viewBox="0 0 281 158" fill="none" xmlns="http://www.w3.org/2000/svg">
<path d="M0 0H281V158H0V0Z" fill="#E6EEFE"/>
<path d="M12 81.2317L12.2358 81L12 81.2317Z" fill="#E6E6ED"/>
<path d="M0 0H281V158H0V0Z" fill="#E6EEFE"/>
<path d="M12 81.2317L12.2358 81L12 81.2317Z" fill="#E6E6ED"/>
<path d="M126.33 91.481C125.349 90.5169 124.384 89.6704 123.538 88.7211C120.188 85.0252 118.272 80.2517 118.139 75.2652C117.883 68.4667 120.252 62.6559 125.119 57.9237C129.384 53.7852 134.554 51.6719 140.512 51.6866C146.247 51.6866 151.146 53.797 155.258 57.8149C158.929 61.4008 160.866 65.7862 161.431 70.824C162.433 79.9063 157.574 88.9415 149.412 93.1975C145.352 95.3596 140.707 96.1642 136.156 95.4931C135.589 95.4137 135.345 95.5813 135.107 96.0486C133.458 99.3082 131.771 102.547 130.131 105.81C129.087 107.882 128.132 109.995 127.08 112.062C126.198 113.825 125.243 115.55 124.24 117.243C123.823 117.956 123.285 118.591 122.65 119.119C122.164 119.542 121.572 119.826 120.937 119.942C120.302 120.057 119.648 119.999 119.044 119.774C117.954 119.405 116.969 118.776 116.175 117.943C115.058 116.767 114.706 115.398 115.255 113.884C115.843 112.285 116.431 110.689 117.18 109.155C118.748 105.886 120.364 102.641 122.027 99.4199C123.276 97.0068 124.643 94.6495 125.954 92.2687C126.075 92.0189 126.198 91.7514 126.33 91.481ZM159.564 72.7962C159.544 72.4024 159.535 72.1643 159.52 71.9145C159.244 67.053 157.483 62.7352 154.044 59.3551C148.439 53.844 141.673 52.3009 134.196 54.7023C124.696 57.7473 118.659 67.5967 120.381 77.6871C122.274 88.8151 132.902 95.8429 143.851 93.1593C149.891 91.6897 154.321 88.0392 157.236 82.5781C158.826 79.5665 159.627 76.2012 159.564 72.7962ZM128.02 92.689C127.097 94.2909 126.136 95.8634 125.272 97.483C122.797 102.118 120.317 106.75 118.218 111.574C117.774 112.597 117.445 113.669 117.089 114.727C116.984 115.048 116.974 115.392 117.063 115.718C117.151 116.043 117.333 116.336 117.586 116.559C117.867 116.844 118.176 117.1 118.509 117.323C120.052 118.375 121.154 118.169 122.262 116.65C122.37 116.5 122.468 116.344 122.556 116.182C123.732 113.978 124.961 111.774 126.098 109.554C127.006 107.776 127.785 105.93 128.673 104.14C129.848 101.754 131.095 99.3905 132.312 97.0185C132.65 96.3602 133.005 95.7106 133.352 95.0581L128.02 92.689Z" fill="#3558A2"/>
<path d="M161.272 38.0313C160.978 39.8624 161.645 41.2057 163.056 42.2462C163.811 42.8017 164.525 43.3689 165.498 43.5335C165.714 43.5534 165.916 43.6464 166.072 43.7972C166.228 43.9479 166.327 44.1474 166.354 44.3624C166.427 44.8474 166.18 45.1619 165.786 45.4117C164.296 46.3611 163.185 47.6838 162.189 49.1093C161.601 49.9382 161.433 50.9199 161.263 51.8898C161.128 52.6511 161.019 53.4153 160.901 54.1765C160.784 54.9378 160.366 55.3522 159.805 55.3287C159.244 55.3052 158.897 54.8144 158.82 54.0884C158.65 52.5306 158.473 50.9698 158.232 49.4238C157.977 47.7925 156.813 47.0724 155.334 46.7344C154.993 46.6834 154.659 46.5947 154.338 46.4698C154.151 46.3931 153.99 46.2645 153.873 46.0992C153.757 45.9339 153.69 45.7388 153.681 45.5368C153.672 45.3349 153.72 45.1345 153.821 44.9592C153.922 44.7839 154.071 44.6411 154.25 44.5476C154.571 44.3588 154.916 44.2136 155.276 44.1155C157.524 43.4277 158.7 41.8934 158.994 39.6067C159.09 38.8425 159.194 38.0793 159.305 37.317C159.335 37.1063 159.387 36.8994 159.461 36.6998C159.519 36.4778 159.656 36.2847 159.847 36.1573C160.038 36.03 160.268 35.9772 160.496 36.0091C160.721 36.0507 160.924 36.1724 161.066 36.3518C161.209 36.5311 161.282 36.756 161.272 36.9849C161.289 37.3611 161.272 37.7344 161.272 38.0313ZM160.24 42.4019C159.975 43.0623 159.582 43.6636 159.084 44.1711C158.586 44.6787 157.991 45.0823 157.336 45.3588C158.832 46.0672 159.726 47.0753 160.064 48.4979C161.113 47.234 162.121 46.0378 163.097 44.8533L160.24 42.4019Z" fill="#3558A2"/>
<path d="M159.565 72.7969C159.621 76.2048 158.812 79.5713 157.214 82.5816C154.298 88.0486 149.866 91.6932 143.828 93.1629C132.88 95.8464 122.251 88.8187 120.359 77.6907C118.645 67.6003 124.682 57.7509 134.173 54.7058C141.65 52.3074 148.417 53.8476 154.022 59.3586C157.461 62.7388 159.221 67.0565 159.498 71.918C159.536 72.1649 159.545 72.403 159.565 72.7969ZM139.519 90.303C141.93 90.333 144.321 89.8626 146.541 88.9215C155.879 84.9918 159.818 74.1225 155.582 65.3429C152.602 59.1705 145.809 55.3113 138.982 56.0491C132.962 56.7016 128.4 59.6584 125.382 64.8903C123.03 68.9553 122.507 73.3318 123.706 77.8847C124.559 81.1179 126.299 83.8014 128.73 86.0999C129.697 87.0153 130.847 87.7164 132.104 88.1573C133.206 88.5541 134.282 89.0215 135.358 89.4829C135.963 89.7445 136.513 90.1237 137.218 90.1413C137.985 90.1619 138.752 90.2413 139.519 90.303Z" fill="#EAECF1"/>
<path d="M128.02 92.6895L133.369 95.0585C133.022 95.711 132.666 96.3606 132.328 97.019C131.112 99.3909 129.877 101.754 128.69 104.141C127.808 105.931 127.023 107.777 126.115 109.555C124.977 111.786 123.763 113.964 122.573 116.183C122.485 116.345 122.387 116.501 122.279 116.65C121.18 118.17 120.069 118.376 118.526 117.323C118.193 117.101 117.884 116.844 117.603 116.559C117.35 116.336 117.168 116.044 117.08 115.718C116.991 115.393 117.001 115.048 117.106 114.728C117.462 113.67 117.791 112.597 118.235 111.574C120.33 106.751 122.811 102.119 125.289 97.4834C126.135 95.8638 127.097 94.2913 128.02 92.6895Z" fill="#7389B5"/>
<path d="M160.242 42.4023L163.099 44.8537C162.111 46.0294 161.115 47.2345 160.066 48.4983C159.728 47.0757 158.834 46.0676 157.338 45.3592C157.993 45.0827 158.587 44.6791 159.086 44.1715C159.584 43.664 159.977 43.0627 160.242 42.4023Z" fill="white"/>
<path d="M139.519 90.303C138.752 90.2413 137.985 90.1502 137.218 90.1325C136.513 90.1149 135.963 89.7358 135.357 89.4742C134.282 89.0127 133.206 88.5454 132.104 88.1486C130.847 87.7076 129.697 87.0065 128.729 86.0911C126.299 83.7926 124.559 81.1091 123.706 77.8759C122.507 73.323 123.045 68.9465 125.382 64.8815C128.389 59.6497 132.962 56.6928 138.982 56.0403C145.809 55.3025 152.602 59.1588 155.582 65.3342C159.818 74.1137 155.876 84.983 146.541 88.9128C144.322 89.8568 141.931 90.3302 139.519 90.303ZM138.05 72.3413L137.865 72.5353C138.022 72.7663 138.19 72.989 138.37 73.2025C138.664 73.5346 139.02 73.8374 139.331 74.1666C139.757 74.6192 139.855 75.0484 139.649 75.4687C139.416 75.9193 138.98 76.0908 138.341 75.983L137.477 75.8449C138.282 77.6937 139.634 78.6166 141.318 79.0604C142.823 79.442 144.386 79.5318 145.924 79.325C146.227 79.2659 146.542 79.3095 146.817 79.449C147.093 79.5884 147.314 79.8157 147.447 80.095C147.538 80.2567 147.623 80.4242 147.702 80.5918C148.34 81.935 148.978 83.2812 149.675 84.7449C152.646 82.1848 154.468 79.0663 155.109 75.2747C155.652 72.1561 155.176 68.9456 153.751 66.1189C153.61 66.2394 153.554 66.2659 153.531 66.31C152.329 68.6232 150.398 69.7989 147.817 69.9223C147.414 69.9429 147.279 70.1457 147.138 70.4661C146.418 72.1003 144.922 72.7381 143.261 72.0356C142.495 71.6742 141.76 71.2485 141.065 70.7629C140.613 70.469 140.228 70.0605 139.616 70.034C139.616 70.1957 139.572 70.2897 139.616 70.3456C139.863 70.7571 140.125 71.1568 140.375 71.5624C140.727 72.1326 140.704 72.6734 140.316 73.032C139.928 73.3906 139.417 73.3612 138.867 72.9439C138.591 72.7146 138.314 72.5265 138.044 72.3413H138.05ZM138.579 64.5406C138.379 64.9138 138.285 65.1284 138.153 65.3342C137.699 66.2019 137.035 66.9417 136.221 67.4856C135.407 68.0295 134.469 68.36 133.494 68.4468C132.48 68.5585 132.48 68.5409 132.162 69.5285C132.121 69.6548 132.095 69.7871 132.048 69.9106C131.942 70.1678 131.903 70.4479 131.936 70.7243C131.969 71.0006 132.072 71.2638 132.236 71.4889C133.218 73.0614 133.412 74.7809 132.994 76.5709C132.921 76.906 132.83 77.2351 132.733 77.6231C134.77 78.5049 135.895 80.2155 136.977 81.9732C137.888 83.4428 138.817 84.9125 139.71 86.3821C140.054 86.9699 140.328 87.5754 140.678 88.2573C143.014 88.1438 145.291 87.4812 147.323 86.3233C147.873 86.0147 147.934 85.8706 147.682 85.2946C147.17 84.1189 146.615 82.9696 146.095 81.8027C146.041 81.6542 145.937 81.5287 145.802 81.4473C145.667 81.366 145.507 81.3337 145.351 81.356C144.343 81.356 143.326 81.3413 142.321 81.259C140.983 81.1666 139.689 80.7435 138.555 80.0274C137.142 79.1251 136.048 77.97 135.59 76.3034C135.477 75.9595 135.454 75.5923 135.524 75.2371C135.594 74.8819 135.754 74.5507 135.989 74.2753C136.093 74.1602 136.16 74.0167 136.182 73.8632C136.203 73.7097 136.178 73.5533 136.11 73.4141C135.952 72.9069 135.86 72.3813 135.837 71.8505C135.81 71.0128 136.207 70.516 137.012 70.2339L137.48 70.084C137.518 69.887 137.55 69.7077 137.585 69.5285C137.879 68.1499 138.761 67.6209 140.122 68C140.964 68.2578 141.746 68.6804 142.423 69.2433C142.925 69.6364 143.478 69.9588 144.066 70.2015C144.684 70.4543 145.066 70.2015 145.21 69.5843C145.153 69.5306 145.09 69.4842 145.022 69.4462C143.311 68.7837 141.912 67.5014 141.104 65.8544C141.048 65.7025 140.945 65.5726 140.81 65.4841C140.087 65.1784 139.355 64.8844 138.573 64.5406H138.579ZM147.361 67.9471C149.871 67.9795 151.708 66.4393 152.064 64.2584C152.113 64.0397 152.106 63.8125 152.045 63.597C151.984 63.3815 151.87 63.1846 151.714 63.0239C150.45 61.69 149.006 60.5395 147.423 59.6056C146.15 58.812 145.189 59.1353 144.169 59.9318C142.6 61.1604 142.077 63.0562 142.873 64.8639C143.767 66.9125 145.442 67.8237 147.355 67.9471H147.361ZM127.936 82.082C129.817 85.3622 135.025 88.2544 138.311 88.0839C138.305 88.006 138.286 87.9297 138.256 87.8576C136.915 85.7061 135.61 83.5369 134.214 81.4177C133.766 80.6842 133.131 80.0828 132.374 79.6747C131.93 79.4484 131.625 79.4396 131.278 79.8658C130.634 80.6202 129.831 81.2225 128.926 81.6293C128.624 81.7939 128.303 81.9321 127.93 82.082H127.936ZM125.931 78.3697C126.122 78.8723 126.246 79.2515 126.405 79.6071C126.672 80.2302 126.813 80.2861 127.445 80.0892C128.62 79.7058 129.629 78.9322 130.304 77.8967C130.98 76.8611 131.281 75.6259 131.157 74.3958C130.863 71.7711 128.68 70.0546 126.128 70.4396C125.723 70.5013 125.267 70.5513 125.282 71.0863C125.302 71.8034 124.712 72.6088 125.461 73.226C126.211 73.8433 126.261 74.4752 125.608 75.0983C125.05 75.6303 125.108 76.0036 125.84 76.2035C126.172 76.2651 126.513 76.2651 126.845 76.2035C127.051 76.18 127.242 76.0477 127.451 76.0065C127.658 75.946 127.879 75.9595 128.077 76.0448C128.275 76.1302 128.437 76.2819 128.535 76.4739C128.642 76.6623 128.675 76.8833 128.629 77.0946C128.583 77.306 128.461 77.493 128.286 77.6202C127.838 77.895 127.36 78.1151 126.86 78.2756C126.553 78.3408 126.239 78.3724 125.925 78.3697H125.931ZM136.889 62.1274C136.857 61.622 136.726 61.1279 136.502 60.6738C136.278 60.2196 135.966 59.8146 135.584 59.4821C135.423 59.3053 135.207 59.1881 134.971 59.1497C134.735 59.1113 134.493 59.1539 134.285 59.2705C132.666 60.0263 131.177 61.0354 129.876 62.2597C129.729 62.3922 129.619 62.5593 129.554 62.7458C129.489 62.9323 129.473 63.132 129.505 63.3266C129.608 64.0695 129.935 64.7631 130.444 65.3139C130.953 65.8647 131.618 66.2462 132.351 66.407C134.684 66.8831 136.901 64.9109 136.883 62.1274H136.889ZM140.507 62.9681C140.555 62.0653 140.797 61.1835 141.217 60.3829C141.637 59.5824 142.225 58.8821 142.941 58.3299C141.556 57.7421 138.288 57.8361 137.418 58.4681C138.098 59.2896 138.565 60.2657 138.779 61.3103C138.852 61.7483 138.779 62.3126 139.04 62.5889C139.302 62.8652 139.863 62.8828 140.295 63.0063C140.365 62.9996 140.434 62.9868 140.501 62.9681H140.507ZM130.616 68.0294C130.045 67.6052 129.502 67.1437 128.991 66.648C128.546 66.1017 128.137 65.5274 127.765 64.9285C126.992 65.8397 126.216 67.4445 126.114 68.3733C127.502 68.288 128.887 68.5934 130.111 69.2551L130.616 68.0294Z" fill="#3558A2"/>
<path d="M138.044 72.3406C138.314 72.5316 138.591 72.7139 138.855 72.9137C139.405 73.3311 139.893 73.3664 140.304 73.0019C140.716 72.6375 140.716 72.1201 140.363 71.5323C140.113 71.1267 139.852 70.7269 139.605 70.3155C139.572 70.2596 139.605 70.1656 139.605 70.0039C140.216 70.0303 140.601 70.4418 141.054 70.7328C141.746 71.2231 142.478 71.6538 143.243 72.0202C144.904 72.7227 146.4 72.0849 147.12 70.4507C147.261 70.1303 147.397 69.9275 147.799 69.9069C150.38 69.7835 152.311 68.6078 153.513 66.2946C153.537 66.2505 153.592 66.224 153.734 66.1035C155.158 68.9302 155.635 72.1407 155.092 75.2593C154.451 79.0509 152.628 82.1694 149.657 84.7295C148.96 83.2599 148.322 81.9196 147.685 80.5764C147.605 80.4088 147.52 80.2413 147.429 80.0796C147.297 79.8003 147.075 79.573 146.8 79.4336C146.524 79.2941 146.21 79.2505 145.906 79.3095C144.368 79.5164 142.805 79.4266 141.301 79.045C139.616 78.6012 138.264 77.6783 137.459 75.8295L138.323 75.9676C138.964 76.0734 139.4 75.902 139.631 75.4533C139.837 75.0476 139.74 74.6038 139.314 74.1512C139.002 73.822 138.661 73.5192 138.353 73.1871C138.173 72.9735 138.004 72.7508 137.847 72.5199L138.044 72.3406Z" fill="white"/>
<path d="M138.572 64.54C139.354 64.8692 140.086 65.1661 140.803 65.4953C140.938 65.5838 141.041 65.7137 141.097 65.8656C141.905 67.5126 143.304 68.7949 145.015 69.4574C145.083 69.4954 145.146 69.5418 145.203 69.5955C145.059 70.2098 144.677 70.4773 144.06 70.2128C143.471 69.97 142.918 69.6476 142.417 69.2546C141.739 68.6916 140.957 68.269 140.115 68.0113C138.745 67.6321 137.864 68.1612 137.579 69.5397C137.543 69.719 137.511 69.8983 137.473 70.0952L137.005 70.2451C136.212 70.539 135.815 71.024 135.83 71.8617C135.853 72.3925 135.945 72.9182 136.103 73.4254C136.171 73.5645 136.196 73.7209 136.175 73.8744C136.153 74.0279 136.086 74.1715 135.983 74.2866C135.748 74.5619 135.587 74.8931 135.517 75.2483C135.447 75.6035 135.47 75.9707 135.583 76.3146C136.041 77.9812 137.135 79.1363 138.548 80.0387C139.682 80.7547 140.976 81.1779 142.314 81.2702C143.319 81.3525 144.336 81.3701 145.344 81.3672C145.5 81.3449 145.66 81.3772 145.795 81.4586C145.931 81.5399 146.034 81.6654 146.088 81.814C146.608 82.9897 147.163 84.133 147.675 85.3058C147.928 85.8936 147.866 86.0259 147.316 86.3345C145.284 87.4924 143.007 88.155 140.671 88.2685C140.321 87.5866 140.048 86.9694 139.704 86.3933C138.822 84.9237 137.881 83.4541 136.97 81.9844C135.888 80.2209 134.763 78.5132 132.726 77.6344C132.823 77.2464 132.914 76.9172 132.987 76.5821C133.39 74.7921 133.211 73.0727 132.229 71.5002C132.066 71.2751 131.962 71.0118 131.929 70.7355C131.896 70.4592 131.935 70.179 132.041 69.9218C132.088 69.7983 132.114 69.6661 132.156 69.5397C132.473 68.5521 132.473 68.5697 133.487 68.4581C134.462 68.3713 135.4 68.0408 136.214 67.4969C137.028 66.9529 137.692 66.2131 138.146 65.3454C138.263 65.1279 138.372 64.9133 138.572 64.54Z" fill="#EAECF1"/>
<path d="M147.355 67.9464C145.441 67.8142 143.766 66.9118 142.861 64.8632C142.064 63.0555 142.587 61.1597 144.157 59.9311C145.177 59.1346 146.138 58.8113 147.411 59.6049C148.993 60.5387 150.438 61.6893 151.702 63.0232C151.858 63.1839 151.971 63.3808 152.033 63.5963C152.094 63.8118 152.1 64.039 152.052 64.2577C151.702 66.4386 149.865 67.9788 147.355 67.9464ZM147.422 66.6473C147.965 66.6597 148.501 66.5247 148.973 66.2565C149.445 65.9884 149.836 65.5973 150.103 65.1248C150.268 64.8933 150.334 64.6061 150.288 64.3258C150.242 64.0455 150.086 63.7949 149.856 63.6287C149.412 63.3348 148.874 63.4465 148.478 64.002C148.341 64.2146 148.146 64.3833 147.916 64.4876C147.686 64.592 147.431 64.6274 147.181 64.5898C147.021 64.5785 146.86 64.5864 146.702 64.6133C146.514 64.6293 146.336 64.7053 146.194 64.8302C146.052 64.9551 145.954 65.1222 145.915 65.307C145.857 65.5026 145.871 65.7124 145.954 65.8985C146.038 66.0846 146.185 66.2345 146.37 66.321C146.71 66.462 147.062 66.5712 147.422 66.6473ZM148.222 61.3155C148.096 61.3107 147.97 61.3316 147.852 61.3768C147.735 61.4221 147.627 61.4907 147.537 61.5787C147.446 61.6666 147.375 61.772 147.326 61.8884C147.278 62.0049 147.254 62.1299 147.255 62.2561C147.248 62.523 147.348 62.7818 147.531 62.976C147.714 63.1703 147.967 63.2844 148.234 63.2936C148.487 63.29 148.73 63.1887 148.911 63.0108C149.092 62.8329 149.198 62.5921 149.206 62.3384C149.213 62.2055 149.193 62.0726 149.146 61.9479C149.1 61.8232 149.028 61.7095 148.936 61.6136C148.843 61.5177 148.733 61.4418 148.61 61.3905C148.487 61.3393 148.355 61.3137 148.222 61.3155ZM145.685 62.6293C145.559 62.625 145.433 62.646 145.315 62.6911C145.197 62.7362 145.089 62.8044 144.998 62.8918C144.907 62.9792 144.834 63.0839 144.784 63.1999C144.734 63.3158 144.708 63.4407 144.706 63.567C144.697 63.696 144.713 63.8256 144.755 63.948C144.797 64.0704 144.864 64.183 144.95 64.279C145.037 64.375 145.142 64.4524 145.26 64.5065C145.377 64.5605 145.505 64.5902 145.634 64.5936C145.763 64.597 145.892 64.574 146.012 64.5262C146.132 64.4784 146.242 64.4066 146.333 64.3153C146.425 64.2239 146.497 64.115 146.545 63.9949C146.594 63.8749 146.617 63.7463 146.614 63.6169C146.618 63.491 146.598 63.3654 146.553 63.2475C146.509 63.1296 146.442 63.0216 146.355 62.9298C146.269 62.838 146.165 62.7642 146.05 62.7126C145.935 62.6611 145.811 62.6328 145.685 62.6293Z" fill="white"/>
<path d="M127.93 82.0817C128.303 81.9201 128.623 81.7878 128.929 81.6438C129.834 81.237 130.637 80.6347 131.28 79.8802C131.627 79.454 131.933 79.4628 132.377 79.6892C133.133 80.0973 133.768 80.6987 134.217 81.4321C135.604 83.5513 136.918 85.7205 138.258 87.872C138.288 87.9441 138.307 88.0205 138.314 88.0983C135.019 88.2424 129.811 85.3619 127.93 82.0817Z" fill="white"/>
<path d="M125.926 78.3687C126.238 78.3671 126.55 78.3317 126.855 78.2629C127.354 78.1024 127.833 77.8823 128.28 77.6075C128.455 77.4803 128.577 77.2933 128.623 77.0819C128.67 76.8705 128.636 76.6496 128.53 76.4612C128.432 76.2692 128.27 76.1174 128.072 76.0321C127.874 75.9468 127.652 75.9333 127.446 75.9938C127.237 76.035 127.046 76.1673 126.84 76.1908C126.508 76.2524 126.167 76.2524 125.835 76.1908C125.103 75.9909 125.044 75.6176 125.603 75.0856C126.255 74.4625 126.17 73.8041 125.456 73.2133C124.741 72.6225 125.297 71.7907 125.276 71.0735C125.276 70.5386 125.717 70.4857 126.123 70.4269C128.674 70.0419 130.861 71.7584 131.152 74.3831C131.275 75.6132 130.974 76.8484 130.299 77.884C129.624 78.9195 128.615 79.6931 127.44 80.0764C126.808 80.2734 126.667 80.2175 126.399 79.5944C126.24 79.2446 126.117 78.8714 125.926 78.3687ZM129.03 74.2538C129.038 74.0143 128.953 73.7811 128.792 73.6033C128.631 73.4256 128.408 73.3174 128.169 73.3015C127.918 73.289 127.672 73.3737 127.482 73.5379C127.292 73.7022 127.173 73.9333 127.149 74.1833C127.14 74.4327 127.232 74.6752 127.402 74.8574C127.573 75.0396 127.809 75.1465 128.058 75.1547C128.308 75.1629 128.55 75.0716 128.732 74.901C128.915 74.7304 129.022 74.4944 129.03 74.245V74.2538Z" fill="white"/>
<path d="M136.882 62.1272C136.9 64.9107 134.684 66.8829 132.35 66.4097C131.617 66.2489 130.952 65.8674 130.443 65.3166C129.934 64.7658 129.607 64.0722 129.505 63.3294C129.472 63.1347 129.489 62.935 129.553 62.7485C129.618 62.5621 129.729 62.3949 129.875 62.2624C131.176 61.0381 132.665 60.029 134.284 59.2732C134.492 59.1566 134.734 59.114 134.97 59.1524C135.206 59.1909 135.422 59.308 135.583 59.4848C135.964 59.8175 136.274 60.2223 136.497 60.6759C136.72 61.1294 136.851 61.6227 136.882 62.1272ZM133.129 65.9159C133.827 65.8958 134.495 65.6293 135.016 65.1635C135.483 64.7285 135.58 64.1641 135.263 63.7438C134.945 63.3235 134.472 63.2794 133.896 63.5645C133.567 63.731 133.227 63.8744 132.879 63.9936C132.268 64.1906 131.974 64.5403 132.038 65.0665C132.103 65.5926 132.541 65.9042 133.129 65.9159ZM131.627 63.9113C131.752 63.9127 131.877 63.8883 131.993 63.8397C132.109 63.7911 132.213 63.7193 132.3 63.6287C132.387 63.5381 132.455 63.4306 132.499 63.3129C132.543 63.1952 132.562 63.0698 132.556 62.9443C132.555 62.6904 132.457 62.4464 132.281 62.263C132.105 62.0797 131.866 61.971 131.612 61.9597C131.359 61.9666 131.119 62.0723 130.943 62.2542C130.767 62.4361 130.67 62.6796 130.671 62.9326C130.679 63.1862 130.782 63.4276 130.96 63.6089C131.137 63.7902 131.376 63.8982 131.63 63.9113H131.627ZM135.154 61.6364C135.157 61.5239 135.137 61.4121 135.094 61.3078C135.052 61.2035 134.989 61.109 134.909 61.0302C134.829 60.9513 134.733 60.8898 134.628 60.8495C134.523 60.8092 134.411 60.7909 134.299 60.7957C134.181 60.7932 134.064 60.8146 133.955 60.8586C133.846 60.9026 133.747 60.9683 133.664 61.0517C133.582 61.1351 133.517 61.2345 133.473 61.3438C133.43 61.4532 133.41 61.5701 133.413 61.6876C133.416 61.8051 133.444 61.9207 133.493 62.0274C133.543 62.134 133.613 62.2295 133.701 62.308C133.788 62.3865 133.891 62.4464 134.002 62.4841C134.113 62.5217 134.231 62.5363 134.348 62.527C134.459 62.5232 134.567 62.4974 134.668 62.4511C134.768 62.4048 134.858 62.339 134.933 62.2573C135.007 62.1757 135.065 62.0801 135.102 61.9759C135.139 61.8718 135.154 61.7614 135.148 61.6511L135.154 61.6364Z" fill="white"/>
<path d="M147.422 66.6476C147.062 66.5753 146.71 66.47 146.37 66.3331C146.185 66.2465 146.037 66.0966 145.954 65.9105C145.87 65.7245 145.856 65.5146 145.914 65.319C145.954 65.1343 146.052 64.9671 146.193 64.8422C146.335 64.7173 146.513 64.6413 146.702 64.6254C146.86 64.5984 147.021 64.5905 147.181 64.6018C147.431 64.6395 147.686 64.604 147.916 64.4997C148.146 64.3954 148.341 64.2267 148.477 64.014C148.874 63.4585 149.412 63.3527 149.856 63.6407C150.086 63.807 150.241 64.0576 150.287 64.3379C150.334 64.6181 150.267 64.9053 150.102 65.1368C149.834 65.6071 149.442 65.9959 148.971 66.2619C148.499 66.5279 147.963 66.6611 147.422 66.6476Z" fill="#3558A2"/>
<path d="M148.221 61.3161C148.354 61.3143 148.486 61.3398 148.609 61.3911C148.732 61.4424 148.843 61.5183 148.935 61.6142C149.027 61.7101 149.099 61.8238 149.146 61.9485C149.192 62.0732 149.213 62.2061 149.206 62.339C149.198 62.5927 149.092 62.8335 148.911 63.0114C148.73 63.1893 148.487 63.2906 148.233 63.2942C147.966 63.285 147.714 63.1709 147.53 62.9766C147.347 62.7823 147.248 62.5236 147.254 62.2567C147.253 62.1305 147.277 62.0055 147.326 61.889C147.374 61.7726 147.446 61.6672 147.536 61.5793C147.627 61.4913 147.734 61.4226 147.852 61.3774C147.969 61.3322 148.095 61.3113 148.221 61.3161Z" fill="#3558A2"/>
<path d="M145.685 62.6295C145.811 62.6329 145.935 62.6612 146.05 62.7127C146.165 62.7643 146.268 62.8381 146.355 62.9299C146.441 63.0217 146.508 63.1297 146.553 63.2476C146.597 63.3656 146.618 63.4911 146.613 63.617C146.616 63.7464 146.593 63.875 146.545 63.995C146.496 64.1151 146.424 64.2241 146.333 64.3154C146.241 64.4067 146.132 64.4785 146.012 64.5263C145.891 64.5741 145.763 64.5971 145.633 64.5937C145.504 64.5903 145.377 64.5607 145.259 64.5066C145.142 64.4525 145.036 64.3752 144.95 64.2792C144.863 64.1832 144.797 64.0705 144.755 63.9481C144.713 63.8257 144.696 63.6961 144.706 63.5671C144.707 63.4408 144.733 63.316 144.783 63.2C144.833 63.084 144.906 62.9793 144.998 62.8919C145.089 62.8045 145.197 62.7363 145.315 62.6912C145.433 62.6461 145.558 62.6251 145.685 62.6295Z" fill="#3558A2"/>
<path d="M129.028 74.2426C129.02 74.492 128.913 74.728 128.731 74.8986C128.549 75.0692 128.306 75.1604 128.057 75.1522C127.807 75.1441 127.571 75.0371 127.401 74.8549C127.23 74.6728 127.139 74.4303 127.147 74.1808C127.171 73.9309 127.29 73.6997 127.48 73.5355C127.67 73.3713 127.916 73.2866 128.167 73.2991C128.404 73.3149 128.627 73.4219 128.787 73.5977C128.948 73.7735 129.034 74.0046 129.028 74.2426Z" fill="#3558A2"/>
<path d="M133.129 65.9158C132.541 65.9158 132.098 65.5661 132.039 65.0664C131.98 64.5667 132.268 64.1846 132.879 63.9936C133.228 63.8743 133.568 63.7309 133.896 63.5644C134.484 63.2705 134.954 63.3322 135.263 63.7437C135.572 64.1552 135.484 64.7284 135.016 65.1634C134.496 65.6292 133.827 65.8957 133.129 65.9158Z" fill="#3558A2"/>
<path d="M131.631 63.9116C131.378 63.8977 131.14 63.7895 130.963 63.6082C130.786 63.427 130.684 63.186 130.676 62.9328C130.674 62.6799 130.772 62.4363 130.948 62.2545C131.123 62.0726 131.363 61.9669 131.616 61.96C131.87 61.9713 132.11 62.0799 132.285 62.2633C132.461 62.4467 132.559 62.6906 132.56 62.9446C132.566 63.0701 132.547 63.1955 132.503 63.3132C132.459 63.4309 132.392 63.5384 132.305 63.629C132.218 63.7196 132.113 63.7914 131.997 63.84C131.881 63.8886 131.757 63.913 131.631 63.9116Z" fill="#3558A2"/>
<path d="M135.149 61.651C135.157 61.7623 135.141 61.8738 135.104 61.979C135.067 62.0842 135.009 62.1809 134.934 62.2632C134.859 62.3455 134.768 62.4118 134.667 62.4581C134.565 62.5045 134.456 62.5299 134.344 62.5328C134.227 62.5421 134.109 62.5275 133.998 62.4899C133.886 62.4522 133.784 62.3923 133.696 62.3138C133.609 62.2353 133.538 62.1399 133.489 62.0332C133.439 61.9266 133.412 61.811 133.409 61.6935C133.405 61.5759 133.426 61.459 133.469 61.3496C133.512 61.2403 133.577 61.1409 133.66 61.0575C133.743 60.9741 133.842 60.9084 133.951 60.8644C134.06 60.8204 134.177 60.799 134.294 60.8016C134.407 60.7966 134.52 60.8152 134.626 60.856C134.731 60.8969 134.827 60.9592 134.908 61.039C134.988 61.1188 135.051 61.2144 135.093 61.3197C135.134 61.425 135.154 61.5378 135.149 61.651Z" fill="#3558A2"/>
</svg>
