<svg width="281" height="158" viewBox="0 0 281 158" fill="none" xmlns="http://www.w3.org/2000/svg">
<path d="M0 0H281V158H0V0Z" fill="#E6EEFE"/>
<path d="M12 81.2317L12.2358 81L12 81.2317Z" fill="#E6E6ED"/>
<path d="M0 0H281V158H0V0Z" fill="#E6EEFE"/>
<path d="M12 81.2317L12.2358 81L12 81.2317Z" fill="#E6E6ED"/>
<path d="M146.601 89.8815C146.099 89.753 145.621 89.6605 145.164 89.5021C144.649 89.3343 144.149 89.1224 143.67 88.8689C142.828 88.4059 142.422 87.6084 142.225 86.7093C142.184 86.4405 142.205 86.166 142.288 85.907C142.37 85.648 142.511 85.4114 142.7 85.2157C143.07 84.7557 143.494 84.3375 143.933 83.8596C143.766 83.7939 143.584 83.7073 143.393 83.6505C142.473 83.3978 141.638 82.9062 140.97 82.2257C140.612 81.8549 140.35 81.4014 140.208 80.9054C140.04 80.4286 140.037 79.909 140.199 79.4301C140.362 78.9512 140.681 78.5408 141.105 78.2649C141.43 78.0259 141.771 77.8049 142.09 77.5838C141.493 77.3777 140.895 77.2045 140.325 76.9864C140.007 76.8398 139.706 76.6574 139.429 76.4428C137.72 75.2271 138.019 72.6373 139.315 71.6187C140.237 70.9498 141.28 70.466 142.386 70.1939C143.895 69.7665 145.44 69.4795 147.001 69.3366C147.344 69.3008 147.682 69.2052 148.109 69.1186C148.022 68.8786 147.922 68.6433 147.81 68.4136C147.339 67.559 147.006 66.6357 146.822 65.6775C146.559 64.3662 146.663 63.1146 147.479 61.9556C148.294 60.7967 150.254 60.0977 151.759 60.8654C152.935 61.4812 154.054 62.201 155.102 63.016C156.516 64.1189 158.175 64.8648 159.938 65.1906C160.176 65.2425 160.418 65.2725 160.661 65.2802C162.181 65.2802 163.699 65.3071 165.216 65.2623C165.941 65.2147 166.663 65.1269 167.379 64.9994C167.607 64.9612 167.843 64.9989 168.048 65.1067C168.254 65.2146 168.418 65.3867 168.517 65.5968C168.608 65.8218 168.674 66.0563 168.714 66.2958C169.299 69.2092 169.881 72.1215 170.458 75.0329C171.115 78.3445 171.769 81.6562 172.418 84.9678C172.585 85.8221 172.418 86.2463 171.605 86.6047C170.793 86.9632 169.888 87.2529 169.021 87.5576C168.358 87.7906 167.677 87.9758 167.026 88.2327C164.789 89.1288 162.546 89.998 160.332 90.9509C158.892 91.5722 157.518 92.3428 156.097 93.003C154.365 93.8373 152.532 94.4447 150.645 94.8101C149.741 95.0067 148.801 94.9749 147.912 94.7175C146.762 94.3501 146.006 93.6033 145.836 92.3667C145.776 91.7702 145.891 91.1691 146.168 90.6372C146.296 90.3714 146.448 90.1473 146.601 89.8815ZM170.404 84.9768C169.228 79.0027 168.063 73.1182 166.889 67.18C166.56 67.18 166.291 67.18 166.028 67.18C164.648 67.2278 163.268 67.3174 161.885 67.3174C160.829 67.3272 159.776 67.2017 158.752 66.944C156.895 66.4348 155.155 65.5683 153.629 64.3931C152.777 63.7713 151.89 63.1978 150.974 62.6755C150.352 62.3111 149.779 62.4455 149.274 62.9473C149.093 63.1129 148.948 63.3129 148.845 63.5354C148.742 63.758 148.685 63.9988 148.677 64.2437C148.638 65.1906 148.949 66.0539 149.304 66.9022C149.513 67.401 149.791 67.87 149.997 68.3688C150.101 68.5908 150.16 68.8315 150.169 69.0765C150.178 69.3215 150.138 69.5659 150.051 69.7952C149.964 70.0245 149.832 70.234 149.663 70.4112C149.493 70.5885 149.29 70.7299 149.065 70.8272C148.799 70.9593 148.515 71.0538 148.223 71.1079C147.533 71.2334 146.837 71.3409 146.132 71.4246C144.704 71.5851 143.3 71.915 141.95 72.4073C141.62 72.529 141.298 72.6737 140.988 72.8404C140.747 72.9376 140.543 73.1063 140.401 73.3237C140.259 73.5412 140.188 73.7968 140.196 74.0561C140.214 74.6536 140.621 74.9134 141.063 75.1285C141.402 75.294 141.76 75.4193 142.129 75.5019C144.036 75.925 146.004 75.9929 147.936 75.702C148.15 75.6706 148.368 75.6616 148.584 75.6751C148.803 75.6775 149.014 75.7548 149.182 75.8939C149.351 76.033 149.466 76.2257 149.51 76.4398C149.554 76.6538 149.528 76.8764 149.434 77.0741C149.341 77.2718 149.186 77.4339 148.993 77.536C148.773 77.6388 148.542 77.715 148.303 77.7631C147.751 77.8915 147.192 77.9901 146.64 78.1215C145.349 78.4202 144.065 78.7607 142.906 79.4418C142.583 79.63 142.222 79.7823 142.048 80.1915C142.134 80.5855 142.373 80.9293 142.712 81.1474C143.193 81.5035 143.752 81.7409 144.342 81.8404C145.935 82.1391 147.527 81.933 149.122 81.7747C149.845 81.7 150.556 81.4998 151.272 81.3863C151.927 81.2818 152.443 81.5745 152.578 82.0793C152.73 82.6558 152.437 83.1248 151.747 83.3488C151.362 83.4713 150.965 83.5579 150.57 83.6475C148.875 83.9971 147.225 84.5372 145.651 85.2576C145.178 85.4671 144.762 85.7866 144.438 86.1895C144.384 86.2418 144.341 86.3048 144.313 86.3745C144.285 86.4442 144.272 86.5191 144.274 86.5942C144.277 86.6694 144.295 86.7432 144.328 86.8109C144.361 86.8785 144.407 86.9385 144.465 86.987C144.597 87.1227 144.751 87.2339 144.922 87.3156C145.553 87.6328 146.24 87.8216 146.944 87.8712C148.458 87.951 149.974 87.766 151.425 87.3246C152.461 87.0259 153.486 86.6704 154.525 86.3747C154.859 86.27 155.21 86.2324 155.559 86.2642C155.708 86.2852 155.849 86.3434 155.97 86.4334C156.09 86.5235 156.186 86.6425 156.249 86.7794C156.311 86.9163 156.338 87.0667 156.327 87.2168C156.316 87.3669 156.268 87.5118 156.186 87.6382C156.087 87.8003 155.957 87.9411 155.803 88.0524C155.649 88.1637 155.475 88.2432 155.29 88.2864C154.158 88.6449 153.023 89.0033 151.885 89.3408C150.747 89.6784 149.707 90.0099 148.775 90.691C148.486 90.891 148.227 91.1325 148.008 91.4079C147.914 91.5168 147.85 91.6477 147.822 91.7883C147.793 91.9288 147.8 92.0743 147.843 92.2112C147.886 92.348 147.963 92.4716 148.067 92.5704C148.171 92.6692 148.299 92.74 148.438 92.7759C149.029 92.9936 149.674 93.0146 150.278 92.8357C151.55 92.4802 152.814 92.0889 154.071 91.6767C154.61 91.4967 155.132 91.2688 155.631 90.9957C158.514 89.5003 161.488 88.1864 164.535 87.0617C166.056 86.4237 167.612 85.8713 169.195 85.4069C169.589 85.3113 169.935 85.15 170.404 84.9768V84.9768Z" fill="#3558A2"/>
<path d="M126.674 77.1323C127.465 77.0487 128.167 76.9889 128.845 76.9023C130.299 76.6969 131.779 76.7904 133.195 77.1771C134.194 77.4554 135.084 78.0354 135.742 78.8379C136.123 79.3189 136.341 79.9089 136.363 80.5219C136.385 81.135 136.21 81.739 135.865 82.2461C135.393 82.9157 134.782 83.4751 134.073 83.886L133.329 84.343C134.112 84.6835 134.885 84.9882 135.629 85.3556C136.227 85.6239 136.738 86.0557 137.102 86.6012C137.786 87.7004 137.753 88.6921 137.102 89.645C136.265 90.8786 135.038 91.5208 133.658 91.936C133.505 91.9838 133.359 92.0167 133.189 92.0585C133.084 92.0854 132.982 92.1212 132.833 92.1631C133.314 92.4857 133.795 92.7605 134.216 93.101C134.674 93.4344 135.078 93.8375 135.411 94.2958C136.029 95.2995 135.946 96.2822 135.154 97.2261C134.774 97.6892 134.302 98.0675 133.766 98.3366C133.231 98.6057 132.646 98.7596 132.048 98.7883C131.748 98.7928 131.448 98.8157 131.151 98.857C130.455 98.9914 130.3 99.3051 130.554 99.9533C130.7 100.272 130.825 100.601 130.927 100.936C131.078 101.46 131.053 102.019 130.857 102.528C130.66 103.037 130.303 103.468 129.84 103.756C129.456 104.007 129.032 104.19 128.586 104.296C126.793 104.67 125.001 104.688 123.26 103.998C120.897 103.054 118.507 102.185 116.136 101.262C113.706 100.344 111.225 99.5657 108.707 98.9317C108.498 98.8749 108.286 98.8361 108.076 98.7764C107.324 98.5583 106.977 98.1401 107.001 97.3635C107.031 96.7958 107.094 96.2303 107.189 95.6698C107.615 92.7844 108.048 89.8969 108.486 87.0074C108.841 84.6566 109.218 82.3118 109.579 79.961C109.654 79.4801 109.701 78.9962 109.776 78.5153C109.89 77.7655 110.212 77.4519 110.95 77.44C113.375 77.3952 115.404 76.3736 117.178 74.8263C118.301 73.8495 119.32 72.7563 120.374 71.7049C121.569 70.51 122.844 69.4855 124.523 69.127C125.158 68.9928 125.812 68.9655 126.456 69.0464C127.564 69.1868 128.439 70.1426 128.651 71.2747C128.828 72.4329 128.628 73.6172 128.081 74.6531C127.806 75.2505 127.433 75.7792 127.104 76.3407L126.674 77.1323ZM111.739 79.4682C111.703 79.5249 111.655 79.5667 111.646 79.6175C111.461 80.8123 111.276 82.0071 111.096 83.2199C110.897 84.5003 110.707 85.7828 110.526 87.0672C110.345 88.3516 110.155 89.6062 109.958 90.8308C109.761 92.1392 109.54 93.4475 109.361 94.7588C109.268 95.4996 109.017 96.2284 109.143 96.9901C109.274 97.0439 109.373 97.0917 109.474 97.1215C110.831 97.4919 112.214 97.7847 113.537 98.2447C115.813 99.0332 118.056 99.9084 120.299 100.781C122.196 101.515 124.093 102.223 126.127 102.471C126.824 102.587 127.537 102.55 128.218 102.364C129.016 102.113 129.204 101.713 128.836 100.954C128.344 99.8834 127.474 99.0324 126.393 98.5643C125.625 98.2267 124.831 97.9669 124.051 97.6502C123.742 97.5416 123.442 97.4067 123.155 97.247C122.915 97.1149 122.732 96.8992 122.64 96.6409C122.549 96.3826 122.556 96.0998 122.659 95.8461C122.85 95.416 123.397 95.2248 124 95.401C124.284 95.4847 124.553 95.622 124.834 95.7266C127.067 96.5727 129.45 96.951 131.835 96.8378C132.436 96.7946 133.005 96.5493 133.448 96.1418C133.534 96.0846 133.605 96.0081 133.655 95.9185C133.705 95.8289 133.734 95.7286 133.738 95.6259C133.743 95.5232 133.723 95.421 133.68 95.3274C133.638 95.2338 133.574 95.1516 133.493 95.0874C133.339 94.9356 133.172 94.7977 132.994 94.6752C132.262 94.1113 131.433 93.6861 130.548 93.4206C129.054 93.0024 127.561 92.6261 126.085 92.2258C125.875 92.1777 125.667 92.1169 125.464 92.0436C125.263 91.9621 125.091 91.82 124.974 91.637C124.857 91.454 124.8 91.2391 124.81 91.022C124.837 90.7904 124.947 90.5762 125.118 90.4179C125.29 90.2597 125.512 90.1678 125.745 90.1588C126.151 90.1358 126.559 90.1488 126.964 90.1976C128.851 90.4115 130.758 90.3874 132.639 90.1259C133.529 90.0026 134.362 89.6144 135.029 89.0117C135.742 88.3845 135.701 87.7154 134.873 87.2464C134.273 86.8797 133.623 86.6001 132.944 86.416C131.683 86.1173 130.396 85.947 129.114 85.7589C128.475 85.6633 127.818 85.6663 127.173 85.5976C126.527 85.5289 126.094 85.0539 126.208 84.4475C126.235 84.2298 126.337 84.0284 126.497 83.878C126.657 83.7275 126.864 83.6374 127.083 83.6231C127.916 83.5216 128.75 83.4319 129.58 83.3244C130.739 83.2062 131.859 82.8427 132.866 82.2581C133.341 81.9496 133.765 81.5698 134.124 81.1319C134.476 80.7167 134.404 80.3762 134.031 79.976C133.619 79.544 133.096 79.234 132.519 79.0798C130.963 78.6288 129.407 78.8349 127.845 79.0111C127.015 79.1292 126.179 79.203 125.342 79.2322C124.147 79.2322 123.585 78.2674 124.123 77.2189C124.296 76.8814 124.529 76.5797 124.735 76.2601C125.216 75.5073 125.721 74.7666 126.175 73.9989C126.527 73.4159 126.711 72.7471 126.707 72.0663C126.707 71.2777 126.348 70.9043 125.548 70.982C125.039 71.0405 124.543 71.1754 124.075 71.3822C123.158 71.7676 122.465 72.4576 121.769 73.1506C120.655 74.2588 119.568 75.4028 118.37 76.4154C116.506 77.9896 114.415 79.1545 111.918 79.4024C111.86 79.4192 111.804 79.4412 111.751 79.4682H111.739Z" fill="#3558A2"/>
<path d="M132.463 57.0683C132.853 56.2154 133.419 55.4549 134.124 54.837C134.631 54.3812 135.266 54.0941 135.943 54.0156C137.792 53.8453 138.891 55.0969 139.262 56.5993C139.56 57.7942 139.408 58.971 139.19 60.1449C138.733 62.6033 137.828 64.9242 136.893 67.2302C136.457 68.3085 136.015 69.3838 135.632 70.4801C135.364 71.2507 134.706 71.5255 134.073 71.7884C133.655 71.9616 133.246 71.7047 132.932 71.3583C132.239 70.5966 131.525 69.8647 130.841 69.0881C128.856 66.9251 127.324 64.3859 126.337 61.6205C125.942 60.4914 125.635 59.3504 125.739 58.1317C125.79 57.4799 126.002 56.851 126.357 56.3022C126.713 55.7534 127.199 55.3021 127.774 54.9893C128.798 54.374 130.032 54.5562 130.997 55.4404C131.507 55.9243 131.937 56.4828 132.463 57.0683ZM133.906 69.3958C133.999 69.1837 134.055 69.0672 134.1 68.9477C134.399 68.192 134.674 67.4303 134.975 66.6776C135.779 64.6673 136.603 62.663 137.066 60.5422C137.314 59.4101 137.571 58.2691 137.32 57.0952C137.297 56.8641 137.213 56.6433 137.076 56.4558C136.938 56.2683 136.754 56.1209 136.541 56.0288C136.048 55.8496 135.644 56.1065 135.301 56.4351C134.694 57.0223 134.263 57.7671 134.055 58.5857C133.835 59.3395 133.728 60.1215 133.736 60.9066C133.733 61.1314 133.652 61.3482 133.506 61.5193C133.36 61.6904 133.159 61.8051 132.938 61.8435C132.716 61.8818 132.489 61.8413 132.294 61.7291C132.099 61.6169 131.95 61.4401 131.872 61.2292C131.822 61.0769 131.783 60.9212 131.755 60.7633C131.505 59.6227 131.013 58.549 130.313 57.6149C130.053 57.3062 129.759 57.0276 129.437 56.7845C129.309 56.6768 129.144 56.6229 128.977 56.6341C128.81 56.6452 128.654 56.7205 128.541 56.8443C128.285 57.0447 128.075 57.2988 127.927 57.5888C127.779 57.8788 127.696 58.1976 127.684 58.523C127.688 59.1187 127.789 59.7098 127.983 60.2734C129.043 63.8578 131.161 66.7493 133.906 69.3958V69.3958Z" fill="#3558A2"/>
<path d="M170.404 84.9768C169.935 85.1501 169.589 85.3084 169.227 85.404C167.645 85.8683 166.089 86.4208 164.568 87.0588C161.521 88.1816 158.547 89.4934 155.663 90.9868C155.165 91.2599 154.643 91.4878 154.104 91.6678C152.846 92.08 151.583 92.4713 150.31 92.8268C149.707 93.0057 149.061 92.9848 148.47 92.767C148.332 92.7311 148.204 92.6603 148.1 92.5615C147.996 92.4627 147.919 92.3391 147.876 92.2023C147.833 92.0654 147.826 91.9199 147.854 91.7794C147.883 91.6388 147.947 91.5079 148.04 91.399C148.26 91.1236 148.518 90.882 148.808 90.6821C149.74 90.001 150.824 89.6575 151.917 89.3319C153.011 89.0064 154.191 88.6359 155.323 88.2775C155.508 88.2343 155.682 88.1548 155.836 88.0435C155.99 87.9322 156.12 87.7914 156.219 87.6293C156.301 87.5029 156.349 87.358 156.36 87.2079C156.371 87.0578 156.344 86.9074 156.282 86.7705C156.219 86.6335 156.123 86.5146 156.003 86.4245C155.882 86.3345 155.741 86.2763 155.592 86.2553C155.243 86.2235 154.892 86.2611 154.558 86.3658C153.519 86.6645 152.494 87.011 151.457 87.3157C150.007 87.7571 148.491 87.9421 146.977 87.8623C146.273 87.8127 145.585 87.6239 144.955 87.3067C144.784 87.225 144.629 87.1138 144.498 86.9781C144.44 86.9296 144.394 86.8696 144.361 86.802C144.328 86.7343 144.31 86.6605 144.307 86.5853C144.305 86.5102 144.318 86.4353 144.346 86.3656C144.374 86.2959 144.417 86.2329 144.471 86.1806C144.795 85.7777 145.211 85.4582 145.684 85.2486C147.258 84.5283 148.908 83.9882 150.603 83.6386C150.997 83.552 151.395 83.4654 151.78 83.3399C152.47 83.1159 152.763 82.6469 152.611 82.0704C152.476 81.5656 151.959 81.2729 151.305 81.3774C150.588 81.4909 149.877 81.6761 149.154 81.7657C147.568 81.9241 145.976 82.1272 144.375 81.8314C143.785 81.732 143.226 81.4946 142.744 81.1385C142.405 80.9204 142.167 80.5765 142.081 80.1826C142.254 79.7734 142.616 79.621 142.938 79.4329C144.097 78.7518 145.382 78.4173 146.672 78.1126C147.225 77.9812 147.783 77.8826 148.336 77.7541C148.574 77.7061 148.806 77.6299 149.026 77.5271C149.219 77.4249 149.374 77.2628 149.467 77.0651C149.56 76.8675 149.587 76.6449 149.543 76.4309C149.499 76.2168 149.383 76.0241 149.215 75.885C149.046 75.7458 148.835 75.6686 148.617 75.6662C148.4 75.6527 148.183 75.6617 147.969 75.6931C146.037 75.9839 144.069 75.9161 142.162 75.4929C141.793 75.4103 141.435 75.285 141.095 75.1196C140.653 74.9045 140.247 74.6386 140.229 74.0472C140.221 73.7879 140.292 73.5322 140.434 73.3148C140.575 73.0973 140.78 72.9286 141.021 72.8315C141.331 72.6647 141.652 72.52 141.983 72.3984C143.333 71.906 144.736 71.5761 146.164 71.4156C146.86 71.332 147.556 71.2244 148.255 71.099C148.548 71.0448 148.831 70.9503 149.098 70.8182C149.323 70.721 149.526 70.5796 149.696 70.4023C149.865 70.225 149.997 70.0155 150.084 69.7863C150.171 69.557 150.211 69.3126 150.202 69.0676C150.192 68.8225 150.134 68.5819 150.03 68.3599C149.824 67.861 149.546 67.3921 149.337 66.8932C148.981 66.0449 148.671 65.1816 148.709 64.2347C148.718 63.9898 148.775 63.749 148.878 63.5265C148.98 63.3039 149.126 63.104 149.307 62.9384C149.818 62.4365 150.385 62.3021 151.006 62.6665C151.923 63.1889 152.81 63.7623 153.662 64.3841C155.187 65.5594 156.928 66.4259 158.785 66.935C159.809 67.1928 160.862 67.3182 161.918 67.3084C163.301 67.3084 164.681 67.2188 166.061 67.171C166.327 67.171 166.593 67.171 166.921 67.171C168.062 73.1182 169.227 79.0087 170.404 84.9768Z" fill="white"/>
<path d="M111.75 79.468C111.819 79.4347 111.892 79.4096 111.968 79.3933C114.465 79.1454 116.556 77.9805 118.42 76.4063C119.614 75.3937 120.705 74.2497 121.819 73.1415C122.515 72.4485 123.208 71.7585 124.125 71.3732C124.593 71.1663 125.089 71.0314 125.597 70.9729C126.398 70.8952 126.747 71.2716 126.756 72.0572C126.761 72.738 126.577 73.4068 126.225 73.9898C125.771 74.7604 125.266 75.4833 124.785 76.251C124.579 76.5706 124.346 76.8723 124.173 77.2098C123.635 78.2583 124.2 79.2261 125.391 79.2231C126.229 79.1939 127.065 79.1201 127.895 79.002C129.457 78.8258 131.013 78.6197 132.569 79.0707C133.146 79.2249 133.669 79.5349 134.081 79.9669C134.454 80.3671 134.526 80.7076 134.173 81.1228C133.815 81.5607 133.39 81.9405 132.916 82.249C131.909 82.8336 130.789 83.1971 129.63 83.3153C128.8 83.4288 127.966 83.5184 127.133 83.614C126.914 83.6283 126.707 83.7184 126.547 83.8689C126.387 84.0193 126.285 84.2207 126.258 84.4385C126.144 85.0359 126.538 85.5138 127.222 85.5885C127.906 85.6631 128.525 85.6542 129.164 85.7498C130.445 85.9379 131.733 86.1172 132.993 86.4069C133.673 86.591 134.322 86.8706 134.923 87.2373C135.75 87.7063 135.792 88.3754 135.078 89.0026C134.412 89.6053 133.579 89.9935 132.689 90.1168C130.807 90.3784 128.901 90.4024 127.013 90.1885C126.609 90.1397 126.201 90.1267 125.795 90.1497C125.562 90.1587 125.339 90.2506 125.168 90.4089C124.997 90.5671 124.887 90.7813 124.86 91.0129C124.849 91.23 124.907 91.4449 125.024 91.6279C125.141 91.8109 125.312 91.953 125.514 92.0345C125.717 92.1078 125.925 92.1686 126.135 92.2167C127.629 92.611 129.122 92.9874 130.598 93.4115C131.483 93.677 132.312 94.1022 133.044 94.6661C133.222 94.7886 133.389 94.9266 133.543 95.0783C133.623 95.1425 133.687 95.2247 133.73 95.3183C133.772 95.4119 133.792 95.5142 133.788 95.6169C133.784 95.7196 133.755 95.8198 133.705 95.9094C133.654 95.999 133.584 96.0755 133.498 96.1327C133.055 96.5402 132.486 96.7855 131.885 96.8287C129.5 96.9419 127.117 96.5637 124.884 95.7175C124.603 95.613 124.334 95.4756 124.05 95.3919C123.453 95.2157 122.9 95.4069 122.709 95.837C122.605 96.0907 122.599 96.3736 122.69 96.6319C122.782 96.8902 122.965 97.1058 123.205 97.2379C123.492 97.3976 123.791 97.5325 124.101 97.6412C124.881 97.9399 125.675 98.2177 126.443 98.5552C127.524 99.0234 128.394 99.8744 128.886 100.945C129.254 101.704 129.065 102.104 128.268 102.355C127.587 102.541 126.874 102.578 126.177 102.462C124.143 102.214 122.246 101.506 120.349 100.772C118.106 99.8994 115.869 99.0242 113.587 98.2356C112.263 97.7756 110.88 97.4829 109.524 97.1125C109.423 97.0826 109.324 97.0348 109.193 96.981C109.067 96.2193 109.318 95.4875 109.411 94.7497C109.575 93.4384 109.796 92.1301 110.008 90.8218C110.197 89.5672 110.386 88.3126 110.576 87.0581C110.765 85.8035 110.955 84.5211 111.146 83.2108C111.325 82.016 111.511 80.8211 111.696 79.6084C111.672 79.5666 111.714 79.5248 111.75 79.468Z" fill="white"/>
<path d="M133.905 69.3956C131.16 66.7491 129.042 63.8577 127.978 60.2732C127.785 59.7097 127.684 59.1186 127.68 58.5228C127.692 58.1974 127.775 57.8786 127.923 57.5886C128.071 57.2986 128.28 57.0445 128.537 56.8441C128.65 56.7203 128.806 56.645 128.973 56.6339C129.14 56.6227 129.305 56.6767 129.433 56.7843C129.755 57.0274 130.049 57.306 130.308 57.6148C131.009 58.5488 131.501 59.6225 131.751 60.7631C131.779 60.921 131.818 61.0768 131.868 61.2291C131.945 61.4399 132.095 61.6168 132.29 61.729C132.484 61.8412 132.712 61.8816 132.934 61.8433C133.155 61.805 133.356 61.6903 133.502 61.5191C133.648 61.348 133.729 61.1312 133.731 60.9065C133.723 60.1213 133.831 59.3393 134.051 58.5855C134.258 57.7669 134.69 57.0222 135.297 56.4349C135.649 56.1063 136.043 55.8374 136.536 56.0286C136.75 56.1207 136.934 56.2681 137.071 56.4556C137.208 56.6431 137.293 56.8639 137.316 57.095C137.567 58.2689 137.316 59.41 137.062 60.5421C136.596 62.6629 135.772 64.6672 134.971 66.6774C134.672 67.4302 134.374 68.1919 134.096 68.9476C134.054 69.0671 133.997 69.1806 133.905 69.3956Z" fill="#A4B6DC"/>
</svg>
