<svg width="281" height="158" viewBox="0 0 281 158" fill="none" xmlns="http://www.w3.org/2000/svg">
<g clip-path="url(#clip0_2561_47)">
<rect width="281" height="158" fill="#285A54"/>
<path d="M23 0L23 186" stroke="#052E29" stroke-width="20"/>
<path d="M63 0L63 186" stroke="#052E29" stroke-width="20"/>
<path d="M103 -2L103 184" stroke="#052E29" stroke-width="20"/>
<path d="M143 -1L143 185" stroke="#052E29" stroke-width="20"/>
<path d="M183 -3L183 183" stroke="#052E29" stroke-width="20"/>
<path d="M223 -2L223 184" stroke="#052E29" stroke-width="20"/>
<path d="M263 -3V183" stroke="#052E29" stroke-width="20"/>
<g filter="url(#filter0_bd_2561_47)">
<mask id="path-8-outside-1_2561_47" maskUnits="userSpaceOnUse" x="114" y="59" width="56" height="40" fill="black">
<rect fill="white" x="114" y="59" width="56" height="40"/>
<path d="M119.763 97V96.12L124.878 94.085V66.64L115.528 71.04V68.95L129.058 60.7H131.533V94.085L136.098 96.12V97H119.763ZM155.74 97.55C153.027 97.55 150.698 96.7983 148.755 95.295C146.812 93.7917 145.327 91.6467 144.3 88.86C143.31 86.0367 142.815 82.7 142.815 78.85C142.815 75.2567 143.365 72.0667 144.465 69.28C145.565 66.4567 147.068 64.2383 148.975 62.625C150.918 60.975 153.173 60.15 155.74 60.15C158.453 60.15 160.782 60.9017 162.725 62.405C164.668 63.9083 166.135 66.0717 167.125 68.895C168.152 71.6817 168.665 75 168.665 78.85C168.665 82.4433 168.115 85.6517 167.015 88.475C165.915 91.2617 164.393 93.48 162.45 95.13C160.507 96.7433 158.27 97.55 155.74 97.55ZM156.73 94.91C157.793 94.91 158.673 94.2867 159.37 93.04C160.103 91.7933 160.653 90.0883 161.02 87.925C161.387 85.7617 161.57 83.305 161.57 80.555C161.57 77.145 161.332 74.1017 160.855 71.425C160.378 68.7117 159.645 66.585 158.655 65.045C157.702 63.505 156.455 62.735 154.915 62.735C153.852 62.735 152.935 63.34 152.165 64.55C151.432 65.76 150.863 67.4467 150.46 69.61C150.093 71.7367 149.91 74.2117 149.91 77.035C149.91 80.4817 150.148 83.5617 150.625 86.275C151.102 88.9517 151.835 91.06 152.825 92.6C153.852 94.14 155.153 94.91 156.73 94.91Z"/>
</mask>
<path d="M119.763 97V96.12L124.878 94.085V66.64L115.528 71.04V68.95L129.058 60.7H131.533V94.085L136.098 96.12V97H119.763ZM155.74 97.55C153.027 97.55 150.698 96.7983 148.755 95.295C146.812 93.7917 145.327 91.6467 144.3 88.86C143.31 86.0367 142.815 82.7 142.815 78.85C142.815 75.2567 143.365 72.0667 144.465 69.28C145.565 66.4567 147.068 64.2383 148.975 62.625C150.918 60.975 153.173 60.15 155.74 60.15C158.453 60.15 160.782 60.9017 162.725 62.405C164.668 63.9083 166.135 66.0717 167.125 68.895C168.152 71.6817 168.665 75 168.665 78.85C168.665 82.4433 168.115 85.6517 167.015 88.475C165.915 91.2617 164.393 93.48 162.45 95.13C160.507 96.7433 158.27 97.55 155.74 97.55ZM156.73 94.91C157.793 94.91 158.673 94.2867 159.37 93.04C160.103 91.7933 160.653 90.0883 161.02 87.925C161.387 85.7617 161.57 83.305 161.57 80.555C161.57 77.145 161.332 74.1017 160.855 71.425C160.378 68.7117 159.645 66.585 158.655 65.045C157.702 63.505 156.455 62.735 154.915 62.735C153.852 62.735 152.935 63.34 152.165 64.55C151.432 65.76 150.863 67.4467 150.46 69.61C150.093 71.7367 149.91 74.2117 149.91 77.035C149.91 80.4817 150.148 83.5617 150.625 86.275C151.102 88.9517 151.835 91.06 152.825 92.6C153.852 94.14 155.153 94.91 156.73 94.91Z" fill="white"/>
<path d="M119.763 97H118.763V98H119.763V97ZM119.763 96.12L119.393 95.1908L118.763 95.4416V96.12H119.763ZM124.878 94.085L125.247 95.0142L125.878 94.7634V94.085H124.878ZM124.878 66.64H125.878V65.0642L124.452 65.7352L124.878 66.64ZM115.528 71.04H114.528V72.6158L115.953 71.9448L115.528 71.04ZM115.528 68.95L115.007 68.0962L114.528 68.3885V68.95H115.528ZM129.058 60.7V59.7H128.777L128.537 59.8462L129.058 60.7ZM131.533 60.7H132.533V59.7H131.533V60.7ZM131.533 94.085H130.533V94.7341L131.126 94.9984L131.533 94.085ZM136.098 96.12H137.098V95.4709L136.505 95.2066L136.098 96.12ZM136.098 97V98H137.098V97H136.098ZM120.763 97V96.12H118.763V97H120.763ZM120.132 97.0492L125.247 95.0142L124.508 93.1558L119.393 95.1908L120.132 97.0492ZM125.878 94.085V66.64H123.878V94.085H125.878ZM124.452 65.7352L115.102 70.1352L115.953 71.9448L125.303 67.5448L124.452 65.7352ZM116.528 71.04V68.95H114.528V71.04H116.528ZM116.048 69.8038L129.578 61.5538L128.537 59.8462L115.007 68.0962L116.048 69.8038ZM129.058 61.7H131.533V59.7H129.058V61.7ZM130.533 60.7V94.085H132.533V60.7H130.533ZM131.126 94.9984L135.691 97.0334L136.505 95.2066L131.94 93.1716L131.126 94.9984ZM135.098 96.12V97H137.098V96.12H135.098ZM136.098 96H119.763V98H136.098V96ZM148.755 95.295L148.143 96.086L148.755 95.295ZM144.3 88.86L143.356 89.1909L143.359 89.1983L143.362 89.2057L144.3 88.86ZM144.465 69.28L145.395 69.6472L145.397 69.643L144.465 69.28ZM148.975 62.625L149.621 63.3884L149.622 63.3873L148.975 62.625ZM167.125 68.895L166.181 69.2259L166.184 69.2333L166.187 69.2407L167.125 68.895ZM167.015 88.475L167.945 88.8422L167.947 88.838L167.015 88.475ZM162.45 95.13L163.089 95.8995L163.097 95.8923L162.45 95.13ZM159.37 93.04L158.508 92.533L158.502 92.5425L158.497 92.5522L159.37 93.04ZM161.02 87.925L162.006 88.0921V88.0921L161.02 87.925ZM160.855 71.425L159.87 71.598L159.87 71.6003L160.855 71.425ZM158.655 65.045L157.805 65.5714L157.809 65.5786L157.814 65.5858L158.655 65.045ZM152.165 64.55L151.321 64.0131L151.315 64.0223L151.31 64.0317L152.165 64.55ZM150.46 69.61L149.477 69.4267L149.475 69.4401L150.46 69.61ZM150.625 86.275L149.64 86.448L149.64 86.4503L150.625 86.275ZM152.825 92.6L151.984 93.1408L151.988 93.1478L151.993 93.1547L152.825 92.6ZM155.74 96.55C153.224 96.55 151.117 95.8576 149.367 94.504L148.143 96.086C150.28 97.739 152.83 98.55 155.74 98.55V96.55ZM149.367 94.504C147.6 93.1375 146.214 91.1618 145.238 88.5143L143.362 89.2057C144.44 92.1315 146.023 94.4458 148.143 96.086L149.367 94.504ZM145.244 88.5291C144.3 85.8376 143.815 82.618 143.815 78.85H141.815C141.815 82.782 142.32 86.2357 143.356 89.1909L145.244 88.5291ZM143.815 78.85C143.815 75.3579 144.35 72.2961 145.395 69.6472L143.535 68.9128C142.38 71.8372 141.815 75.1554 141.815 78.85H143.815ZM145.397 69.643C146.449 66.942 147.866 64.8735 149.621 63.3884L148.329 61.8616C146.271 63.6032 144.681 65.9713 143.533 68.917L145.397 69.643ZM149.622 63.3873C151.383 61.8919 153.409 61.15 155.74 61.15V59.15C152.938 59.15 150.453 60.0581 148.328 61.8627L149.622 63.3873ZM155.74 61.15C158.256 61.15 160.363 61.8424 162.113 63.196L163.337 61.614C161.2 59.961 158.65 59.15 155.74 59.15V61.15ZM162.113 63.196C163.873 64.5577 165.241 66.5448 166.181 69.2259L168.069 68.5641C167.029 65.5986 165.463 63.259 163.337 61.614L162.113 63.196ZM166.187 69.2407C167.162 71.8893 167.665 75.0848 167.665 78.85H169.665C169.665 74.9152 169.141 71.474 168.063 68.5493L166.187 69.2407ZM167.665 78.85C167.665 82.3417 167.131 85.4237 166.083 88.112L167.947 88.838C169.099 85.8796 169.665 82.5449 169.665 78.85H167.665ZM166.085 88.1078C165.035 90.7684 163.6 92.8414 161.803 94.3677L163.097 95.8923C165.186 94.1186 166.795 91.755 167.945 88.8422L166.085 88.1078ZM161.811 94.3606C160.048 95.8246 158.037 96.55 155.74 96.55V98.55C158.503 98.55 160.966 97.662 163.089 95.8994L161.811 94.3606ZM156.73 95.91C158.278 95.91 159.439 94.9668 160.243 93.5278L158.497 92.5522C157.908 93.6065 157.308 93.91 156.73 93.91V95.91ZM160.232 93.547C161.05 92.1559 161.628 90.3197 162.006 88.0921L160.034 87.7579C159.678 89.857 159.156 91.4307 158.508 92.533L160.232 93.547ZM162.006 88.0921C162.384 85.8618 162.57 83.3476 162.57 80.555H160.57C160.57 83.2624 160.389 85.6615 160.034 87.7579L162.006 88.0921ZM162.57 80.555C162.57 77.1003 162.329 73.9966 161.84 71.2497L159.87 71.6003C160.335 74.2067 160.57 77.1897 160.57 80.555H162.57ZM161.84 71.252C161.351 68.4675 160.585 66.1978 159.496 64.5042L157.814 65.5858C158.705 66.9722 159.406 68.9558 159.87 71.598L161.84 71.252ZM159.505 64.5186C158.407 62.745 156.867 61.735 154.915 61.735V63.735C156.043 63.735 156.996 64.265 157.805 65.5714L159.505 64.5186ZM154.915 61.735C153.395 61.735 152.204 62.6267 151.321 64.0131L153.009 65.0869C153.666 64.0533 154.308 63.735 154.915 63.735V61.735ZM151.31 64.0317C150.489 65.3856 149.891 67.2034 149.477 69.4267L151.443 69.7933C151.835 67.69 152.374 66.1344 153.02 65.0683L151.31 64.0317ZM149.475 69.4401C149.096 71.6369 148.91 74.171 148.91 77.035H150.91C150.91 74.2523 151.091 71.8364 151.445 69.7799L149.475 69.4401ZM148.91 77.035C148.91 80.5259 149.151 83.6655 149.64 86.448L151.61 86.102C151.145 83.4579 150.91 80.4374 150.91 77.035H148.91ZM149.64 86.4503C150.13 89.1997 150.896 91.4493 151.984 93.1408L153.666 92.0592C152.774 90.6707 152.073 88.7036 151.61 86.0997L149.64 86.4503ZM151.993 93.1547C153.168 94.9169 154.757 95.91 156.73 95.91V93.91C155.55 93.91 154.536 93.3631 153.657 92.0453L151.993 93.1547Z" fill="black" mask="url(#path-8-outside-1_2561_47)"/>
</g>
</g>
<defs>
<filter id="filter0_bd_2561_47" x="111.528" y="56.15" width="61.1373" height="49.4" filterUnits="userSpaceOnUse" color-interpolation-filters="sRGB">
<feFlood flood-opacity="0" result="BackgroundImageFix"/>
<feGaussianBlur in="BackgroundImageFix" stdDeviation="2"/>
<feComposite in2="SourceAlpha" operator="in" result="effect1_backgroundBlur_2561_47"/>
<feColorMatrix in="SourceAlpha" type="matrix" values="0 0 0 0 0 0 0 0 0 0 0 0 0 0 0 0 0 0 127 0" result="hardAlpha"/>
<feOffset dy="4"/>
<feGaussianBlur stdDeviation="2"/>
<feComposite in2="hardAlpha" operator="out"/>
<feColorMatrix type="matrix" values="0 0 0 0 0 0 0 0 0 0 0 0 0 0 0 0 0 0 0.25 0"/>
<feBlend mode="normal" in2="effect1_backgroundBlur_2561_47" result="effect2_dropShadow_2561_47"/>
<feBlend mode="normal" in="SourceGraphic" in2="effect2_dropShadow_2561_47" result="shape"/>
</filter>
<clipPath id="clip0_2561_47">
<rect width="281" height="158" fill="white"/>
</clipPath>
</defs>
</svg>
