<svg width="281" height="158" viewBox="0 0 281 158" fill="none" xmlns="http://www.w3.org/2000/svg">
<g clip-path="url(#clip0_2561_51)">
<rect width="281" height="158" fill="#285A54"/>
<path d="M-4.00305 136.932H286.122" stroke="#052E29" stroke-width="20"/>
<path d="M-2 97H288.125" stroke="#052E29" stroke-width="20"/>
<path d="M0 56H290.125" stroke="#052E29" stroke-width="20"/>
<path d="M0 16H290.125" stroke="#052E29" stroke-width="20"/>
<g filter="url(#filter0_bd_2561_51)">
<mask id="path-5-outside-1_2561_51" maskUnits="userSpaceOnUse" x="114" y="59" width="56" height="40" fill="black">
<rect fill="white" x="114" y="59" width="56" height="40"/>
<path d="M119.763 97V96.12L124.878 94.085V66.64L115.528 71.04V68.95L129.058 60.7H131.533V94.085L136.098 96.12V97H119.763ZM155.19 97.55C153.503 97.55 151.908 97.3483 150.405 96.945C148.902 96.5417 147.527 95.9183 146.28 95.075C145.253 94.3417 144.447 93.5717 143.86 92.765C143.273 91.9583 142.98 91.0967 142.98 90.18C142.98 89.3367 143.145 88.805 143.475 88.585C143.805 88.365 144.318 88.255 145.015 88.255H148.205L148.7 88.75V90.62C148.7 92.0133 149.213 93.095 150.24 93.865C151.303 94.5983 152.825 94.965 154.805 94.965C156.968 94.965 158.618 94.2683 159.755 92.875C160.928 91.4817 161.515 89.7033 161.515 87.54C161.515 85.01 160.855 83.03 159.535 81.6C158.215 80.17 155.923 79.455 152.66 79.455H149.635V76.925H151.835C154.218 76.925 156.107 76.1917 157.5 74.725C158.93 73.2583 159.645 71.37 159.645 69.06C159.645 66.86 159.205 65.2467 158.325 64.22C157.445 63.1933 156.18 62.68 154.53 62.68C153.1 62.68 151.908 63.1383 150.955 64.055C150.038 64.935 149.58 66.1267 149.58 67.63V69.885L149.14 70.38H146.06C145.327 70.38 144.777 70.27 144.41 70.05C144.043 69.7933 143.86 69.2067 143.86 68.29C143.86 66.2367 145.125 64.4217 147.655 62.845C149.085 61.9283 150.423 61.25 151.67 60.81C152.917 60.37 154.438 60.15 156.235 60.15C158.252 60.15 160.067 60.5167 161.68 61.25C163.33 61.9467 164.613 62.955 165.53 64.275C166.483 65.5583 166.96 67.0617 166.96 68.785C166.96 70.8383 166.117 72.6167 164.43 74.12C162.78 75.6233 160.653 76.6683 158.05 77.255C161.57 77.7317 164.247 78.8133 166.08 80.5C167.95 82.1867 168.885 84.405 168.885 87.155C168.885 89.0983 168.243 90.8583 166.96 92.435C165.713 94.0117 164.045 95.2583 161.955 96.175C159.865 97.0917 157.61 97.55 155.19 97.55Z"/>
</mask>
<path d="M119.763 97V96.12L124.878 94.085V66.64L115.528 71.04V68.95L129.058 60.7H131.533V94.085L136.098 96.12V97H119.763ZM155.19 97.55C153.503 97.55 151.908 97.3483 150.405 96.945C148.902 96.5417 147.527 95.9183 146.28 95.075C145.253 94.3417 144.447 93.5717 143.86 92.765C143.273 91.9583 142.98 91.0967 142.98 90.18C142.98 89.3367 143.145 88.805 143.475 88.585C143.805 88.365 144.318 88.255 145.015 88.255H148.205L148.7 88.75V90.62C148.7 92.0133 149.213 93.095 150.24 93.865C151.303 94.5983 152.825 94.965 154.805 94.965C156.968 94.965 158.618 94.2683 159.755 92.875C160.928 91.4817 161.515 89.7033 161.515 87.54C161.515 85.01 160.855 83.03 159.535 81.6C158.215 80.17 155.923 79.455 152.66 79.455H149.635V76.925H151.835C154.218 76.925 156.107 76.1917 157.5 74.725C158.93 73.2583 159.645 71.37 159.645 69.06C159.645 66.86 159.205 65.2467 158.325 64.22C157.445 63.1933 156.18 62.68 154.53 62.68C153.1 62.68 151.908 63.1383 150.955 64.055C150.038 64.935 149.58 66.1267 149.58 67.63V69.885L149.14 70.38H146.06C145.327 70.38 144.777 70.27 144.41 70.05C144.043 69.7933 143.86 69.2067 143.86 68.29C143.86 66.2367 145.125 64.4217 147.655 62.845C149.085 61.9283 150.423 61.25 151.67 60.81C152.917 60.37 154.438 60.15 156.235 60.15C158.252 60.15 160.067 60.5167 161.68 61.25C163.33 61.9467 164.613 62.955 165.53 64.275C166.483 65.5583 166.96 67.0617 166.96 68.785C166.96 70.8383 166.117 72.6167 164.43 74.12C162.78 75.6233 160.653 76.6683 158.05 77.255C161.57 77.7317 164.247 78.8133 166.08 80.5C167.95 82.1867 168.885 84.405 168.885 87.155C168.885 89.0983 168.243 90.8583 166.96 92.435C165.713 94.0117 164.045 95.2583 161.955 96.175C159.865 97.0917 157.61 97.55 155.19 97.55Z" fill="white"/>
<path d="M119.763 97H118.763V98H119.763V97ZM119.763 96.12L119.393 95.1908L118.763 95.4416V96.12H119.763ZM124.878 94.085L125.247 95.0142L125.878 94.7634V94.085H124.878ZM124.878 66.64H125.878V65.0642L124.452 65.7352L124.878 66.64ZM115.528 71.04H114.528V72.6158L115.953 71.9448L115.528 71.04ZM115.528 68.95L115.007 68.0962L114.528 68.3885V68.95H115.528ZM129.058 60.7V59.7H128.777L128.537 59.8462L129.058 60.7ZM131.533 60.7H132.533V59.7H131.533V60.7ZM131.533 94.085H130.533V94.7341L131.126 94.9984L131.533 94.085ZM136.098 96.12H137.098V95.4709L136.505 95.2066L136.098 96.12ZM136.098 97V98H137.098V97H136.098ZM120.763 97V96.12H118.763V97H120.763ZM120.132 97.0492L125.247 95.0142L124.508 93.1558L119.393 95.1908L120.132 97.0492ZM125.878 94.085V66.64H123.878V94.085H125.878ZM124.452 65.7352L115.102 70.1352L115.953 71.9448L125.303 67.5448L124.452 65.7352ZM116.528 71.04V68.95H114.528V71.04H116.528ZM116.048 69.8038L129.578 61.5538L128.537 59.8462L115.007 68.0962L116.048 69.8038ZM129.058 61.7H131.533V59.7H129.058V61.7ZM130.533 60.7V94.085H132.533V60.7H130.533ZM131.126 94.9984L135.691 97.0334L136.505 95.2066L131.94 93.1716L131.126 94.9984ZM135.098 96.12V97H137.098V96.12H135.098ZM136.098 96H119.763V98H136.098V96ZM150.405 96.945L150.146 97.9108L150.405 96.945ZM146.28 95.075L145.699 95.8887L145.709 95.8961L145.72 95.9033L146.28 95.075ZM143.86 92.765L143.051 93.3532L143.86 92.765ZM143.475 88.585L142.92 87.7529L143.475 88.585ZM148.205 88.255L148.912 87.5479L148.619 87.255H148.205V88.255ZM148.7 88.75H149.7V88.3358L149.407 88.0429L148.7 88.75ZM150.24 93.865L149.64 94.665L149.656 94.6769L149.672 94.6882L150.24 93.865ZM159.755 92.875L158.99 92.2309L158.985 92.2368L158.98 92.2429L159.755 92.875ZM159.535 81.6L158.8 82.2783V82.2783L159.535 81.6ZM149.635 79.455H148.635V80.455H149.635V79.455ZM149.635 76.925V75.925H148.635V76.925H149.635ZM157.5 74.725L156.784 74.0268L156.775 74.0362L157.5 74.725ZM158.325 64.22L159.084 63.5692L158.325 64.22ZM150.955 64.055L151.648 64.7764L151.648 64.7758L150.955 64.055ZM149.58 69.885L150.327 70.5494L150.58 70.2652V69.885H149.58ZM149.14 70.38V71.38H149.589L149.887 71.0444L149.14 70.38ZM144.41 70.05L143.837 70.8692L143.865 70.8894L143.896 70.9075L144.41 70.05ZM147.655 62.845L148.184 63.6938L148.195 63.6869L147.655 62.845ZM151.67 60.81L151.337 59.867L151.67 60.81ZM161.68 61.25L161.266 62.1604L161.279 62.166L161.291 62.1712L161.68 61.25ZM165.53 64.275L164.709 64.8454L164.718 64.8585L164.727 64.8713L165.53 64.275ZM164.43 74.12L163.765 73.3734L163.757 73.3808L164.43 74.12ZM158.05 77.255L157.83 76.2795L157.916 78.246L158.05 77.255ZM166.08 80.5L165.403 81.236L165.41 81.2426L166.08 80.5ZM166.96 92.435L166.184 91.8037L166.18 91.8092L166.176 91.8148L166.96 92.435ZM161.955 96.175L162.357 97.0908L161.955 96.175ZM155.19 96.55C153.584 96.55 152.076 96.358 150.664 95.9792L150.146 97.9108C151.74 98.3387 153.423 98.55 155.19 98.55V96.55ZM150.664 95.9792C149.264 95.6036 147.992 95.0257 146.84 94.2467L145.72 95.9033C147.062 96.811 148.539 97.4797 150.146 97.9108L150.664 95.9792ZM146.861 94.2613C145.9 93.5746 145.178 92.8771 144.669 92.1768L143.051 93.3532C143.715 94.2663 144.607 95.1087 145.699 95.8887L146.861 94.2613ZM144.669 92.1768C144.195 91.5252 143.98 90.8665 143.98 90.18H141.98C141.98 91.3268 142.352 92.3915 143.051 93.3532L144.669 92.1768ZM143.98 90.18C143.98 89.8127 144.017 89.5791 144.059 89.4451C144.1 89.3114 144.12 89.357 144.03 89.417L142.92 87.7529C142.5 88.033 142.272 88.4544 142.149 88.8524C142.025 89.25 141.98 89.704 141.98 90.18H143.98ZM144.03 89.417C144.113 89.3618 144.385 89.255 145.015 89.255V87.255C144.252 87.255 143.497 87.3682 142.92 87.7529L144.03 89.417ZM145.015 89.255H148.205V87.255H145.015V89.255ZM147.498 88.9621L147.993 89.4571L149.407 88.0429L148.912 87.5479L147.498 88.9621ZM147.7 88.75V90.62H149.7V88.75H147.7ZM147.7 90.62C147.7 92.2968 148.338 93.6881 149.64 94.665L150.84 93.065C150.089 92.5019 149.7 91.7298 149.7 90.62H147.7ZM149.672 94.6882C150.97 95.5831 152.723 95.965 154.805 95.965V93.965C152.927 93.965 151.637 93.6136 150.808 93.0418L149.672 94.6882ZM154.805 95.965C157.201 95.965 159.164 95.181 160.53 93.5071L158.98 92.2429C158.072 93.3557 156.735 93.965 154.805 93.965V95.965ZM160.52 93.5191C161.872 91.913 162.515 89.8927 162.515 87.54H160.515C160.515 89.5139 159.984 91.0503 158.99 92.2309L160.52 93.5191ZM162.515 87.54C162.515 84.8363 161.807 82.5865 160.27 80.9217L158.8 82.2783C159.903 83.4735 160.515 85.1837 160.515 87.54H162.515ZM160.27 80.9217C158.666 79.1838 156.022 78.455 152.66 78.455V80.455C155.825 80.455 157.764 81.1562 158.8 82.2783L160.27 80.9217ZM152.66 78.455H149.635V80.455H152.66V78.455ZM150.635 79.455V76.925H148.635V79.455H150.635ZM149.635 77.925H151.835V75.925H149.635V77.925ZM151.835 77.925C154.439 77.925 156.609 77.1145 158.225 75.4137L156.775 74.0362C155.604 75.2688 153.997 75.925 151.835 75.925V77.925ZM158.216 75.4231C159.852 73.7453 160.645 71.5946 160.645 69.06H158.645C158.645 71.1454 158.008 72.7714 156.784 74.0269L158.216 75.4231ZM160.645 69.06C160.645 66.7612 160.191 64.8607 159.084 63.5692L157.566 64.8708C158.219 65.6326 158.645 66.9588 158.645 69.06H160.645ZM159.084 63.5692C157.973 62.2726 156.402 61.68 154.53 61.68V63.68C155.958 63.68 156.917 64.114 157.566 64.8708L159.084 63.5692ZM154.53 61.68C152.865 61.68 151.417 62.223 150.262 63.3342L151.648 64.7758C152.399 64.0536 153.335 63.68 154.53 63.68V61.68ZM150.262 63.3336C149.114 64.4365 148.58 65.9083 148.58 67.63H150.58C150.58 66.345 150.963 65.4335 151.648 64.7764L150.262 63.3336ZM148.58 67.63V69.885H150.58V67.63H148.58ZM148.833 69.2206L148.393 69.7156L149.887 71.0444L150.327 70.5494L148.833 69.2206ZM149.14 69.38H146.06V71.38H149.14V69.38ZM146.06 69.38C145.394 69.38 145.061 69.2743 144.924 69.1925L143.896 70.9075C144.493 71.2657 145.259 71.38 146.06 71.38V69.38ZM144.983 69.2308C145.038 69.2691 145.002 69.2792 144.952 69.1192C144.901 68.9574 144.86 68.6918 144.86 68.29H142.86C142.86 68.8049 142.91 69.291 143.043 69.7158C143.176 70.1424 143.415 70.5743 143.837 70.8692L144.983 69.2308ZM144.86 68.29C144.86 66.7228 145.803 65.1774 148.184 63.6937L147.126 61.9963C144.447 63.666 142.86 65.7505 142.86 68.29H144.86ZM148.195 63.6869C149.577 62.8006 150.846 62.1613 152.003 61.753L151.337 59.867C150.001 60.3387 148.593 61.056 147.115 62.0031L148.195 63.6869ZM152.003 61.753C153.112 61.3616 154.514 61.15 156.235 61.15V59.15C154.363 59.15 152.721 59.3784 151.337 59.867L152.003 61.753ZM156.235 61.15C158.129 61.15 159.8 61.4937 161.266 62.1604L162.094 60.3396C160.334 59.5396 158.375 59.15 156.235 59.15V61.15ZM161.291 62.1712C162.787 62.803 163.912 63.6983 164.709 64.8454L166.351 63.7046C165.315 62.2117 163.873 61.0904 162.069 60.3287L161.291 62.1712ZM164.727 64.8713C165.542 65.9685 165.96 67.2587 165.96 68.785H167.96C167.96 66.8646 167.424 65.1482 166.333 63.6787L164.727 64.8713ZM165.96 68.785C165.96 70.5226 165.262 72.0386 163.765 73.3735L165.095 74.8665C166.971 73.1948 167.96 71.154 167.96 68.785H165.96ZM163.757 73.3808C162.258 74.7465 160.297 75.7235 157.83 76.2795L158.27 78.2305C161.009 77.6132 163.302 76.5002 165.103 74.8592L163.757 73.3808ZM157.916 78.246C161.316 78.7064 163.772 79.7354 165.403 81.2359L166.757 79.7641C164.721 77.8913 161.824 76.7569 158.184 76.264L157.916 78.246ZM165.41 81.2426C167.049 82.7209 167.885 84.6589 167.885 87.155H169.885C169.885 84.1511 168.851 81.6524 166.75 79.7574L165.41 81.2426ZM167.885 87.155C167.885 88.8572 167.33 90.3965 166.184 91.8037L167.736 93.0663C169.157 91.3201 169.885 89.3395 169.885 87.155H167.885ZM166.176 91.8148C165.043 93.2466 163.514 94.3993 161.553 95.2592L162.357 97.0908C164.576 96.1174 166.383 94.7767 167.744 93.0552L166.176 91.8148ZM161.553 95.2592C159.598 96.117 157.48 96.55 155.19 96.55V98.55C157.74 98.55 160.132 98.0663 162.357 97.0908L161.553 95.2592Z" fill="black" mask="url(#path-5-outside-1_2561_51)"/>
</g>
</g>
<defs>
<filter id="filter0_bd_2561_51" x="111.528" y="56.15" width="61.3573" height="49.4" filterUnits="userSpaceOnUse" color-interpolation-filters="sRGB">
<feFlood flood-opacity="0" result="BackgroundImageFix"/>
<feGaussianBlur in="BackgroundImageFix" stdDeviation="2"/>
<feComposite in2="SourceAlpha" operator="in" result="effect1_backgroundBlur_2561_51"/>
<feColorMatrix in="SourceAlpha" type="matrix" values="0 0 0 0 0 0 0 0 0 0 0 0 0 0 0 0 0 0 127 0" result="hardAlpha"/>
<feOffset dy="4"/>
<feGaussianBlur stdDeviation="2"/>
<feComposite in2="hardAlpha" operator="out"/>
<feColorMatrix type="matrix" values="0 0 0 0 0 0 0 0 0 0 0 0 0 0 0 0 0 0 0.25 0"/>
<feBlend mode="normal" in2="effect1_backgroundBlur_2561_51" result="effect2_dropShadow_2561_51"/>
<feBlend mode="normal" in="SourceGraphic" in2="effect2_dropShadow_2561_51" result="shape"/>
</filter>
<clipPath id="clip0_2561_51">
<rect width="281" height="158" fill="white"/>
</clipPath>
</defs>
</svg>
