<svg width="281" height="158" viewBox="0 0 281 158" fill="none" xmlns="http://www.w3.org/2000/svg">
<rect width="281" height="158" fill="#285A54"/>
<circle cx="39" cy="25" r="5" fill="#0C8C7D"/>
<circle cx="49" cy="122" r="5" fill="#0C8C7D"/>
<circle cx="136" cy="30" r="5" fill="#0C8C7D"/>
<circle cx="173" cy="97" r="5" fill="#0C8C7D"/>
<circle cx="24" cy="61" r="5" fill="#0C8C7D"/>
<circle cx="87" cy="74" r="5" fill="#0C8C7D"/>
<circle cx="126" cy="132" r="5" fill="#0C8C7D"/>
<circle cx="190" cy="79" r="5" fill="#0C8C7D"/>
<circle cx="239" cy="25" r="5" fill="#0C8C7D"/>
<circle cx="249" cy="102" r="5" fill="#0C8C7D"/>
<circle cx="217" cy="142" r="5" fill="#0C8C7D"/>
<g filter="url(#filter0_bd_2561_56)">
<mask id="path-12-outside-1_2561_56" maskUnits="userSpaceOnUse" x="114" y="59" width="56" height="40" fill="black">
<rect fill="white" x="114" y="59" width="56" height="40"/>
<path d="M119.763 97V96.12L124.878 94.085V66.64L115.528 71.04V68.95L129.058 60.7H131.533V94.085L136.098 96.12V97H119.763ZM155.63 97.55C153.357 97.55 151.285 97.2017 149.415 96.505C147.545 95.8083 146.042 94.8183 144.905 93.535C143.805 92.215 143.255 90.675 143.255 88.915C143.255 87.8517 143.457 86.7883 143.86 85.725C144.263 84.6617 144.997 83.6167 146.06 82.59C147.123 81.5267 148.627 80.4633 150.57 79.4C148.223 77.9333 146.592 76.485 145.675 75.055C144.758 73.625 144.3 71.9017 144.3 69.885C144.3 68.125 144.85 66.5117 145.95 65.045C147.05 63.5417 148.498 62.35 150.295 61.47C152.092 60.59 154.017 60.15 156.07 60.15C158.05 60.15 159.865 60.535 161.515 61.305C163.202 62.075 164.54 63.1383 165.53 64.495C166.557 65.8517 167.07 67.3917 167.07 69.115C167.07 70.6183 166.428 72.0117 165.145 73.295C163.862 74.5417 162.175 75.715 160.085 76.815C162.945 78.4283 165.017 80.0233 166.3 81.6C167.583 83.14 168.225 85.01 168.225 87.21C168.225 89.3367 167.62 91.17 166.41 92.71C165.237 94.25 163.697 95.4417 161.79 96.285C159.883 97.1283 157.83 97.55 155.63 97.55ZM150.68 67.575C150.68 68.5283 150.845 69.4083 151.175 70.215C151.505 71.0217 152.165 71.8467 153.155 72.69C154.182 73.5333 155.703 74.4867 157.72 75.55C158.857 74.78 159.755 73.8817 160.415 72.855C161.075 71.8283 161.405 70.6367 161.405 69.28C161.405 67.0433 160.873 65.3933 159.81 64.33C158.783 63.23 157.427 62.68 155.74 62.68C154.273 62.68 153.063 63.12 152.11 64C151.157 64.88 150.68 66.0717 150.68 67.575ZM149.14 87.925C149.14 90.1617 149.745 91.9217 150.955 93.205C152.165 94.4883 153.742 95.13 155.685 95.13C157.628 95.13 159.132 94.6167 160.195 93.59C161.295 92.5633 161.845 91.2067 161.845 89.52C161.845 88.2 161.533 87.1 160.91 86.22C160.287 85.34 159.297 84.4783 157.94 83.635C156.583 82.7917 154.823 81.7833 152.66 80.61C151.23 81.6733 150.277 82.755 149.8 83.855C149.36 84.955 149.14 86.3117 149.14 87.925Z"/>
</mask>
<path d="M119.763 97V96.12L124.878 94.085V66.64L115.528 71.04V68.95L129.058 60.7H131.533V94.085L136.098 96.12V97H119.763ZM155.63 97.55C153.357 97.55 151.285 97.2017 149.415 96.505C147.545 95.8083 146.042 94.8183 144.905 93.535C143.805 92.215 143.255 90.675 143.255 88.915C143.255 87.8517 143.457 86.7883 143.86 85.725C144.263 84.6617 144.997 83.6167 146.06 82.59C147.123 81.5267 148.627 80.4633 150.57 79.4C148.223 77.9333 146.592 76.485 145.675 75.055C144.758 73.625 144.3 71.9017 144.3 69.885C144.3 68.125 144.85 66.5117 145.95 65.045C147.05 63.5417 148.498 62.35 150.295 61.47C152.092 60.59 154.017 60.15 156.07 60.15C158.05 60.15 159.865 60.535 161.515 61.305C163.202 62.075 164.54 63.1383 165.53 64.495C166.557 65.8517 167.07 67.3917 167.07 69.115C167.07 70.6183 166.428 72.0117 165.145 73.295C163.862 74.5417 162.175 75.715 160.085 76.815C162.945 78.4283 165.017 80.0233 166.3 81.6C167.583 83.14 168.225 85.01 168.225 87.21C168.225 89.3367 167.62 91.17 166.41 92.71C165.237 94.25 163.697 95.4417 161.79 96.285C159.883 97.1283 157.83 97.55 155.63 97.55ZM150.68 67.575C150.68 68.5283 150.845 69.4083 151.175 70.215C151.505 71.0217 152.165 71.8467 153.155 72.69C154.182 73.5333 155.703 74.4867 157.72 75.55C158.857 74.78 159.755 73.8817 160.415 72.855C161.075 71.8283 161.405 70.6367 161.405 69.28C161.405 67.0433 160.873 65.3933 159.81 64.33C158.783 63.23 157.427 62.68 155.74 62.68C154.273 62.68 153.063 63.12 152.11 64C151.157 64.88 150.68 66.0717 150.68 67.575ZM149.14 87.925C149.14 90.1617 149.745 91.9217 150.955 93.205C152.165 94.4883 153.742 95.13 155.685 95.13C157.628 95.13 159.132 94.6167 160.195 93.59C161.295 92.5633 161.845 91.2067 161.845 89.52C161.845 88.2 161.533 87.1 160.91 86.22C160.287 85.34 159.297 84.4783 157.94 83.635C156.583 82.7917 154.823 81.7833 152.66 80.61C151.23 81.6733 150.277 82.755 149.8 83.855C149.36 84.955 149.14 86.3117 149.14 87.925Z" fill="white"/>
<path d="M119.763 97H118.763V98H119.763V97ZM119.763 96.12L119.393 95.1908L118.763 95.4416V96.12H119.763ZM124.878 94.085L125.247 95.0142L125.878 94.7634V94.085H124.878ZM124.878 66.64H125.878V65.0642L124.452 65.7352L124.878 66.64ZM115.528 71.04H114.528V72.6158L115.953 71.9448L115.528 71.04ZM115.528 68.95L115.007 68.0962L114.528 68.3885V68.95H115.528ZM129.058 60.7V59.7H128.777L128.537 59.8462L129.058 60.7ZM131.533 60.7H132.533V59.7H131.533V60.7ZM131.533 94.085H130.533V94.7341L131.126 94.9984L131.533 94.085ZM136.098 96.12H137.098V95.4709L136.505 95.2066L136.098 96.12ZM136.098 97V98H137.098V97H136.098ZM120.763 97V96.12H118.763V97H120.763ZM120.132 97.0492L125.247 95.0142L124.508 93.1558L119.393 95.1908L120.132 97.0492ZM125.878 94.085V66.64H123.878V94.085H125.878ZM124.452 65.7352L115.102 70.1352L115.953 71.9448L125.303 67.5448L124.452 65.7352ZM116.528 71.04V68.95H114.528V71.04H116.528ZM116.048 69.8038L129.578 61.5538L128.537 59.8462L115.007 68.0962L116.048 69.8038ZM129.058 61.7H131.533V59.7H129.058V61.7ZM130.533 60.7V94.085H132.533V60.7H130.533ZM131.126 94.9984L135.691 97.0334L136.505 95.2066L131.94 93.1716L131.126 94.9984ZM135.098 96.12V97H137.098V96.12H135.098ZM136.098 96H119.763V98H136.098V96ZM149.415 96.505L149.764 95.5679L149.415 96.505ZM144.905 93.535L144.137 94.1752L144.146 94.1868L144.156 94.198L144.905 93.535ZM146.06 82.59L146.755 83.3094L146.761 83.3033L146.767 83.2971L146.06 82.59ZM150.57 79.4L151.05 80.2773L152.549 79.4573L151.1 78.552L150.57 79.4ZM145.675 75.055L144.833 75.5947L145.675 75.055ZM145.95 65.045L146.75 65.645L146.757 65.6355L145.95 65.045ZM150.295 61.47L150.735 62.3681L150.295 61.47ZM161.515 61.305L161.092 62.2112L161.1 62.2147L161.515 61.305ZM165.53 64.495L164.722 65.0845L164.727 65.0915L164.733 65.0984L165.53 64.495ZM165.145 73.295L165.842 74.0123L165.847 74.0072L165.852 74.0021L165.145 73.295ZM160.085 76.815L159.619 75.9301L157.996 76.7846L159.594 77.686L160.085 76.815ZM166.3 81.6L165.524 82.2313L165.532 82.2402L166.3 81.6ZM166.41 92.71L165.624 92.0922L165.619 92.098L165.615 92.104L166.41 92.71ZM161.79 96.285L162.195 97.1995L161.79 96.285ZM151.175 70.215L150.249 70.5936L151.175 70.215ZM153.155 72.69L152.507 73.4512L152.513 73.457L152.52 73.4627L153.155 72.69ZM157.72 75.55L157.254 76.4346L157.784 76.7143L158.281 76.3779L157.72 75.55ZM159.81 64.33L159.079 65.0123L159.091 65.0249L159.103 65.0371L159.81 64.33ZM152.11 64L151.432 63.2652L152.11 64ZM150.955 93.205L151.683 92.519L150.955 93.205ZM160.195 93.59L159.513 92.8589L159.506 92.8647L159.5 92.8706L160.195 93.59ZM157.94 83.635L158.468 82.7857H158.468L157.94 83.635ZM152.66 80.61L153.137 79.731L152.576 79.4266L152.063 79.8075L152.66 80.61ZM149.8 83.855L148.882 83.4574L148.877 83.4704L148.872 83.4836L149.8 83.855ZM155.63 96.55C153.459 96.55 151.508 96.2176 149.764 95.5679L149.066 97.4421C151.062 98.1857 153.254 98.55 155.63 98.55V96.55ZM149.764 95.5679C148.022 94.9191 146.665 94.0139 145.654 92.872L144.156 94.198C145.418 95.6228 147.068 96.6976 149.066 97.4421L149.764 95.5679ZM145.673 92.8948C144.727 91.7592 144.255 90.4473 144.255 88.915H142.255C142.255 90.9027 142.883 92.6708 144.137 94.1752L145.673 92.8948ZM144.255 88.915C144.255 87.9811 144.432 87.0376 144.795 86.0797L142.925 85.3703C142.482 86.539 142.255 87.7223 142.255 88.915H144.255ZM144.795 86.0797C145.133 85.189 145.767 84.2632 146.755 83.3094L145.365 81.8706C144.227 82.9702 143.394 84.1344 142.925 85.3703L144.795 86.0797ZM146.767 83.2971C147.74 82.3246 149.155 81.3144 151.05 80.2773L150.09 78.5227C148.099 79.6123 146.507 80.7287 145.353 81.8829L146.767 83.2971ZM151.1 78.552C148.809 77.1202 147.319 75.7663 146.517 74.5153L144.833 75.5947C145.865 77.2037 147.638 78.7464 150.04 80.248L151.1 78.552ZM146.517 74.5153C145.721 73.2745 145.3 71.7467 145.3 69.885H143.3C143.3 72.0566 143.795 73.9755 144.833 75.5947L146.517 74.5153ZM145.3 69.885C145.3 68.3508 145.774 66.9463 146.75 65.645L145.15 64.445C143.926 66.077 143.3 67.8992 143.3 69.885H145.3ZM146.757 65.6355C147.754 64.2725 149.073 63.1822 150.735 62.3681L149.855 60.5719C147.924 61.5178 146.346 62.8108 145.143 64.4545L146.757 65.6355ZM150.735 62.3681C152.391 61.5569 154.165 61.15 156.07 61.15V59.15C153.868 59.15 151.792 59.6231 149.855 60.5719L150.735 62.3681ZM156.07 61.15C157.917 61.15 159.586 61.5082 161.092 62.2112L161.938 60.3988C160.144 59.5618 158.183 59.15 156.07 59.15V61.15ZM161.1 62.2147C162.647 62.921 163.844 63.8805 164.722 65.0845L166.338 63.9055C165.236 62.3962 163.756 61.229 161.93 60.3953L161.1 62.2147ZM164.733 65.0984C165.626 66.279 166.07 67.6065 166.07 69.115H168.07C168.07 67.1769 167.487 65.4243 166.327 63.8916L164.733 65.0984ZM166.07 69.115C166.07 70.2997 165.575 71.4506 164.438 72.5879L165.852 74.0021C167.281 72.5728 168.07 70.937 168.07 69.115H166.07ZM164.448 72.5777C163.251 73.7404 161.65 74.8613 159.619 75.9301L160.551 77.6999C162.7 76.5687 164.472 75.343 165.842 74.0123L164.448 72.5777ZM159.594 77.686C162.404 79.271 164.354 80.7929 165.524 82.2313L167.076 80.9687C165.68 79.2538 163.486 77.5857 160.576 75.944L159.594 77.686ZM165.532 82.2402C166.65 83.5826 167.225 85.2195 167.225 87.21H169.225C169.225 84.8005 168.516 82.6974 167.068 80.9598L165.532 82.2402ZM167.225 87.21C167.225 89.1331 166.683 90.7438 165.624 92.0922L167.196 93.3278C168.557 91.5962 169.225 89.5402 169.225 87.21H167.225ZM165.615 92.104C164.551 93.4996 163.15 94.59 161.385 95.3705L162.195 97.1995C164.243 96.2934 165.922 95.0004 167.205 93.316L165.615 92.104ZM161.385 95.3705C159.613 96.1544 157.699 96.55 155.63 96.55V98.55C157.961 98.55 160.153 98.1023 162.195 97.1995L161.385 95.3705ZM149.68 67.575C149.68 68.6459 149.866 69.656 150.249 70.5936L152.101 69.8364C151.824 69.1607 151.68 68.4107 151.68 67.575H149.68ZM150.249 70.5936C150.662 71.603 151.45 72.5512 152.507 73.4512L153.803 71.9288C152.88 71.1421 152.348 70.4403 152.101 69.8364L150.249 70.5936ZM152.52 73.4627C153.623 74.3687 155.213 75.3587 157.254 76.4346L158.186 74.6654C156.194 73.6147 154.74 72.698 153.79 71.9173L152.52 73.4627ZM158.281 76.3779C159.515 75.5416 160.515 74.5495 161.256 73.3958L159.574 72.3142C158.995 73.2139 158.198 74.0184 157.159 74.7221L158.281 76.3779ZM161.256 73.3958C162.031 72.1901 162.405 70.8063 162.405 69.28H160.405C160.405 70.467 160.119 71.4665 159.574 72.3142L161.256 73.3958ZM162.405 69.28C162.405 66.9063 161.842 64.9482 160.517 63.6229L159.103 65.0371C159.904 65.8384 160.405 67.1804 160.405 69.28H162.405ZM160.541 63.6477C159.301 62.3195 157.667 61.68 155.74 61.68V63.68C157.187 63.68 158.265 64.1405 159.079 65.0123L160.541 63.6477ZM155.74 61.68C154.057 61.68 152.594 62.1922 151.432 63.2652L152.788 64.7348C153.532 64.0478 154.489 63.68 155.74 63.68V61.68ZM151.432 63.2652C150.24 64.3651 149.68 65.8411 149.68 67.575H151.68C151.68 66.3022 152.073 65.3949 152.788 64.7348L151.432 63.2652ZM148.14 87.925C148.14 90.3455 148.799 92.3761 150.227 93.891L151.683 92.519C150.691 91.4673 150.14 89.9779 150.14 87.925H148.14ZM150.227 93.891C151.647 95.3963 153.497 96.13 155.685 96.13V94.13C153.986 94.13 152.683 93.5804 151.683 92.519L150.227 93.891ZM155.685 96.13C157.803 96.13 159.587 95.5671 160.89 94.3094L159.5 92.8706C158.676 93.6662 157.453 94.13 155.685 94.13V96.13ZM160.877 94.3211C162.206 93.0814 162.845 91.4468 162.845 89.52H160.845C160.845 90.9665 160.384 92.0453 159.513 92.8589L160.877 94.3211ZM162.845 89.52C162.845 88.04 162.494 86.7257 161.726 85.642L160.094 86.798C160.573 87.4743 160.845 88.36 160.845 89.52H162.845ZM161.726 85.642C160.998 84.6141 159.888 83.6686 158.468 82.7857L157.412 84.4843C158.705 85.2881 159.575 86.0659 160.094 86.798L161.726 85.642ZM158.468 82.7857C157.088 81.928 155.309 80.9093 153.137 79.731L152.183 81.489C154.337 82.6574 156.079 83.6553 157.412 84.4843L158.468 82.7857ZM152.063 79.8075C150.556 80.9282 149.455 82.137 148.882 83.4574L150.718 84.2526C151.099 83.373 151.904 82.4185 153.257 81.4125L152.063 79.8075ZM148.872 83.4836C148.371 84.7361 148.14 86.2276 148.14 87.925H150.14C150.14 86.3958 150.349 85.1739 150.728 84.2264L148.872 83.4836Z" fill="black" mask="url(#path-12-outside-1_2561_56)"/>
</g>
<defs>
<filter id="filter0_bd_2561_56" x="111.528" y="56.15" width="60.6973" height="49.4" filterUnits="userSpaceOnUse" color-interpolation-filters="sRGB">
<feFlood flood-opacity="0" result="BackgroundImageFix"/>
<feGaussianBlur in="BackgroundImageFix" stdDeviation="2"/>
<feComposite in2="SourceAlpha" operator="in" result="effect1_backgroundBlur_2561_56"/>
<feColorMatrix in="SourceAlpha" type="matrix" values="0 0 0 0 0 0 0 0 0 0 0 0 0 0 0 0 0 0 127 0" result="hardAlpha"/>
<feOffset dy="4"/>
<feGaussianBlur stdDeviation="2"/>
<feComposite in2="hardAlpha" operator="out"/>
<feColorMatrix type="matrix" values="0 0 0 0 0 0 0 0 0 0 0 0 0 0 0 0 0 0 0.25 0"/>
<feBlend mode="normal" in2="effect1_backgroundBlur_2561_56" result="effect2_dropShadow_2561_56"/>
<feBlend mode="normal" in="SourceGraphic" in2="effect2_dropShadow_2561_56" result="shape"/>
</filter>
</defs>
</svg>
