<svg width="281" height="158" viewBox="0 0 281 158" fill="none" xmlns="http://www.w3.org/2000/svg">
<g clip-path="url(#clip0_2561_58)">
<rect width="281" height="158" fill="#285A54"/>
<path d="M-7.41492 99.4742L72.5851 169.474" stroke="#052E29" stroke-width="20"/>
<path d="M-9.79517 44.766L130.795 168.234" stroke="#052E29" stroke-width="20"/>
<path d="M-2.44397 -2.63733L191.444 167.637" stroke="#052E29" stroke-width="20"/>
<path d="M50.8811 -7.86475L252.119 168.865" stroke="#052E29" stroke-width="20"/>
<path d="M108.086 -11.0981L293.914 152.098" stroke="#052E29" stroke-width="20"/>
<path d="M177 -4L257 66" stroke="black" stroke-width="20"/>
<path d="M172.387 -8.44287L291.702 96.3411" stroke="#052E29" stroke-width="20"/>
<path d="M207 -31L289 41" stroke="#052E29" stroke-width="20"/>
<g filter="url(#filter0_bd_2561_58)">
<mask id="path-9-outside-1_2561_58" maskUnits="userSpaceOnUse" x="112" y="59" width="58" height="40" fill="black">
<rect fill="white" x="112" y="59" width="58" height="40"/>
<path d="M114.373 97V95.24C117.416 91.83 119.928 88.97 121.908 86.66C123.924 84.35 125.501 82.4067 126.638 80.83C127.811 79.2533 128.673 77.8783 129.223 76.705C129.773 75.5317 130.121 74.395 130.268 73.295C130.414 72.1583 130.488 70.8933 130.488 69.5C130.488 67.5567 130.011 65.9617 129.058 64.715C128.104 63.4683 126.803 62.845 125.153 62.845C121.413 62.845 119.543 64.9167 119.543 69.06V71.59L119.213 72.03H115.968C115.234 72.03 114.684 71.9017 114.318 71.645C113.951 71.3883 113.768 70.7467 113.768 69.72C113.768 68.6933 114.079 67.6667 114.703 66.64C115.363 65.5767 116.371 64.55 117.728 63.56C118.681 62.9 119.598 62.3133 120.478 61.8C121.358 61.2867 122.329 60.8833 123.393 60.59C124.493 60.2967 125.776 60.15 127.243 60.15C129.296 60.15 131.111 60.59 132.688 61.47C134.301 62.35 135.548 63.5233 136.428 64.99C137.344 66.4567 137.803 68.0883 137.803 69.885C137.803 71.0583 137.656 72.14 137.363 73.13C137.106 74.12 136.629 75.1467 135.933 76.21C135.236 77.2733 134.246 78.4833 132.963 79.84C131.716 81.1967 130.121 82.8283 128.178 84.735C126.234 86.605 123.851 88.86 121.028 91.5H134.998L138.023 86.11H138.903L138.353 97H114.373ZM155.74 97.55C153.027 97.55 150.698 96.7983 148.755 95.295C146.812 93.7917 145.327 91.6467 144.3 88.86C143.31 86.0367 142.815 82.7 142.815 78.85C142.815 75.2567 143.365 72.0667 144.465 69.28C145.565 66.4567 147.068 64.2383 148.975 62.625C150.918 60.975 153.173 60.15 155.74 60.15C158.453 60.15 160.782 60.9017 162.725 62.405C164.668 63.9083 166.135 66.0717 167.125 68.895C168.152 71.6817 168.665 75 168.665 78.85C168.665 82.4433 168.115 85.6517 167.015 88.475C165.915 91.2617 164.393 93.48 162.45 95.13C160.507 96.7433 158.27 97.55 155.74 97.55ZM156.73 94.91C157.793 94.91 158.673 94.2867 159.37 93.04C160.103 91.7933 160.653 90.0883 161.02 87.925C161.387 85.7617 161.57 83.305 161.57 80.555C161.57 77.145 161.332 74.1017 160.855 71.425C160.378 68.7117 159.645 66.585 158.655 65.045C157.702 63.505 156.455 62.735 154.915 62.735C153.852 62.735 152.935 63.34 152.165 64.55C151.432 65.76 150.863 67.4467 150.46 69.61C150.093 71.7367 149.91 74.2117 149.91 77.035C149.91 80.4817 150.148 83.5617 150.625 86.275C151.102 88.9517 151.835 91.06 152.825 92.6C153.852 94.14 155.153 94.91 156.73 94.91Z"/>
</mask>
<path d="M114.373 97V95.24C117.416 91.83 119.928 88.97 121.908 86.66C123.924 84.35 125.501 82.4067 126.638 80.83C127.811 79.2533 128.673 77.8783 129.223 76.705C129.773 75.5317 130.121 74.395 130.268 73.295C130.414 72.1583 130.488 70.8933 130.488 69.5C130.488 67.5567 130.011 65.9617 129.058 64.715C128.104 63.4683 126.803 62.845 125.153 62.845C121.413 62.845 119.543 64.9167 119.543 69.06V71.59L119.213 72.03H115.968C115.234 72.03 114.684 71.9017 114.318 71.645C113.951 71.3883 113.768 70.7467 113.768 69.72C113.768 68.6933 114.079 67.6667 114.703 66.64C115.363 65.5767 116.371 64.55 117.728 63.56C118.681 62.9 119.598 62.3133 120.478 61.8C121.358 61.2867 122.329 60.8833 123.393 60.59C124.493 60.2967 125.776 60.15 127.243 60.15C129.296 60.15 131.111 60.59 132.688 61.47C134.301 62.35 135.548 63.5233 136.428 64.99C137.344 66.4567 137.803 68.0883 137.803 69.885C137.803 71.0583 137.656 72.14 137.363 73.13C137.106 74.12 136.629 75.1467 135.933 76.21C135.236 77.2733 134.246 78.4833 132.963 79.84C131.716 81.1967 130.121 82.8283 128.178 84.735C126.234 86.605 123.851 88.86 121.028 91.5H134.998L138.023 86.11H138.903L138.353 97H114.373ZM155.74 97.55C153.027 97.55 150.698 96.7983 148.755 95.295C146.812 93.7917 145.327 91.6467 144.3 88.86C143.31 86.0367 142.815 82.7 142.815 78.85C142.815 75.2567 143.365 72.0667 144.465 69.28C145.565 66.4567 147.068 64.2383 148.975 62.625C150.918 60.975 153.173 60.15 155.74 60.15C158.453 60.15 160.782 60.9017 162.725 62.405C164.668 63.9083 166.135 66.0717 167.125 68.895C168.152 71.6817 168.665 75 168.665 78.85C168.665 82.4433 168.115 85.6517 167.015 88.475C165.915 91.2617 164.393 93.48 162.45 95.13C160.507 96.7433 158.27 97.55 155.74 97.55ZM156.73 94.91C157.793 94.91 158.673 94.2867 159.37 93.04C160.103 91.7933 160.653 90.0883 161.02 87.925C161.387 85.7617 161.57 83.305 161.57 80.555C161.57 77.145 161.332 74.1017 160.855 71.425C160.378 68.7117 159.645 66.585 158.655 65.045C157.702 63.505 156.455 62.735 154.915 62.735C153.852 62.735 152.935 63.34 152.165 64.55C151.432 65.76 150.863 67.4467 150.46 69.61C150.093 71.7367 149.91 74.2117 149.91 77.035C149.91 80.4817 150.148 83.5617 150.625 86.275C151.102 88.9517 151.835 91.06 152.825 92.6C153.852 94.14 155.153 94.91 156.73 94.91Z" fill="white"/>
<path d="M114.373 97H113.373V98H114.373V97ZM114.373 95.24L113.627 94.5741L113.373 94.8587V95.24H114.373ZM121.908 86.66L121.154 86.0023L121.148 86.0092L121.908 86.66ZM126.638 80.83L125.835 80.233L125.831 80.2391L125.827 80.2452L126.638 80.83ZM129.223 76.705L130.128 77.1294L129.223 76.705ZM130.268 73.295L131.259 73.4272L131.259 73.423L130.268 73.295ZM129.058 64.715L128.263 65.3224L128.263 65.3225L129.058 64.715ZM119.543 71.59L120.343 72.19L120.543 71.9233V71.59H119.543ZM119.213 72.03V73.03H119.713L120.013 72.63L119.213 72.03ZM114.703 66.64L113.853 66.1126L113.848 66.121L114.703 66.64ZM117.728 63.56L117.158 62.7378L117.148 62.7449L117.138 62.7522L117.728 63.56ZM120.478 61.8L119.974 60.9362H119.974L120.478 61.8ZM123.393 60.59L123.135 59.6237L123.127 59.626L123.393 60.59ZM132.688 61.47L132.2 62.3432L132.209 62.3479L132.688 61.47ZM136.428 64.99L135.57 65.5045L135.575 65.5123L135.58 65.52L136.428 64.99ZM137.363 73.13L136.404 72.8459L136.399 72.8624L136.395 72.879L137.363 73.13ZM135.933 76.21L136.769 76.758L135.933 76.21ZM132.963 79.84L132.236 79.1528L132.231 79.1581L132.226 79.1634L132.963 79.84ZM128.178 84.735L128.871 85.4556L128.878 85.4488L128.178 84.735ZM121.028 91.5L120.345 90.7696L118.494 92.5H121.028V91.5ZM134.998 91.5V92.5H135.583L135.87 91.9894L134.998 91.5ZM138.023 86.11V85.11H137.437L137.151 85.6206L138.023 86.11ZM138.903 86.11L139.901 86.1604L139.954 85.11H138.903V86.11ZM138.353 97V98H139.303L139.351 97.0504L138.353 97ZM115.373 97V95.24H113.373V97H115.373ZM115.119 95.9059C118.165 92.4931 120.681 89.6277 122.667 87.3108L121.148 86.0092C119.174 88.3123 116.667 91.1669 113.627 94.5741L115.119 95.9059ZM122.661 87.3177C124.688 84.996 126.287 83.0267 127.449 81.4148L125.827 80.2452C124.715 81.7867 123.161 83.704 121.154 86.0023L122.661 87.3177ZM127.44 81.427C128.635 79.821 129.539 78.3862 130.128 77.1294L128.317 76.2806C127.806 77.3705 126.987 78.6856 125.835 80.233L127.44 81.427ZM130.128 77.1294C130.714 75.8788 131.097 74.6437 131.259 73.4272L129.276 73.1628C129.145 74.1463 128.831 75.1846 128.317 76.2806L130.128 77.1294ZM131.259 73.423C131.413 72.236 131.488 70.9274 131.488 69.5H129.488C129.488 70.8593 129.416 72.0807 129.276 73.167L131.259 73.423ZM131.488 69.5C131.488 67.3905 130.968 65.5668 129.852 64.1075L128.263 65.3225C129.054 66.3566 129.488 67.7228 129.488 69.5H131.488ZM129.852 64.1075C128.698 62.599 127.096 61.845 125.153 61.845V63.845C126.51 63.845 127.51 64.3376 128.263 65.3224L129.852 64.1075ZM125.153 61.845C123.101 61.845 121.386 62.418 120.203 63.7287C119.037 65.0199 118.543 66.858 118.543 69.06H120.543C120.543 67.1186 120.983 65.8493 121.688 65.0688C122.374 64.3078 123.465 63.845 125.153 63.845V61.845ZM118.543 69.06V71.59H120.543V69.06H118.543ZM118.743 70.99L118.413 71.43L120.013 72.63L120.343 72.19L118.743 70.99ZM119.213 71.03H115.968V73.03H119.213V71.03ZM115.968 71.03C115.32 71.03 115.013 70.9112 114.891 70.8258L113.744 72.4642C114.356 72.8922 115.148 73.03 115.968 73.03V71.03ZM114.891 70.8258C114.969 70.8801 114.925 70.9009 114.867 70.6965C114.81 70.4994 114.768 70.1846 114.768 69.72H112.768C112.768 70.282 112.817 70.8014 112.944 71.246C113.069 71.6832 113.3 72.1533 113.744 72.4642L114.891 70.8258ZM114.768 69.72C114.768 68.9055 115.013 68.0561 115.557 67.159L113.848 66.121C113.146 67.2772 112.768 68.4812 112.768 69.72H114.768ZM115.552 67.1674C116.126 66.2438 117.031 65.3064 118.317 64.3678L117.138 62.7522C115.711 63.7936 114.6 64.9095 113.853 66.1126L115.552 67.1674ZM118.297 64.3822C119.232 63.7349 120.127 63.1625 120.982 62.6638L119.974 60.9362C119.069 61.4642 118.13 62.0651 117.158 62.7378L118.297 64.3822ZM120.982 62.6638C121.781 62.1974 122.672 61.8262 123.659 61.554L123.127 59.626C121.987 59.9404 120.934 60.3759 119.974 60.9362L120.982 62.6638ZM123.65 61.5562C124.646 61.2907 125.839 61.15 127.243 61.15V59.15C125.713 59.15 124.339 59.3027 123.135 59.6238L123.65 61.5562ZM127.243 61.15C129.149 61.15 130.792 61.5572 132.2 62.3432L133.175 60.5968C131.43 59.6228 129.443 59.15 127.243 59.15V61.15ZM132.209 62.3479C133.678 63.1492 134.789 64.2019 135.57 65.5045L137.285 64.4755C136.307 62.8448 134.924 61.5508 133.167 60.5921L132.209 62.3479ZM135.58 65.52C136.393 66.8214 136.803 68.2681 136.803 69.885H138.803C138.803 67.9086 138.296 66.092 137.276 64.46L135.58 65.52ZM136.803 69.885C136.803 70.975 136.666 71.9597 136.404 72.8459L138.321 73.4141C138.646 72.3203 138.803 71.1416 138.803 69.885H136.803ZM136.395 72.879C136.171 73.7414 135.747 74.6686 135.096 75.662L136.769 76.758C137.512 75.6247 138.041 74.4986 138.331 73.381L136.395 72.879ZM135.096 75.662C134.443 76.6586 133.496 77.8212 132.236 79.1528L133.689 80.5272C134.996 79.1455 136.029 77.8881 136.769 76.758L135.096 75.662ZM132.226 79.1634C130.995 80.5029 129.414 82.1215 127.477 84.0212L128.878 85.4488C130.828 83.5352 132.437 81.8904 133.699 80.5166L132.226 79.1634ZM127.484 84.0144C125.546 85.88 123.166 88.1316 120.345 90.7696L121.711 92.2304C124.536 89.5884 126.923 87.33 128.871 85.4556L127.484 84.0144ZM121.028 92.5H134.998V90.5H121.028V92.5ZM135.87 91.9894L138.895 86.5994L137.151 85.6206L134.126 91.0106L135.87 91.9894ZM138.023 87.11H138.903V85.11H138.023V87.11ZM137.904 86.0596L137.354 96.9496L139.351 97.0504L139.901 86.1604L137.904 86.0596ZM138.353 96H114.373V98H138.353V96ZM148.755 95.295L148.143 96.086L148.755 95.295ZM144.3 88.86L143.356 89.1909L143.359 89.1983L143.362 89.2057L144.3 88.86ZM144.465 69.28L145.395 69.6472L145.397 69.643L144.465 69.28ZM148.975 62.625L149.621 63.3884L149.622 63.3873L148.975 62.625ZM167.125 68.895L166.181 69.2259L166.184 69.2333L166.187 69.2407L167.125 68.895ZM167.015 88.475L167.945 88.8422L167.947 88.838L167.015 88.475ZM162.45 95.13L163.089 95.8995L163.097 95.8923L162.45 95.13ZM159.37 93.04L158.508 92.533L158.502 92.5425L158.497 92.5522L159.37 93.04ZM161.02 87.925L162.006 88.0921V88.0921L161.02 87.925ZM160.855 71.425L159.87 71.598L159.87 71.6003L160.855 71.425ZM158.655 65.045L157.805 65.5714L157.809 65.5786L157.814 65.5858L158.655 65.045ZM152.165 64.55L151.321 64.0131L151.315 64.0223L151.31 64.0317L152.165 64.55ZM150.46 69.61L149.477 69.4267L149.475 69.4401L150.46 69.61ZM150.625 86.275L149.64 86.448L149.64 86.4503L150.625 86.275ZM152.825 92.6L151.984 93.1408L151.988 93.1478L151.993 93.1547L152.825 92.6ZM155.74 96.55C153.224 96.55 151.117 95.8576 149.367 94.504L148.143 96.086C150.28 97.739 152.83 98.55 155.74 98.55V96.55ZM149.367 94.504C147.6 93.1375 146.214 91.1618 145.238 88.5143L143.362 89.2057C144.44 92.1315 146.023 94.4458 148.143 96.086L149.367 94.504ZM145.244 88.5291C144.3 85.8376 143.815 82.618 143.815 78.85H141.815C141.815 82.782 142.32 86.2357 143.356 89.1909L145.244 88.5291ZM143.815 78.85C143.815 75.3579 144.35 72.2961 145.395 69.6472L143.535 68.9128C142.38 71.8372 141.815 75.1554 141.815 78.85H143.815ZM145.397 69.643C146.449 66.942 147.866 64.8735 149.621 63.3884L148.329 61.8616C146.271 63.6032 144.681 65.9713 143.533 68.917L145.397 69.643ZM149.622 63.3873C151.383 61.8919 153.409 61.15 155.74 61.15V59.15C152.938 59.15 150.453 60.0581 148.328 61.8627L149.622 63.3873ZM155.74 61.15C158.256 61.15 160.363 61.8424 162.113 63.196L163.337 61.614C161.2 59.961 158.65 59.15 155.74 59.15V61.15ZM162.113 63.196C163.873 64.5577 165.241 66.5448 166.181 69.2259L168.069 68.5641C167.029 65.5986 165.463 63.259 163.337 61.614L162.113 63.196ZM166.187 69.2407C167.162 71.8893 167.665 75.0848 167.665 78.85H169.665C169.665 74.9152 169.141 71.474 168.063 68.5493L166.187 69.2407ZM167.665 78.85C167.665 82.3417 167.131 85.4237 166.083 88.112L167.947 88.838C169.099 85.8796 169.665 82.5449 169.665 78.85H167.665ZM166.085 88.1078C165.035 90.7684 163.6 92.8414 161.803 94.3677L163.097 95.8923C165.186 94.1186 166.795 91.755 167.945 88.8422L166.085 88.1078ZM161.811 94.3606C160.048 95.8246 158.037 96.55 155.74 96.55V98.55C158.503 98.55 160.966 97.662 163.089 95.8994L161.811 94.3606ZM156.73 95.91C158.278 95.91 159.439 94.9668 160.243 93.5278L158.497 92.5522C157.908 93.6065 157.308 93.91 156.73 93.91V95.91ZM160.232 93.547C161.05 92.1559 161.628 90.3197 162.006 88.0921L160.034 87.7579C159.678 89.857 159.156 91.4307 158.508 92.533L160.232 93.547ZM162.006 88.0921C162.384 85.8618 162.57 83.3476 162.57 80.555H160.57C160.57 83.2624 160.389 85.6615 160.034 87.7579L162.006 88.0921ZM162.57 80.555C162.57 77.1003 162.329 73.9966 161.84 71.2497L159.87 71.6003C160.335 74.2067 160.57 77.1897 160.57 80.555H162.57ZM161.84 71.252C161.351 68.4675 160.585 66.1978 159.496 64.5042L157.814 65.5858C158.705 66.9722 159.406 68.9558 159.87 71.598L161.84 71.252ZM159.505 64.5186C158.407 62.745 156.867 61.735 154.915 61.735V63.735C156.043 63.735 156.996 64.265 157.805 65.5714L159.505 64.5186ZM154.915 61.735C153.395 61.735 152.204 62.6267 151.321 64.0131L153.009 65.0869C153.666 64.0533 154.308 63.735 154.915 63.735V61.735ZM151.31 64.0317C150.489 65.3856 149.891 67.2034 149.477 69.4267L151.443 69.7933C151.835 67.69 152.374 66.1344 153.02 65.0683L151.31 64.0317ZM149.475 69.4401C149.096 71.6369 148.91 74.171 148.91 77.035H150.91C150.91 74.2523 151.091 71.8364 151.445 69.7799L149.475 69.4401ZM148.91 77.035C148.91 80.5259 149.151 83.6655 149.64 86.448L151.61 86.102C151.145 83.4579 150.91 80.4374 150.91 77.035H148.91ZM149.64 86.4503C150.13 89.1997 150.896 91.4493 151.984 93.1408L153.666 92.0592C152.774 90.6707 152.073 88.7036 151.61 86.0997L149.64 86.4503ZM151.993 93.1547C153.168 94.9169 154.757 95.91 156.73 95.91V93.91C155.55 93.91 154.536 93.3631 153.657 92.0453L151.993 93.1547Z" fill="black" mask="url(#path-9-outside-1_2561_58)"/>
</g>
</g>
<defs>
<filter id="filter0_bd_2561_58" x="109.768" y="56.15" width="62.8975" height="49.4" filterUnits="userSpaceOnUse" color-interpolation-filters="sRGB">
<feFlood flood-opacity="0" result="BackgroundImageFix"/>
<feGaussianBlur in="BackgroundImageFix" stdDeviation="2"/>
<feComposite in2="SourceAlpha" operator="in" result="effect1_backgroundBlur_2561_58"/>
<feColorMatrix in="SourceAlpha" type="matrix" values="0 0 0 0 0 0 0 0 0 0 0 0 0 0 0 0 0 0 127 0" result="hardAlpha"/>
<feOffset dy="4"/>
<feGaussianBlur stdDeviation="2"/>
<feComposite in2="hardAlpha" operator="out"/>
<feColorMatrix type="matrix" values="0 0 0 0 0 0 0 0 0 0 0 0 0 0 0 0 0 0 0.25 0"/>
<feBlend mode="normal" in2="effect1_backgroundBlur_2561_58" result="effect2_dropShadow_2561_58"/>
<feBlend mode="normal" in="SourceGraphic" in2="effect2_dropShadow_2561_58" result="shape"/>
</filter>
<clipPath id="clip0_2561_58">
<rect width="281" height="158" fill="white"/>
</clipPath>
</defs>
</svg>
