<svg width="281" height="158" viewBox="0 0 281 158" fill="none" xmlns="http://www.w3.org/2000/svg">
<g clip-path="url(#clip0_2561_60)">
<rect width="281" height="158" fill="#285A54"/>
<path d="M70.5 -16C56.2095 33.4738 31.5433 42.3751 -14 56.5" stroke="#052E29" stroke-width="2"/>
<path d="M-4 139C38.1337 82.4381 104.259 68.3388 130.111 28.6694C155.964 -11 243.104 -5.26064 296 -11" stroke="#052E29" stroke-width="2"/>
<circle cx="13" cy="50" r="6" fill="#0C8C7D"/>
<circle cx="47" cy="20" r="6" fill="#0C8C7D"/>
<circle cx="20" cy="118" r="6" fill="#0C8C7D"/>
<circle cx="42" cy="89" r="6" fill="#0C8C7D"/>
<circle cx="75" cy="67" r="6" fill="#0C8C7D"/>
<circle cx="123" cy="46" r="6" fill="#0C8C7D"/>
<circle cx="139" cy="11" r="6" fill="#0C8C7D"/>
<g filter="url(#filter0_bd_2561_60)">
<mask id="path-10-outside-1_2561_60" maskUnits="userSpaceOnUse" x="112" y="59" width="58" height="39" fill="black">
<rect fill="white" x="112" y="59" width="58" height="39"/>
<path d="M114.373 97V95.24C117.416 91.83 119.928 88.97 121.908 86.66C123.924 84.35 125.501 82.4067 126.638 80.83C127.811 79.2533 128.673 77.8783 129.223 76.705C129.773 75.5317 130.121 74.395 130.268 73.295C130.414 72.1583 130.488 70.8933 130.488 69.5C130.488 67.5567 130.011 65.9617 129.058 64.715C128.104 63.4683 126.803 62.845 125.153 62.845C121.413 62.845 119.543 64.9167 119.543 69.06V71.59L119.213 72.03H115.968C115.234 72.03 114.684 71.9017 114.318 71.645C113.951 71.3883 113.768 70.7467 113.768 69.72C113.768 68.6933 114.079 67.6667 114.703 66.64C115.363 65.5767 116.371 64.55 117.728 63.56C118.681 62.9 119.598 62.3133 120.478 61.8C121.358 61.2867 122.329 60.8833 123.393 60.59C124.493 60.2967 125.776 60.15 127.243 60.15C129.296 60.15 131.111 60.59 132.688 61.47C134.301 62.35 135.548 63.5233 136.428 64.99C137.344 66.4567 137.803 68.0883 137.803 69.885C137.803 71.0583 137.656 72.14 137.363 73.13C137.106 74.12 136.629 75.1467 135.933 76.21C135.236 77.2733 134.246 78.4833 132.963 79.84C131.716 81.1967 130.121 82.8283 128.178 84.735C126.234 86.605 123.851 88.86 121.028 91.5H134.998L138.023 86.11H138.903L138.353 97H114.373ZM143.86 97V95.24C146.903 91.83 149.415 88.97 151.395 86.66C153.412 84.35 154.988 82.4067 156.125 80.83C157.298 79.2533 158.16 77.8783 158.71 76.705C159.26 75.5317 159.608 74.395 159.755 73.295C159.902 72.1583 159.975 70.8933 159.975 69.5C159.975 67.5567 159.498 65.9617 158.545 64.715C157.592 63.4683 156.29 62.845 154.64 62.845C150.9 62.845 149.03 64.9167 149.03 69.06V71.59L148.7 72.03H145.455C144.722 72.03 144.172 71.9017 143.805 71.645C143.438 71.3883 143.255 70.7467 143.255 69.72C143.255 68.6933 143.567 67.6667 144.19 66.64C144.85 65.5767 145.858 64.55 147.215 63.56C148.168 62.9 149.085 62.3133 149.965 61.8C150.845 61.2867 151.817 60.8833 152.88 60.59C153.98 60.2967 155.263 60.15 156.73 60.15C158.783 60.15 160.598 60.59 162.175 61.47C163.788 62.35 165.035 63.5233 165.915 64.99C166.832 66.4567 167.29 68.0883 167.29 69.885C167.29 71.0583 167.143 72.14 166.85 73.13C166.593 74.12 166.117 75.1467 165.42 76.21C164.723 77.2733 163.733 78.4833 162.45 79.84C161.203 81.1967 159.608 82.8283 157.665 84.735C155.722 86.605 153.338 88.86 150.515 91.5H164.485L167.51 86.11H168.39L167.84 97H143.86Z"/>
</mask>
<path d="M114.373 97V95.24C117.416 91.83 119.928 88.97 121.908 86.66C123.924 84.35 125.501 82.4067 126.638 80.83C127.811 79.2533 128.673 77.8783 129.223 76.705C129.773 75.5317 130.121 74.395 130.268 73.295C130.414 72.1583 130.488 70.8933 130.488 69.5C130.488 67.5567 130.011 65.9617 129.058 64.715C128.104 63.4683 126.803 62.845 125.153 62.845C121.413 62.845 119.543 64.9167 119.543 69.06V71.59L119.213 72.03H115.968C115.234 72.03 114.684 71.9017 114.318 71.645C113.951 71.3883 113.768 70.7467 113.768 69.72C113.768 68.6933 114.079 67.6667 114.703 66.64C115.363 65.5767 116.371 64.55 117.728 63.56C118.681 62.9 119.598 62.3133 120.478 61.8C121.358 61.2867 122.329 60.8833 123.393 60.59C124.493 60.2967 125.776 60.15 127.243 60.15C129.296 60.15 131.111 60.59 132.688 61.47C134.301 62.35 135.548 63.5233 136.428 64.99C137.344 66.4567 137.803 68.0883 137.803 69.885C137.803 71.0583 137.656 72.14 137.363 73.13C137.106 74.12 136.629 75.1467 135.933 76.21C135.236 77.2733 134.246 78.4833 132.963 79.84C131.716 81.1967 130.121 82.8283 128.178 84.735C126.234 86.605 123.851 88.86 121.028 91.5H134.998L138.023 86.11H138.903L138.353 97H114.373ZM143.86 97V95.24C146.903 91.83 149.415 88.97 151.395 86.66C153.412 84.35 154.988 82.4067 156.125 80.83C157.298 79.2533 158.16 77.8783 158.71 76.705C159.26 75.5317 159.608 74.395 159.755 73.295C159.902 72.1583 159.975 70.8933 159.975 69.5C159.975 67.5567 159.498 65.9617 158.545 64.715C157.592 63.4683 156.29 62.845 154.64 62.845C150.9 62.845 149.03 64.9167 149.03 69.06V71.59L148.7 72.03H145.455C144.722 72.03 144.172 71.9017 143.805 71.645C143.438 71.3883 143.255 70.7467 143.255 69.72C143.255 68.6933 143.567 67.6667 144.19 66.64C144.85 65.5767 145.858 64.55 147.215 63.56C148.168 62.9 149.085 62.3133 149.965 61.8C150.845 61.2867 151.817 60.8833 152.88 60.59C153.98 60.2967 155.263 60.15 156.73 60.15C158.783 60.15 160.598 60.59 162.175 61.47C163.788 62.35 165.035 63.5233 165.915 64.99C166.832 66.4567 167.29 68.0883 167.29 69.885C167.29 71.0583 167.143 72.14 166.85 73.13C166.593 74.12 166.117 75.1467 165.42 76.21C164.723 77.2733 163.733 78.4833 162.45 79.84C161.203 81.1967 159.608 82.8283 157.665 84.735C155.722 86.605 153.338 88.86 150.515 91.5H164.485L167.51 86.11H168.39L167.84 97H143.86Z" fill="white"/>
<path d="M114.373 97H113.373V98H114.373V97ZM114.373 95.24L113.627 94.5741L113.373 94.8587V95.24H114.373ZM121.908 86.66L121.154 86.0023L121.148 86.0092L121.908 86.66ZM126.638 80.83L125.835 80.233L125.831 80.2391L125.827 80.2452L126.638 80.83ZM129.223 76.705L130.128 77.1294L129.223 76.705ZM130.268 73.295L131.259 73.4272L131.259 73.423L130.268 73.295ZM129.058 64.715L128.263 65.3224L128.263 65.3225L129.058 64.715ZM119.543 71.59L120.343 72.19L120.543 71.9233V71.59H119.543ZM119.213 72.03V73.03H119.713L120.013 72.63L119.213 72.03ZM114.703 66.64L113.853 66.1126L113.848 66.121L114.703 66.64ZM117.728 63.56L117.158 62.7378L117.148 62.7449L117.138 62.7522L117.728 63.56ZM120.478 61.8L119.974 60.9362H119.974L120.478 61.8ZM123.393 60.59L123.135 59.6237L123.127 59.626L123.393 60.59ZM132.688 61.47L132.2 62.3432L132.209 62.3479L132.688 61.47ZM136.428 64.99L135.57 65.5045L135.575 65.5123L135.58 65.52L136.428 64.99ZM137.363 73.13L136.404 72.8459L136.399 72.8624L136.395 72.879L137.363 73.13ZM135.933 76.21L136.769 76.758L135.933 76.21ZM132.963 79.84L132.236 79.1528L132.231 79.1581L132.226 79.1634L132.963 79.84ZM128.178 84.735L128.871 85.4556L128.878 85.4488L128.178 84.735ZM121.028 91.5L120.345 90.7696L118.494 92.5H121.028V91.5ZM134.998 91.5V92.5H135.583L135.87 91.9894L134.998 91.5ZM138.023 86.11V85.11H137.437L137.151 85.6206L138.023 86.11ZM138.903 86.11L139.901 86.1604L139.954 85.11H138.903V86.11ZM138.353 97V98H139.303L139.351 97.0504L138.353 97ZM115.373 97V95.24H113.373V97H115.373ZM115.119 95.9059C118.165 92.4931 120.681 89.6277 122.667 87.3108L121.148 86.0092C119.174 88.3123 116.667 91.1669 113.627 94.5741L115.119 95.9059ZM122.661 87.3177C124.688 84.996 126.287 83.0267 127.449 81.4148L125.827 80.2452C124.715 81.7867 123.161 83.704 121.154 86.0023L122.661 87.3177ZM127.44 81.427C128.635 79.821 129.539 78.3862 130.128 77.1294L128.317 76.2806C127.806 77.3705 126.987 78.6856 125.835 80.233L127.44 81.427ZM130.128 77.1294C130.714 75.8788 131.097 74.6437 131.259 73.4272L129.276 73.1628C129.145 74.1463 128.831 75.1846 128.317 76.2806L130.128 77.1294ZM131.259 73.423C131.413 72.236 131.488 70.9274 131.488 69.5H129.488C129.488 70.8593 129.416 72.0807 129.276 73.167L131.259 73.423ZM131.488 69.5C131.488 67.3905 130.968 65.5668 129.852 64.1075L128.263 65.3225C129.054 66.3566 129.488 67.7228 129.488 69.5H131.488ZM129.852 64.1075C128.698 62.599 127.096 61.845 125.153 61.845V63.845C126.51 63.845 127.51 64.3376 128.263 65.3224L129.852 64.1075ZM125.153 61.845C123.101 61.845 121.386 62.418 120.203 63.7287C119.037 65.0199 118.543 66.858 118.543 69.06H120.543C120.543 67.1186 120.983 65.8493 121.688 65.0688C122.374 64.3078 123.465 63.845 125.153 63.845V61.845ZM118.543 69.06V71.59H120.543V69.06H118.543ZM118.743 70.99L118.413 71.43L120.013 72.63L120.343 72.19L118.743 70.99ZM119.213 71.03H115.968V73.03H119.213V71.03ZM115.968 71.03C115.32 71.03 115.013 70.9112 114.891 70.8258L113.744 72.4642C114.356 72.8922 115.148 73.03 115.968 73.03V71.03ZM114.891 70.8258C114.969 70.8801 114.925 70.9009 114.867 70.6965C114.81 70.4994 114.768 70.1846 114.768 69.72H112.768C112.768 70.282 112.817 70.8014 112.944 71.246C113.069 71.6832 113.3 72.1533 113.744 72.4642L114.891 70.8258ZM114.768 69.72C114.768 68.9055 115.013 68.0561 115.557 67.159L113.848 66.121C113.146 67.2772 112.768 68.4812 112.768 69.72H114.768ZM115.552 67.1674C116.126 66.2438 117.031 65.3064 118.317 64.3678L117.138 62.7522C115.711 63.7936 114.6 64.9095 113.853 66.1126L115.552 67.1674ZM118.297 64.3822C119.232 63.7349 120.127 63.1625 120.982 62.6638L119.974 60.9362C119.069 61.4642 118.13 62.0651 117.158 62.7378L118.297 64.3822ZM120.982 62.6638C121.781 62.1974 122.672 61.8262 123.659 61.554L123.127 59.626C121.987 59.9404 120.934 60.3759 119.974 60.9362L120.982 62.6638ZM123.65 61.5562C124.646 61.2907 125.839 61.15 127.243 61.15V59.15C125.713 59.15 124.339 59.3027 123.135 59.6238L123.65 61.5562ZM127.243 61.15C129.149 61.15 130.792 61.5572 132.2 62.3432L133.175 60.5968C131.43 59.6228 129.443 59.15 127.243 59.15V61.15ZM132.209 62.3479C133.678 63.1492 134.789 64.2019 135.57 65.5045L137.285 64.4755C136.307 62.8448 134.924 61.5508 133.167 60.5921L132.209 62.3479ZM135.58 65.52C136.393 66.8214 136.803 68.2681 136.803 69.885H138.803C138.803 67.9086 138.296 66.092 137.276 64.46L135.58 65.52ZM136.803 69.885C136.803 70.975 136.666 71.9597 136.404 72.8459L138.321 73.4141C138.646 72.3203 138.803 71.1416 138.803 69.885H136.803ZM136.395 72.879C136.171 73.7414 135.747 74.6686 135.096 75.662L136.769 76.758C137.512 75.6247 138.041 74.4986 138.331 73.381L136.395 72.879ZM135.096 75.662C134.443 76.6586 133.496 77.8212 132.236 79.1528L133.689 80.5272C134.996 79.1455 136.029 77.8881 136.769 76.758L135.096 75.662ZM132.226 79.1634C130.995 80.5029 129.414 82.1215 127.477 84.0212L128.878 85.4488C130.828 83.5352 132.437 81.8904 133.699 80.5166L132.226 79.1634ZM127.484 84.0144C125.546 85.88 123.166 88.1316 120.345 90.7696L121.711 92.2304C124.536 89.5884 126.923 87.33 128.871 85.4556L127.484 84.0144ZM121.028 92.5H134.998V90.5H121.028V92.5ZM135.87 91.9894L138.895 86.5994L137.151 85.6206L134.126 91.0106L135.87 91.9894ZM138.023 87.11H138.903V85.11H138.023V87.11ZM137.904 86.0596L137.354 96.9496L139.351 97.0504L139.901 86.1604L137.904 86.0596ZM138.353 96H114.373V98H138.353V96ZM143.86 97H142.86V98H143.86V97ZM143.86 95.24L143.114 94.5741L142.86 94.8587V95.24H143.86ZM151.395 86.66L150.642 86.0023L150.636 86.0092L151.395 86.66ZM156.125 80.83L155.323 80.233L155.318 80.2391L155.314 80.2452L156.125 80.83ZM158.71 76.705L159.615 77.1294L158.71 76.705ZM159.755 73.295L160.746 73.4272L160.747 73.423L159.755 73.295ZM158.545 64.715L157.751 65.3224L157.751 65.3225L158.545 64.715ZM149.03 71.59L149.83 72.19L150.03 71.9233V71.59H149.03ZM148.7 72.03V73.03H149.2L149.5 72.63L148.7 72.03ZM144.19 66.64L143.34 66.1126L143.335 66.121L144.19 66.64ZM147.215 63.56L146.646 62.7378L146.636 62.7449L146.626 62.7522L147.215 63.56ZM149.965 61.8L149.461 60.9362L149.965 61.8ZM152.88 60.59L152.622 59.6237L152.614 59.626L152.88 60.59ZM162.175 61.47L161.688 62.3432L161.696 62.3479L162.175 61.47ZM165.915 64.99L165.058 65.5045L165.062 65.5123L165.067 65.52L165.915 64.99ZM166.85 73.13L165.891 72.8459L165.886 72.8624L165.882 72.879L166.85 73.13ZM165.42 76.21L166.256 76.758L165.42 76.21ZM162.45 79.84L161.724 79.1528L161.719 79.1581L161.714 79.1634L162.45 79.84ZM157.665 84.735L158.358 85.4556L158.365 85.4488L157.665 84.735ZM150.515 91.5L149.832 90.7696L147.981 92.5H150.515V91.5ZM164.485 91.5V92.5H165.07L165.357 91.9894L164.485 91.5ZM167.51 86.11V85.11H166.924L166.638 85.6206L167.51 86.11ZM168.39 86.11L169.389 86.1604L169.442 85.11H168.39V86.11ZM167.84 97V98H168.791L168.839 97.0504L167.84 97ZM144.86 97V95.24H142.86V97H144.86ZM144.606 95.9059C147.652 92.4931 150.168 89.6277 152.154 87.3108L150.636 86.0092C148.662 88.3123 146.155 91.1669 143.114 94.5741L144.606 95.9059ZM152.148 87.3177C154.175 84.996 155.774 83.0267 156.936 81.4148L155.314 80.2452C154.203 81.7867 152.648 83.704 150.642 86.0023L152.148 87.3177ZM156.927 81.427C158.122 79.821 159.026 78.3862 159.615 77.1294L157.805 76.2806C157.294 77.3705 156.474 78.6856 155.323 80.233L156.927 81.427ZM159.615 77.1294C160.202 75.8788 160.584 74.6437 160.746 73.4272L158.764 73.1628C158.633 74.1463 158.318 75.1846 157.805 76.2806L159.615 77.1294ZM160.747 73.423C160.9 72.236 160.975 70.9274 160.975 69.5H158.975C158.975 70.8593 158.903 72.0807 158.763 73.167L160.747 73.423ZM160.975 69.5C160.975 67.3905 160.455 65.5668 159.339 64.1075L157.751 65.3225C158.541 66.3566 158.975 67.7228 158.975 69.5H160.975ZM159.339 64.1075C158.186 62.599 156.583 61.845 154.64 61.845V63.845C155.997 63.845 156.998 64.3376 157.751 65.3224L159.339 64.1075ZM154.64 61.845C152.588 61.845 150.873 62.418 149.69 63.7287C148.525 65.0199 148.03 66.858 148.03 69.06H150.03C150.03 67.1186 150.47 65.8493 151.175 65.0688C151.862 64.3078 152.952 63.845 154.64 63.845V61.845ZM148.03 69.06V71.59H150.03V69.06H148.03ZM148.23 70.99L147.9 71.43L149.5 72.63L149.83 72.19L148.23 70.99ZM148.7 71.03H145.455V73.03H148.7V71.03ZM145.455 71.03C144.808 71.03 144.5 70.9112 144.378 70.8258L143.232 72.4642C143.843 72.8922 144.636 73.03 145.455 73.03V71.03ZM144.378 70.8258C144.456 70.8801 144.412 70.9009 144.354 70.6965C144.298 70.4994 144.255 70.1846 144.255 69.72H142.255C142.255 70.282 142.304 70.8014 142.431 71.246C142.556 71.6832 142.787 72.1533 143.232 72.4642L144.378 70.8258ZM144.255 69.72C144.255 68.9055 144.5 68.0561 145.045 67.159L143.335 66.121C142.633 67.2772 142.255 68.4812 142.255 69.72H144.255ZM145.04 67.1674C145.613 66.2438 146.518 65.3064 147.804 64.3678L146.626 62.7522C145.198 63.7936 144.087 64.9095 143.34 66.1126L145.04 67.1674ZM147.784 64.3822C148.719 63.7349 149.614 63.1625 150.469 62.6638L149.461 60.9362C148.556 61.4642 147.618 62.0651 146.646 62.7378L147.784 64.3822ZM150.469 62.6638C151.268 62.1974 152.159 61.8262 153.146 61.554L152.614 59.626C151.474 59.9404 150.422 60.3759 149.461 60.9362L150.469 62.6638ZM153.138 61.5562C154.134 61.2907 155.327 61.15 156.73 61.15V59.15C155.2 59.15 153.826 59.3027 152.622 59.6238L153.138 61.5562ZM156.73 61.15C158.636 61.15 160.279 61.5572 161.688 62.3432L162.662 60.5968C160.917 59.6228 158.93 59.15 156.73 59.15V61.15ZM161.696 62.3479C163.165 63.1492 164.276 64.2019 165.058 65.5045L166.772 64.4755C165.794 62.8448 164.411 61.5508 162.654 60.5921L161.696 62.3479ZM165.067 65.52C165.88 66.8214 166.29 68.2681 166.29 69.885H168.29C168.29 67.9086 167.783 66.092 166.763 64.46L165.067 65.52ZM166.29 69.885C166.29 70.975 166.154 71.9597 165.891 72.8459L167.809 73.4141C168.133 72.3203 168.29 71.1416 168.29 69.885H166.29ZM165.882 72.879C165.658 73.7414 165.234 74.6686 164.584 75.662L166.256 76.758C166.999 75.6247 167.528 74.4986 167.818 73.381L165.882 72.879ZM164.584 75.662C163.931 76.6586 162.983 77.8212 161.724 79.1528L163.176 80.5272C164.483 79.1455 165.516 77.8881 166.256 76.758L164.584 75.662ZM161.714 79.1634C160.483 80.5029 158.901 82.1215 156.965 84.0212L158.365 85.4488C160.316 83.5352 161.924 81.8904 163.186 80.5166L161.714 79.1634ZM156.972 84.0144C155.033 85.88 152.653 88.1316 149.832 90.7696L151.198 92.2304C154.023 89.5884 156.41 87.33 158.358 85.4556L156.972 84.0144ZM150.515 92.5H164.485V90.5H150.515V92.5ZM165.357 91.9894L168.382 86.5994L166.638 85.6206L163.613 91.0106L165.357 91.9894ZM167.51 87.11H168.39V85.11H167.51V87.11ZM167.391 86.0596L166.841 96.9496L168.839 97.0504L169.389 86.1604L167.391 86.0596ZM167.84 96H143.86V98H167.84V96Z" fill="black" mask="url(#path-10-outside-1_2561_60)"/>
</g>
</g>
<defs>
<filter id="filter0_bd_2561_60" x="109.768" y="56.15" width="62.6223" height="48.85" filterUnits="userSpaceOnUse" color-interpolation-filters="sRGB">
<feFlood flood-opacity="0" result="BackgroundImageFix"/>
<feGaussianBlur in="BackgroundImageFix" stdDeviation="2"/>
<feComposite in2="SourceAlpha" operator="in" result="effect1_backgroundBlur_2561_60"/>
<feColorMatrix in="SourceAlpha" type="matrix" values="0 0 0 0 0 0 0 0 0 0 0 0 0 0 0 0 0 0 127 0" result="hardAlpha"/>
<feOffset dy="4"/>
<feGaussianBlur stdDeviation="2"/>
<feComposite in2="hardAlpha" operator="out"/>
<feColorMatrix type="matrix" values="0 0 0 0 0 0 0 0 0 0 0 0 0 0 0 0 0 0 0.25 0"/>
<feBlend mode="normal" in2="effect1_backgroundBlur_2561_60" result="effect2_dropShadow_2561_60"/>
<feBlend mode="normal" in="SourceGraphic" in2="effect2_dropShadow_2561_60" result="shape"/>
</filter>
<clipPath id="clip0_2561_60">
<rect width="281" height="158" fill="white"/>
</clipPath>
</defs>
</svg>
