<svg width="281" height="158" viewBox="0 0 281 158" fill="none" xmlns="http://www.w3.org/2000/svg">
<g clip-path="url(#clip0_2559_41)">
<rect width="281" height="158" fill="#285A54"/>
<path d="M-7.41492 99.4741L72.5851 169.474" stroke="#052E29" stroke-width="20"/>
<path d="M-9.79517 44.7659L130.795 168.234" stroke="#052E29" stroke-width="20"/>
<path d="M-2.44397 -2.63745L191.444 167.637" stroke="#052E29" stroke-width="20"/>
<path d="M50.8811 -7.86475L252.119 168.865" stroke="#052E29" stroke-width="20"/>
<path d="M108.086 -11.0981L293.914 152.098" stroke="#052E29" stroke-width="20"/>
<path d="M177 -4L257 66" stroke="black" stroke-width="20"/>
<path d="M172.387 -8.44287L291.702 96.3411" stroke="#052E29" stroke-width="20"/>
<path d="M207 -31L289 41" stroke="#052E29" stroke-width="20"/>
<g filter="url(#filter0_bd_2559_41)">
<mask id="path-9-outside-1_2559_41" maskUnits="userSpaceOnUse" x="127" y="59" width="28" height="39" fill="black">
<rect fill="white" x="127" y="59" width="28" height="39"/>
<path d="M129.116 97V95.24C132.16 91.83 134.671 88.97 136.651 86.66C138.668 84.35 140.245 82.4067 141.381 80.83C142.555 79.2533 143.416 77.8783 143.966 76.705C144.516 75.5317 144.865 74.395 145.011 73.295C145.158 72.1583 145.231 70.8933 145.231 69.5C145.231 67.5567 144.755 65.9617 143.801 64.715C142.848 63.4683 141.546 62.845 139.896 62.845C136.156 62.845 134.286 64.9167 134.286 69.06V71.59L133.956 72.03H130.711C129.978 72.03 129.428 71.9017 129.061 71.645C128.695 71.3883 128.511 70.7467 128.511 69.72C128.511 68.6933 128.823 67.6667 129.446 66.64C130.106 65.5767 131.115 64.55 132.471 63.56C133.425 62.9 134.341 62.3133 135.221 61.8C136.101 61.2867 137.073 60.8833 138.136 60.59C139.236 60.2967 140.52 60.15 141.986 60.15C144.04 60.15 145.855 60.59 147.431 61.47C149.045 62.35 150.291 63.5233 151.171 64.99C152.088 66.4567 152.546 68.0883 152.546 69.885C152.546 71.0583 152.4 72.14 152.106 73.13C151.85 74.12 151.373 75.1467 150.676 76.21C149.98 77.2733 148.99 78.4833 147.706 79.84C146.46 81.1967 144.865 82.8283 142.921 84.735C140.978 86.605 138.595 88.86 135.771 91.5H149.741L152.766 86.11H153.646L153.096 97H129.116Z"/>
</mask>
<path d="M129.116 97V95.24C132.16 91.83 134.671 88.97 136.651 86.66C138.668 84.35 140.245 82.4067 141.381 80.83C142.555 79.2533 143.416 77.8783 143.966 76.705C144.516 75.5317 144.865 74.395 145.011 73.295C145.158 72.1583 145.231 70.8933 145.231 69.5C145.231 67.5567 144.755 65.9617 143.801 64.715C142.848 63.4683 141.546 62.845 139.896 62.845C136.156 62.845 134.286 64.9167 134.286 69.06V71.59L133.956 72.03H130.711C129.978 72.03 129.428 71.9017 129.061 71.645C128.695 71.3883 128.511 70.7467 128.511 69.72C128.511 68.6933 128.823 67.6667 129.446 66.64C130.106 65.5767 131.115 64.55 132.471 63.56C133.425 62.9 134.341 62.3133 135.221 61.8C136.101 61.2867 137.073 60.8833 138.136 60.59C139.236 60.2967 140.52 60.15 141.986 60.15C144.04 60.15 145.855 60.59 147.431 61.47C149.045 62.35 150.291 63.5233 151.171 64.99C152.088 66.4567 152.546 68.0883 152.546 69.885C152.546 71.0583 152.4 72.14 152.106 73.13C151.85 74.12 151.373 75.1467 150.676 76.21C149.98 77.2733 148.99 78.4833 147.706 79.84C146.46 81.1967 144.865 82.8283 142.921 84.735C140.978 86.605 138.595 88.86 135.771 91.5H149.741L152.766 86.11H153.646L153.096 97H129.116Z" fill="white"/>
<path d="M129.116 97H128.116V98H129.116V97ZM129.116 95.24L128.37 94.5741L128.116 94.8587V95.24H129.116ZM136.651 86.66L135.898 86.0023L135.892 86.0092L136.651 86.66ZM141.381 80.83L140.579 80.233L140.575 80.2391L140.57 80.2452L141.381 80.83ZM143.966 76.705L144.872 77.1294L143.966 76.705ZM145.011 73.295L146.003 73.4272L146.003 73.423L145.011 73.295ZM143.801 64.715L143.007 65.3224L143.007 65.3225L143.801 64.715ZM134.286 71.59L135.086 72.19L135.286 71.9233V71.59H134.286ZM133.956 72.03V73.03H134.456L134.756 72.63L133.956 72.03ZM129.446 66.64L128.597 66.1126L128.592 66.121L129.446 66.64ZM132.471 63.56L131.902 62.7378L131.892 62.7449L131.882 62.7522L132.471 63.56ZM135.221 61.8L134.717 60.9362L135.221 61.8ZM138.136 60.59L137.879 59.6237L137.87 59.626L138.136 60.59ZM147.431 61.47L146.944 62.3432L146.952 62.3479L147.431 61.47ZM151.171 64.99L150.314 65.5045L150.319 65.5123L150.323 65.52L151.171 64.99ZM152.106 73.13L151.148 72.8459L151.143 72.8624L151.138 72.879L152.106 73.13ZM150.676 76.21L151.513 76.758L150.676 76.21ZM147.706 79.84L146.98 79.1528L146.975 79.1581L146.97 79.1634L147.706 79.84ZM142.921 84.735L143.615 85.4556L143.622 85.4488L142.921 84.735ZM135.771 91.5L135.088 90.7696L133.238 92.5H135.771V91.5ZM149.741 91.5V92.5H150.327L150.613 91.9894L149.741 91.5ZM152.766 86.11V85.11H152.181L151.894 85.6206L152.766 86.11ZM153.646 86.11L154.645 86.1604L154.698 85.11H153.646V86.11ZM153.096 97V98H154.047L154.095 97.0504L153.096 97ZM130.116 97V95.24H128.116V97H130.116ZM129.862 95.9059C132.908 92.4931 135.425 89.6277 137.411 87.3108L135.892 86.0092C133.918 88.3123 131.411 91.1669 128.37 94.5741L129.862 95.9059ZM137.405 87.3177C139.432 84.996 141.03 83.0267 142.193 81.4148L140.57 80.2452C139.459 81.7867 137.904 83.704 135.898 86.0023L137.405 87.3177ZM142.184 81.427C143.379 79.821 144.283 78.3862 144.872 77.1294L143.061 76.2806C142.55 77.3705 141.731 78.6856 140.579 80.233L142.184 81.427ZM144.872 77.1294C145.458 75.8788 145.84 74.6437 146.003 73.4272L144.02 73.1628C143.889 74.1463 143.575 75.1846 143.061 76.2806L144.872 77.1294ZM146.003 73.423C146.156 72.236 146.231 70.9274 146.231 69.5H144.231C144.231 70.8593 144.16 72.0807 144.02 73.167L146.003 73.423ZM146.231 69.5C146.231 67.3905 145.712 65.5668 144.596 64.1075L143.007 65.3225C143.798 66.3566 144.231 67.7228 144.231 69.5H146.231ZM144.596 64.1075C143.442 62.599 141.839 61.845 139.896 61.845V63.845C141.254 63.845 142.254 64.3376 143.007 65.3224L144.596 64.1075ZM139.896 61.845C137.844 61.845 136.13 62.418 134.947 63.7287C133.781 65.0199 133.286 66.858 133.286 69.06H135.286C135.286 67.1186 135.727 65.8493 136.431 65.0688C137.118 64.3078 138.208 63.845 139.896 63.845V61.845ZM133.286 69.06V71.59H135.286V69.06H133.286ZM133.486 70.99L133.156 71.43L134.756 72.63L135.086 72.19L133.486 70.99ZM133.956 71.03H130.711V73.03H133.956V71.03ZM130.711 71.03C130.064 71.03 129.757 70.9112 129.635 70.8258L128.488 72.4642C129.099 72.8922 129.892 73.03 130.711 73.03V71.03ZM129.635 70.8258C129.712 70.8801 129.669 70.9009 129.61 70.6965C129.554 70.4994 129.511 70.1846 129.511 69.72H127.511C127.511 70.282 127.56 70.8014 127.687 71.246C127.812 71.6832 128.044 72.1533 128.488 72.4642L129.635 70.8258ZM129.511 69.72C129.511 68.9055 129.756 68.0561 130.301 67.159L128.592 66.121C127.89 67.2772 127.511 68.4812 127.511 69.72H129.511ZM130.296 67.1674C130.869 66.2438 131.775 65.3064 133.061 64.3678L131.882 62.7522C130.455 63.7936 129.343 64.9095 128.597 66.1126L130.296 67.1674ZM133.041 64.3822C133.975 63.7349 134.87 63.1625 135.725 62.6638L134.717 60.9362C133.812 61.4642 132.874 62.0651 131.902 62.7378L133.041 64.3822ZM135.725 62.6638C136.525 62.1974 137.415 61.8262 138.402 61.554L137.87 59.626C136.731 59.9404 135.678 60.3759 134.717 60.9362L135.725 62.6638ZM138.394 61.5562C139.39 61.2907 140.583 61.15 141.986 61.15V59.15C140.456 59.15 139.083 59.3027 137.879 59.6238L138.394 61.5562ZM141.986 61.15C143.893 61.15 145.536 61.5572 146.944 62.3432L147.919 60.5968C146.174 59.6228 144.187 59.15 141.986 59.15V61.15ZM146.952 62.3479C148.422 63.1492 149.532 64.2019 150.314 65.5045L152.029 64.4755C151.05 62.8448 149.668 61.5508 147.91 60.5921L146.952 62.3479ZM150.323 65.52C151.137 66.8214 151.546 68.2681 151.546 69.885H153.546C153.546 67.9086 153.039 66.092 152.019 64.46L150.323 65.52ZM151.546 69.885C151.546 70.975 151.41 71.9597 151.148 72.8459L153.065 73.4141C153.389 72.3203 153.546 71.1416 153.546 69.885H151.546ZM151.138 72.879C150.915 73.7414 150.491 74.6686 149.84 75.662L151.513 76.758C152.255 75.6247 152.785 74.4986 153.074 73.381L151.138 72.879ZM149.84 75.662C149.187 76.6586 148.24 77.8212 146.98 79.1528L148.433 80.5272C149.74 79.1455 150.772 77.8881 151.513 76.758L149.84 75.662ZM146.97 79.1634C145.739 80.5029 144.157 82.1215 142.221 84.0212L143.622 85.4488C145.572 83.5352 147.18 81.8904 148.443 80.5166L146.97 79.1634ZM142.228 84.0144C140.289 85.88 137.91 88.1316 135.088 90.7696L136.454 92.2304C139.28 89.5884 141.667 87.33 143.615 85.4556L142.228 84.0144ZM135.771 92.5H149.741V90.5H135.771V92.5ZM150.613 91.9894L153.638 86.5994L151.894 85.6206L148.869 91.0106L150.613 91.9894ZM152.766 87.11H153.646V85.11H152.766V87.11ZM152.648 86.0596L152.098 96.9496L154.095 97.0504L154.645 86.1604L152.648 86.0596ZM153.096 96H129.116V98H153.096V96Z" fill="black" mask="url(#path-9-outside-1_2559_41)"/>
</g>
</g>
<defs>
<filter id="filter0_bd_2559_41" x="124.511" y="56.1499" width="33.135" height="48.8501" filterUnits="userSpaceOnUse" color-interpolation-filters="sRGB">
<feFlood flood-opacity="0" result="BackgroundImageFix"/>
<feGaussianBlur in="BackgroundImageFix" stdDeviation="2"/>
<feComposite in2="SourceAlpha" operator="in" result="effect1_backgroundBlur_2559_41"/>
<feColorMatrix in="SourceAlpha" type="matrix" values="0 0 0 0 0 0 0 0 0 0 0 0 0 0 0 0 0 0 127 0" result="hardAlpha"/>
<feOffset dy="4"/>
<feGaussianBlur stdDeviation="2"/>
<feComposite in2="hardAlpha" operator="out"/>
<feColorMatrix type="matrix" values="0 0 0 0 0 0 0 0 0 0 0 0 0 0 0 0 0 0 0.25 0"/>
<feBlend mode="normal" in2="effect1_backgroundBlur_2559_41" result="effect2_dropShadow_2559_41"/>
<feBlend mode="normal" in="SourceGraphic" in2="effect2_dropShadow_2559_41" result="shape"/>
</filter>
<clipPath id="clip0_2559_41">
<rect width="281" height="158" fill="white"/>
</clipPath>
</defs>
</svg>
