<svg width="281" height="158" viewBox="0 0 281 158" fill="none" xmlns="http://www.w3.org/2000/svg">
<rect width="281" height="158" fill="#285A54"/>
<rect x="77" y="46" width="127" height="66" fill="#052E29"/>
<line x1="141.5" y1="46" x2="141.5" y2="112" stroke="#0C8C7D" stroke-width="5"/>
<line x1="77" y1="79.5" x2="204" y2="79.5" stroke="#0C8C7D" stroke-width="5"/>
<g filter="url(#filter0_bd_2561_43)">
<mask id="path-4-outside-1_2561_43" maskUnits="userSpaceOnUse" x="127" y="58" width="29" height="41" fill="black">
<rect fill="white" x="127" y="58" width="29" height="41"/>
<path d="M141.161 97.55C138.558 97.55 136.285 96.9817 134.341 95.845C132.435 94.6717 130.931 93.0583 129.831 91.005C128.768 88.915 128.236 86.5133 128.236 83.8C128.236 79.84 129.135 76.2833 130.931 73.13C132.765 69.9767 135.35 67.3 138.686 65.1C142.06 62.8633 146.075 61.2133 150.731 60.15V61.965C146.368 63.3217 142.921 65.54 140.391 68.62C137.861 71.7 136.285 75.3667 135.661 79.62C136.651 78.3 137.861 77.2733 139.291 76.54C140.758 75.8067 142.426 75.44 144.296 75.44C146.313 75.44 148.036 75.8983 149.466 76.815C150.933 77.7317 152.051 78.9967 152.821 80.61C153.628 82.1867 154.031 83.965 154.031 85.945C154.031 87.925 153.555 89.8133 152.601 91.61C151.648 93.37 150.218 94.8 148.311 95.9C146.405 97 144.021 97.55 141.161 97.55ZM135.386 83.635C135.386 87.4117 135.936 90.2533 137.036 92.16C138.173 94.03 139.621 94.965 141.381 94.965C142.665 94.965 143.728 94.58 144.571 93.81C145.415 93.04 146.038 92.0683 146.441 90.895C146.845 89.685 147.046 88.4933 147.046 87.32C147.046 84.8267 146.551 82.8833 145.561 81.49C144.608 80.0967 143.141 79.4 141.161 79.4C139.951 79.4 138.851 79.6933 137.861 80.28C136.871 80.83 136.046 81.5817 135.386 82.535C135.386 82.9017 135.386 83.2683 135.386 83.635Z"/>
</mask>
<path d="M141.161 97.55C138.558 97.55 136.285 96.9817 134.341 95.845C132.435 94.6717 130.931 93.0583 129.831 91.005C128.768 88.915 128.236 86.5133 128.236 83.8C128.236 79.84 129.135 76.2833 130.931 73.13C132.765 69.9767 135.35 67.3 138.686 65.1C142.06 62.8633 146.075 61.2133 150.731 60.15V61.965C146.368 63.3217 142.921 65.54 140.391 68.62C137.861 71.7 136.285 75.3667 135.661 79.62C136.651 78.3 137.861 77.2733 139.291 76.54C140.758 75.8067 142.426 75.44 144.296 75.44C146.313 75.44 148.036 75.8983 149.466 76.815C150.933 77.7317 152.051 78.9967 152.821 80.61C153.628 82.1867 154.031 83.965 154.031 85.945C154.031 87.925 153.555 89.8133 152.601 91.61C151.648 93.37 150.218 94.8 148.311 95.9C146.405 97 144.021 97.55 141.161 97.55ZM135.386 83.635C135.386 87.4117 135.936 90.2533 137.036 92.16C138.173 94.03 139.621 94.965 141.381 94.965C142.665 94.965 143.728 94.58 144.571 93.81C145.415 93.04 146.038 92.0683 146.441 90.895C146.845 89.685 147.046 88.4933 147.046 87.32C147.046 84.8267 146.551 82.8833 145.561 81.49C144.608 80.0967 143.141 79.4 141.161 79.4C139.951 79.4 138.851 79.6933 137.861 80.28C136.871 80.83 136.046 81.5817 135.386 82.535C135.386 82.9017 135.386 83.2683 135.386 83.635Z" fill="white"/>
<path d="M134.341 95.845L133.817 96.6967L133.827 96.7025L133.836 96.7082L134.341 95.845ZM129.831 91.005L128.94 91.4585L128.945 91.4679L128.95 91.4772L129.831 91.005ZM130.931 73.13L130.067 72.6274L130.062 72.6349L130.931 73.13ZM138.686 65.1L139.237 65.9349L139.239 65.9334L138.686 65.1ZM150.731 60.15H151.731V58.8959L150.509 59.1751L150.731 60.15ZM150.731 61.965L151.028 62.9199L151.731 62.7013V61.965H150.731ZM140.391 68.62L139.619 67.9853L140.391 68.62ZM135.661 79.62L134.672 79.475L136.461 80.22L135.661 79.62ZM139.291 76.54L138.844 75.6455L138.835 75.6502L139.291 76.54ZM149.466 76.815L148.927 77.6569L148.936 77.663L149.466 76.815ZM152.821 80.61L151.919 81.0407L151.925 81.0532L151.931 81.0655L152.821 80.61ZM152.601 91.61L153.481 92.0863L153.485 92.0787L152.601 91.61ZM148.311 95.9L148.811 96.7662H148.811L148.311 95.9ZM137.036 92.16L136.17 92.6597L136.176 92.6696L136.182 92.6794L137.036 92.16ZM146.441 90.895L147.387 91.2201L147.39 91.2112L146.441 90.895ZM145.561 81.49L144.736 82.0547L144.741 82.062L144.746 82.0692L145.561 81.49ZM137.861 80.28L138.347 81.1542L138.359 81.1474L138.371 81.1403L137.861 80.28ZM135.386 82.535L134.564 81.9658L134.386 82.2226V82.535H135.386ZM141.161 96.55C138.707 96.55 136.614 96.0157 134.846 94.9818L133.836 96.7082C135.956 97.9477 138.409 98.55 141.161 98.55V96.55ZM134.865 94.9933C133.116 93.9165 131.733 92.4368 130.713 90.5328L128.95 91.4772C130.13 93.6798 131.754 95.4268 133.817 96.6967L134.865 94.9933ZM130.723 90.5515C129.741 88.6226 129.236 86.3805 129.236 83.8H127.236C127.236 86.6461 127.795 89.2074 128.94 91.4585L130.723 90.5515ZM129.236 83.8C129.236 79.9973 130.097 76.614 131.8 73.625L130.062 72.6349C128.172 75.9527 127.236 79.6827 127.236 83.8H129.236ZM131.796 73.6326C133.544 70.6252 136.017 68.0581 139.237 65.9349L138.136 64.2651C134.683 66.5419 131.985 69.3281 130.067 72.6274L131.796 73.6326ZM139.239 65.9334C142.495 63.7743 146.394 62.1661 150.954 61.1249L150.509 59.1751C145.755 60.2605 141.624 61.9524 138.134 64.2666L139.239 65.9334ZM149.731 60.15V61.965H151.731V60.15H149.731ZM150.434 61.0101C145.913 62.416 142.29 64.7332 139.619 67.9853L141.164 69.2547C143.553 66.3468 146.823 64.2273 151.028 62.9199L150.434 61.0101ZM139.619 67.9853C136.964 71.2168 135.319 75.0564 134.672 79.475L136.651 79.765C137.25 75.6769 138.759 72.1832 141.164 69.2547L139.619 67.9853ZM136.461 80.22C137.363 79.0181 138.456 78.092 139.748 77.4298L138.835 75.6502C137.266 76.4547 135.94 77.5819 134.861 79.02L136.461 80.22ZM139.739 77.4344C141.048 76.7797 142.56 76.44 144.296 76.44V74.44C142.293 74.44 140.468 74.8336 138.844 75.6456L139.739 77.4344ZM144.296 76.44C146.158 76.44 147.686 76.8615 148.927 77.6569L150.006 75.9731C148.387 74.9352 146.468 74.44 144.296 74.44V76.44ZM148.936 77.663C150.236 78.4753 151.228 79.593 151.919 81.0407L153.724 80.1793C152.875 78.4003 151.63 76.988 149.996 75.967L148.936 77.663ZM151.931 81.0655C152.657 82.4852 153.031 84.1045 153.031 85.945H155.031C155.031 83.8255 154.599 81.8881 153.712 80.1545L151.931 81.0655ZM153.031 85.945C153.031 87.757 152.597 89.4849 151.718 91.1413L153.485 92.0787C154.512 90.1418 155.031 88.093 155.031 85.945H153.031ZM151.722 91.1337C150.865 92.7152 149.575 94.0167 147.812 95.0338L148.811 96.7662C150.861 95.5833 152.431 94.0248 153.481 92.0863L151.722 91.1337ZM147.812 95.0338C146.096 96.0237 143.897 96.55 141.161 96.55V98.55C144.146 98.55 146.714 97.9763 148.811 96.7662L147.812 95.0338ZM134.386 83.635C134.386 87.4771 134.94 90.528 136.17 92.6597L137.903 91.6603C136.932 89.9787 136.386 87.3462 136.386 83.635H134.386ZM136.182 92.6794C137.449 94.7639 139.184 95.965 141.381 95.965V93.965C140.059 93.965 138.897 93.2961 137.891 91.6406L136.182 92.6794ZM141.381 95.965C142.881 95.965 144.195 95.5079 145.246 94.5485L143.897 93.0715C143.261 93.6521 142.448 93.965 141.381 93.965V95.965ZM145.246 94.5485C146.223 93.656 146.934 92.5377 147.387 91.2201L145.496 90.5699C145.142 91.5989 144.606 92.424 143.897 93.0715L145.246 94.5485ZM147.39 91.2112C147.824 89.9081 148.046 88.6098 148.046 87.32H146.046C146.046 88.3769 145.865 89.4619 145.493 90.5788L147.39 91.2112ZM148.046 87.32C148.046 84.71 147.53 82.5348 146.377 80.9108L144.746 82.0692C145.572 83.2318 146.046 84.9433 146.046 87.32H148.046ZM146.387 80.9253C145.213 79.2095 143.406 78.4 141.161 78.4V80.4C142.877 80.4 144.003 80.9838 144.736 82.0547L146.387 80.9253ZM141.161 78.4C139.782 78.4 138.504 78.7368 137.352 79.4197L138.371 81.1403C139.199 80.6499 140.121 80.4 141.161 80.4V78.4ZM137.376 79.4058C136.248 80.0322 135.309 80.8895 134.564 81.9658L136.209 83.1042C136.783 82.2739 137.494 81.6278 138.347 81.1542L137.376 79.4058ZM134.386 82.535C134.386 82.5357 134.386 82.5364 134.386 82.5371C134.386 82.5379 134.386 82.5386 134.386 82.5393C134.386 82.54 134.386 82.5407 134.386 82.5414C134.386 82.5422 134.386 82.5429 134.386 82.5436C134.386 82.5443 134.386 82.545 134.386 82.5457C134.386 82.5465 134.386 82.5472 134.386 82.5479C134.386 82.5486 134.386 82.5493 134.386 82.55C134.386 82.5508 134.386 82.5515 134.386 82.5522C134.386 82.5529 134.386 82.5536 134.386 82.5543C134.386 82.555 134.386 82.5558 134.386 82.5565C134.386 82.5572 134.386 82.5579 134.386 82.5586C134.386 82.5593 134.386 82.5601 134.386 82.5608C134.386 82.5615 134.386 82.5622 134.386 82.5629C134.386 82.5636 134.386 82.5644 134.386 82.5651C134.386 82.5658 134.386 82.5665 134.386 82.5672C134.386 82.5679 134.386 82.5687 134.386 82.5694C134.386 82.5701 134.386 82.5708 134.386 82.5715C134.386 82.5722 134.386 82.573 134.386 82.5737C134.386 82.5744 134.386 82.5751 134.386 82.5758C134.386 82.5765 134.386 82.5773 134.386 82.578C134.386 82.5787 134.386 82.5794 134.386 82.5801C134.386 82.5808 134.386 82.5816 134.386 82.5823C134.386 82.583 134.386 82.5837 134.386 82.5844C134.386 82.5851 134.386 82.5858 134.386 82.5866C134.386 82.5873 134.386 82.588 134.386 82.5887C134.386 82.5894 134.386 82.5901 134.386 82.5909C134.386 82.5916 134.386 82.5923 134.386 82.593C134.386 82.5937 134.386 82.5944 134.386 82.5952C134.386 82.5959 134.386 82.5966 134.386 82.5973C134.386 82.598 134.386 82.5987 134.386 82.5995C134.386 82.6002 134.386 82.6009 134.386 82.6016C134.386 82.6023 134.386 82.603 134.386 82.6037C134.386 82.6045 134.386 82.6052 134.386 82.6059C134.386 82.6066 134.386 82.6073 134.386 82.608C134.386 82.6088 134.386 82.6095 134.386 82.6102C134.386 82.6109 134.386 82.6116 134.386 82.6123C134.386 82.6131 134.386 82.6138 134.386 82.6145C134.386 82.6152 134.386 82.6159 134.386 82.6166C134.386 82.6174 134.386 82.6181 134.386 82.6188C134.386 82.6195 134.386 82.6202 134.386 82.6209C134.386 82.6217 134.386 82.6224 134.386 82.6231C134.386 82.6238 134.386 82.6245 134.386 82.6252C134.386 82.6259 134.386 82.6267 134.386 82.6274C134.386 82.6281 134.386 82.6288 134.386 82.6295C134.386 82.6302 134.386 82.631 134.386 82.6317C134.386 82.6324 134.386 82.6331 134.386 82.6338C134.386 82.6345 134.386 82.6353 134.386 82.636C134.386 82.6367 134.386 82.6374 134.386 82.6381C134.386 82.6388 134.386 82.6396 134.386 82.6403C134.386 82.641 134.386 82.6417 134.386 82.6424C134.386 82.6431 134.386 82.6439 134.386 82.6446C134.386 82.6453 134.386 82.646 134.386 82.6467C134.386 82.6474 134.386 82.6482 134.386 82.6489C134.386 82.6496 134.386 82.6503 134.386 82.651C134.386 82.6517 134.386 82.6524 134.386 82.6532C134.386 82.6539 134.386 82.6546 134.386 82.6553C134.386 82.656 134.386 82.6567 134.386 82.6575C134.386 82.6582 134.386 82.6589 134.386 82.6596C134.386 82.6603 134.386 82.661 134.386 82.6618C134.386 82.6625 134.386 82.6632 134.386 82.6639C134.386 82.6646 134.386 82.6653 134.386 82.6661C134.386 82.6668 134.386 82.6675 134.386 82.6682C134.386 82.6689 134.386 82.6696 134.386 82.6703C134.386 82.6711 134.386 82.6718 134.386 82.6725C134.386 82.6732 134.386 82.6739 134.386 82.6746C134.386 82.6754 134.386 82.6761 134.386 82.6768C134.386 82.6775 134.386 82.6782 134.386 82.6789C134.386 82.6797 134.386 82.6804 134.386 82.6811C134.386 82.6818 134.386 82.6825 134.386 82.6832C134.386 82.684 134.386 82.6847 134.386 82.6854C134.386 82.6861 134.386 82.6868 134.386 82.6875C134.386 82.6883 134.386 82.689 134.386 82.6897C134.386 82.6904 134.386 82.6911 134.386 82.6918C134.386 82.6926 134.386 82.6933 134.386 82.694C134.386 82.6947 134.386 82.6954 134.386 82.6961C134.386 82.6968 134.386 82.6976 134.386 82.6983C134.386 82.699 134.386 82.6997 134.386 82.7004C134.386 82.7011 134.386 82.7019 134.386 82.7026C134.386 82.7033 134.386 82.704 134.386 82.7047C134.386 82.7054 134.386 82.7062 134.386 82.7069C134.386 82.7076 134.386 82.7083 134.386 82.709C134.386 82.7097 134.386 82.7105 134.386 82.7112C134.386 82.7119 134.386 82.7126 134.386 82.7133C134.386 82.714 134.386 82.7148 134.386 82.7155C134.386 82.7162 134.386 82.7169 134.386 82.7176C134.386 82.7183 134.386 82.719 134.386 82.7198C134.386 82.7205 134.386 82.7212 134.386 82.7219C134.386 82.7226 134.386 82.7233 134.386 82.7241C134.386 82.7248 134.386 82.7255 134.386 82.7262C134.386 82.7269 134.386 82.7276 134.386 82.7284C134.386 82.7291 134.386 82.7298 134.386 82.7305C134.386 82.7312 134.386 82.7319 134.386 82.7327C134.386 82.7334 134.386 82.7341 134.386 82.7348C134.386 82.7355 134.386 82.7362 134.386 82.737C134.386 82.7377 134.386 82.7384 134.386 82.7391C134.386 82.7398 134.386 82.7405 134.386 82.7412C134.386 82.742 134.386 82.7427 134.386 82.7434C134.386 82.7441 134.386 82.7448 134.386 82.7455C134.386 82.7463 134.386 82.747 134.386 82.7477C134.386 82.7484 134.386 82.7491 134.386 82.7498C134.386 82.7506 134.386 82.7513 134.386 82.752C134.386 82.7527 134.386 82.7534 134.386 82.7541C134.386 82.7549 134.386 82.7556 134.386 82.7563C134.386 82.757 134.386 82.7577 134.386 82.7584C134.386 82.7592 134.386 82.7599 134.386 82.7606C134.386 82.7613 134.386 82.762 134.386 82.7627C134.386 82.7635 134.386 82.7642 134.386 82.7649C134.386 82.7656 134.386 82.7663 134.386 82.767C134.386 82.7677 134.386 82.7685 134.386 82.7692C134.386 82.7699 134.386 82.7706 134.386 82.7713C134.386 82.772 134.386 82.7728 134.386 82.7735C134.386 82.7742 134.386 82.7749 134.386 82.7756C134.386 82.7763 134.386 82.7771 134.386 82.7778C134.386 82.7785 134.386 82.7792 134.386 82.7799C134.386 82.7806 134.386 82.7814 134.386 82.7821C134.386 82.7828 134.386 82.7835 134.386 82.7842C134.386 82.7849 134.386 82.7856 134.386 82.7864C134.386 82.7871 134.386 82.7878 134.386 82.7885C134.386 82.7892 134.386 82.7899 134.386 82.7907C134.386 82.7914 134.386 82.7921 134.386 82.7928C134.386 82.7935 134.386 82.7942 134.386 82.795C134.386 82.7957 134.386 82.7964 134.386 82.7971C134.386 82.7978 134.386 82.7985 134.386 82.7993C134.386 82.8 134.386 82.8007 134.386 82.8014C134.386 82.8021 134.386 82.8028 134.386 82.8036C134.386 82.8043 134.386 82.805 134.386 82.8057C134.386 82.8064 134.386 82.8071 134.386 82.8078C134.386 82.8086 134.386 82.8093 134.386 82.81C134.386 82.8107 134.386 82.8114 134.386 82.8121C134.386 82.8129 134.386 82.8136 134.386 82.8143C134.386 82.815 134.386 82.8157 134.386 82.8164C134.386 82.8172 134.386 82.8179 134.386 82.8186C134.386 82.8193 134.386 82.82 134.386 82.8207C134.386 82.8215 134.386 82.8222 134.386 82.8229C134.386 82.8236 134.386 82.8243 134.386 82.825C134.386 82.8258 134.386 82.8265 134.386 82.8272C134.386 82.8279 134.386 82.8286 134.386 82.8293C134.386 82.8301 134.386 82.8308 134.386 82.8315C134.386 82.8322 134.386 82.8329 134.386 82.8336C134.386 82.8343 134.386 82.8351 134.386 82.8358C134.386 82.8365 134.386 82.8372 134.386 82.8379C134.386 82.8386 134.386 82.8394 134.386 82.8401C134.386 82.8408 134.386 82.8415 134.386 82.8422C134.386 82.8429 134.386 82.8437 134.386 82.8444C134.386 82.8451 134.386 82.8458 134.386 82.8465C134.386 82.8472 134.386 82.848 134.386 82.8487C134.386 82.8494 134.386 82.8501 134.386 82.8508C134.386 82.8515 134.386 82.8523 134.386 82.853C134.386 82.8537 134.386 82.8544 134.386 82.8551C134.386 82.8558 134.386 82.8565 134.386 82.8573C134.386 82.858 134.386 82.8587 134.386 82.8594C134.386 82.8601 134.386 82.8608 134.386 82.8616C134.386 82.8623 134.386 82.863 134.386 82.8637C134.386 82.8644 134.386 82.8651 134.386 82.8659C134.386 82.8666 134.386 82.8673 134.386 82.868C134.386 82.8687 134.386 82.8694 134.386 82.8702C134.386 82.8709 134.386 82.8716 134.386 82.8723C134.386 82.873 134.386 82.8737 134.386 82.8745C134.386 82.8752 134.386 82.8759 134.386 82.8766C134.386 82.8773 134.386 82.878 134.386 82.8787C134.386 82.8795 134.386 82.8802 134.386 82.8809C134.386 82.8816 134.386 82.8823 134.386 82.883C134.386 82.8838 134.386 82.8845 134.386 82.8852C134.386 82.8859 134.386 82.8866 134.386 82.8873C134.386 82.8881 134.386 82.8888 134.386 82.8895C134.386 82.8902 134.386 82.8909 134.386 82.8916C134.386 82.8924 134.386 82.8931 134.386 82.8938C134.386 82.8945 134.386 82.8952 134.386 82.8959C134.386 82.8967 134.386 82.8974 134.386 82.8981C134.386 82.8988 134.386 82.8995 134.386 82.9002C134.386 82.901 134.386 82.9017 134.386 82.9024C134.386 82.9031 134.386 82.9038 134.386 82.9045C134.386 82.9052 134.386 82.906 134.386 82.9067C134.386 82.9074 134.386 82.9081 134.386 82.9088C134.386 82.9095 134.386 82.9103 134.386 82.911C134.386 82.9117 134.386 82.9124 134.386 82.9131C134.386 82.9138 134.386 82.9146 134.386 82.9153C134.386 82.916 134.386 82.9167 134.386 82.9174C134.386 82.9181 134.386 82.9189 134.386 82.9196C134.386 82.9203 134.386 82.921 134.386 82.9217C134.386 82.9224 134.386 82.9231 134.386 82.9239C134.386 82.9246 134.386 82.9253 134.386 82.926C134.386 82.9267 134.386 82.9274 134.386 82.9282C134.386 82.9289 134.386 82.9296 134.386 82.9303C134.386 82.931 134.386 82.9317 134.386 82.9325C134.386 82.9332 134.386 82.9339 134.386 82.9346C134.386 82.9353 134.386 82.936 134.386 82.9368C134.386 82.9375 134.386 82.9382 134.386 82.9389C134.386 82.9396 134.386 82.9403 134.386 82.9411C134.386 82.9418 134.386 82.9425 134.386 82.9432C134.386 82.9439 134.386 82.9446 134.386 82.9454C134.386 82.9461 134.386 82.9468 134.386 82.9475C134.386 82.9482 134.386 82.9489 134.386 82.9496C134.386 82.9504 134.386 82.9511 134.386 82.9518C134.386 82.9525 134.386 82.9532 134.386 82.9539C134.386 82.9547 134.386 82.9554 134.386 82.9561C134.386 82.9568 134.386 82.9575 134.386 82.9582C134.386 82.959 134.386 82.9597 134.386 82.9604C134.386 82.9611 134.386 82.9618 134.386 82.9625C134.386 82.9633 134.386 82.964 134.386 82.9647C134.386 82.9654 134.386 82.9661 134.386 82.9668C134.386 82.9676 134.386 82.9683 134.386 82.969C134.386 82.9697 134.386 82.9704 134.386 82.9711C134.386 82.9718 134.386 82.9726 134.386 82.9733C134.386 82.974 134.386 82.9747 134.386 82.9754C134.386 82.9761 134.386 82.9769 134.386 82.9776C134.386 82.9783 134.386 82.979 134.386 82.9797C134.386 82.9804 134.386 82.9812 134.386 82.9819C134.386 82.9826 134.386 82.9833 134.386 82.984C134.386 82.9847 134.386 82.9855 134.386 82.9862C134.386 82.9869 134.386 82.9876 134.386 82.9883C134.386 82.989 134.386 82.9897 134.386 82.9905C134.386 82.9912 134.386 82.9919 134.386 82.9926C134.386 82.9933 134.386 82.994 134.386 82.9948C134.386 82.9955 134.386 82.9962 134.386 82.9969C134.386 82.9976 134.386 82.9983 134.386 82.9991C134.386 82.9998 134.386 83.0005 134.386 83.0012C134.386 83.0019 134.386 83.0026 134.386 83.0034C134.386 83.0041 134.386 83.0048 134.386 83.0055C134.386 83.0062 134.386 83.0069 134.386 83.0077C134.386 83.0084 134.386 83.0091 134.386 83.0098C134.386 83.0105 134.386 83.0112 134.386 83.012C134.386 83.0127 134.386 83.0134 134.386 83.0141C134.386 83.0148 134.386 83.0155 134.386 83.0163C134.386 83.017 134.386 83.0177 134.386 83.0184C134.386 83.0191 134.386 83.0198 134.386 83.0205C134.386 83.0213 134.386 83.022 134.386 83.0227C134.386 83.0234 134.386 83.0241 134.386 83.0248C134.386 83.0256 134.386 83.0263 134.386 83.027C134.386 83.0277 134.386 83.0284 134.386 83.0291C134.386 83.0299 134.386 83.0306 134.386 83.0313C134.386 83.032 134.386 83.0327 134.386 83.0334C134.386 83.0342 134.386 83.0349 134.386 83.0356C134.386 83.0363 134.386 83.037 134.386 83.0377C134.386 83.0384 134.386 83.0392 134.386 83.0399C134.386 83.0406 134.386 83.0413 134.386 83.042C134.386 83.0427 134.386 83.0435 134.386 83.0442C134.386 83.0449 134.386 83.0456 134.386 83.0463C134.386 83.047 134.386 83.0478 134.386 83.0485C134.386 83.0492 134.386 83.0499 134.386 83.0506C134.386 83.0513 134.386 83.0521 134.386 83.0528C134.386 83.0535 134.386 83.0542 134.386 83.0549C134.386 83.0556 134.386 83.0564 134.386 83.0571C134.386 83.0578 134.386 83.0585 134.386 83.0592C134.386 83.0599 134.386 83.0606 134.386 83.0614C134.386 83.0621 134.386 83.0628 134.386 83.0635C134.386 83.0642 134.386 83.0649 134.386 83.0657C134.386 83.0664 134.386 83.0671 134.386 83.0678C134.386 83.0685 134.386 83.0692 134.386 83.07C134.386 83.0707 134.386 83.0714 134.386 83.0721C134.386 83.0728 134.386 83.0735 134.386 83.0743C134.386 83.075 134.386 83.0757 134.386 83.0764C134.386 83.0771 134.386 83.0778 134.386 83.0786C134.386 83.0793 134.386 83.08 134.386 83.0807C134.386 83.0814 134.386 83.0821 134.386 83.0829C134.386 83.0836 134.386 83.0843 134.386 83.085C134.386 83.0857 134.386 83.0864 134.386 83.0871C134.386 83.0879 134.386 83.0886 134.386 83.0893C134.386 83.09 134.386 83.0907 134.386 83.0914C134.386 83.0922 134.386 83.0929 134.386 83.0936C134.386 83.0943 134.386 83.095 134.386 83.0957C134.386 83.0965 134.386 83.0972 134.386 83.0979C134.386 83.0986 134.386 83.0993 134.386 83.1C134.386 83.1008 134.386 83.1015 134.386 83.1022C134.386 83.1029 134.386 83.1036 134.386 83.1043C134.386 83.1051 134.386 83.1058 134.386 83.1065C134.386 83.1072 134.386 83.1079 134.386 83.1086C134.386 83.1093 134.386 83.1101 134.386 83.1108C134.386 83.1115 134.386 83.1122 134.386 83.1129C134.386 83.1136 134.386 83.1144 134.386 83.1151C134.386 83.1158 134.386 83.1165 134.386 83.1172C134.386 83.1179 134.386 83.1187 134.386 83.1194C134.386 83.1201 134.386 83.1208 134.386 83.1215C134.386 83.1222 134.386 83.123 134.386 83.1237C134.386 83.1244 134.386 83.1251 134.386 83.1258C134.386 83.1265 134.386 83.1273 134.386 83.128C134.386 83.1287 134.386 83.1294 134.386 83.1301C134.386 83.1308 134.386 83.1315 134.386 83.1323C134.386 83.133 134.386 83.1337 134.386 83.1344C134.386 83.1351 134.386 83.1358 134.386 83.1366C134.386 83.1373 134.386 83.138 134.386 83.1387C134.386 83.1394 134.386 83.1401 134.386 83.1409C134.386 83.1416 134.386 83.1423 134.386 83.143C134.386 83.1437 134.386 83.1444 134.386 83.1452C134.386 83.1459 134.386 83.1466 134.386 83.1473C134.386 83.148 134.386 83.1487 134.386 83.1495C134.386 83.1502 134.386 83.1509 134.386 83.1516C134.386 83.1523 134.386 83.153 134.386 83.1537C134.386 83.1545 134.386 83.1552 134.386 83.1559C134.386 83.1566 134.386 83.1573 134.386 83.158C134.386 83.1588 134.386 83.1595 134.386 83.1602C134.386 83.1609 134.386 83.1616 134.386 83.1623C134.386 83.1631 134.386 83.1638 134.386 83.1645C134.386 83.1652 134.386 83.1659 134.386 83.1666C134.386 83.1674 134.386 83.1681 134.386 83.1688C134.386 83.1695 134.386 83.1702 134.386 83.1709C134.386 83.1717 134.386 83.1724 134.386 83.1731C134.386 83.1738 134.386 83.1745 134.386 83.1752C134.386 83.1759 134.386 83.1767 134.386 83.1774C134.386 83.1781 134.386 83.1788 134.386 83.1795C134.386 83.1802 134.386 83.181 134.386 83.1817C134.386 83.1824 134.386 83.1831 134.386 83.1838C134.386 83.1845 134.386 83.1853 134.386 83.186C134.386 83.1867 134.386 83.1874 134.386 83.1881C134.386 83.1888 134.386 83.1896 134.386 83.1903C134.386 83.191 134.386 83.1917 134.386 83.1924C134.386 83.1931 134.386 83.1939 134.386 83.1946C134.386 83.1953 134.386 83.196 134.386 83.1967C134.386 83.1974 134.386 83.1982 134.386 83.1989C134.386 83.1996 134.386 83.2003 134.386 83.201C134.386 83.2017 134.386 83.2024 134.386 83.2032C134.386 83.2039 134.386 83.2046 134.386 83.2053C134.386 83.206 134.386 83.2067 134.386 83.2075C134.386 83.2082 134.386 83.2089 134.386 83.2096C134.386 83.2103 134.386 83.211 134.386 83.2118C134.386 83.2125 134.386 83.2132 134.386 83.2139C134.386 83.2146 134.386 83.2153 134.386 83.2161C134.386 83.2168 134.386 83.2175 134.386 83.2182C134.386 83.2189 134.386 83.2196 134.386 83.2204C134.386 83.2211 134.386 83.2218 134.386 83.2225C134.386 83.2232 134.386 83.2239 134.386 83.2246C134.386 83.2254 134.386 83.2261 134.386 83.2268C134.386 83.2275 134.386 83.2282 134.386 83.2289C134.386 83.2297 134.386 83.2304 134.386 83.2311C134.386 83.2318 134.386 83.2325 134.386 83.2332C134.386 83.234 134.386 83.2347 134.386 83.2354C134.386 83.2361 134.386 83.2368 134.386 83.2375C134.386 83.2383 134.386 83.239 134.386 83.2397C134.386 83.2404 134.386 83.2411 134.386 83.2418C134.386 83.2425 134.386 83.2433 134.386 83.244C134.386 83.2447 134.386 83.2454 134.386 83.2461C134.386 83.2468 134.386 83.2476 134.386 83.2483C134.386 83.249 134.386 83.2497 134.386 83.2504C134.386 83.2511 134.386 83.2519 134.386 83.2526C134.386 83.2533 134.386 83.254 134.386 83.2547C134.386 83.2554 134.386 83.2562 134.386 83.2569C134.386 83.2576 134.386 83.2583 134.386 83.259C134.386 83.2597 134.386 83.2605 134.386 83.2612C134.386 83.2619 134.386 83.2626 134.386 83.2633C134.386 83.264 134.386 83.2648 134.386 83.2655C134.386 83.2662 134.386 83.2669 134.386 83.2676C134.386 83.2683 134.386 83.269 134.386 83.2698C134.386 83.2705 134.386 83.2712 134.386 83.2719C134.386 83.2726 134.386 83.2733 134.386 83.2741C134.386 83.2748 134.386 83.2755 134.386 83.2762C134.386 83.2769 134.386 83.2776 134.386 83.2784C134.386 83.2791 134.386 83.2798 134.386 83.2805C134.386 83.2812 134.386 83.2819 134.386 83.2827C134.386 83.2834 134.386 83.2841 134.386 83.2848C134.386 83.2855 134.386 83.2862 134.386 83.287C134.386 83.2877 134.386 83.2884 134.386 83.2891C134.386 83.2898 134.386 83.2905 134.386 83.2912C134.386 83.292 134.386 83.2927 134.386 83.2934C134.386 83.2941 134.386 83.2948 134.386 83.2955C134.386 83.2963 134.386 83.297 134.386 83.2977C134.386 83.2984 134.386 83.2991 134.386 83.2998C134.386 83.3006 134.386 83.3013 134.386 83.302C134.386 83.3027 134.386 83.3034 134.386 83.3041C134.386 83.3049 134.386 83.3056 134.386 83.3063C134.386 83.307 134.386 83.3077 134.386 83.3084C134.386 83.3092 134.386 83.3099 134.386 83.3106C134.386 83.3113 134.386 83.312 134.386 83.3127C134.386 83.3134 134.386 83.3142 134.386 83.3149C134.386 83.3156 134.386 83.3163 134.386 83.317C134.386 83.3177 134.386 83.3185 134.386 83.3192C134.386 83.3199 134.386 83.3206 134.386 83.3213C134.386 83.322 134.386 83.3228 134.386 83.3235C134.386 83.3242 134.386 83.3249 134.386 83.3256C134.386 83.3263 134.386 83.3271 134.386 83.3278C134.386 83.3285 134.386 83.3292 134.386 83.3299C134.386 83.3306 134.386 83.3314 134.386 83.3321C134.386 83.3328 134.386 83.3335 134.386 83.3342C134.386 83.3349 134.386 83.3357 134.386 83.3364C134.386 83.3371 134.386 83.3378 134.386 83.3385C134.386 83.3392 134.386 83.3399 134.386 83.3407C134.386 83.3414 134.386 83.3421 134.386 83.3428C134.386 83.3435 134.386 83.3442 134.386 83.345C134.386 83.3457 134.386 83.3464 134.386 83.3471C134.386 83.3478 134.386 83.3485 134.386 83.3493C134.386 83.35 134.386 83.3507 134.386 83.3514C134.386 83.3521 134.386 83.3528 134.386 83.3536C134.386 83.3543 134.386 83.355 134.386 83.3557C134.386 83.3564 134.386 83.3571 134.386 83.3578C134.386 83.3586 134.386 83.3593 134.386 83.36C134.386 83.3607 134.386 83.3614 134.386 83.3621C134.386 83.3629 134.386 83.3636 134.386 83.3643C134.386 83.365 134.386 83.3657 134.386 83.3664C134.386 83.3672 134.386 83.3679 134.386 83.3686C134.386 83.3693 134.386 83.37 134.386 83.3707C134.386 83.3715 134.386 83.3722 134.386 83.3729C134.386 83.3736 134.386 83.3743 134.386 83.375C134.386 83.3758 134.386 83.3765 134.386 83.3772C134.386 83.3779 134.386 83.3786 134.386 83.3793C134.386 83.3801 134.386 83.3808 134.386 83.3815C134.386 83.3822 134.386 83.3829 134.386 83.3836C134.386 83.3843 134.386 83.3851 134.386 83.3858C134.386 83.3865 134.386 83.3872 134.386 83.3879C134.386 83.3886 134.386 83.3894 134.386 83.3901C134.386 83.3908 134.386 83.3915 134.386 83.3922C134.386 83.3929 134.386 83.3937 134.386 83.3944C134.386 83.3951 134.386 83.3958 134.386 83.3965C134.386 83.3972 134.386 83.398 134.386 83.3987C134.386 83.3994 134.386 83.4001 134.386 83.4008C134.386 83.4015 134.386 83.4023 134.386 83.403C134.386 83.4037 134.386 83.4044 134.386 83.4051C134.386 83.4058 134.386 83.4065 134.386 83.4073C134.386 83.408 134.386 83.4087 134.386 83.4094C134.386 83.4101 134.386 83.4108 134.386 83.4116C134.386 83.4123 134.386 83.413 134.386 83.4137C134.386 83.4144 134.386 83.4151 134.386 83.4159C134.386 83.4166 134.386 83.4173 134.386 83.418C134.386 83.4187 134.386 83.4194 134.386 83.4202C134.386 83.4209 134.386 83.4216 134.386 83.4223C134.386 83.423 134.386 83.4237 134.386 83.4245C134.386 83.4252 134.386 83.4259 134.386 83.4266C134.386 83.4273 134.386 83.428 134.386 83.4287C134.386 83.4295 134.386 83.4302 134.386 83.4309C134.386 83.4316 134.386 83.4323 134.386 83.433C134.386 83.4338 134.386 83.4345 134.386 83.4352C134.386 83.4359 134.386 83.4366 134.386 83.4373C134.386 83.4381 134.386 83.4388 134.386 83.4395C134.386 83.4402 134.386 83.4409 134.386 83.4416C134.386 83.4424 134.386 83.4431 134.386 83.4438C134.386 83.4445 134.386 83.4452 134.386 83.4459C134.386 83.4467 134.386 83.4474 134.386 83.4481C134.386 83.4488 134.386 83.4495 134.386 83.4502C134.386 83.451 134.386 83.4517 134.386 83.4524C134.386 83.4531 134.386 83.4538 134.386 83.4545C134.386 83.4552 134.386 83.456 134.386 83.4567C134.386 83.4574 134.386 83.4581 134.386 83.4588C134.386 83.4595 134.386 83.4603 134.386 83.461C134.386 83.4617 134.386 83.4624 134.386 83.4631C134.386 83.4638 134.386 83.4646 134.386 83.4653C134.386 83.466 134.386 83.4667 134.386 83.4674C134.386 83.4681 134.386 83.4689 134.386 83.4696C134.386 83.4703 134.386 83.471 134.386 83.4717C134.386 83.4724 134.386 83.4731 134.386 83.4739C134.386 83.4746 134.386 83.4753 134.386 83.476C134.386 83.4767 134.386 83.4774 134.386 83.4782C134.386 83.4789 134.386 83.4796 134.386 83.4803C134.386 83.481 134.386 83.4817 134.386 83.4825C134.386 83.4832 134.386 83.4839 134.386 83.4846C134.386 83.4853 134.386 83.486 134.386 83.4868C134.386 83.4875 134.386 83.4882 134.386 83.4889C134.386 83.4896 134.386 83.4903 134.386 83.4911C134.386 83.4918 134.386 83.4925 134.386 83.4932C134.386 83.4939 134.386 83.4946 134.386 83.4953C134.386 83.4961 134.386 83.4968 134.386 83.4975C134.386 83.4982 134.386 83.4989 134.386 83.4996C134.386 83.5004 134.386 83.5011 134.386 83.5018C134.386 83.5025 134.386 83.5032 134.386 83.5039C134.386 83.5047 134.386 83.5054 134.386 83.5061C134.386 83.5068 134.386 83.5075 134.386 83.5082C134.386 83.509 134.386 83.5097 134.386 83.5104C134.386 83.5111 134.386 83.5118 134.386 83.5125C134.386 83.5133 134.386 83.514 134.386 83.5147C134.386 83.5154 134.386 83.5161 134.386 83.5168C134.386 83.5176 134.386 83.5183 134.386 83.519C134.386 83.5197 134.386 83.5204 134.386 83.5211C134.386 83.5218 134.386 83.5226 134.386 83.5233C134.386 83.524 134.386 83.5247 134.386 83.5254C134.386 83.5261 134.386 83.5269 134.386 83.5276C134.386 83.5283 134.386 83.529 134.386 83.5297C134.386 83.5304 134.386 83.5312 134.386 83.5319C134.386 83.5326 134.386 83.5333 134.386 83.534C134.386 83.5347 134.386 83.5355 134.386 83.5362C134.386 83.5369 134.386 83.5376 134.386 83.5383C134.386 83.539 134.386 83.5398 134.386 83.5405C134.386 83.5412 134.386 83.5419 134.386 83.5426C134.386 83.5433 134.386 83.544 134.386 83.5448C134.386 83.5455 134.386 83.5462 134.386 83.5469C134.386 83.5476 134.386 83.5483 134.386 83.5491C134.386 83.5498 134.386 83.5505 134.386 83.5512C134.386 83.5519 134.386 83.5526 134.386 83.5534C134.386 83.5541 134.386 83.5548 134.386 83.5555C134.386 83.5562 134.386 83.5569 134.386 83.5577C134.386 83.5584 134.386 83.5591 134.386 83.5598C134.386 83.5605 134.386 83.5612 134.386 83.562C134.386 83.5627 134.386 83.5634 134.386 83.5641C134.386 83.5648 134.386 83.5655 134.386 83.5662C134.386 83.567 134.386 83.5677 134.386 83.5684C134.386 83.5691 134.386 83.5698 134.386 83.5705C134.386 83.5713 134.386 83.572 134.386 83.5727C134.386 83.5734 134.386 83.5741 134.386 83.5748C134.386 83.5756 134.386 83.5763 134.386 83.577C134.386 83.5777 134.386 83.5784 134.386 83.5791C134.386 83.5799 134.386 83.5806 134.386 83.5813C134.386 83.582 134.386 83.5827 134.386 83.5834C134.386 83.5842 134.386 83.5849 134.386 83.5856C134.386 83.5863 134.386 83.587 134.386 83.5877C134.386 83.5885 134.386 83.5892 134.386 83.5899C134.386 83.5906 134.386 83.5913 134.386 83.592C134.386 83.5927 134.386 83.5935 134.386 83.5942C134.386 83.5949 134.386 83.5956 134.386 83.5963C134.386 83.597 134.386 83.5978 134.386 83.5985C134.386 83.5992 134.386 83.5999 134.386 83.6006C134.386 83.6013 134.386 83.6021 134.386 83.6028C134.386 83.6035 134.386 83.6042 134.386 83.6049C134.386 83.6056 134.386 83.6064 134.386 83.6071C134.386 83.6078 134.386 83.6085 134.386 83.6092C134.386 83.6099 134.386 83.6106 134.386 83.6114C134.386 83.6121 134.386 83.6128 134.386 83.6135C134.386 83.6142 134.386 83.6149 134.386 83.6157C134.386 83.6164 134.386 83.6171 134.386 83.6178C134.386 83.6185 134.386 83.6192 134.386 83.62C134.386 83.6207 134.386 83.6214 134.386 83.6221C134.386 83.6228 134.386 83.6235 134.386 83.6243C134.386 83.625 134.386 83.6257 134.386 83.6264C134.386 83.6271 134.386 83.6278 134.386 83.6286C134.386 83.6293 134.386 83.63 134.386 83.6307C134.386 83.6314 134.386 83.6321 134.386 83.6329C134.386 83.6336 134.386 83.6343 134.386 83.635H136.386C136.386 83.6343 136.386 83.6336 136.386 83.6329C136.386 83.6321 136.386 83.6314 136.386 83.6307C136.386 83.63 136.386 83.6293 136.386 83.6286C136.386 83.6278 136.386 83.6271 136.386 83.6264C136.386 83.6257 136.386 83.625 136.386 83.6243C136.386 83.6235 136.386 83.6228 136.386 83.6221C136.386 83.6214 136.386 83.6207 136.386 83.62C136.386 83.6192 136.386 83.6185 136.386 83.6178C136.386 83.6171 136.386 83.6164 136.386 83.6157C136.386 83.6149 136.386 83.6142 136.386 83.6135C136.386 83.6128 136.386 83.6121 136.386 83.6114C136.386 83.6106 136.386 83.6099 136.386 83.6092C136.386 83.6085 136.386 83.6078 136.386 83.6071C136.386 83.6064 136.386 83.6056 136.386 83.6049C136.386 83.6042 136.386 83.6035 136.386 83.6028C136.386 83.6021 136.386 83.6013 136.386 83.6006C136.386 83.5999 136.386 83.5992 136.386 83.5985C136.386 83.5978 136.386 83.597 136.386 83.5963C136.386 83.5956 136.386 83.5949 136.386 83.5942C136.386 83.5935 136.386 83.5927 136.386 83.592C136.386 83.5913 136.386 83.5906 136.386 83.5899C136.386 83.5892 136.386 83.5885 136.386 83.5877C136.386 83.587 136.386 83.5863 136.386 83.5856C136.386 83.5849 136.386 83.5842 136.386 83.5834C136.386 83.5827 136.386 83.582 136.386 83.5813C136.386 83.5806 136.386 83.5799 136.386 83.5791C136.386 83.5784 136.386 83.5777 136.386 83.577C136.386 83.5763 136.386 83.5756 136.386 83.5748C136.386 83.5741 136.386 83.5734 136.386 83.5727C136.386 83.572 136.386 83.5713 136.386 83.5705C136.386 83.5698 136.386 83.5691 136.386 83.5684C136.386 83.5677 136.386 83.567 136.386 83.5662C136.386 83.5655 136.386 83.5648 136.386 83.5641C136.386 83.5634 136.386 83.5627 136.386 83.562C136.386 83.5612 136.386 83.5605 136.386 83.5598C136.386 83.5591 136.386 83.5584 136.386 83.5577C136.386 83.5569 136.386 83.5562 136.386 83.5555C136.386 83.5548 136.386 83.5541 136.386 83.5534C136.386 83.5526 136.386 83.5519 136.386 83.5512C136.386 83.5505 136.386 83.5498 136.386 83.5491C136.386 83.5483 136.386 83.5476 136.386 83.5469C136.386 83.5462 136.386 83.5455 136.386 83.5448C136.386 83.544 136.386 83.5433 136.386 83.5426C136.386 83.5419 136.386 83.5412 136.386 83.5405C136.386 83.5398 136.386 83.539 136.386 83.5383C136.386 83.5376 136.386 83.5369 136.386 83.5362C136.386 83.5355 136.386 83.5347 136.386 83.534C136.386 83.5333 136.386 83.5326 136.386 83.5319C136.386 83.5312 136.386 83.5304 136.386 83.5297C136.386 83.529 136.386 83.5283 136.386 83.5276C136.386 83.5269 136.386 83.5261 136.386 83.5254C136.386 83.5247 136.386 83.524 136.386 83.5233C136.386 83.5226 136.386 83.5218 136.386 83.5211C136.386 83.5204 136.386 83.5197 136.386 83.519C136.386 83.5183 136.386 83.5176 136.386 83.5168C136.386 83.5161 136.386 83.5154 136.386 83.5147C136.386 83.514 136.386 83.5133 136.386 83.5125C136.386 83.5118 136.386 83.5111 136.386 83.5104C136.386 83.5097 136.386 83.509 136.386 83.5082C136.386 83.5075 136.386 83.5068 136.386 83.5061C136.386 83.5054 136.386 83.5047 136.386 83.5039C136.386 83.5032 136.386 83.5025 136.386 83.5018C136.386 83.5011 136.386 83.5004 136.386 83.4996C136.386 83.4989 136.386 83.4982 136.386 83.4975C136.386 83.4968 136.386 83.4961 136.386 83.4953C136.386 83.4946 136.386 83.4939 136.386 83.4932C136.386 83.4925 136.386 83.4918 136.386 83.4911C136.386 83.4903 136.386 83.4896 136.386 83.4889C136.386 83.4882 136.386 83.4875 136.386 83.4868C136.386 83.486 136.386 83.4853 136.386 83.4846C136.386 83.4839 136.386 83.4832 136.386 83.4825C136.386 83.4817 136.386 83.481 136.386 83.4803C136.386 83.4796 136.386 83.4789 136.386 83.4782C136.386 83.4774 136.386 83.4767 136.386 83.476C136.386 83.4753 136.386 83.4746 136.386 83.4739C136.386 83.4731 136.386 83.4724 136.386 83.4717C136.386 83.471 136.386 83.4703 136.386 83.4696C136.386 83.4689 136.386 83.4681 136.386 83.4674C136.386 83.4667 136.386 83.466 136.386 83.4653C136.386 83.4646 136.386 83.4638 136.386 83.4631C136.386 83.4624 136.386 83.4617 136.386 83.461C136.386 83.4603 136.386 83.4595 136.386 83.4588C136.386 83.4581 136.386 83.4574 136.386 83.4567C136.386 83.456 136.386 83.4552 136.386 83.4545C136.386 83.4538 136.386 83.4531 136.386 83.4524C136.386 83.4517 136.386 83.451 136.386 83.4502C136.386 83.4495 136.386 83.4488 136.386 83.4481C136.386 83.4474 136.386 83.4467 136.386 83.4459C136.386 83.4452 136.386 83.4445 136.386 83.4438C136.386 83.4431 136.386 83.4424 136.386 83.4416C136.386 83.4409 136.386 83.4402 136.386 83.4395C136.386 83.4388 136.386 83.4381 136.386 83.4373C136.386 83.4366 136.386 83.4359 136.386 83.4352C136.386 83.4345 136.386 83.4338 136.386 83.433C136.386 83.4323 136.386 83.4316 136.386 83.4309C136.386 83.4302 136.386 83.4295 136.386 83.4287C136.386 83.428 136.386 83.4273 136.386 83.4266C136.386 83.4259 136.386 83.4252 136.386 83.4245C136.386 83.4237 136.386 83.423 136.386 83.4223C136.386 83.4216 136.386 83.4209 136.386 83.4202C136.386 83.4194 136.386 83.4187 136.386 83.418C136.386 83.4173 136.386 83.4166 136.386 83.4159C136.386 83.4151 136.386 83.4144 136.386 83.4137C136.386 83.413 136.386 83.4123 136.386 83.4116C136.386 83.4108 136.386 83.4101 136.386 83.4094C136.386 83.4087 136.386 83.408 136.386 83.4073C136.386 83.4065 136.386 83.4058 136.386 83.4051C136.386 83.4044 136.386 83.4037 136.386 83.403C136.386 83.4023 136.386 83.4015 136.386 83.4008C136.386 83.4001 136.386 83.3994 136.386 83.3987C136.386 83.398 136.386 83.3972 136.386 83.3965C136.386 83.3958 136.386 83.3951 136.386 83.3944C136.386 83.3937 136.386 83.3929 136.386 83.3922C136.386 83.3915 136.386 83.3908 136.386 83.3901C136.386 83.3894 136.386 83.3886 136.386 83.3879C136.386 83.3872 136.386 83.3865 136.386 83.3858C136.386 83.3851 136.386 83.3843 136.386 83.3836C136.386 83.3829 136.386 83.3822 136.386 83.3815C136.386 83.3808 136.386 83.3801 136.386 83.3793C136.386 83.3786 136.386 83.3779 136.386 83.3772C136.386 83.3765 136.386 83.3758 136.386 83.375C136.386 83.3743 136.386 83.3736 136.386 83.3729C136.386 83.3722 136.386 83.3715 136.386 83.3707C136.386 83.37 136.386 83.3693 136.386 83.3686C136.386 83.3679 136.386 83.3672 136.386 83.3664C136.386 83.3657 136.386 83.365 136.386 83.3643C136.386 83.3636 136.386 83.3629 136.386 83.3621C136.386 83.3614 136.386 83.3607 136.386 83.36C136.386 83.3593 136.386 83.3586 136.386 83.3578C136.386 83.3571 136.386 83.3564 136.386 83.3557C136.386 83.355 136.386 83.3543 136.386 83.3536C136.386 83.3528 136.386 83.3521 136.386 83.3514C136.386 83.3507 136.386 83.35 136.386 83.3493C136.386 83.3485 136.386 83.3478 136.386 83.3471C136.386 83.3464 136.386 83.3457 136.386 83.345C136.386 83.3442 136.386 83.3435 136.386 83.3428C136.386 83.3421 136.386 83.3414 136.386 83.3407C136.386 83.3399 136.386 83.3392 136.386 83.3385C136.386 83.3378 136.386 83.3371 136.386 83.3364C136.386 83.3357 136.386 83.3349 136.386 83.3342C136.386 83.3335 136.386 83.3328 136.386 83.3321C136.386 83.3314 136.386 83.3306 136.386 83.3299C136.386 83.3292 136.386 83.3285 136.386 83.3278C136.386 83.3271 136.386 83.3263 136.386 83.3256C136.386 83.3249 136.386 83.3242 136.386 83.3235C136.386 83.3228 136.386 83.322 136.386 83.3213C136.386 83.3206 136.386 83.3199 136.386 83.3192C136.386 83.3185 136.386 83.3177 136.386 83.317C136.386 83.3163 136.386 83.3156 136.386 83.3149C136.386 83.3142 136.386 83.3134 136.386 83.3127C136.386 83.312 136.386 83.3113 136.386 83.3106C136.386 83.3099 136.386 83.3092 136.386 83.3084C136.386 83.3077 136.386 83.307 136.386 83.3063C136.386 83.3056 136.386 83.3049 136.386 83.3041C136.386 83.3034 136.386 83.3027 136.386 83.302C136.386 83.3013 136.386 83.3006 136.386 83.2998C136.386 83.2991 136.386 83.2984 136.386 83.2977C136.386 83.297 136.386 83.2963 136.386 83.2955C136.386 83.2948 136.386 83.2941 136.386 83.2934C136.386 83.2927 136.386 83.292 136.386 83.2912C136.386 83.2905 136.386 83.2898 136.386 83.2891C136.386 83.2884 136.386 83.2877 136.386 83.287C136.386 83.2862 136.386 83.2855 136.386 83.2848C136.386 83.2841 136.386 83.2834 136.386 83.2827C136.386 83.2819 136.386 83.2812 136.386 83.2805C136.386 83.2798 136.386 83.2791 136.386 83.2784C136.386 83.2776 136.386 83.2769 136.386 83.2762C136.386 83.2755 136.386 83.2748 136.386 83.2741C136.386 83.2733 136.386 83.2726 136.386 83.2719C136.386 83.2712 136.386 83.2705 136.386 83.2698C136.386 83.269 136.386 83.2683 136.386 83.2676C136.386 83.2669 136.386 83.2662 136.386 83.2655C136.386 83.2648 136.386 83.264 136.386 83.2633C136.386 83.2626 136.386 83.2619 136.386 83.2612C136.386 83.2605 136.386 83.2597 136.386 83.259C136.386 83.2583 136.386 83.2576 136.386 83.2569C136.386 83.2562 136.386 83.2554 136.386 83.2547C136.386 83.254 136.386 83.2533 136.386 83.2526C136.386 83.2519 136.386 83.2511 136.386 83.2504C136.386 83.2497 136.386 83.249 136.386 83.2483C136.386 83.2476 136.386 83.2468 136.386 83.2461C136.386 83.2454 136.386 83.2447 136.386 83.244C136.386 83.2433 136.386 83.2425 136.386 83.2418C136.386 83.2411 136.386 83.2404 136.386 83.2397C136.386 83.239 136.386 83.2383 136.386 83.2375C136.386 83.2368 136.386 83.2361 136.386 83.2354C136.386 83.2347 136.386 83.234 136.386 83.2332C136.386 83.2325 136.386 83.2318 136.386 83.2311C136.386 83.2304 136.386 83.2297 136.386 83.2289C136.386 83.2282 136.386 83.2275 136.386 83.2268C136.386 83.2261 136.386 83.2254 136.386 83.2246C136.386 83.2239 136.386 83.2232 136.386 83.2225C136.386 83.2218 136.386 83.2211 136.386 83.2204C136.386 83.2196 136.386 83.2189 136.386 83.2182C136.386 83.2175 136.386 83.2168 136.386 83.2161C136.386 83.2153 136.386 83.2146 136.386 83.2139C136.386 83.2132 136.386 83.2125 136.386 83.2118C136.386 83.211 136.386 83.2103 136.386 83.2096C136.386 83.2089 136.386 83.2082 136.386 83.2075C136.386 83.2067 136.386 83.206 136.386 83.2053C136.386 83.2046 136.386 83.2039 136.386 83.2032C136.386 83.2024 136.386 83.2017 136.386 83.201C136.386 83.2003 136.386 83.1996 136.386 83.1989C136.386 83.1982 136.386 83.1974 136.386 83.1967C136.386 83.196 136.386 83.1953 136.386 83.1946C136.386 83.1939 136.386 83.1931 136.386 83.1924C136.386 83.1917 136.386 83.191 136.386 83.1903C136.386 83.1896 136.386 83.1888 136.386 83.1881C136.386 83.1874 136.386 83.1867 136.386 83.186C136.386 83.1853 136.386 83.1845 136.386 83.1838C136.386 83.1831 136.386 83.1824 136.386 83.1817C136.386 83.181 136.386 83.1802 136.386 83.1795C136.386 83.1788 136.386 83.1781 136.386 83.1774C136.386 83.1767 136.386 83.1759 136.386 83.1752C136.386 83.1745 136.386 83.1738 136.386 83.1731C136.386 83.1724 136.386 83.1717 136.386 83.1709C136.386 83.1702 136.386 83.1695 136.386 83.1688C136.386 83.1681 136.386 83.1674 136.386 83.1666C136.386 83.1659 136.386 83.1652 136.386 83.1645C136.386 83.1638 136.386 83.1631 136.386 83.1623C136.386 83.1616 136.386 83.1609 136.386 83.1602C136.386 83.1595 136.386 83.1588 136.386 83.158C136.386 83.1573 136.386 83.1566 136.386 83.1559C136.386 83.1552 136.386 83.1545 136.386 83.1537C136.386 83.153 136.386 83.1523 136.386 83.1516C136.386 83.1509 136.386 83.1502 136.386 83.1495C136.386 83.1487 136.386 83.148 136.386 83.1473C136.386 83.1466 136.386 83.1459 136.386 83.1452C136.386 83.1444 136.386 83.1437 136.386 83.143C136.386 83.1423 136.386 83.1416 136.386 83.1409C136.386 83.1401 136.386 83.1394 136.386 83.1387C136.386 83.138 136.386 83.1373 136.386 83.1366C136.386 83.1358 136.386 83.1351 136.386 83.1344C136.386 83.1337 136.386 83.133 136.386 83.1323C136.386 83.1315 136.386 83.1308 136.386 83.1301C136.386 83.1294 136.386 83.1287 136.386 83.128C136.386 83.1273 136.386 83.1265 136.386 83.1258C136.386 83.1251 136.386 83.1244 136.386 83.1237C136.386 83.123 136.386 83.1222 136.386 83.1215C136.386 83.1208 136.386 83.1201 136.386 83.1194C136.386 83.1187 136.386 83.1179 136.386 83.1172C136.386 83.1165 136.386 83.1158 136.386 83.1151C136.386 83.1144 136.386 83.1136 136.386 83.1129C136.386 83.1122 136.386 83.1115 136.386 83.1108C136.386 83.1101 136.386 83.1093 136.386 83.1086C136.386 83.1079 136.386 83.1072 136.386 83.1065C136.386 83.1058 136.386 83.1051 136.386 83.1043C136.386 83.1036 136.386 83.1029 136.386 83.1022C136.386 83.1015 136.386 83.1008 136.386 83.1C136.386 83.0993 136.386 83.0986 136.386 83.0979C136.386 83.0972 136.386 83.0965 136.386 83.0957C136.386 83.095 136.386 83.0943 136.386 83.0936C136.386 83.0929 136.386 83.0922 136.386 83.0914C136.386 83.0907 136.386 83.09 136.386 83.0893C136.386 83.0886 136.386 83.0879 136.386 83.0871C136.386 83.0864 136.386 83.0857 136.386 83.085C136.386 83.0843 136.386 83.0836 136.386 83.0829C136.386 83.0821 136.386 83.0814 136.386 83.0807C136.386 83.08 136.386 83.0793 136.386 83.0786C136.386 83.0778 136.386 83.0771 136.386 83.0764C136.386 83.0757 136.386 83.075 136.386 83.0743C136.386 83.0735 136.386 83.0728 136.386 83.0721C136.386 83.0714 136.386 83.0707 136.386 83.07C136.386 83.0692 136.386 83.0685 136.386 83.0678C136.386 83.0671 136.386 83.0664 136.386 83.0657C136.386 83.0649 136.386 83.0642 136.386 83.0635C136.386 83.0628 136.386 83.0621 136.386 83.0614C136.386 83.0606 136.386 83.0599 136.386 83.0592C136.386 83.0585 136.386 83.0578 136.386 83.0571C136.386 83.0564 136.386 83.0556 136.386 83.0549C136.386 83.0542 136.386 83.0535 136.386 83.0528C136.386 83.0521 136.386 83.0513 136.386 83.0506C136.386 83.0499 136.386 83.0492 136.386 83.0485C136.386 83.0478 136.386 83.047 136.386 83.0463C136.386 83.0456 136.386 83.0449 136.386 83.0442C136.386 83.0435 136.386 83.0427 136.386 83.042C136.386 83.0413 136.386 83.0406 136.386 83.0399C136.386 83.0392 136.386 83.0384 136.386 83.0377C136.386 83.037 136.386 83.0363 136.386 83.0356C136.386 83.0349 136.386 83.0342 136.386 83.0334C136.386 83.0327 136.386 83.032 136.386 83.0313C136.386 83.0306 136.386 83.0299 136.386 83.0291C136.386 83.0284 136.386 83.0277 136.386 83.027C136.386 83.0263 136.386 83.0256 136.386 83.0248C136.386 83.0241 136.386 83.0234 136.386 83.0227C136.386 83.022 136.386 83.0213 136.386 83.0205C136.386 83.0198 136.386 83.0191 136.386 83.0184C136.386 83.0177 136.386 83.017 136.386 83.0163C136.386 83.0155 136.386 83.0148 136.386 83.0141C136.386 83.0134 136.386 83.0127 136.386 83.012C136.386 83.0112 136.386 83.0105 136.386 83.0098C136.386 83.0091 136.386 83.0084 136.386 83.0077C136.386 83.0069 136.386 83.0062 136.386 83.0055C136.386 83.0048 136.386 83.0041 136.386 83.0034C136.386 83.0026 136.386 83.0019 136.386 83.0012C136.386 83.0005 136.386 82.9998 136.386 82.9991C136.386 82.9983 136.386 82.9976 136.386 82.9969C136.386 82.9962 136.386 82.9955 136.386 82.9948C136.386 82.994 136.386 82.9933 136.386 82.9926C136.386 82.9919 136.386 82.9912 136.386 82.9905C136.386 82.9897 136.386 82.989 136.386 82.9883C136.386 82.9876 136.386 82.9869 136.386 82.9862C136.386 82.9855 136.386 82.9847 136.386 82.984C136.386 82.9833 136.386 82.9826 136.386 82.9819C136.386 82.9812 136.386 82.9804 136.386 82.9797C136.386 82.979 136.386 82.9783 136.386 82.9776C136.386 82.9769 136.386 82.9761 136.386 82.9754C136.386 82.9747 136.386 82.974 136.386 82.9733C136.386 82.9726 136.386 82.9718 136.386 82.9711C136.386 82.9704 136.386 82.9697 136.386 82.969C136.386 82.9683 136.386 82.9676 136.386 82.9668C136.386 82.9661 136.386 82.9654 136.386 82.9647C136.386 82.964 136.386 82.9633 136.386 82.9625C136.386 82.9618 136.386 82.9611 136.386 82.9604C136.386 82.9597 136.386 82.959 136.386 82.9582C136.386 82.9575 136.386 82.9568 136.386 82.9561C136.386 82.9554 136.386 82.9547 136.386 82.9539C136.386 82.9532 136.386 82.9525 136.386 82.9518C136.386 82.9511 136.386 82.9504 136.386 82.9496C136.386 82.9489 136.386 82.9482 136.386 82.9475C136.386 82.9468 136.386 82.9461 136.386 82.9454C136.386 82.9446 136.386 82.9439 136.386 82.9432C136.386 82.9425 136.386 82.9418 136.386 82.9411C136.386 82.9403 136.386 82.9396 136.386 82.9389C136.386 82.9382 136.386 82.9375 136.386 82.9368C136.386 82.936 136.386 82.9353 136.386 82.9346C136.386 82.9339 136.386 82.9332 136.386 82.9325C136.386 82.9317 136.386 82.931 136.386 82.9303C136.386 82.9296 136.386 82.9289 136.386 82.9282C136.386 82.9274 136.386 82.9267 136.386 82.926C136.386 82.9253 136.386 82.9246 136.386 82.9239C136.386 82.9231 136.386 82.9224 136.386 82.9217C136.386 82.921 136.386 82.9203 136.386 82.9196C136.386 82.9189 136.386 82.9181 136.386 82.9174C136.386 82.9167 136.386 82.916 136.386 82.9153C136.386 82.9146 136.386 82.9138 136.386 82.9131C136.386 82.9124 136.386 82.9117 136.386 82.911C136.386 82.9103 136.386 82.9095 136.386 82.9088C136.386 82.9081 136.386 82.9074 136.386 82.9067C136.386 82.906 136.386 82.9052 136.386 82.9045C136.386 82.9038 136.386 82.9031 136.386 82.9024C136.386 82.9017 136.386 82.901 136.386 82.9002C136.386 82.8995 136.386 82.8988 136.386 82.8981C136.386 82.8974 136.386 82.8967 136.386 82.8959C136.386 82.8952 136.386 82.8945 136.386 82.8938C136.386 82.8931 136.386 82.8924 136.386 82.8916C136.386 82.8909 136.386 82.8902 136.386 82.8895C136.386 82.8888 136.386 82.8881 136.386 82.8873C136.386 82.8866 136.386 82.8859 136.386 82.8852C136.386 82.8845 136.386 82.8838 136.386 82.883C136.386 82.8823 136.386 82.8816 136.386 82.8809C136.386 82.8802 136.386 82.8795 136.386 82.8787C136.386 82.878 136.386 82.8773 136.386 82.8766C136.386 82.8759 136.386 82.8752 136.386 82.8745C136.386 82.8737 136.386 82.873 136.386 82.8723C136.386 82.8716 136.386 82.8709 136.386 82.8702C136.386 82.8694 136.386 82.8687 136.386 82.868C136.386 82.8673 136.386 82.8666 136.386 82.8659C136.386 82.8651 136.386 82.8644 136.386 82.8637C136.386 82.863 136.386 82.8623 136.386 82.8616C136.386 82.8608 136.386 82.8601 136.386 82.8594C136.386 82.8587 136.386 82.858 136.386 82.8573C136.386 82.8565 136.386 82.8558 136.386 82.8551C136.386 82.8544 136.386 82.8537 136.386 82.853C136.386 82.8523 136.386 82.8515 136.386 82.8508C136.386 82.8501 136.386 82.8494 136.386 82.8487C136.386 82.848 136.386 82.8472 136.386 82.8465C136.386 82.8458 136.386 82.8451 136.386 82.8444C136.386 82.8437 136.386 82.8429 136.386 82.8422C136.386 82.8415 136.386 82.8408 136.386 82.8401C136.386 82.8394 136.386 82.8386 136.386 82.8379C136.386 82.8372 136.386 82.8365 136.386 82.8358C136.386 82.8351 136.386 82.8343 136.386 82.8336C136.386 82.8329 136.386 82.8322 136.386 82.8315C136.386 82.8308 136.386 82.8301 136.386 82.8293C136.386 82.8286 136.386 82.8279 136.386 82.8272C136.386 82.8265 136.386 82.8258 136.386 82.825C136.386 82.8243 136.386 82.8236 136.386 82.8229C136.386 82.8222 136.386 82.8215 136.386 82.8207C136.386 82.82 136.386 82.8193 136.386 82.8186C136.386 82.8179 136.386 82.8172 136.386 82.8164C136.386 82.8157 136.386 82.815 136.386 82.8143C136.386 82.8136 136.386 82.8129 136.386 82.8121C136.386 82.8114 136.386 82.8107 136.386 82.81C136.386 82.8093 136.386 82.8086 136.386 82.8078C136.386 82.8071 136.386 82.8064 136.386 82.8057C136.386 82.805 136.386 82.8043 136.386 82.8036C136.386 82.8028 136.386 82.8021 136.386 82.8014C136.386 82.8007 136.386 82.8 136.386 82.7993C136.386 82.7985 136.386 82.7978 136.386 82.7971C136.386 82.7964 136.386 82.7957 136.386 82.795C136.386 82.7942 136.386 82.7935 136.386 82.7928C136.386 82.7921 136.386 82.7914 136.386 82.7907C136.386 82.7899 136.386 82.7892 136.386 82.7885C136.386 82.7878 136.386 82.7871 136.386 82.7864C136.386 82.7856 136.386 82.7849 136.386 82.7842C136.386 82.7835 136.386 82.7828 136.386 82.7821C136.386 82.7814 136.386 82.7806 136.386 82.7799C136.386 82.7792 136.386 82.7785 136.386 82.7778C136.386 82.7771 136.386 82.7763 136.386 82.7756C136.386 82.7749 136.386 82.7742 136.386 82.7735C136.386 82.7728 136.386 82.772 136.386 82.7713C136.386 82.7706 136.386 82.7699 136.386 82.7692C136.386 82.7685 136.386 82.7677 136.386 82.767C136.386 82.7663 136.386 82.7656 136.386 82.7649C136.386 82.7642 136.386 82.7635 136.386 82.7627C136.386 82.762 136.386 82.7613 136.386 82.7606C136.386 82.7599 136.386 82.7592 136.386 82.7584C136.386 82.7577 136.386 82.757 136.386 82.7563C136.386 82.7556 136.386 82.7549 136.386 82.7541C136.386 82.7534 136.386 82.7527 136.386 82.752C136.386 82.7513 136.386 82.7506 136.386 82.7498C136.386 82.7491 136.386 82.7484 136.386 82.7477C136.386 82.747 136.386 82.7463 136.386 82.7455C136.386 82.7448 136.386 82.7441 136.386 82.7434C136.386 82.7427 136.386 82.742 136.386 82.7412C136.386 82.7405 136.386 82.7398 136.386 82.7391C136.386 82.7384 136.386 82.7377 136.386 82.737C136.386 82.7362 136.386 82.7355 136.386 82.7348C136.386 82.7341 136.386 82.7334 136.386 82.7327C136.386 82.7319 136.386 82.7312 136.386 82.7305C136.386 82.7298 136.386 82.7291 136.386 82.7284C136.386 82.7276 136.386 82.7269 136.386 82.7262C136.386 82.7255 136.386 82.7248 136.386 82.7241C136.386 82.7233 136.386 82.7226 136.386 82.7219C136.386 82.7212 136.386 82.7205 136.386 82.7198C136.386 82.719 136.386 82.7183 136.386 82.7176C136.386 82.7169 136.386 82.7162 136.386 82.7155C136.386 82.7148 136.386 82.714 136.386 82.7133C136.386 82.7126 136.386 82.7119 136.386 82.7112C136.386 82.7105 136.386 82.7097 136.386 82.709C136.386 82.7083 136.386 82.7076 136.386 82.7069C136.386 82.7062 136.386 82.7054 136.386 82.7047C136.386 82.704 136.386 82.7033 136.386 82.7026C136.386 82.7019 136.386 82.7011 136.386 82.7004C136.386 82.6997 136.386 82.699 136.386 82.6983C136.386 82.6976 136.386 82.6968 136.386 82.6961C136.386 82.6954 136.386 82.6947 136.386 82.694C136.386 82.6933 136.386 82.6926 136.386 82.6918C136.386 82.6911 136.386 82.6904 136.386 82.6897C136.386 82.689 136.386 82.6883 136.386 82.6875C136.386 82.6868 136.386 82.6861 136.386 82.6854C136.386 82.6847 136.386 82.684 136.386 82.6832C136.386 82.6825 136.386 82.6818 136.386 82.6811C136.386 82.6804 136.386 82.6797 136.386 82.6789C136.386 82.6782 136.386 82.6775 136.386 82.6768C136.386 82.6761 136.386 82.6754 136.386 82.6746C136.386 82.6739 136.386 82.6732 136.386 82.6725C136.386 82.6718 136.386 82.6711 136.386 82.6703C136.386 82.6696 136.386 82.6689 136.386 82.6682C136.386 82.6675 136.386 82.6668 136.386 82.6661C136.386 82.6653 136.386 82.6646 136.386 82.6639C136.386 82.6632 136.386 82.6625 136.386 82.6618C136.386 82.661 136.386 82.6603 136.386 82.6596C136.386 82.6589 136.386 82.6582 136.386 82.6575C136.386 82.6567 136.386 82.656 136.386 82.6553C136.386 82.6546 136.386 82.6539 136.386 82.6532C136.386 82.6524 136.386 82.6517 136.386 82.651C136.386 82.6503 136.386 82.6496 136.386 82.6489C136.386 82.6482 136.386 82.6474 136.386 82.6467C136.386 82.646 136.386 82.6453 136.386 82.6446C136.386 82.6439 136.386 82.6431 136.386 82.6424C136.386 82.6417 136.386 82.641 136.386 82.6403C136.386 82.6396 136.386 82.6388 136.386 82.6381C136.386 82.6374 136.386 82.6367 136.386 82.636C136.386 82.6353 136.386 82.6345 136.386 82.6338C136.386 82.6331 136.386 82.6324 136.386 82.6317C136.386 82.631 136.386 82.6302 136.386 82.6295C136.386 82.6288 136.386 82.6281 136.386 82.6274C136.386 82.6267 136.386 82.6259 136.386 82.6252C136.386 82.6245 136.386 82.6238 136.386 82.6231C136.386 82.6224 136.386 82.6217 136.386 82.6209C136.386 82.6202 136.386 82.6195 136.386 82.6188C136.386 82.6181 136.386 82.6174 136.386 82.6166C136.386 82.6159 136.386 82.6152 136.386 82.6145C136.386 82.6138 136.386 82.6131 136.386 82.6123C136.386 82.6116 136.386 82.6109 136.386 82.6102C136.386 82.6095 136.386 82.6088 136.386 82.608C136.386 82.6073 136.386 82.6066 136.386 82.6059C136.386 82.6052 136.386 82.6045 136.386 82.6037C136.386 82.603 136.386 82.6023 136.386 82.6016C136.386 82.6009 136.386 82.6002 136.386 82.5995C136.386 82.5987 136.386 82.598 136.386 82.5973C136.386 82.5966 136.386 82.5959 136.386 82.5952C136.386 82.5944 136.386 82.5937 136.386 82.593C136.386 82.5923 136.386 82.5916 136.386 82.5909C136.386 82.5901 136.386 82.5894 136.386 82.5887C136.386 82.588 136.386 82.5873 136.386 82.5866C136.386 82.5858 136.386 82.5851 136.386 82.5844C136.386 82.5837 136.386 82.583 136.386 82.5823C136.386 82.5816 136.386 82.5808 136.386 82.5801C136.386 82.5794 136.386 82.5787 136.386 82.578C136.386 82.5773 136.386 82.5765 136.386 82.5758C136.386 82.5751 136.386 82.5744 136.386 82.5737C136.386 82.573 136.386 82.5722 136.386 82.5715C136.386 82.5708 136.386 82.5701 136.386 82.5694C136.386 82.5687 136.386 82.5679 136.386 82.5672C136.386 82.5665 136.386 82.5658 136.386 82.5651C136.386 82.5644 136.386 82.5636 136.386 82.5629C136.386 82.5622 136.386 82.5615 136.386 82.5608C136.386 82.5601 136.386 82.5593 136.386 82.5586C136.386 82.5579 136.386 82.5572 136.386 82.5565C136.386 82.5558 136.386 82.555 136.386 82.5543C136.386 82.5536 136.386 82.5529 136.386 82.5522C136.386 82.5515 136.386 82.5508 136.386 82.55C136.386 82.5493 136.386 82.5486 136.386 82.5479C136.386 82.5472 136.386 82.5465 136.386 82.5457C136.386 82.545 136.386 82.5443 136.386 82.5436C136.386 82.5429 136.386 82.5422 136.386 82.5414C136.386 82.5407 136.386 82.54 136.386 82.5393C136.386 82.5386 136.386 82.5379 136.386 82.5371C136.386 82.5364 136.386 82.5357 136.386 82.535H134.386Z" fill="black" mask="url(#path-4-outside-1_2561_43)"/>
</g>
<defs>
<filter id="filter0_bd_2561_43" x="124.236" y="56.1499" width="33.795" height="49.4001" filterUnits="userSpaceOnUse" color-interpolation-filters="sRGB">
<feFlood flood-opacity="0" result="BackgroundImageFix"/>
<feGaussianBlur in="BackgroundImageFix" stdDeviation="2"/>
<feComposite in2="SourceAlpha" operator="in" result="effect1_backgroundBlur_2561_43"/>
<feColorMatrix in="SourceAlpha" type="matrix" values="0 0 0 0 0 0 0 0 0 0 0 0 0 0 0 0 0 0 127 0" result="hardAlpha"/>
<feOffset dy="4"/>
<feGaussianBlur stdDeviation="2"/>
<feComposite in2="hardAlpha" operator="out"/>
<feColorMatrix type="matrix" values="0 0 0 0 0 0 0 0 0 0 0 0 0 0 0 0 0 0 0.25 0"/>
<feBlend mode="normal" in2="effect1_backgroundBlur_2561_43" result="effect2_dropShadow_2561_43"/>
<feBlend mode="normal" in="SourceGraphic" in2="effect2_dropShadow_2561_43" result="shape"/>
</filter>
</defs>
</svg>
